<?xml version="1.0" standalone="no"?>
<!DOCTYPE svg PUBLIC "-//W3C//DTD SVG 20010904//EN"
 "http://www.w3.org/TR/2001/REC-SVG-20010904/DTD/svg10.dtd">
<svg version="1.0" xmlns="http://www.w3.org/2000/svg"
 width="200.000000pt" height="200.000000pt" viewBox="0 0 200.000000 200.000000"
 preserveAspectRatio="xMidYMid meet">
<metadata>
Created by potrace 1.11, written by Peter Selinger 2001-2013
</metadata>
<g transform="translate(0.000000,200.000000) scale(0.100000,-0.100000)"
fill="#000000" stroke="none">
<path d="M955 1943 c-24 -7 -723 -410 -749 -432 -10 -9 -27 -33 -37 -53 -18
-35 -19 -65 -19 -468 0 -462 1 -471 51 -516 36 -32 708 -416 755 -432 31 -10
51 -11 80 -3 43 12 725 400 762 435 52 47 52 43 52 518 0 418 -1 445 -19 474
-28 46 -52 62 -429 278 -345 198 -386 216 -447 199z"/>
</g>
</svg>
