<?xml version="1.0" encoding="UTF-8"?>
<svg width="427px" height="227px" viewBox="0 0 427 227" version="1.1" xmlns="http://www.w3.org/2000/svg" xmlns:xlink="http://www.w3.org/1999/xlink">
    <!-- Generator: sketchtool 49.3 (51167) - http://www.bohemiancoding.com/sketch -->
    <title>EE786939-77C3-48BA-8A8C-FD93BD1CB2DC</title>
    <desc>Created with sketchtool.</desc>
    <defs>
        <polygon id="path-1" points="0 226.539 426.941 226.539 426.941 -2.84e-14 0 -2.84e-14"></polygon>
    </defs>
    <g id="Esanjo-Way" stroke="none" stroke-width="1" fill="none" fill-rule="evenodd">
        <g id="Esanjo-Way---Custom-Business-Cards" transform="translate(-99.000000, -87.000000)">
            <g id="Page-1" transform="translate(99.000000, 87.000000)">
                <path d="M426.941,115.7099 L0,115.7099 L0,102.8539 C0,95.7309 5.774,89.9569 12.896,89.9569 L414.045,89.9569 C421.167,89.9569 426.941,95.7309 426.941,102.8539 L426.941,115.7099 Z" id="Fill-1" fill="#D2DCD6"></path>
                <polygon id="Fill-3" fill="#A9C3CF" points="42.9205 94.7265 54.3655 109.5095 78.2105 109.5095 69.6265 94.2485"></polygon>
                <mask id="mask-2" fill="white">
                    <use xlink:href="#path-1"></use>
                </mask>
                <g id="Clip-6"></g>
                <polygon id="Fill-5" fill="#A9C3CF" mask="url(#mask-2)" points="0 206.916 426.941 206.916 426.941 115.71 0 115.71"></polygon>
                <path d="M62.5567,99.8437 C62.5567,99.8437 51.9147,96.8867 54.8507,100.5007 C57.7857,104.1147 61.0887,108.3847 61.0887,108.3847 L62.5567,99.8437 Z" id="Fill-7" fill="#FDD4AB" mask="url(#mask-2)"></path>
                <path d="M199.0235,52.124 C199.0235,52.124 206.3355,52.283 209.1975,56.337 C212.0585,60.39 216.1915,68.497 216.1915,68.497 L212.3765,80.074 L204.7545,73.687 C204.7545,73.687 193.6185,84.52 203.4745,101.546 C203.4745,101.546 179.6295,113.166 166.2765,105.536 C166.2765,105.536 165.1805,83.917 175.9025,68.497 L168.3945,78.061 L159.2825,73.687 C159.2825,73.687 164.0515,54.171 173.2715,53.942 C182.4915,53.714 199.0235,52.124 199.0235,52.124" id="Fill-8" fill="#C34158" mask="url(#mask-2)"></path>
                <path d="M196.1622,43.5771 C196.1622,43.5771 194.8912,52.1241 199.0232,52.1241 C199.0232,52.1241 197.9642,60.1661 191.0752,58.4821 C184.1872,56.7991 186.2762,49.7761 187.5782,43.2221 L196.1622,43.5771 Z" id="Fill-9" fill="#FDD4AB" mask="url(#mask-2)"></path>
                <path d="M128.7022,78.0615 L59.1942,78.0615 C54.7352,78.0615 51.0862,74.4135 51.0862,69.9545 L51.0862,37.9295 C51.0862,33.4705 54.7352,29.8225 59.1942,29.8225 L128.7022,29.8225 C133.1612,29.8225 136.8092,33.4705 136.8092,37.9295 L136.8092,69.9545 C136.8092,74.4135 133.1612,78.0615 128.7022,78.0615" id="Fill-10" fill="#A9C3CF" mask="url(#mask-2)"></path>
                <polygon id="Fill-11" fill="#A9C3CF" mask="url(#mask-2)" points="67.033 92.183 120.813 92.183 120.813 80.42 67.033 80.42"></polygon>
                <path d="M70.0919,158.9765 L75.4379,201.5505 L84.9259,201.5505 L86.7299,153.1965 C86.7299,153.1965 71.8989,151.6195 70.0919,158.9765" id="Fill-12" fill="#B7B33E" mask="url(#mask-2)"></path>
                <path d="M117.6627,158.9765 L112.3177,201.5505 L102.8287,201.5505 L101.0247,153.1965 C101.0247,153.1965 115.8567,151.6195 117.6627,158.9765" id="Fill-13" fill="#B7B33E" mask="url(#mask-2)"></path>
                <path d="M49.7198,82.831 C47.8268,82.831 46.2928,81.296 46.2928,79.403 L46.2928,28.48 C46.2928,26.588 47.8268,25.053 49.7198,25.053 L138.1258,25.053 C140.0188,25.053 141.5528,26.588 141.5528,28.48 L141.5528,79.403 C141.5528,81.296 140.0188,82.831 138.1258,82.831 L49.7198,82.831 Z" id="Fill-14" fill="#A9C3CF" mask="url(#mask-2)"></path>
                <path d="M134.1227,78.0615 L53.7737,78.0615 C52.2957,78.0615 51.0867,76.8525 51.0867,75.3745 L51.0867,32.5085 C51.0867,31.0315 52.2957,29.8225 53.7737,29.8225 L134.1227,29.8225 C135.6007,29.8225 136.8097,31.0315 136.8097,32.5085 L136.8097,75.3745 C136.8097,76.8525 135.6007,78.0615 134.1227,78.0615" id="Fill-15" fill="#F8F5F0" mask="url(#mask-2)"></path>
                <polygon id="Fill-16" fill="#FFFFFF" mask="url(#mask-2)" points="67.401 66.833 112.076 66.833 112.076 38.055 67.401 38.055"></polygon>
                <path d="M94.0919,73.6874 C91.0749,73.6874 88.6079,71.2194 88.6079,68.2034 L88.6079,61.8204 C88.6079,58.8044 91.0749,56.3364 94.0919,56.3364 C97.1079,56.3364 99.5759,58.8044 99.5759,61.8204 L99.5759,68.2034 C99.5759,71.2194 97.1079,73.6874 94.0919,73.6874" id="Fill-17" fill="#FDD4AB" mask="url(#mask-2)"></path>
                <path d="M98.4962,130.3124 L88.2302,130.3124 C75.8182,130.3124 65.6632,121.2214 65.6632,110.1094 L65.6632,87.6884 C65.6632,76.5774 67.0712,67.4854 88.2302,67.4854 L98.4962,67.4854 C117.4952,67.4854 121.0642,76.5774 121.0642,87.6884 L121.0642,110.1094 C121.0642,121.2214 110.9092,130.3124 98.4962,130.3124" id="Fill-18" fill="#F18D65" mask="url(#mask-2)"></path>
                <path d="M96.881,153.1962 L91.906,153.1962 C81.152,153.1962 67.033,144.3982 67.033,133.6442 L72.354,102.4832 C72.354,91.7292 81.152,82.9302 91.906,82.9302 L96.881,82.9302 C107.635,82.9302 116.433,91.7292 116.433,102.4832 L122.897,133.6442 C122.897,144.3982 107.635,153.1962 96.881,153.1962" id="Fill-19" fill="#293E96" mask="url(#mask-2)"></path>
                <path d="M75.4376,201.5507 C75.4376,201.5507 76.4156,204.5847 70.0916,206.9157 C63.7686,209.2457 63.8405818,212.2797 63.8405818,212.2797 L84.9266,212.2797 L84.9266,201.5507 L75.4376,201.5507 Z" id="Fill-20" fill="#293E96" mask="url(#mask-2)"></path>
                <path d="M111.8946,200.7978 C111.8946,200.7978 110.9166,203.8328 117.2406,206.1628 C123.5636,208.4928 123.491618,211.5268 123.491618,211.5268 L102.4056,211.5268 L102.4056,200.7978 L111.8946,200.7978 Z" id="Fill-21" fill="#293E96" mask="url(#mask-2)"></path>
                <path d="M131.3844,203.9345 L127.5694,203.9345 L127.5694,198.2115 C127.5694,194.7935 124.7874,192.0125 121.3694,192.0125 L65.8114,192.0125 C62.3934,192.0125 59.6124,194.7935 59.6124,198.2115 L59.6124,203.9345 L55.7964,203.9345 L55.7964,198.2115 C55.7964,192.6905 60.2894,188.1975 65.8114,188.1975 L121.3694,188.1975 C126.8914,188.1975 131.3844,192.6905 131.3844,198.2115 L131.3844,203.9345 Z" id="Fill-22" fill="#E1767B" mask="url(#mask-2)"></path>
                <path d="M60.0885,206.916 C60.0885,209.879 57.6865,212.28 54.7235,212.28 C51.7605,212.28 49.3585,209.879 49.3585,206.916 C49.3585,203.952 51.7605,201.551 54.7235,201.551 C57.6865,201.551 60.0885,203.952 60.0885,206.916" id="Fill-23" fill="#E1767B" mask="url(#mask-2)"></path>
                <path d="M136.8092,206.916 C136.8092,209.879 134.4072,212.28 131.4442,212.28 C128.4812,212.28 126.0792,209.879 126.0792,206.916 C126.0792,203.952 128.4812,201.551 131.4442,201.551 C134.4072,201.551 136.8092,203.952 136.8092,206.916" id="Fill-24" fill="#E1767B" mask="url(#mask-2)"></path>
                <path d="M93.8482,192.5878 L93.4352,192.5878 C91.6362,192.5878 90.1632,191.1148 90.1632,189.3168 L90.1632,169.1248 C90.1632,167.3258 91.6362,165.8538 93.4352,165.8538 L93.8482,165.8538 C95.6482,165.8538 97.1202,167.3258 97.1202,169.1248 L97.1202,189.3168 C97.1202,191.1148 95.6482,192.5878 93.8482,192.5878" id="Fill-25" fill="#E1767B" mask="url(#mask-2)"></path>
                <path d="M133.628,95.2753 C133.573,95.2753 133.518,95.2703 133.462,95.2603 C133.015,95.1783 132.727,94.7893 132.818,94.3883 L137.393,74.3153 C137.483,73.9153 137.919,73.6563 138.367,73.7383 C138.813,73.8203 139.102,74.2113 139.01,74.6103 L134.436,94.6843 C134.357,95.0343 134.012,95.2753 133.628,95.2753" id="Fill-26" fill="#4E4031" mask="url(#mask-2)"></path>
                <path d="M65.6627,87.6884 L62.1317,103.0474 C62.1317,103.0474 59.1037,113.3984 67.3737,118.3084 C67.3737,118.3084 68.4017,99.0224 65.6627,87.6884" id="Fill-27" fill="#F18D65" mask="url(#mask-2)"></path>
                <path d="M121.0641,87.6884 C121.0641,87.6884 128.4121,117.2064 119.6541,118.6674 L116.8661,81.1874 L121.0641,87.6884 Z" id="Fill-28" fill="#F18D65" mask="url(#mask-2)"></path>
                <polygon id="Fill-29" fill="#D2DCD6" mask="url(#mask-2)" points="56.309 34.748 130.957 34.748 130.957 32.251 56.309 32.251"></polygon>
                <path d="M122.7379,99.1865 L131.1779,88.6745 C131.1779,88.6745 139.2509,86.7035 139.9849,91.9585 L121.8029,118.3085 L122.7379,105.0995 L122.7379,99.1865 Z" id="Fill-30" fill="#F18D65" mask="url(#mask-2)"></path>
                <path d="M131.1778,88.6747 C131.1778,88.6747 137.0488,82.4327 136.3148,79.8047 C136.3148,79.8047 149.1588,76.1917 139.9848,91.9587 L131.1778,88.6747 Z" id="Fill-31" fill="#FDD4AB" mask="url(#mask-2)"></path>
                <path d="M131.1778,88.6747 C131.1778,88.6747 130.8108,81.4467 136.3148,79.8047 C136.3148,79.8047 139.0678,84.0747 131.1778,88.6747" id="Fill-32" fill="#FDD4AB" mask="url(#mask-2)"></path>
                <path d="M105.6642,50.4462 C107.5952,56.0752 104.5962,62.2042 98.9672,64.1342 C93.3372,66.0652 87.2082,63.0662 85.2782,57.4372 C83.3472,51.8072 93.3912,36.9612 99.0202,35.0302 C104.6502,33.0992 103.7332,44.8162 105.6642,50.4462" id="Fill-33" fill="#FDD4AB" mask="url(#mask-2)"></path>
                <path d="M97.5509,30.7451 C97.5509,30.7451 96.9469,33.9771 91.5459,35.5771 C86.1449,37.1781 77.1059,39.4281 82.6849,55.7581 L85.5379,64.1061 C85.5379,64.1061 94.7209,66.7791 97.7769,60.6651 C99.9399,56.3371 99.5189,55.6061 99.5759,51.8061 C99.6329,48.0051 96.0229,43.3691 102.5549,41.3811 C109.0869,39.3921 97.5509,30.7451 97.5509,30.7451" id="Fill-34" fill="#9D3929" mask="url(#mask-2)"></path>
                <path d="M187.5782,43.2216 C187.5782,43.2216 196.1622,50.5336 200.2952,43.2216 C204.4282,35.9096 200.2952,21.6026 200.2952,21.6026 L184.0812,20.0136 L187.5782,43.2216 Z" id="Fill-35" fill="#FDD4AB" mask="url(#mask-2)"></path>
                <path d="M228.5909,101.8886 C228.5909,101.8886 240.0359,103.3106 238.7649,111.5766 C237.4929,119.8426 227.3909,147.1486 227.3909,147.1486 L205.2929,108.9756 C205.2929,108.9756 216.5099,102.6916 228.5909,101.8886" id="Fill-36" fill="#FAB795" mask="url(#mask-2)"></path>
                <path d="M170.0919,56.3369 L170.0919,47.7169 C170.0919,40.9959 176.4509,40.9959 177.7219,36.5449 C178.9939,32.0949 176.1329,19.3779 184.0809,16.8339 C192.0289,14.2909 202.5209,21.2849 204.7459,20.0129 C204.7459,20.0129 205.1029,25.3249 201.1099,25.0529 C197.1159,24.7819 190.1219,23.5099 190.1219,27.0069 C190.1219,30.5049 189.8119,36.2279 187.4239,39.7249 C187.4239,39.7249 189.7839,47.3719 188.6679,49.8719 C187.5509,52.3719 183.1269,56.5749 184.0809,61.6619 C185.0349,66.7489 182.4909,70.8819 178.9939,70.8819 C175.4969,70.8819 174.8609,63.5929 171.9999,65.0119 C169.1379,66.4309 166.5949,60.5489 170.0919,56.3369" id="Fill-37" fill="#9D3929" mask="url(#mask-2)"></path>
                <path d="M159.2823,73.6874 C159.2823,73.6874 150.0623,102.0394 148.1553,106.4904 C146.2473,110.9404 137.0273,107.4434 134.4843,109.5094 C131.9403,111.5764 149.1083,117.9354 154.1953,111.8944 C159.2823,105.8534 168.3943,78.0614 168.3943,78.0614 L159.2823,73.6874 Z" id="Fill-38" fill="#FDD4AB" mask="url(#mask-2)"></path>
                <path d="M212.3766,80.0742 C212.3766,80.0742 224.7756,88.8712 227.0016,84.9632 C229.2266,81.0552 236.5396,57.0522 239.4006,56.3372 C242.2616,55.6212 257.5226,53.3092 255.6146,50.9682 C253.7076,48.6272 242.5796,51.8652 241.6266,49.7692 C240.6726,47.6732 242.2616,41.4012 237.4926,47.7172 C232.7246,54.0312 224.0846,63.9252 220.9606,73.6872 L216.1916,68.4972 C216.1916,68.4972 212.0586,72.7342 212.3766,80.0742" id="Fill-39" fill="#FDD4AB" mask="url(#mask-2)"></path>
                <path d="M221.9146,183.1103 C221.9146,183.1103 234.6316,190.4223 232.7246,192.9663 C230.8166,195.5093 224.4226,200.2793 212.3586,188.0393 C212.3586,188.0393 208.5616,186.2903 209.5156,176.7523 C210.4686,167.2143 211.3876,147.5033 212.3586,136.6933 C213.3306,125.8833 192.6276,124.2943 192.6276,124.2943 C192.6276,124.2943 191.5196,114.1203 196.5436,109.5093 C201.5666,104.9003 216.8276,113.1603 221.9146,114.4353 C227.0016,115.7103 230.8166,130.5943 226.3656,153.1963 C221.9146,175.7983 221.9146,183.1103 221.9146,183.1103" id="Fill-40" fill="#FDD4AB" mask="url(#mask-2)"></path>
                <path d="M167.1617,92.1826 C167.1617,92.1826 186.6217,99.3966 200.4537,94.6766 C200.4537,94.6766 225.4117,98.2406 228.5907,101.8886 C228.5907,101.8886 215.8497,102.6366 205.2927,108.9756 C199.7467,112.3046 194.8047,117.1766 192.6277,124.2936 C192.6277,124.2936 166.9127,123.3396 165.0047,111.8946 C163.0977,100.4496 167.1617,92.1826 167.1617,92.1826" id="Fill-41" fill="#B7B33E" mask="url(#mask-2)"></path>
                <path d="M253.2247,29.4091 L249.4027,29.4091 C247.6707,29.4091 246.0707,30.3331 245.2047,31.8331 L243.2937,35.1421 C242.4277,36.6421 242.4277,38.4901 243.2937,39.9901 L245.2047,43.3011 C246.0707,44.8001 247.6707,45.7241 249.4027,45.7241 L253.2247,45.7241 C254.9557,45.7241 256.5567,44.8001 257.4227,43.3011 L259.3337,39.9901 C260.1997,38.4901 260.1997,36.6421 259.3337,35.1421 L257.4227,31.8331 C256.5567,30.3331 254.9557,29.4091 253.2247,29.4091" id="Fill-42" fill="#5E2867" mask="url(#mask-2)"></path>
                <path d="M176.7501,144.4374 L133.8651,144.4374 C132.8161,144.4374 131.9581,143.5794 131.9581,142.5304 L131.9581,128.4984 C131.9581,127.4484 132.8161,126.5894 133.8651,126.5894 L176.7501,126.5894 C177.7991,126.5894 178.6581,127.4484 178.6581,128.4984 L178.6581,142.5304 C178.6581,143.5794 177.7991,144.4374 176.7501,144.4374" id="Fill-44" fill="#D2DCD6" mask="url(#mask-2)"></path>
                <path d="M176.7501,165.6122 L133.8651,165.6122 C132.8161,165.6122 131.9581,164.7542 131.9581,163.7042 L131.9581,149.6722 C131.9581,148.6232 132.8161,147.7642 133.8651,147.7642 L176.7501,147.7642 C177.7991,147.7642 178.6581,148.6232 178.6581,149.6722 L178.6581,163.7042 C178.6581,164.7542 177.7991,165.6122 176.7501,165.6122" id="Fill-45" fill="#D2DCD6" mask="url(#mask-2)"></path>
                <path d="M54.4015,144.4374 L11.5165,144.4374 C10.4675,144.4374 9.6095,143.5794 9.6095,142.5304 L9.6095,128.4984 C9.6095,127.4484 10.4675,126.5894 11.5165,126.5894 L54.4015,126.5894 C55.4505,126.5894 56.3095,127.4484 56.3095,128.4984 L56.3095,142.5304 C56.3095,143.5794 55.4505,144.4374 54.4015,144.4374" id="Fill-46" fill="#D2DCD6" mask="url(#mask-2)"></path>
                <path d="M54.4015,165.6122 L11.5165,165.6122 C10.4675,165.6122 9.6095,164.7542 9.6095,163.7042 L9.6095,149.6722 C9.6095,148.6232 10.4675,147.7642 11.5165,147.7642 L54.4015,147.7642 C55.4505,147.7642 56.3095,148.6232 56.3095,149.6722 L56.3095,163.7042 C56.3095,164.7542 55.4505,165.6122 54.4015,165.6122" id="Fill-47" fill="#D2DCD6" mask="url(#mask-2)"></path>
                <path d="M43.3482,131.9238 L22.5692,131.9238 C21.8482,131.9238 21.2582,131.3338 21.2582,130.6118 C21.2582,129.8918 21.8482,129.3008 22.5692,129.3008 L43.3482,129.3008 C44.0692,129.3008 44.6602,129.8918 44.6602,130.6118 C44.6602,131.3338 44.0692,131.9238 43.3482,131.9238" id="Fill-48" fill="#293E96" mask="url(#mask-2)"></path>
                <path d="M43.3482,152.5849 L22.5692,152.5849 C21.8482,152.5849 21.2582,151.9939 21.2582,151.2729 C21.2582,150.5519 21.8482,149.9619 22.5692,149.9619 L43.3482,149.9619 C44.0692,149.9619 44.6602,150.5519 44.6602,151.2729 C44.6602,151.9939 44.0692,152.5849 43.3482,152.5849" id="Fill-49" fill="#293E96" mask="url(#mask-2)"></path>
                <path d="M165.6969,131.9238 L144.9179,131.9238 C144.1969,131.9238 143.6069,131.3338 143.6069,130.6118 C143.6069,129.8918 144.1969,129.3008 144.9179,129.3008 L165.6969,129.3008 C166.4179,129.3008 167.0089,129.8918 167.0089,130.6118 C167.0089,131.3338 166.4179,131.9238 165.6969,131.9238" id="Fill-50" fill="#293E96" mask="url(#mask-2)"></path>
                <path d="M165.6969,152.5849 L144.9179,152.5849 C144.1969,152.5849 143.6069,151.9939 143.6069,151.2729 C143.6069,150.5519 144.1969,149.9619 144.9179,149.9619 L165.6969,149.9619 C166.4179,149.9619 167.0089,150.5519 167.0089,151.2729 C167.0089,151.9939 166.4179,152.5849 165.6969,152.5849" id="Fill-51" fill="#293E96" mask="url(#mask-2)"></path>
                <path d="M123.0406,20.2026 L122.7516,19.8236 C122.7516,19.8236 122.9496,19.6726 123.3326,19.3976 L123.6106,19.7856 C123.2366,20.0536 123.0426,20.2016 123.0406,20.2026" id="Fill-52" fill="#5E2867" mask="url(#mask-2)"></path>
                <path d="M184.9986,0.4824 C184.6736,0.4794 184.3496,0.4774 184.0266,0.4774 L183.5796,0.4784 L183.5766,0.0014 L184.0276,0.0004 C184.3516,0.0004 184.6766,0.0024 185.0036,0.0054 L184.9986,0.4824 Z M180.7426,0.5344 L180.7256,0.0584 C181.1996,0.0414 181.6746,0.0284 182.1516,0.0194 L182.1616,0.4954 C181.6866,0.5054 181.2136,0.5184 180.7426,0.5344 Z M187.8356,0.5544 C187.3616,0.5354 186.8886,0.5204 186.4176,0.5074 L186.4296,0.0304 C186.9036,0.0434 187.3786,0.0594 187.8556,0.0784 L187.8356,0.5544 Z M177.9066,0.6754 L177.8756,0.1994 C178.3486,0.1694 178.8236,0.1424 179.2996,0.1184 L179.3236,0.5944 C178.8496,0.6184 178.3766,0.6454 177.9066,0.6754 Z M190.6706,0.7144 C190.1966,0.6804 189.7256,0.6504 189.2546,0.6234 L189.2816,0.1484 C189.7536,0.1744 190.2286,0.2044 190.7056,0.2384 L190.6706,0.7144 Z M175.0766,0.8994 L175.0316,0.4244 C175.5036,0.3804 175.9776,0.3394 176.4536,0.3014 L176.4916,0.7764 C176.0176,0.8154 175.5456,0.8554 175.0766,0.8994 Z M193.4986,0.9614 C193.0256,0.9134 192.5556,0.8684 192.0856,0.8274 L192.1266,0.3524 C192.5996,0.3934 193.0726,0.4384 193.5476,0.4874 L193.4986,0.9614 Z M172.2536,1.2054 L172.1946,0.7324 C172.6656,0.6744 173.1376,0.6194 173.6116,0.5674 L173.6646,1.0424 C173.1916,1.0934 172.7206,1.1474 172.2536,1.2054 Z M196.3166,1.2964 C195.8466,1.2334 195.3766,1.1744 194.9086,1.1184 L194.9656,0.6454 C195.4356,0.7014 195.9076,0.7604 196.3806,0.8244 L196.3166,1.2964 Z M169.4406,1.5924 L169.3686,1.1214 C169.8366,1.0494 170.3076,0.9824 170.7806,0.9164 L170.8456,1.3894 C170.3746,1.4544 169.9066,1.5224 169.4406,1.5924 Z M199.1236,1.7194 C198.6556,1.6414 198.1886,1.5674 197.7226,1.4974 L197.7926,1.0254 C198.2626,1.0964 198.7316,1.1704 199.2026,1.2494 L199.1236,1.7194 Z M166.6386,2.0584 L166.5536,1.5884 C167.0196,1.5044 167.4886,1.4234 167.9596,1.3454 L168.0376,1.8154 C167.5686,1.8934 167.1026,1.9744 166.6386,2.0584 Z M201.9166,2.2304 C201.4506,2.1374 200.9866,2.0484 200.5226,1.9644 L200.6076,1.4954 C201.0736,1.5804 201.5406,1.6694 202.0096,1.7624 L201.9166,2.2304 Z M163.8506,2.6004 L163.7526,2.1344 C164.2166,2.0374 164.6826,1.9434 165.1506,1.8514 L165.2426,2.3194 C164.7756,2.4104 164.3116,2.5044 163.8506,2.6004 Z M204.6906,2.8284 C204.2286,2.7204 203.7666,2.6184 203.3056,2.5184 L203.4066,2.0524 C203.8696,2.1524 204.3336,2.2564 204.7986,2.3634 L204.6906,2.8284 Z M161.0786,3.2184 L160.9686,2.7544 C161.4286,2.6454 161.8926,2.5384 162.3586,2.4344 L162.4626,2.9004 C161.9986,3.0034 161.5366,3.1094 161.0786,3.2184 Z M207.4466,3.5114 C206.9866,3.3894 206.5286,3.2724 206.0716,3.1584 L206.1856,2.6954 C206.6456,2.8104 207.1066,2.9274 207.5676,3.0504 L207.4466,3.5114 Z M158.3236,3.9094 L158.2016,3.4484 C158.6586,3.3274 159.1196,3.2094 159.5836,3.0924 L159.6986,3.5554 C159.2376,3.6704 158.7786,3.7894 158.3236,3.9094 Z M210.1786,4.2804 C209.7236,4.1444 209.2696,4.0124 208.8156,3.8854 L208.9446,3.4254 C209.4006,3.5544 209.8576,3.6874 210.3146,3.8224 L210.1786,4.2804 Z M155.5866,4.6724 L155.4536,4.2154 C155.9066,4.0824 156.3636,3.9514 156.8246,3.8224 L156.9536,4.2814 C156.4946,4.4104 156.0396,4.5404 155.5866,4.6724 Z M212.8866,5.1324 C212.4356,4.9824 211.9856,4.8374 211.5366,4.6954 L211.6796,4.2414 C212.1316,4.3824 212.5836,4.5294 213.0366,4.6794 L212.8866,5.1324 Z M152.8716,5.5064 L152.7266,5.0514 C153.1766,4.9074 153.6296,4.7654 154.0876,4.6254 L154.2276,5.0804 C153.7716,5.2204 153.3196,5.3624 152.8716,5.5064 Z M215.5676,6.0654 C215.1216,5.9034 214.6756,5.7444 214.2296,5.5884 L214.3876,5.1384 C214.8346,5.2944 215.2826,5.4544 215.7306,5.6184 L215.5676,6.0654 Z M150.1776,6.4074 L150.0206,5.9574 C150.4666,5.8024 150.9156,5.6484 151.3706,5.4964 L151.5216,5.9474 C151.0696,6.0994 150.6216,6.2534 150.1776,6.4074 Z M218.2186,7.0804 C217.7766,6.9034 217.3356,6.7314 216.8956,6.5634 L217.0666,6.1184 C217.5086,6.2874 217.9516,6.4604 218.3946,6.6384 L218.2186,7.0804 Z M147.5066,7.3754 L147.3376,6.9294 C147.7786,6.7634 148.2256,6.5984 148.6756,6.4354 L148.8386,6.8824 C148.3906,7.0464 147.9456,7.2104 147.5066,7.3754 Z M220.8386,8.1724 C220.4026,7.9834 219.9676,7.7984 219.5326,7.6174 L219.7156,7.1764 C220.1526,7.3584 220.5906,7.5444 221.0286,7.7344 L220.8386,8.1724 Z M144.8606,8.4104 L144.6816,7.9684 C145.1176,7.7914 145.5596,7.6154 146.0076,7.4414 L146.1806,7.8854 C145.7346,8.0594 145.2946,8.2334 144.8606,8.4104 Z M223.4266,9.3404 C222.9966,9.1394 222.5656,8.9414 222.1366,8.7474 L222.3326,8.3134 C222.7646,8.5074 223.1966,8.7064 223.6286,8.9084 L223.4266,9.3404 Z M142.2396,9.5084 L142.0496,9.0704 C142.4806,8.8834 142.9186,8.6964 143.3626,8.5114 L143.5456,8.9514 C143.1036,9.1364 142.6686,9.3214 142.2396,9.5084 Z M225.9796,10.5834 C225.5556,10.3694 225.1316,10.1594 224.7076,9.9534 L224.9156,9.5244 C225.3416,9.7324 225.7676,9.9424 226.1936,10.1574 L225.9796,10.5834 Z M139.6456,10.6704 L139.4456,10.2364 C139.8716,10.0394 140.3046,9.8434 140.7446,9.6464 L140.9386,10.0814 C140.5006,10.2774 140.0696,10.4734 139.6456,10.6704 Z M137.0806,11.8934 L136.8706,11.4654 C137.2906,11.2584 137.7186,11.0514 138.1546,10.8434 L138.3596,11.2744 C137.9246,11.4804 137.4986,11.6874 137.0806,11.8934 Z M228.4976,11.8964 C228.0786,11.6704 227.6606,11.4484 227.2426,11.2314 L227.4636,10.8084 C227.8836,11.0264 228.3036,11.2494 228.7236,11.4764 L228.4976,11.8964 Z M134.5456,13.1794 L134.3256,12.7564 C134.7376,12.5404 135.1606,12.3224 135.5936,12.1024 L135.8106,12.5284 C135.3786,12.7474 134.9576,12.9644 134.5456,13.1794 Z M230.9776,13.2764 C230.5646,13.0404 230.1536,12.8074 229.7416,12.5774 L229.9736,12.1614 C230.3876,12.3914 230.8006,12.6264 231.2156,12.8634 L230.9776,13.2764 Z M132.0446,14.5284 L131.8126,14.1114 C132.2176,13.8864 132.6356,13.6574 133.0646,13.4264 L133.2906,13.8454 C132.8636,14.0764 132.4486,14.3044 132.0446,14.5284 Z M233.4196,14.7244 C233.0146,14.4774 232.6086,14.2324 232.2036,13.9924 L232.4466,13.5834 C232.8536,13.8244 233.2616,14.0684 233.6686,14.3174 L233.4196,14.7244 Z M129.5786,15.9414 L129.3356,15.5304 C129.7306,15.2964 130.1426,15.0574 130.5696,14.8134 L130.8076,15.2264 C130.3816,15.4704 129.9716,15.7094 129.5786,15.9414 Z M235.8256,16.2354 C235.4256,15.9774 235.0266,15.7224 234.6276,15.4724 L234.8816,15.0684 C235.2816,15.3204 235.6836,15.5754 236.0836,15.8354 L235.8256,16.2354 Z M127.1516,17.4214 L126.8966,17.0184 C127.2776,16.7784 127.6826,16.5264 128.1116,16.2654 L128.3596,16.6724 C127.9326,16.9334 127.5296,17.1824 127.1516,17.4214 Z M238.1906,17.8064 C237.7976,17.5394 237.4056,17.2744 237.0136,17.0134 L237.2766,16.6164 C237.6706,16.8784 238.0646,17.1444 238.4586,17.4134 L238.1906,17.8064 Z M124.7716,18.9764 L124.5036,18.5824 C124.8506,18.3464 125.2486,18.0804 125.6936,17.7894 L125.9546,18.1884 C125.5116,18.4784 125.1176,18.7424 124.7716,18.9764 Z M240.5166,19.4374 C240.1306,19.1594 239.7446,18.8854 239.3586,18.6144 L239.6326,18.2244 C240.0196,18.4964 240.4076,18.7714 240.7946,19.0494 L240.5166,19.4374 Z M242.8046,21.1214 C242.4236,20.8354 242.0446,20.5514 241.6656,20.2724 L241.9486,19.8884 C242.3286,20.1694 242.7096,20.4534 243.0906,20.7404 L242.8046,21.1214 Z" id="Fill-53" fill="#5E2867" mask="url(#mask-2)"></path>
                <polygon id="Fill-54" fill="#5E2867" mask="url(#mask-2)" points="244.4996 22.4262 243.9356 21.9872 244.2266 21.6102 244.7936 22.0512"></polygon>
                <polygon id="Fill-55" fill="#D2DCD6" mask="url(#mask-2)" points="56.309 65.468 61.635 65.468 61.635 40.986 56.309 40.986"></polygon>
                <polygon id="Fill-56" fill="#D2DCD6" mask="url(#mask-2)" points="56.309 39.295 61.635 39.295 61.635 36.814 56.309 36.814"></polygon>
                <polygon id="Fill-57" fill="#D2DCD6" mask="url(#mask-2)" points="116.844 70.882 130.957 70.882 130.957 38.055 116.844 38.055"></polygon>
                <polygon id="Fill-58" fill="#B7B33E" mask="url(#mask-2)" points="118.374 44.972 129.336 44.972 129.336 39.295 118.374 39.295"></polygon>
                <polygon id="Fill-59" fill="#FFFFFF" mask="url(#mask-2)" points="118.374 52.608 129.336 52.608 129.336 46.931 118.374 46.931"></polygon>
                <polygon id="Fill-60" fill="#FFFFFF" mask="url(#mask-2)" points="118.374 60.249 129.336 60.249 129.336 54.573 118.374 54.573"></polygon>
                <polygon id="Fill-61" fill="#FFFFFF" mask="url(#mask-2)" points="118.374 67.892 129.336 67.892 129.336 62.215 118.374 62.215"></polygon>
                <path d="M253.3502,33.5341 C253.3502,34.6591 252.4382,35.5711 251.3132,35.5711 C250.1882,35.5711 249.2772,34.6591 249.2772,33.5341 C249.2772,32.4091 250.1882,31.4981 251.3132,31.4981 C252.4382,31.4981 253.3502,32.4091 253.3502,33.5341" id="Fill-62" fill="#FCD3CB" mask="url(#mask-2)"></path>
                <path d="M255.7799,38.1796 L247.0859,38.1796 C246.8329,38.1796 246.6289,37.9756 246.6289,37.7226 C246.6289,37.4706 246.8329,37.2656 247.0859,37.2656 L255.7799,37.2656 C256.0319,37.2656 256.2369,37.4706 256.2369,37.7226 C256.2369,37.9756 256.0319,38.1796 255.7799,38.1796" id="Fill-63" fill="#FCD3CB" mask="url(#mask-2)"></path>
                <path d="M255.7799,39.9365 L247.0859,39.9365 C246.8329,39.9365 246.6289,39.7325 246.6289,39.4795 C246.6289,39.2275 246.8329,39.0225 247.0859,39.0225 L255.7799,39.0225 C256.0319,39.0225 256.2369,39.2275 256.2369,39.4795 C256.2369,39.7325 256.0319,39.9365 255.7799,39.9365" id="Fill-64" fill="#FCD3CB" mask="url(#mask-2)"></path>
                <path d="M254.4122,42.6826 L248.4532,42.6826 C248.2002,42.6826 247.9952,42.4776 247.9952,42.2256 C247.9952,41.9726 248.2002,41.7686 248.4532,41.7686 L254.4122,41.7686 C254.6642,41.7686 254.8692,41.9726 254.8692,42.2256 C254.8692,42.4776 254.6642,42.6826 254.4122,42.6826" id="Fill-65" fill="#FCD3CB" mask="url(#mask-2)"></path>
                <path d="M240.2916,93.1201 C239.5156,93.1201 238.8796,92.4841 238.8796,91.7081 L238.8796,80.2271 C238.8796,79.4511 239.5156,78.8151 240.2916,78.8151 C241.0676,78.8151 241.7036,79.4511 241.7036,80.2271 L241.7036,91.7081 C241.7036,92.4841 241.0676,93.1201 240.2916,93.1201" id="Fill-66" fill="#B7B33E" mask="url(#mask-2)"></path>
                <path d="M244.4957,94.6347 C243.4767,94.6347 242.6437,93.8007 242.6437,92.7827 L242.6437,77.7227 C242.6437,76.7047 243.4767,75.8707 244.4957,75.8707 C245.5147,75.8707 246.3477,76.7047 246.3477,77.7227 L246.3477,92.7827 C246.3477,93.8007 245.5147,94.6347 244.4957,94.6347" id="Fill-67" fill="#B7B33E" mask="url(#mask-2)"></path>
                <path d="M248.1021,87.7226 L248.1021,98.5346 C248.1021,100.1906 246.7471,101.5456 245.0911,101.5456 L240.1971,101.5456 C238.5411,101.5456 237.1861,100.1906 237.1861,98.5346 L237.1861,87.7226 L248.1021,87.7226 Z" id="Fill-68" fill="#5E2867" mask="url(#mask-2)"></path>
                <path d="M94.5851,169.7812 L94.0341,169.7812 C89.0251,169.7812 84.9261,165.6822 84.9261,160.6732 L84.9261,153.5462 C84.9261,148.5362 89.0251,144.4372 94.0341,144.4372 L94.5851,144.4372 C99.5951,144.4372 103.6931,148.5362 103.6931,153.5462 L103.6931,160.6732 C103.6931,165.6822 99.5951,169.7812 94.5851,169.7812" id="Fill-69" fill="#293E96" mask="url(#mask-2)"></path>
                <path d="M113.5133,141.413 L74.6703,141.413 C69.5093,141.413 65.2863,145.636 65.2863,150.796 C65.2863,155.957 69.5093,160.18 74.6703,160.18 L113.5133,160.18 C118.6743,160.18 122.8963,155.957 122.8963,150.796 C122.8963,145.636 118.6743,141.413 113.5133,141.413" id="Fill-70" fill="#292480" mask="url(#mask-2)"></path>
                <polygon id="Fill-71" fill="#A9C3CF" mask="url(#mask-2)" points="272.3058 94.8144 288.8688 110.2474 320.8648 110.2474 302.4198 94.6344"></polygon>
                <polygon id="Fill-72" fill="#A9C3CF" mask="url(#mask-2)" points="272.3058 93.9189 288.8688 109.3519 320.8648 109.3519 302.4198 93.7389"></polygon>
                <polygon id="Fill-73" fill="#A9C3CF" mask="url(#mask-2)" points="272.3058 93.0244 288.8688 108.4574 320.8648 108.4574 302.4198 92.8444"></polygon>
                <polygon id="Fill-74" fill="#A9C3CF" mask="url(#mask-2)" points="272.3058 92.1288 288.8688 107.5618 320.8648 107.5618 302.4198 91.9488"></polygon>
                <polygon id="Fill-75" fill="#A9C3CF" mask="url(#mask-2)" points="272.3058 91.2343 288.8688 106.6673 320.8648 106.6673 302.4198 91.0543"></polygon>
                <polygon id="Fill-76" fill="#A9C3CF" mask="url(#mask-2)" points="272.3058 90.3388 288.8688 105.7728 320.8648 105.7728 302.4198 90.1588"></polygon>
                <polygon id="Fill-77" fill="#A9C3CF" mask="url(#mask-2)" points="272.3058 89.4443 288.8688 104.8773 320.8648 104.8773 302.4198 89.2643"></polygon>
                <polygon id="Fill-78" fill="#A9C3CF" mask="url(#mask-2)" points="272.3058 88.5488 288.8688 103.9828 320.8648 103.9828 302.4198 88.3688"></polygon>
                <polygon id="Fill-79" fill="#A9C3CF" mask="url(#mask-2)" points="272.3058 87.6542 288.8688 103.0872 320.8648 103.0872 302.4198 87.4742"></polygon>
                <polygon id="Fill-80" fill="#FDD4AB" mask="url(#mask-2)" points="272.3058 86.7587 288.8688 102.1927 320.8648 102.1927 302.4198 86.5787"></polygon>
                <polygon id="Fill-81" fill="#A9C3CF" mask="url(#mask-2)" points="278.579 88.598 300.286 88.598 300.286 88.141 278.579 88.141"></polygon>
                <polygon id="Fill-82" fill="#A9C3CF" mask="url(#mask-2)" points="279.834 89.493 301.542 89.493 301.542 89.036 279.834 89.036"></polygon>
                <polygon id="Fill-83" fill="#A9C3CF" mask="url(#mask-2)" points="281.089 90.388 302.796 90.388 302.796 89.931 281.089 89.931"></polygon>
                <polygon id="Fill-84" fill="#A9C3CF" mask="url(#mask-2)" points="282.343 91.283 304.051 91.283 304.051 90.826 282.343 90.826"></polygon>
                <polygon id="Fill-85" fill="#A9C3CF" mask="url(#mask-2)" points="283.598 92.178 305.306 92.178 305.306 91.721 283.598 91.721"></polygon>
                <polygon id="Fill-86" fill="#A9C3CF" mask="url(#mask-2)" points="284.853 93.072 306.56 93.072 306.56 92.615 284.853 92.615"></polygon>
                <path d="M407.3629,156.6884 L262.1129,156.6884 C258.8439,156.6884 256.1689,154.0134 256.1689,150.7444 L256.1689,132.5344 C256.1689,129.2644 258.8439,126.5894 262.1129,126.5894 L407.3629,126.5894 C410.6319,126.5894 413.3059,129.2644 413.3059,132.5344 L413.3059,150.7444 C413.3059,154.0134 410.6319,156.6884 407.3629,156.6884" id="Fill-87" fill="#D2DCD6" mask="url(#mask-2)"></path>
                <path d="M407.3629,194.2216 L262.1129,194.2216 C258.8439,194.2216 256.1689,191.5466 256.1689,188.2786 L256.1689,170.0676 C256.1689,166.7986 258.8439,164.1236 262.1129,164.1236 L407.3629,164.1236 C410.6319,164.1236 413.3059,166.7986 413.3059,170.0676 L413.3059,188.2786 C413.3059,191.5466 410.6319,194.2216 407.3629,194.2216" id="Fill-88" fill="#D2DCD6" mask="url(#mask-2)"></path>
                <polygon id="Fill-89" fill="#293E96" mask="url(#mask-2)" points="199.5616 212.3876 205.2756 209.8176 226.9536 207.8096 232.2016 210.2416 232.7246 213.8836 196.4896 218.0666"></polygon>
                <path d="M184.025,213.5966 L169.235,214.9856 C168.686,215.0366 168.194,214.6286 168.142,214.0796 L168.137,214.0266 C168.086,213.4776 168.493,212.9856 169.043,212.9336 L183.833,211.5446 C184.382,211.4936 184.874,211.9016 184.925,212.4506 L184.93,212.5036 C184.982,213.0536 184.574,213.5446 184.025,213.5966" id="Fill-90" fill="#C34158" mask="url(#mask-2)"></path>
                <path d="M169.0426,212.9335 C169.0426,212.9335 172.4546,207.8785 171.3616,206.9735 C170.2686,206.0685 188.4076,207.1375 191.5646,201.2975 C191.5646,201.2975 197.4866,200.7425 204.2306,200.1085 C210.9746,199.4755 207.9206,204.5235 215.4146,203.8195 C222.9076,203.1165 228.0646,204.3695 228.4426,208.3925 L169.0426,212.9335 Z" id="Fill-91" fill="#C34158" mask="url(#mask-2)"></path>
                <polygon id="Fill-92" fill="#C34158" mask="url(#mask-2)" points="184.025 213.5966 217.974 210.4086 220.321 208.1196 183.833 211.5446"></polygon>
                <path d="M207.2452,213.4326 L182.2812,215.7766 C181.7322,215.8286 181.2402,215.4196 181.1882,214.8706 C181.1372,214.3216 181.5442,213.8286 182.0942,213.7786 L207.0582,211.4346 C207.6072,211.3826 208.0992,211.7896 208.1502,212.3396 C208.2022,212.8896 207.7942,213.3806 207.2452,213.4326" id="Fill-93" fill="#C34158" mask="url(#mask-2)"></path>
                <path d="M192.8883,202.6855 L179.3933,203.9525 C178.9813,203.9915 178.6123,203.6855 178.5733,203.2735 C178.5343,202.8615 178.8403,202.4925 179.2523,202.4535 L192.7473,201.1865 C193.1593,201.1475 193.5293,201.4535 193.5673,201.8655 C193.6063,202.2775 193.3003,202.6465 192.8883,202.6855" id="Fill-94" fill="#C34158" mask="url(#mask-2)"></path>
                <path d="M179.3932,203.9521 C179.3932,203.9521 184.1912,206.7511 181.7422,207.4981 C181.7422,207.4981 186.9062,207.2781 183.0172,202.8561 L179.3932,203.9521 Z" id="Fill-95" fill="#C34158" mask="url(#mask-2)"></path>
                <polygon id="Fill-96" fill="#C34158" mask="url(#mask-2)" points="171.3614 206.9736 168.6314 202.9466 171.8784 202.6416 175.3574 206.5986"></polygon>
                <path d="M164.5855,204.5859 L173.9105,203.7109 C173.9105,203.7109 173.5305,200.5549 171.6155,200.7339 C169.7005,200.9139 161.4575,201.6889 161.4575,201.6889 C161.4575,201.6889 162.0875,204.8199 164.5855,204.5859" id="Fill-97" fill="#C34158" mask="url(#mask-2)"></path>
                <polygon id="Fill-98" fill="#293E96" mask="url(#mask-2)" points="169.2354 214.9853 171.5094 217.0723 169.7284 218.4263 170.2364 220.5003 196.4894 218.0663 200.3644 212.9343"></polygon>
                <path d="M188.815,217.2646 C189.415,221.4496 186.509,225.3276 182.325,225.9266 C178.141,226.5276 174.263,223.6216 173.663,219.4376 C173.064,215.2536 175.969,211.3756 180.153,210.7756 C184.337,210.1756 188.215,213.0806 188.815,217.2646" id="Fill-99" fill="#293E96" mask="url(#mask-2)"></path>
                <path d="M188.2774,217.3417 C188.8674,217.2507 189.3724,217.3997 189.3974,217.6707 C189.4914,218.7727 189.3594,219.8937 189.0074,220.9427 C188.9324,221.2057 188.3844,221.2217 187.8344,220.9937" id="Fill-100" fill="#293E96" mask="url(#mask-2)"></path>
                <path d="M187.8341,220.9941 C188.3911,221.2101 188.7581,221.5941 188.6501,221.8451 C188.1821,222.8481 187.5051,223.7511 186.6751,224.4821 C186.4641,224.6561 185.9921,224.4111 185.6281,223.9381" id="Fill-101" fill="#293E96" mask="url(#mask-2)"></path>
                <path d="M185.628,223.9384 C186.002,224.4024 186.141,224.9324 185.909,225.0794 C185.001,225.7104 183.962,226.1534 182.879,226.3724 C182.61,226.4244 182.327,225.9814 182.248,225.3894" id="Fill-102" fill="#293E96" mask="url(#mask-2)"></path>
                <path d="M182.2481,225.3896 C182.3391,225.9796 182.1911,226.4846 181.9191,226.5096 C180.8181,226.6036 179.6961,226.4706 178.6481,226.1196 C178.3841,226.0446 178.3691,225.4956 178.5971,224.9466" id="Fill-103" fill="#293E96" mask="url(#mask-2)"></path>
                <path d="M178.5968,224.9462 C178.3798,225.5032 177.9968,225.8712 177.7448,225.7622 C176.7428,225.2942 175.8398,224.6172 175.1078,223.7872 C174.9338,223.5762 175.1798,223.1042 175.6528,222.7402" id="Fill-104" fill="#293E96" mask="url(#mask-2)"></path>
                <path d="M175.6524,222.7402 C175.1884,223.1142 174.6574,223.2532 174.5114,223.0212 C173.8804,222.1132 173.4374,221.0742 173.2184,219.9912 C173.1664,219.7222 173.6094,219.4392 174.2004,219.3602" id="Fill-105" fill="#293E96" mask="url(#mask-2)"></path>
                <path d="M174.2008,219.3603 C173.6108,219.4513 173.1058,219.3033 173.0808,219.0313 C172.9868,217.9303 173.1188,216.8083 173.4708,215.7593 C173.5458,215.4963 174.0938,215.4803 174.6438,215.7093" id="Fill-106" fill="#293E96" mask="url(#mask-2)"></path>
                <path d="M174.6441,215.7089 C174.0881,215.4919 173.7201,215.1089 173.8281,214.8569 C174.2971,213.8549 174.9741,212.9519 175.8041,212.2209 C176.0151,212.0459 176.4861,212.2919 176.8501,212.7649" id="Fill-107" fill="#293E96" mask="url(#mask-2)"></path>
                <path d="M176.8502,212.7646 C176.4762,212.3006 176.3372,211.7696 176.5692,211.6236 C177.4772,210.9926 178.5172,210.5496 179.5992,210.3306 C179.8682,210.2786 180.1512,210.7206 180.2302,211.3126" id="Fill-108" fill="#293E96" mask="url(#mask-2)"></path>
                <path d="M180.2301,211.3124 C180.1391,210.7224 180.2871,210.2174 180.5591,210.1934 C181.6601,210.0984 182.7821,210.2314 183.8311,210.5824 C184.0941,210.6584 184.1091,211.2064 183.8811,211.7564" id="Fill-109" fill="#293E96" mask="url(#mask-2)"></path>
                <path d="M183.8814,211.7568 C184.0984,211.1998 184.4814,210.8318 184.7334,210.9408 C185.7354,211.4088 186.6384,212.0858 187.3704,212.9158 C187.5444,213.1268 187.2984,213.5978 186.8254,213.9618" id="Fill-110" fill="#293E96" mask="url(#mask-2)"></path>
                <path d="M186.8258,213.9619 C187.2898,213.5889 187.8208,213.4489 187.9668,213.6819 C188.5978,214.5899 189.0408,215.6289 189.2598,216.7119 C189.3118,216.9799 188.8698,217.2639 188.2778,217.3419" id="Fill-111" fill="#293E96" mask="url(#mask-2)"></path>
                <path d="M185.1461,217.791 C185.4551,219.949 183.9571,221.949 181.7991,222.258 C179.6421,222.567 177.6421,221.069 177.3321,218.911 C177.0231,216.754 178.5211,214.754 180.6791,214.444 C182.8361,214.135 184.8361,215.634 185.1461,217.791" id="Fill-112" fill="#A9C3CF" mask="url(#mask-2)"></path>
                <path d="M225.0226,212.6445 C225.5786,216.5195 222.8876,220.1115 219.0126,220.6665 C215.1376,221.2225 211.5456,218.5315 210.9896,214.6565 C210.4346,210.7815 213.1256,207.1895 217.0006,206.6335 C220.8756,206.0785 224.4666,208.7695 225.0226,212.6445" id="Fill-113" fill="#293E96" mask="url(#mask-2)"></path>
                <path d="M224.4854,212.7216 C225.0754,212.6306 225.5784,212.7636 225.6024,213.0176 C225.6894,214.0416 225.5664,215.0866 225.2394,216.0636 C225.1694,216.3096 224.6274,216.3106 224.0764,216.0826" id="Fill-114" fill="#293E96" mask="url(#mask-2)"></path>
                <path d="M224.0768,216.0829 C224.6338,216.2999 225.0078,216.6689 224.9068,216.9029 C224.4698,217.8369 223.8398,218.6779 223.0668,219.3579 C222.8698,219.5209 222.4108,219.2669 222.0468,218.7929" id="Fill-115" fill="#293E96" mask="url(#mask-2)"></path>
                <path d="M222.0465,218.7929 C222.4205,219.2569 222.5705,219.7769 222.3545,219.9139 C221.5085,220.5019 220.5415,220.9139 219.5325,221.1179 C219.2825,221.1669 219.0135,220.7219 218.9355,220.1299" id="Fill-116" fill="#293E96" mask="url(#mask-2)"></path>
                <path d="M218.9352,220.1298 C219.0262,220.7198 218.8932,221.2228 218.6392,221.2458 C217.6152,221.3338 216.5702,221.2098 215.5932,220.8838 C215.3482,220.8138 215.3462,220.2718 215.5742,219.7208" id="Fill-117" fill="#293E96" mask="url(#mask-2)"></path>
                <path d="M215.5738,219.7206 C215.3578,220.2776 214.9878,220.6516 214.7538,220.5506 C213.8208,220.1146 212.9788,219.4846 212.2978,218.7106 C212.1358,218.5146 212.3898,218.0546 212.8638,217.6906" id="Fill-118" fill="#293E96" mask="url(#mask-2)"></path>
                <path d="M212.8639,217.6904 C212.3999,218.0644 211.8789,218.2144 211.7419,217.9984 C211.1549,217.1534 210.7419,216.1854 210.5389,215.1764 C210.4899,214.9264 210.9349,214.6584 211.5279,214.5794" id="Fill-119" fill="#293E96" mask="url(#mask-2)"></path>
                <path d="M211.5274,214.579 C210.9374,214.671 210.4334,214.537 210.4104,214.284 C210.3224,213.259 210.4464,212.214 210.7734,211.237 C210.8434,210.992 211.3854,210.99 211.9354,211.218" id="Fill-120" fill="#293E96" mask="url(#mask-2)"></path>
                <path d="M211.9356,211.2177 C211.3786,211.0017 211.0046,210.6317 211.1056,210.3977 C211.5426,209.4647 212.1726,208.6227 212.9456,207.9427 C213.1426,207.7797 213.6026,208.0347 213.9656,208.5077" id="Fill-121" fill="#293E96" mask="url(#mask-2)"></path>
                <path d="M213.9659,208.5077 C213.5919,208.0437 213.4419,207.5237 213.6579,207.3867 C214.5039,206.7987 215.4709,206.3867 216.4799,206.1827 C216.7299,206.1337 216.9989,206.5797 217.0769,207.1717" id="Fill-122" fill="#293E96" mask="url(#mask-2)"></path>
                <path d="M217.0772,207.1718 C216.9862,206.5808 217.1192,206.0778 217.3732,206.0548 C218.3982,205.9668 219.4422,206.0908 220.4192,206.4168 C220.6652,206.4868 220.6662,207.0288 220.4382,207.5798" id="Fill-123" fill="#293E96" mask="url(#mask-2)"></path>
                <path d="M220.4386,207.58 C220.6556,207.023 221.0246,206.649 221.2596,206.75 C222.1916,207.186 223.0336,207.817 223.7146,208.59 C223.8766,208.786 223.6226,209.246 223.1486,209.61" id="Fill-124" fill="#293E96" mask="url(#mask-2)"></path>
                <path d="M223.149,209.6103 C223.613,209.2363 224.133,209.0863 224.27,209.3023 C224.858,210.1483 225.27,211.1153 225.474,212.1243 C225.523,212.3743 225.077,212.6433 224.485,212.7213" id="Fill-125" fill="#293E96" mask="url(#mask-2)"></path>
                <path d="M221.6246,213.1318 C221.9116,215.1298 220.5236,216.9828 218.5246,217.2688 C216.5266,217.5558 214.6746,216.1678 214.3876,214.1688 C214.1016,212.1708 215.4896,210.3188 217.4876,210.0318 C219.4856,209.7458 221.3376,211.1338 221.6246,213.1318" id="Fill-126" fill="#A9C3CF" mask="url(#mask-2)"></path>
                <path d="M179.0309,202.5117 C179.0099,202.4267 176.7669,194.0497 172.1039,193.4277 L172.1639,192.9747 C177.1309,193.6367 179.3799,202.0387 179.4739,202.3957 L179.0309,202.5117 Z" id="Fill-127" fill="#C34158" mask="url(#mask-2)"></path>
                <polygon id="Fill-128" fill="#C34158" mask="url(#mask-2)" points="152.76 221.802 164.301 221.802 164.301 221.345 152.76 221.345"></polygon>
                <polygon id="Fill-129" fill="#C34158" mask="url(#mask-2)" points="144.733 213.27 162.796 213.27 162.796 212.813 144.733 212.813"></polygon>
                <polygon id="Fill-130" fill="#C34158" mask="url(#mask-2)" points="151.255 206.748 159.785 206.748 159.785 206.291 151.255 206.291"></polygon>
                <path d="M335.9972,101.6845 C335.9972,101.6845 327.1302,145.9675 330.0352,194.8775 L332.4562,211.8275 L349.4062,208.9215 C349.4062,208.9215 340.2052,146.9365 350.8582,132.4085 C361.5122,117.8805 345.0472,151.7795 371.6822,205.0475 L389.5992,201.6585 C389.5992,201.6585 367.4172,144.2885 374.1032,118.8495 C378.1952,103.2805 375.0722,101.9005 375.0722,101.9005 L335.9972,101.6845 Z" id="Fill-131" fill="#C34158" mask="url(#mask-2)"></path>
                <path d="M326.6456,87.8564 C326.6456,87.8564 331.9726,40.3984 337.7836,40.3984 C343.5946,40.3984 341.6576,59.2854 340.6886,61.7064 C339.7206,64.1274 340.2056,83.4984 340.2056,83.4984 C340.2056,83.4984 331.0036,90.2774 326.6456,87.8564" id="Fill-132" fill="#A9C3CF" mask="url(#mask-2)"></path>
                <path d="M351.8272,35.0722 C351.8272,35.0722 339.2362,37.4932 337.7842,40.3982 C336.3302,43.3042 337.2992,83.0132 337.2992,83.0132 C337.2992,83.0132 333.9102,106.2592 336.3302,107.2262 C338.7522,108.1952 343.1102,109.1642 353.7642,107.2262 C364.4172,105.2902 375.0722,106.7432 375.0722,101.9002 C375.0722,97.0572 376.0402,76.2342 377.0082,67.0332 C377.9772,57.8322 378.4612,45.7252 377.0082,42.8202 C375.5562,39.9152 366.8392,33.6192 361.9962,34.1032 C357.1542,34.5882 351.8272,35.0722 351.8272,35.0722" id="Fill-133" fill="#724173" mask="url(#mask-2)"></path>
                <path d="M335.462,18.0405 C335.462,18.0405 341.207,38.9305 348.518,38.4085 C351.807,38.1725 354.568,36.1415 356.182,32.8355 C358.156,28.7935 358.415,22.8465 355.83,15.9515 C351.129,3.4175 337.029,6.0295 335.462,18.0405" id="Fill-134" fill="#FDD4AB" mask="url(#mask-2)"></path>
                <path d="M371.1978,65.0966 C371.1978,65.0966 369.2608,56.8646 369.2608,52.5056 C369.2608,48.1476 374.5878,35.0726 380.3988,47.1786 C386.2098,59.2846 385.3088,73.7346 382.3358,77.2026 C376.5248,83.9826 371.6818,90.2776 357.1538,94.6356 C357.1538,94.6356 354.7328,85.9196 352.3118,85.4356 C352.3118,85.4356 373.1348,77.6876 371.1978,65.0966" id="Fill-135" fill="#A9C3CF" mask="url(#mask-2)"></path>
                <path d="M348.8307,99.9579 L335.9977,101.6849 C333.2307,102.0569 330.6627,100.0979 330.2897,97.3319 L329.1367,88.7579 C328.7647,85.9909 330.7237,83.4229 333.4907,83.0509 L346.3237,81.3239 C349.0897,80.9519 351.6587,82.9109 352.0307,85.6779 L353.1847,94.2519 C353.5567,97.0189 351.5967,99.5859 348.8307,99.9579" id="Fill-136" fill="#B7B33E" mask="url(#mask-2)"></path>
                <path d="M352.3116,85.4355 C352.3116,85.4355 343.5946,86.8875 341.1736,87.8565 C338.7516,88.8255 340.6886,97.5415 344.0796,98.0265 C347.4686,98.5095 357.1536,94.6355 357.1536,94.6355 C357.1536,94.6355 356.1856,86.8875 352.3116,85.4355" id="Fill-137" fill="#FDD4AB" mask="url(#mask-2)"></path>
                <path d="M326.6456,87.8564 C326.6456,87.8564 333.9096,85.4354 335.8466,87.3724 C337.7836,89.3094 341.6576,97.0574 337.2996,98.5094 C332.9406,99.9624 329.0666,100.4474 326.6456,87.8564" id="Fill-138" fill="#FDD4AB" mask="url(#mask-2)"></path>
                <path d="M332.4566,211.8271 C332.4566,211.8271 327.1296,216.1851 323.7396,217.6391 C320.3506,219.0911 319.3816,222.9661 328.5826,221.0281 C337.7836,219.0911 346.0166,217.6391 349.4056,216.1851 C352.7956,214.7331 349.4056,208.9221 349.4056,208.9221 L332.4566,211.8271 Z" id="Fill-139" fill="#293E96" mask="url(#mask-2)"></path>
                <path d="M371.6822,205.0478 C371.6822,205.0478 364.4172,210.8588 361.9962,211.8268 C359.5762,212.7958 354.7332,217.1538 369.7452,214.2488 C384.7572,211.3428 391.0522,209.4058 390.5682,207.9528 C390.0832,206.4998 389.5992,201.6578 389.5992,201.6578 L371.6822,205.0478 Z" id="Fill-140" fill="#293E96" mask="url(#mask-2)"></path>
                <path d="M357.6256,28.5112 L360.1386,35.3312 C360.1386,35.3312 357.9836,39.6382 353.6776,40.3562 C349.3696,41.0742 349.3696,32.4602 349.3696,32.4602 L357.6256,28.5112 Z" id="Fill-141" fill="#FDD4AB" mask="url(#mask-2)"></path>
                <path d="M346.2042,14.1469 C346.2042,14.1469 345.7082,20.0909 339.7652,21.0819 C333.8212,22.0719 332.8302,17.1189 329.8582,18.1099 C329.8582,18.1099 335.8022,5.7269 342.2412,5.7269 C348.6812,5.7269 346.2042,14.1469 346.2042,14.1469" id="Fill-142" fill="#293E96" mask="url(#mask-2)"></path>
                <path d="M346.2042,10.1845 C346.2042,10.1845 348.1852,16.6235 352.6432,18.6045 C357.1012,20.5865 357.7612,33.4645 357.9262,30.4925 C358.0912,27.5205 364.5312,16.6235 358.0912,8.6985 C351.6522,0.7735 342.2412,5.7265 342.2412,5.7265 L346.2042,10.1845 Z" id="Fill-143" fill="#293E96" mask="url(#mask-2)"></path>
                <polygon id="Fill-144" fill="#B7B33E" mask="url(#mask-2)" points="336.8971 83.2314 323.1821 57.7864 323.9871 57.3524 337.7021 82.7964"></polygon>
                <path d="M326.2262,58.5605 C326.2262,59.6545 325.3392,60.5415 324.2452,60.5415 C323.1512,60.5415 322.2642,59.6545 322.2642,58.5605 C322.2642,57.4655 323.1512,56.5795 324.2452,56.5795 C325.3392,56.5795 326.2262,57.4655 326.2262,58.5605" id="Fill-145" fill="#B7B33E" mask="url(#mask-2)"></path>
            </g>
        </g>
    </g>
</svg>