<?xml version="1.0" encoding="UTF-8"?>
<svg width="451px" height="209px" viewBox="0 0 451 209" version="1.1" xmlns="http://www.w3.org/2000/svg" xmlns:xlink="http://www.w3.org/1999/xlink">
    <!-- Generator: sketchtool 49.3 (51167) - http://www.bohemiancoding.com/sketch -->
    <title>53CAA785-1674-4496-975A-361E00DBA107</title>
    <desc>Created with sketchtool.</desc>
    <defs>
        <polygon id="path-1" points="0 232 450.067 232 450.067 0.781 0 0.781"></polygon>
        <polygon id="path-3" points="8.473 38.5 24.626 38.256 32.155 0.973 0.336 0.851"></polygon>
        <polygon id="path-5" points="8.473 38.5 24.626 38.256 32.155 0.973 0.336 0.851"></polygon>
        <polygon id="path-7" points="8.473 38.5 24.626 38.256 32.155 0.973 0.336 0.851"></polygon>
        <polygon id="path-9" points="8.473 38.5 24.626 38.256 32.155 0.973 0.336 0.851"></polygon>
        <polygon id="path-11" points="8.473 38.5 24.626 38.256 32.155 0.973 0.336 0.851"></polygon>
        <polygon id="path-13" points="8.473 38.5 24.626 38.256 32.155 0.973 0.336 0.851"></polygon>
        <polygon id="path-15" points="8.473 38.5 24.626 38.256 32.155 0.973 0.336 0.851"></polygon>
        <polygon id="path-17" points="8.473 38.5 24.626 38.256 32.155 0.973 0.336 0.851"></polygon>
        <polygon id="path-19" points="8.473 38.5 24.626 38.256 32.155 0.973 0.336 0.851"></polygon>
        <polygon id="path-21" points="8.473 38.5 24.626 38.256 32.155 0.973 0.336 0.851"></polygon>
        <polygon id="path-23" points="8.473 38.5 24.626 38.256 32.155 0.973 0.336 0.851"></polygon>
        <polygon id="path-25" points="8.473 38.5 24.626 38.256 32.155 0.973 0.336 0.851"></polygon>
        <polygon id="path-27" points="8.473 38.5 24.626 38.256 32.155 0.973 0.336 0.851"></polygon>
        <polygon id="path-29" points="8.473 38.5 24.626 38.256 32.155 0.973 0.336 0.851"></polygon>
        <polygon id="path-31" points="8.473 38.5 24.626 38.256 32.155 0.973 0.336 0.851"></polygon>
        <polygon id="path-33" points="8.473 38.5 24.626 38.256 32.155 0.973 0.336 0.851"></polygon>
        <polygon id="path-35" points="8.473 38.5 24.626 38.256 32.155 0.973 0.336 0.851"></polygon>
        <polygon id="path-37" points="8.473 38.5 24.626 38.256 32.155 0.973 0.336 0.851"></polygon>
        <polygon id="path-39" points="0.336 0.973 7.866 38.256 24.019 38.5 32.155 0.851"></polygon>
        <polygon id="path-41" points="0.336 0.973 7.866 38.256 24.019 38.5 32.155 0.851"></polygon>
        <polygon id="path-43" points="0.336 0.973 7.866 38.256 24.019 38.5 32.155 0.851"></polygon>
        <polygon id="path-45" points="0.336 0.973 7.866 38.256 24.019 38.5 32.155 0.851"></polygon>
        <polygon id="path-47" points="0.336 0.973 7.866 38.256 24.019 38.5 32.155 0.851"></polygon>
        <polygon id="path-49" points="0.336 0.973 7.866 38.256 24.019 38.5 32.155 0.851"></polygon>
        <polygon id="path-51" points="0.336 0.973 7.866 38.256 24.019 38.5 32.155 0.851"></polygon>
        <polygon id="path-53" points="0.336 0.973 7.866 38.256 24.019 38.5 32.155 0.851"></polygon>
        <polygon id="path-55" points="0.336 0.973 7.866 38.256 24.019 38.5 32.155 0.851"></polygon>
        <polygon id="path-57" points="0.336 0.973 7.866 38.256 24.019 38.5 32.155 0.851"></polygon>
        <polygon id="path-59" points="0.336 0.973 7.866 38.256 24.019 38.5 32.155 0.851"></polygon>
        <polygon id="path-61" points="0.336 0.973 7.866 38.256 24.019 38.5 32.155 0.851"></polygon>
        <polygon id="path-63" points="0.336 0.973 7.866 38.256 24.019 38.5 32.155 0.851"></polygon>
        <polygon id="path-65" points="0.336 0.973 7.866 38.256 24.019 38.5 32.155 0.851"></polygon>
        <polygon id="path-67" points="0.336 0.973 7.866 38.256 24.019 38.5 32.155 0.851"></polygon>
        <polygon id="path-69" points="0.336 0.973 7.866 38.256 24.019 38.5 32.155 0.851"></polygon>
        <polygon id="path-71" points="0.336 0.973 7.866 38.256 24.019 38.5 32.155 0.851"></polygon>
        <polygon id="path-73" points="0.336 0.973 7.866 38.256 24.019 38.5 32.155 0.851"></polygon>
    </defs>
    <g id="Esanjo-Way" stroke="none" stroke-width="1" fill="none" fill-rule="evenodd">
        <g id="Esanjo-Way---Beautiful-Email-Signatures" transform="translate(-95.000000, -85.000000)">
            <g id="Page-1" transform="translate(95.000000, 84.000000)">
                <g id="Group-78" transform="translate(0.000000, 0.219000)">
                    <path d="M406.7114,200.5554 L38.3794,200.5554 C22.3674,200.5554 9.3874,187.5754 9.3874,171.5624 L9.3874,36.2014 C9.3874,20.1894 22.3674,7.2074 38.3794,7.2074 L406.7114,7.2074 C422.7244,7.2074 435.7044,20.1894 435.7044,36.2014 L435.7044,171.5624 C435.7044,187.5754 422.7244,200.5554 406.7114,200.5554" id="Fill-1" fill="#F8F5F0"></path>
                    <mask id="mask-2" fill="white">
                        <use xlink:href="#path-1"></use>
                    </mask>
                    <g id="Clip-4"></g>
                    <polygon id="Fill-3" fill="#D2DCD6" mask="url(#mask-2)" points="290.269 200.555 353.361 200.555 353.361 112.273 290.269 112.273"></polygon>
                    <polygon id="Fill-5" fill="#D2DCD6" mask="url(#mask-2)" points="192.615 200.555 263.124 200.555 263.124 112.273 192.615 112.273"></polygon>
                    <path d="M279.0952,84.1374 L279.0952,95.7964 C279.0952,101.1404 275.2092,105.0264 268.4082,105.0264 C261.6072,105.0264 261.1212,109.3984 261.1212,109.3984 L284.9252,109.3984 L284.9252,83.1654 L279.0952,84.1374 Z" id="Fill-6" fill="#A9C3CF" mask="url(#mask-2)"></path>
                    <path d="M289.54,84.1374 L289.54,95.7964 C289.54,101.1404 293.426,105.0264 300.228,105.0264 C307.028,105.0264 307.514,109.3984 307.514,109.3984 L283.71,109.3984 L283.71,83.1654 L289.54,84.1374 Z" id="Fill-7" fill="#A9C3CF" mask="url(#mask-2)"></path>
                    <path d="M336.7832,88.9949 L231.8522,88.9949 C230.2492,88.9949 228.9372,87.6829 228.9372,86.0809 L228.9372,25.8429 C228.9372,24.2389 230.2492,22.9279 231.8522,22.9279 L336.7832,22.9279 C338.3862,22.9279 339.6982,24.2389 339.6982,25.8429 L339.6982,86.0809 C339.6982,87.6829 338.3862,88.9949 336.7832,88.9949" id="Fill-8" fill="#A9C3CF" mask="url(#mask-2)"></path>
                    <path d="M332.8691,84.6804 L235.7661,84.6804 C234.3291,84.6804 233.1541,83.5044 233.1541,82.0684 L233.1541,29.8554 C233.1541,28.4174 234.3291,27.2424 235.7661,27.2424 L332.8691,27.2424 C334.3061,27.2424 335.4811,28.4174 335.4811,29.8554 L335.4811,82.0684 C335.4811,83.5044 334.3061,84.6804 332.8691,84.6804" id="Fill-9" fill="#FFFFFF" mask="url(#mask-2)"></path>
                    <path d="M338.144,112.2732 L188.103,112.2732 C187.249,112.2732 186.55,111.5742 186.55,110.7192 C186.55,109.8652 187.249,109.1662 188.103,109.1662 L338.144,109.1662 C338.998,109.1662 339.698,109.8652 339.698,110.7192 C339.698,111.5742 338.998,112.2732 338.144,112.2732" id="Fill-10" fill="#A9C3CF" mask="url(#mask-2)"></path>
                    <polygon id="Fill-11" fill="#F8F5F0" mask="url(#mask-2)" points="200.631 136.886 255.687 136.886 255.687 121.341 200.631 121.341"></polygon>
                    <polygon id="Fill-12" fill="#F8F5F0" mask="url(#mask-2)" points="200.631 156.971 255.687 156.971 255.687 141.426 200.631 141.426"></polygon>
                    <polygon id="Fill-13" fill="#F8F5F0" mask="url(#mask-2)" points="200.631 193.734 255.687 193.734 255.687 161.511 200.631 161.511"></polygon>
                    <polygon id="Fill-14" fill="#F8F5F0" mask="url(#mask-2)" points="261.018 76.468 322.117 76.468 322.117 31.616 261.018 31.616"></polygon>
                    <polygon id="Fill-15" fill="#C34158" mask="url(#mask-2)" points="273.024 58.616 312.201 58.616 312.201 57.644 273.024 57.644"></polygon>
                    <path d="M297.4004,130.6003 L312.5534,183.3043 C312.5534,183.3043 324.4114,181.3283 323.7534,177.3753 C323.0934,173.4223 312.5534,135.2113 316.5054,135.2113 C320.4584,135.2113 354.0584,131.9173 354.0584,131.9173 C354.0584,131.9173 303.9884,124.0123 297.4004,130.6003" id="Fill-16" fill="#292480" mask="url(#mask-2)"></path>
                    <path d="M371.9116,143.5202 L330.7736,143.5202 C327.7366,143.5202 325.2506,141.0352 325.2506,137.9982 L325.2506,137.6242 C325.2506,134.5852 327.7366,132.1002 330.7736,132.1002 L371.9116,132.1002 C374.9496,132.1002 377.4346,134.5852 377.4346,137.6242 L377.4346,137.9982 C377.4346,141.0352 374.9496,143.5202 371.9116,143.5202" id="Fill-17" fill="#C34158" mask="url(#mask-2)"></path>
                    <path d="M352.1743,131.9177 C352.1743,131.9177 365.0943,132.1007 371.2423,124.1947 C377.3923,116.2887 379.1493,108.8217 381.3453,102.2327 C383.5413,95.6457 406.3733,69.0057 404.6163,83.9387 C402.8603,98.8727 382.6623,107.9427 380.0283,133.4187 C380.0283,133.4187 381.3453,144.8387 368.6083,143.5207 C355.8703,142.2027 352.1743,131.9177 352.1743,131.9177" id="Fill-18" fill="#C34158" mask="url(#mask-2)"></path>
                    <path d="M380.3003,64.0202 L387.0353,54.0652 L396.6983,54.0652 L395.8203,64.0202 L380.8863,69.8762 C380.8863,69.8762 380.1913,67.9332 380.3003,64.0202" id="Fill-19" fill="#FDD2B7" mask="url(#mask-2)"></path>
                    <path d="M249.9663,161.5642 L258.5303,169.4692 C258.5303,169.4692 293.4473,129.2832 303.9883,129.2832 C314.5293,129.2832 344.8343,131.9182 354.0583,131.9182 C363.2803,131.9182 373.8213,127.9642 379.0923,109.5182 C379.0923,109.5182 313.8703,108.8592 305.3063,109.5182 C296.7413,110.1772 290.1543,112.1532 277.6363,127.9642 C265.1193,143.7762 249.9663,161.5642 249.9663,161.5642" id="Fill-20" fill="#293E96" mask="url(#mask-2)"></path>
                    <path d="M346.1519,109.5183 C346.1519,109.5183 375.1389,73.2843 371.1869,73.9433 C367.2339,74.6013 354.7159,75.2603 354.7159,75.2603 C354.7159,75.2603 359.9869,64.7193 354.7159,64.7193 C354.7159,64.7193 376.4579,60.1083 380.4099,60.1083 C384.3629,60.1083 378.4329,66.0373 386.3399,66.0373 C394.2449,66.0373 396.2209,60.1083 396.2209,60.1083 C396.2209,60.1083 413.3499,82.5073 415.3269,87.1193 C415.3269,87.1193 404.7859,89.0953 406.7619,96.3423 L398.1979,84.4843 C398.1979,84.4843 394.9039,81.8483 392.2679,88.4363 C389.6329,95.0243 379.0919,109.5183 379.0919,109.5183 C379.0919,109.5183 374.4809,119.4003 360.6459,116.1063 C346.8109,112.8123 346.1519,109.5183 346.1519,109.5183" id="Fill-21" fill="#B7B33E" mask="url(#mask-2)"></path>
                    <path d="M379.6929,52.7995 C379.6929,52.7995 378.4249,58.5015 386.6609,57.8675 C394.8969,57.2345 395.8469,58.1845 399.3319,48.0485 C402.8149,37.9125 405.3489,28.0935 393.9469,28.0935 C382.5439,28.0935 378.7429,36.3285 379.6929,52.7995" id="Fill-22" fill="#FDD4AB" mask="url(#mask-2)"></path>
                    <path d="M376.7212,31.0701 C376.7212,31.0701 380.3612,39.6721 388.9612,35.3711 C397.5622,31.0701 398.8852,35.7021 398.8852,35.7021 C398.8852,35.7021 405.8322,33.3861 401.5322,29.4171 C397.2312,25.4471 393.5922,24.1241 387.3072,27.1011 C381.0222,30.0781 376.7212,31.0701 376.7212,31.0701" id="Fill-23" fill="#3951A3" mask="url(#mask-2)"></path>
                    <path d="M398.5542,50.5876 C398.5542,50.5876 390.9462,40.3326 395.9082,33.0556 C400.8702,25.7776 404.1782,30.7396 403.5172,35.7016 C402.8552,40.6636 398.5542,50.5876 398.5542,50.5876" id="Fill-24" fill="#3951A3" mask="url(#mask-2)"></path>
                    <path d="M354.7163,64.7195 L317.0523,70.1695 C317.0523,70.1695 310.9033,67.8265 308.8533,67.8265 C306.8033,67.8265 304.6303,69.5075 303.5823,71.3415 C302.4113,73.3905 307.9743,76.6125 311.7813,77.7825 C315.4303,78.9065 317.3443,75.4405 323.4943,75.1485 C329.6433,74.8555 354.7163,75.2605 354.7163,75.2605 C354.7163,75.2605 359.8783,64.5395 354.7163,64.7195" id="Fill-25" fill="#FDD4AB" mask="url(#mask-2)"></path>
                    <path d="M406.7622,96.3425 L432.7152,127.8555 C432.7152,127.8555 435.9362,131.3685 435.9362,133.7115 C435.9362,136.0535 443.5492,141.3235 447.6492,137.8105 C451.7472,134.2965 450.2832,129.0265 445.8922,129.6125 C441.4992,130.1965 438.8642,126.9765 437.1072,124.0485 C435.3502,121.1195 415.3262,87.1185 415.3262,87.1185 C415.3262,87.1185 405.4062,87.9625 406.7622,96.3425" id="Fill-26" fill="#FDD4AB" mask="url(#mask-2)"></path>
                    <path d="M355.5571,182.1726 C352.9001,182.1726 350.7261,179.9976 350.7261,177.3406 L350.7261,142.6426 C350.7261,139.9846 352.9001,137.8106 355.5571,137.8106 C358.2151,137.8106 360.3891,139.9846 360.3891,142.6426 L360.3891,177.3406 C360.3891,179.9976 358.2151,182.1726 355.5571,182.1726" id="Fill-27" fill="#C34158" mask="url(#mask-2)"></path>
                    <path d="M354.8989,171.1921 C351.6369,171.1921 348.9689,173.8601 348.9689,177.1221 L348.9689,188.1021 C348.9689,191.3631 351.6369,194.0321 354.8989,194.0321 C358.1599,194.0321 360.8289,191.3631 360.8289,188.1021 L360.8289,177.1221 C360.8289,173.8601 358.1599,171.1921 354.8989,171.1921" id="Fill-28" fill="#C34158" mask="url(#mask-2)"></path>
                    <path d="M321.4976,205.2204 L319.3406,204.8054 C319.4356,204.3094 321.7526,192.6544 328.5346,191.2004 C334.6316,189.8944 351.6786,186.8324 351.8506,186.8014 L352.2376,188.9634 C352.0656,188.9934 335.0556,192.0494 328.9946,193.3484 C324.5426,194.3024 322.0736,202.2414 321.4976,205.2204" id="Fill-29" fill="#C34158" mask="url(#mask-2)"></path>
                    <path d="M386.9819,205.2204 C386.4059,202.2414 383.9369,194.3024 379.4849,193.3484 C373.4229,192.0494 356.4139,188.9934 356.2419,188.9634 L356.6289,186.8014 C356.8009,186.8324 373.8479,189.8944 379.9449,191.2004 C386.7269,192.6544 389.0439,204.3094 389.1379,204.8054 L386.9819,205.2204 Z" id="Fill-30" fill="#C34158" mask="url(#mask-2)"></path>
                    <path d="M321.7373,202.8161 C321.7373,204.9991 319.9673,206.7691 317.7843,206.7691 C315.6013,206.7691 313.8313,204.9991 313.8313,202.8161 C313.8313,200.6321 315.6013,198.8631 317.7843,198.8631 C319.9673,198.8631 321.7373,200.6321 321.7373,202.8161" id="Fill-31" fill="#293E96" mask="url(#mask-2)"></path>
                    <path d="M394.2095,202.8161 C394.2095,204.9991 392.4395,206.7691 390.2565,206.7691 C388.0725,206.7691 386.3035,204.9991 386.3035,202.8161 C386.3035,200.6321 388.0725,198.8631 390.2565,198.8631 C392.4395,198.8631 394.2095,200.6321 394.2095,202.8161" id="Fill-32" fill="#293E96" mask="url(#mask-2)"></path>
                    <path d="M258.5308,169.4695 C258.5308,169.4695 258.0498,174.2665 247.9468,175.5835 C237.8448,176.9025 231.6958,177.3405 231.6958,177.3405 C231.6958,177.3405 229.9388,172.9485 236.0878,171.1925 C242.2378,169.4355 249.9668,161.5645 249.9668,161.5645 L258.5308,169.4695 Z" id="Fill-33" fill="#F18D65" mask="url(#mask-2)"></path>
                    <path d="M312.5532,183.3044 C312.5532,183.3044 304.1682,194.0324 301.5322,196.2274 C298.8972,198.4234 303.2892,200.1804 312.0742,195.7884 C320.8592,191.3964 329.2822,189.7074 323.7532,177.3754 L312.5532,183.3044 Z" id="Fill-34" fill="#F18D65" mask="url(#mask-2)"></path>
                    <path d="M236.9658,127.4949 L219.3528,127.4949 C218.8528,127.4949 218.4438,127.0849 218.4438,126.5849 C218.4438,126.0849 218.8528,125.6759 219.3528,125.6759 L236.9658,125.6759 C237.4658,125.6759 237.8748,126.0849 237.8748,126.5849 C237.8748,127.0849 237.4658,127.4949 236.9658,127.4949" id="Fill-35" fill="#D2DCD6" mask="url(#mask-2)"></path>
                    <path d="M236.9658,146.5408 L219.3528,146.5408 C218.8528,146.5408 218.4438,146.1318 218.4438,145.6318 C218.4438,145.1308 218.8528,144.7218 219.3528,144.7218 L236.9658,144.7218 C237.4658,144.7218 237.8748,145.1308 237.8748,145.6318 C237.8748,146.1318 237.4658,146.5408 236.9658,146.5408" id="Fill-36" fill="#D2DCD6" mask="url(#mask-2)"></path>
                    <path d="M236.9658,168.5017 L219.3528,168.5017 C218.8528,168.5017 218.4438,168.0927 218.4438,167.5927 C218.4438,167.0917 218.8528,166.6827 219.3528,166.6827 L236.9658,166.6827 C237.4658,166.6827 237.8748,167.0917 237.8748,167.5927 C237.8748,168.0927 237.4658,168.5017 236.9658,168.5017" id="Fill-37" fill="#D2DCD6" mask="url(#mask-2)"></path>
                    <polygon id="Fill-38" fill="#D2DCD6" mask="url(#mask-2)" points="239.767 76.468 261.018 76.468 261.018 31.616 239.767 31.616"></polygon>
                    <polygon id="Fill-39" fill="#C34158" mask="url(#mask-2)" points="273.024 38.919 307.515 38.919 307.515 37.947 273.024 37.947"></polygon>
                    <polygon id="Fill-40" fill="#C34158" mask="url(#mask-2)" points="239.767 38.433 246.584 38.433 246.584 31.616 239.767 31.616"></polygon>
                    <path d="M329.3018,35.862 C329.3018,36.781 328.5578,37.525 327.6388,37.525 C326.7208,37.525 325.9768,36.781 325.9768,35.862 C325.9768,34.944 326.7208,34.2 327.6388,34.2 C328.5578,34.2 329.3018,34.944 329.3018,35.862" id="Fill-41" fill="#C34158" mask="url(#mask-2)"></path>
                    <polygon id="Fill-42" fill="#C34158" mask="url(#mask-2)" points="273.024 43.721 312.201 43.721 312.201 42.749 273.024 42.749"></polygon>
                    <polygon id="Fill-43" fill="#C34158" mask="url(#mask-2)" points="273.024 47.445 312.201 47.445 312.201 46.473 273.024 46.473"></polygon>
                    <polygon id="Fill-44" fill="#C34158" mask="url(#mask-2)" points="273.024 51.169 312.201 51.169 312.201 50.197 273.024 50.197"></polygon>
                    <polygon id="Fill-45" fill="#C34158" mask="url(#mask-2)" points="273.024 54.892 312.201 54.892 312.201 53.92 273.024 53.92"></polygon>
                    <polygon id="Fill-46" fill="#C34158" mask="url(#mask-2)" points="273.024 62.34 298.592 62.34 298.592 61.368 273.024 61.368"></polygon>
                    <polygon id="Fill-47" fill="#B7B33E" mask="url(#mask-2)" points="325.515 50.878 331.957 50.878 331.957 40.689 325.515 40.689"></polygon>
                    <polygon id="Fill-48" fill="#B7B33E" mask="url(#mask-2)" points="239.767 49.077 261.018 49.077 261.018 38.433 239.767 38.433"></polygon>
                    <polygon id="Fill-49" fill="#293E96" mask="url(#mask-2)" points="239.767 59.728 261.018 59.728 261.018 49.084 239.767 49.084"></polygon>
                    <path d="M229.7197,17.613 C226.4767,14.965 222.9037,12.641 219.2267,10.574 C215.5437,8.504 211.7027,6.71 207.7397,5.239 C199.8107,2.358 191.3027,0.814 182.8737,1.533 C181.8237,1.631 180.7727,1.721 179.7327,1.903 C178.6857,2.039 177.6517,2.248 176.6217,2.476 C175.5827,2.68 174.5737,2.953 173.6217,3.351 C173.1507,3.554 172.6907,3.786 172.2917,4.085 C171.8857,4.372 171.5317,4.726 171.3227,5.143 C170.8657,5.977 171.1367,7.005 171.6687,7.844 C172.1947,8.704 172.9407,9.443 173.7217,10.123 C175.3067,11.474 177.1177,12.571 178.9787,13.543 C182.7207,15.451 186.7357,16.898 190.8607,17.622 C192.9147,17.958 195.0337,18.14 197.0317,17.762 C198.0257,17.577 198.9777,17.217 199.7147,16.616 C200.4357,16.02 200.9097,15.114 200.9897,14.208 C201.0597,13.305 200.6277,12.425 199.9687,11.709 C199.3127,10.985 198.4687,10.397 197.5837,9.888 C195.7967,8.879 193.8167,8.169 191.8107,7.59 C187.7817,6.452 183.5987,5.81 179.4067,5.452 C171.0097,4.772 162.5337,5.056 154.1897,6.153 C137.5307,8.318 121.1337,13.604 107.2777,22.666 L104.5787,18.176 C112.2517,14.003 120.3297,10.754 128.6367,8.46 C136.9257,6.109 145.4077,4.605 153.9327,3.821 C162.4597,3.086 171.0497,2.985 179.5557,3.949 C183.8027,4.449 188.0437,5.144 192.1627,6.407 C194.2177,7.046 196.2507,7.813 198.1427,8.931 C199.0817,9.498 199.9957,10.15 200.7527,11.015 C201.5047,11.856 202.0937,13.042 201.9697,14.286 C201.8387,15.493 201.2387,16.591 200.3177,17.346 C199.3947,18.085 198.2897,18.468 197.2027,18.664 C195.0117,19.053 192.8277,18.831 190.7127,18.467 C186.4797,17.683 182.4307,16.176 178.6357,14.199 C176.7477,13.19 174.9107,12.058 173.2757,10.638 C172.4687,9.92 171.6897,9.142 171.1117,8.181 C170.8267,7.703 170.5867,7.175 170.4937,6.593 C170.3957,6.015 170.4867,5.381 170.7707,4.855 C171.0477,4.323 171.4777,3.912 171.9357,3.592 C172.3907,3.26 172.8887,3.016 173.3917,2.804 C174.4027,2.393 175.4557,2.122 176.5007,1.926 C177.5437,1.696 178.5887,1.482 179.6477,1.343 C180.6997,1.159 181.7637,1.064 182.8257,0.964 C191.3537,0.223 199.9487,1.777 207.9477,4.665 C211.9607,6.1 215.8547,7.864 219.5957,9.908 C221.4677,10.927 223.3017,12.017 225.0937,13.174 C226.8917,14.329 228.6457,15.525 230.3427,16.867 L229.7197,17.613 Z" id="Fill-50" fill="#D2DCD6" mask="url(#mask-2)"></path>
                    <path d="M127.8374,51.654 L77.0354,47.408 C74.2194,47.173 72.1284,44.7 72.3634,41.884 L74.3144,18.554 C74.5494,15.739 77.0224,13.648 79.8374,13.883 L130.6394,18.13 C133.4554,18.365 135.5464,20.838 135.3114,23.653 L133.3604,46.983 C133.1254,49.799 130.6524,51.889 127.8374,51.654" id="Fill-51" fill="#FFFFFF" mask="url(#mask-2)"></path>
                    <path d="M90.6802,40.489 L81.6432,39.734 C80.0462,39.6 78.8482,38.184 78.9812,36.587 L79.4422,31.08 C79.5752,29.482 80.9922,28.285 82.5892,28.419 L91.6262,29.174 C93.2232,29.307 94.4212,30.723 94.2872,32.321 L93.8272,37.828 C93.6942,39.425 92.2772,40.623 90.6802,40.489" id="Fill-52" fill="#C34158" mask="url(#mask-2)"></path>
                    <path d="M91.5308,26.1853 C91.3228,28.6743 89.1348,30.5243 86.6458,30.3163 C84.1558,30.1083 82.3058,27.9203 82.5138,25.4313 C82.7218,22.9413 84.9088,21.0913 87.3988,21.2993 C89.8888,21.5073 91.7388,23.6953 91.5308,26.1853" id="Fill-53" fill="#293E96" mask="url(#mask-2)"></path>
                    <polygon id="Fill-54" fill="#A9C3CF" mask="url(#mask-2)" points="128.665 29.2888 97.037 26.6448 97.198 24.7188 128.826 27.3618"></polygon>
                    <polygon id="Fill-55" fill="#A9C3CF" mask="url(#mask-2)" points="126.311 34.1189 97.588 31.7189 97.669 30.7509 126.393 33.1509"></polygon>
                    <polygon id="Fill-56" fill="#A9C3CF" mask="url(#mask-2)" points="126.1489 36.0554 97.4259 33.6544 97.5069 32.6864 126.2309 35.0874"></polygon>
                    <polygon id="Fill-57" fill="#A9C3CF" mask="url(#mask-2)" points="125.9878 37.9919 97.2638 35.5909 97.3458 34.6229 126.0698 37.0239"></polygon>
                    <polygon id="Fill-58" fill="#A9C3CF" mask="url(#mask-2)" points="125.8252 39.9285 97.1022 37.5275 97.1832 36.5595 125.9072 38.9605"></polygon>
                    <polygon id="Fill-59" fill="#A9C3CF" mask="url(#mask-2)" points="125.6631 41.865 96.9401 39.464 97.0211 38.496 125.7451 40.897"></polygon>
                    <path d="M73.1724,209.3171 L55.5624,209.3171 C55.1574,209.3171 54.8264,208.9861 54.8264,208.5811 L54.8264,208.0741 C54.8264,207.6701 55.1574,207.3381 55.5624,207.3381 L73.1724,207.3381 C73.5774,207.3381 73.9084,207.6701 73.9084,208.0741 L73.9084,208.5811 C73.9084,208.9861 73.5774,209.3171 73.1724,209.3171" id="Fill-60" fill="#D2DCD6" mask="url(#mask-2)"></path>
                    <polygon id="Fill-61" fill="#D2DCD6" mask="url(#mask-2)" points="55.9975 208.6794 48.2935 171.2954 49.2445 171.0994 56.9485 208.4844"></polygon>
                    <polygon id="Fill-62" fill="#D2DCD6" mask="url(#mask-2)" points="72.8921 208.6794 71.9411 208.4844 79.6461 171.0994 80.5971 171.2954"></polygon>
                    <path d="M38.3306,98.8503 L39.5416,104.1003 C39.5416,104.1003 35.1006,113.7913 36.3116,118.6383 C37.5226,123.4843 40.3506,129.5413 40.3506,129.5413 L98.9056,149.7333 L108.2826,141.8373 L114.2506,136.8103 C114.2506,136.8103 96.4826,127.5223 93.2516,126.7143 C90.0216,125.9073 79.9256,121.8693 79.5216,120.2533 C79.1176,118.6383 73.8686,115.0033 69.8296,110.9653 C65.7916,106.9263 58.9266,102.4853 58.9266,102.4853 L53.6766,98.8503 L38.3306,98.8503 Z" id="Fill-63" fill="#293E96" mask="url(#mask-2)"></path>
                    <path d="M159.2295,119.6384 L98.6155,141.5824 L108.2825,141.8374 L129.5965,151.3484 L129.8215,158.6784 L159.8845,139.6374 C159.8845,139.6374 172.1525,132.9644 159.2295,119.6384" id="Fill-64" fill="#B7B33E" mask="url(#mask-2)"></path>
                    <path d="M152.6152,138.8298 C152.6152,138.8298 150.1922,146.5028 155.4422,158.2138 C160.6922,169.9248 168.8502,192.5908 168.8502,192.5908 L184.6002,188.5518 C184.6002,188.5518 170.3222,136.4848 168.2312,131.1398 C163.7302,119.6388 156.6542,109.7538 152.6152,138.8298" id="Fill-65" fill="#B7B33E" mask="url(#mask-2)"></path>
                    <path d="M41.5615,98.0427 L41.5615,88.3507 L48.8305,88.3507 L53.8165,93.5757 L53.6765,98.8507 C53.6765,98.8507 40.7535,101.6777 41.5615,98.0427" id="Fill-66" fill="#FDD4AB" mask="url(#mask-2)"></path>
                    <path d="M41.5615,88.3503 C41.5615,88.3503 53.2865,95.8963 57.3235,94.4603 C61.3595,93.0253 59.9555,77.2983 59.4395,74.2073 C58.9245,71.1183 45.0185,63.3913 41.9275,69.0573 C38.8375,74.7223 41.5615,88.3503 41.5615,88.3503" id="Fill-67" fill="#FDD4AB" mask="url(#mask-2)"></path>
                    <path d="M44.5029,93.2654 C44.5029,93.2654 38.3219,94.8104 37.8069,89.1444 C37.2919,83.4794 33.8299,73.3204 36.9199,69.2004 C40.0099,65.0784 47.5929,63.3914 53.7739,66.4824 C59.9549,69.5724 60.9849,66.4824 60.9849,66.4824 C60.9849,66.4824 64.5899,69.5724 59.4399,74.2074 C54.2889,78.8434 41.9279,67.5124 44.5029,93.2654" id="Fill-68" fill="#293E96" mask="url(#mask-2)"></path>
                    <polygon id="Fill-69" fill="#A9C3CF" mask="url(#mask-2)" points="114.251 136.8103 115.066 134.4703 150.606 122.6233 152.667 86.5693 154.211 86.5693 152.151 123.1383"></polygon>
                    <path d="M71.3838,139.9245 L118.2628,121.0095 C118.2628,121.0095 124.4548,120.0465 128.8518,120.2195 C131.4258,120.3205 129.2878,120.0825 123.3078,123.1385 C117.5128,126.1005 114.0128,127.8405 114.0128,127.8405 L88.4138,145.4685 L71.3838,139.9245 Z" id="Fill-70" fill="#FDD4AB" mask="url(#mask-2)"></path>
                    <path d="M132.4502,125.4568 C132.4502,125.4568 125.7542,122.2368 123.0502,122.2368 C120.3462,122.2368 128.2002,119.1468 130.0032,120.5628 C131.8062,121.9798 137.8582,128.4188 132.4502,125.4568" id="Fill-71" fill="#FDD4AB" mask="url(#mask-2)"></path>
                    <path d="M121.376,122.6238 C121.376,122.6238 124.981,125.1988 128.33,123.6538 C131.677,122.1088 125.239,121.5938 125.239,121.5938 L121.376,122.6238 Z" id="Fill-72" fill="#FDD4AB" mask="url(#mask-2)"></path>
                    <path d="M0,201.3347 C0,201.3347 5.83,178.0167 7.772,166.3567 C9.716,154.6987 16.031,129.9237 24.775,119.2357 C33.519,108.5497 58.294,137.2027 74.326,138.1817 C86.573,138.9297 98.734,140.2667 111.246,141.0967 C126.671,142.1207 137.217,151.1247 139.908,165.3867 C144.766,191.1327 142.336,189.6757 147.194,192.1047 C152.052,194.5337 157.396,200.8487 153.024,201.3347 C148.652,201.8197 0,201.3347 0,201.3347" id="Fill-73" fill="#C34158" mask="url(#mask-2)"></path>
                    <polygon id="Fill-74" fill="#FDD4AB" mask="url(#mask-2)" points="168.8506 192.5906 170.0266 196.4766 177.3136 194.5336 176.3416 190.1606"></polygon>
                    <path d="M170.0264,196.4763 C170.0264,196.4763 166.1404,203.7633 170.0264,203.7633 L190.9154,203.7633 C190.9154,203.7633 192.8594,196.9623 177.3134,194.5343 L170.0264,196.4763 Z" id="Fill-75" fill="#C34158" mask="url(#mask-2)"></path>
                    <path d="M54.6514,168.5437 C54.6514,168.5437 54.8944,166.8437 55.6234,166.8437 C56.3514,166.8437 68.2534,161.7427 68.2534,161.7427 C68.2534,161.7427 63.6384,166.3567 68.4964,166.3567 C73.3544,166.3567 75.2974,165.6287 75.2974,165.6287 L78.4554,168.3007 L80.6234,172.1877 L72.0184,208.4997 L55.8654,208.2567 L48.3364,170.9727 L49.7934,166.8437 L54.6514,168.5437 Z" id="Fill-76" fill="#FFFFFF" mask="url(#mask-2)"></path>
                    <path d="M80.623,172.1872 L48.111,172.1872 C47.567,172.1872 47.122,171.7422 47.122,171.1982 C47.122,170.6532 47.567,170.2082 48.111,170.2082 L80.623,170.2082 C81.167,170.2082 81.613,170.6532 81.613,171.1982 C81.613,171.7422 81.167,172.1872 80.623,172.1872" id="Fill-77" fill="#D2DCD6" mask="url(#mask-2)"></path>
                </g>
                <g id="Group-133" transform="translate(48.000000, 170.219000)">
                    <g id="Group-81">
                        <mask id="mask-4" fill="white">
                            <use xlink:href="#path-3"></use>
                        </mask>
                        <g id="Clip-80"></g>
                        <polygon id="Fill-79" fill="#D2DCD6" mask="url(#mask-4)" points="34.5654 61.9997 -17.3346 10.1007 -16.6476 9.4127 35.2524 61.3127"></polygon>
                    </g>
                    <g id="Group-84">
                        <mask id="mask-6" fill="white">
                            <use xlink:href="#path-5"></use>
                        </mask>
                        <g id="Clip-83"></g>
                        <polygon id="Fill-82" fill="#D2DCD6" mask="url(#mask-6)" points="36.144 60.4216 -15.756 8.5216 -15.069 7.8346 36.831 59.7346"></polygon>
                    </g>
                    <g id="Group-87">
                        <mask id="mask-8" fill="white">
                            <use xlink:href="#path-7"></use>
                        </mask>
                        <g id="Clip-86"></g>
                        <polygon id="Fill-85" fill="#D2DCD6" mask="url(#mask-8)" points="37.7231 58.8425 -14.1769 6.9425 -13.4899 6.2555 38.4101 58.1555"></polygon>
                    </g>
                    <g id="Group-90">
                        <mask id="mask-10" fill="white">
                            <use xlink:href="#path-9"></use>
                        </mask>
                        <g id="Clip-89"></g>
                        <polygon id="Fill-88" fill="#D2DCD6" mask="url(#mask-10)" points="39.3018 57.2634 -12.5982 5.3644 -11.9112 4.6764 39.9888 56.5764"></polygon>
                    </g>
                    <g id="Group-93">
                        <mask id="mask-12" fill="white">
                            <use xlink:href="#path-11"></use>
                        </mask>
                        <g id="Clip-92"></g>
                        <polygon id="Fill-91" fill="#D2DCD6" mask="url(#mask-12)" points="40.8809 55.6843 -11.0191 3.7853 -10.3321 3.0983 41.5679 54.9973"></polygon>
                    </g>
                    <g id="Group-96">
                        <mask id="mask-14" fill="white">
                            <use xlink:href="#path-13"></use>
                        </mask>
                        <g id="Clip-95"></g>
                        <polygon id="Fill-94" fill="#D2DCD6" mask="url(#mask-14)" points="42.4595 54.1062 -9.4405 2.2062 -8.7535 1.5192 43.1465 53.4192"></polygon>
                    </g>
                    <g id="Group-99">
                        <mask id="mask-16" fill="white">
                            <use xlink:href="#path-15"></use>
                        </mask>
                        <g id="Clip-98"></g>
                        <polygon id="Fill-97" fill="#D2DCD6" mask="url(#mask-16)" points="44.0381 52.5271 -7.8619 0.6281 -7.1749 -0.0599 44.7251 51.8401"></polygon>
                    </g>
                    <g id="Group-102">
                        <mask id="mask-18" fill="white">
                            <use xlink:href="#path-17"></use>
                        </mask>
                        <g id="Clip-101"></g>
                        <polygon id="Fill-100" fill="#D2DCD6" mask="url(#mask-18)" points="45.6172 50.948 -6.2828 -0.951 -5.5958 -1.639 46.3042 50.261"></polygon>
                    </g>
                    <g id="Group-105">
                        <mask id="mask-20" fill="white">
                            <use xlink:href="#path-19"></use>
                        </mask>
                        <g id="Clip-104"></g>
                        <polygon id="Fill-103" fill="#D2DCD6" mask="url(#mask-20)" points="47.1958 49.3699 -4.7042 -2.5301 -4.0172 -3.2171 47.8828 48.6829"></polygon>
                    </g>
                    <g id="Group-108">
                        <mask id="mask-22" fill="white">
                            <use xlink:href="#path-21"></use>
                        </mask>
                        <g id="Clip-107"></g>
                        <polygon id="Fill-106" fill="#D2DCD6" mask="url(#mask-22)" points="48.7749 47.7908 -3.1251 -4.1092 -2.4381 -4.7962 49.4619 47.1038"></polygon>
                    </g>
                    <g id="Group-111">
                        <mask id="mask-24" fill="white">
                            <use xlink:href="#path-23"></use>
                        </mask>
                        <g id="Clip-110"></g>
                        <polygon id="Fill-109" fill="#D2DCD6" mask="url(#mask-24)" points="50.3535 46.2117 -1.5465 -5.6873 -0.8595 -6.3753 51.0405 45.5247"></polygon>
                    </g>
                    <g id="Group-114">
                        <mask id="mask-26" fill="white">
                            <use xlink:href="#path-25"></use>
                        </mask>
                        <g id="Clip-113"></g>
                        <polygon id="Fill-112" fill="#D2DCD6" mask="url(#mask-26)" points="51.9321 44.6326 0.0331 -7.2664 0.7191 -7.9534 52.6191 43.9456"></polygon>
                    </g>
                    <g id="Group-117">
                        <mask id="mask-28" fill="white">
                            <use xlink:href="#path-27"></use>
                        </mask>
                        <g id="Clip-116"></g>
                        <polygon id="Fill-115" fill="#D2DCD6" mask="url(#mask-28)" points="53.5112 43.0544 1.6112 -8.8456 2.2982 -9.5326 54.1982 42.3674"></polygon>
                    </g>
                    <g id="Group-120">
                        <mask id="mask-30" fill="white">
                            <use xlink:href="#path-29"></use>
                        </mask>
                        <g id="Clip-119"></g>
                        <polygon id="Fill-118" fill="#D2DCD6" mask="url(#mask-30)" points="55.0898 41.4753 3.1898 -10.4237 3.8768 -11.1117 55.7768 40.7883"></polygon>
                    </g>
                    <g id="Group-123">
                        <mask id="mask-32" fill="white">
                            <use xlink:href="#path-31"></use>
                        </mask>
                        <g id="Clip-122"></g>
                        <polygon id="Fill-121" fill="#D2DCD6" mask="url(#mask-32)" points="56.6689 39.8962 4.7689 -12.0028 5.4559 -12.6908 57.3559 39.2092"></polygon>
                    </g>
                    <g id="Group-126">
                        <mask id="mask-34" fill="white">
                            <use xlink:href="#path-33"></use>
                        </mask>
                        <g id="Clip-125"></g>
                        <polygon id="Fill-124" fill="#D2DCD6" mask="url(#mask-34)" points="58.2476 38.3181 6.3476 -13.5819 7.0346 -14.2689 58.9346 37.6311"></polygon>
                    </g>
                    <g id="Group-129">
                        <mask id="mask-36" fill="white">
                            <use xlink:href="#path-35"></use>
                        </mask>
                        <g id="Clip-128"></g>
                        <polygon id="Fill-127" fill="#D2DCD6" mask="url(#mask-36)" points="59.8267 36.739 7.9267 -15.161 8.6137 -15.848 60.5137 36.052"></polygon>
                    </g>
                    <g id="Group-132">
                        <mask id="mask-38" fill="white">
                            <use xlink:href="#path-37"></use>
                        </mask>
                        <g id="Clip-131"></g>
                        <polygon id="Fill-130" fill="#D2DCD6" mask="url(#mask-38)" points="61.4053 35.1599 9.5053 -16.7391 10.1923 -17.4271 62.0923 34.4729"></polygon>
                    </g>
                </g>
                <g id="Group-188" transform="translate(48.000000, 170.219000)">
                    <g id="Group-136">
                        <mask id="mask-40" fill="white">
                            <use xlink:href="#path-39"></use>
                        </mask>
                        <g id="Clip-135"></g>
                        <polygon id="Fill-134" fill="#D2DCD6" mask="url(#mask-40)" points="-2.0737 61.9997 -2.7607 61.3127 49.1393 9.4127 49.8263 10.1007"></polygon>
                    </g>
                    <g id="Group-139">
                        <mask id="mask-42" fill="white">
                            <use xlink:href="#path-41"></use>
                        </mask>
                        <g id="Clip-138"></g>
                        <polygon id="Fill-137" fill="#D2DCD6" mask="url(#mask-42)" points="-3.6528 60.4216 -4.3398 59.7346 47.5602 7.8346 48.2472 8.5216"></polygon>
                    </g>
                    <g id="Group-142">
                        <mask id="mask-44" fill="white">
                            <use xlink:href="#path-43"></use>
                        </mask>
                        <g id="Clip-141"></g>
                        <polygon id="Fill-140" fill="#D2DCD6" mask="url(#mask-44)" points="-5.2315 58.8425 -5.9185 58.1555 45.9815 6.2555 46.6685 6.9425"></polygon>
                    </g>
                    <g id="Group-145">
                        <mask id="mask-46" fill="white">
                            <use xlink:href="#path-45"></use>
                        </mask>
                        <g id="Clip-144"></g>
                        <polygon id="Fill-143" fill="#D2DCD6" mask="url(#mask-46)" points="-6.8106 57.2634 -7.4976 56.5764 44.4024 4.6764 45.0894 5.3644"></polygon>
                    </g>
                    <g id="Group-148">
                        <mask id="mask-48" fill="white">
                            <use xlink:href="#path-47"></use>
                        </mask>
                        <g id="Clip-147"></g>
                        <polygon id="Fill-146" fill="#D2DCD6" mask="url(#mask-48)" points="-8.3892 55.6843 -9.0762 54.9973 42.8238 3.0983 43.5108 3.7853"></polygon>
                    </g>
                    <g id="Group-151">
                        <mask id="mask-50" fill="white">
                            <use xlink:href="#path-49"></use>
                        </mask>
                        <g id="Clip-150"></g>
                        <polygon id="Fill-149" fill="#D2DCD6" mask="url(#mask-50)" points="-9.9678 54.1062 -10.6548 53.4192 41.2452 1.5192 41.9322 2.2062"></polygon>
                    </g>
                    <g id="Group-154">
                        <mask id="mask-52" fill="white">
                            <use xlink:href="#path-51"></use>
                        </mask>
                        <g id="Clip-153"></g>
                        <polygon id="Fill-152" fill="#D2DCD6" mask="url(#mask-52)" points="-11.5469 52.5271 -12.2339 51.8401 39.6661 -0.0599 40.3531 0.6281"></polygon>
                    </g>
                    <g id="Group-157">
                        <mask id="mask-54" fill="white">
                            <use xlink:href="#path-53"></use>
                        </mask>
                        <g id="Clip-156"></g>
                        <polygon id="Fill-155" fill="#D2DCD6" mask="url(#mask-54)" points="-13.1255 50.948 -13.8125 50.261 38.0875 -1.639 38.7745 -0.951"></polygon>
                    </g>
                    <g id="Group-160">
                        <mask id="mask-56" fill="white">
                            <use xlink:href="#path-55"></use>
                        </mask>
                        <g id="Clip-159"></g>
                        <polygon id="Fill-158" fill="#D2DCD6" mask="url(#mask-56)" points="-14.7046 49.3699 -15.3916 48.6829 36.5084 -3.2171 37.1954 -2.5301"></polygon>
                    </g>
                    <g id="Group-163">
                        <mask id="mask-58" fill="white">
                            <use xlink:href="#path-57"></use>
                        </mask>
                        <g id="Clip-162"></g>
                        <polygon id="Fill-161" fill="#D2DCD6" mask="url(#mask-58)" points="-16.2832 47.7908 -16.9702 47.1038 34.9298 -4.7962 35.6168 -4.1092"></polygon>
                    </g>
                    <g id="Group-166">
                        <mask id="mask-60" fill="white">
                            <use xlink:href="#path-59"></use>
                        </mask>
                        <g id="Clip-165"></g>
                        <polygon id="Fill-164" fill="#D2DCD6" mask="url(#mask-60)" points="-17.8618 46.2117 -18.5488 45.5247 33.3512 -6.3753 34.0372 -5.6873"></polygon>
                    </g>
                    <g id="Group-169">
                        <mask id="mask-62" fill="white">
                            <use xlink:href="#path-61"></use>
                        </mask>
                        <g id="Clip-168"></g>
                        <polygon id="Fill-167" fill="#D2DCD6" mask="url(#mask-62)" points="-19.4409 44.6326 -20.1279 43.9456 31.7721 -7.9534 32.4591 -7.2664"></polygon>
                    </g>
                    <g id="Group-172">
                        <mask id="mask-64" fill="white">
                            <use xlink:href="#path-63"></use>
                        </mask>
                        <g id="Clip-171"></g>
                        <polygon id="Fill-170" fill="#D2DCD6" mask="url(#mask-64)" points="-21.0195 43.0544 -21.7065 42.3674 30.1935 -9.5326 30.8805 -8.8456"></polygon>
                    </g>
                    <g id="Group-175">
                        <mask id="mask-66" fill="white">
                            <use xlink:href="#path-65"></use>
                        </mask>
                        <g id="Clip-174"></g>
                        <polygon id="Fill-173" fill="#D2DCD6" mask="url(#mask-66)" points="-22.5986 41.4753 -23.2856 40.7883 28.6144 -11.1117 29.3014 -10.4237"></polygon>
                    </g>
                    <g id="Group-178">
                        <mask id="mask-68" fill="white">
                            <use xlink:href="#path-67"></use>
                        </mask>
                        <g id="Clip-177"></g>
                        <polygon id="Fill-176" fill="#D2DCD6" mask="url(#mask-68)" points="-24.1773 39.8962 -24.8643 39.2092 27.0357 -12.6908 27.7227 -12.0028"></polygon>
                    </g>
                    <g id="Group-181">
                        <mask id="mask-70" fill="white">
                            <use xlink:href="#path-69"></use>
                        </mask>
                        <g id="Clip-180"></g>
                        <polygon id="Fill-179" fill="#D2DCD6" mask="url(#mask-70)" points="-25.7564 38.3181 -26.4434 37.6311 25.4566 -14.2689 26.1436 -13.5819"></polygon>
                    </g>
                    <g id="Group-184">
                        <mask id="mask-72" fill="white">
                            <use xlink:href="#path-71"></use>
                        </mask>
                        <g id="Clip-183"></g>
                        <polygon id="Fill-182" fill="#D2DCD6" mask="url(#mask-72)" points="-27.335 36.739 -28.022 36.052 23.878 -15.848 24.565 -15.161"></polygon>
                    </g>
                    <g id="Group-187">
                        <mask id="mask-74" fill="white">
                            <use xlink:href="#path-73"></use>
                        </mask>
                        <g id="Clip-186"></g>
                        <polygon id="Fill-185" fill="#D2DCD6" mask="url(#mask-74)" points="-28.9136 35.1599 -29.6006 34.4729 22.2994 -17.4271 22.9864 -16.7391"></polygon>
                    </g>
                </g>
            </g>
        </g>
    </g>
</svg>