<?xml version="1.0" encoding="UTF-8"?>
<svg width="478px" height="210px" viewBox="0 0 478 210" version="1.1" xmlns="http://www.w3.org/2000/svg" xmlns:xlink="http://www.w3.org/1999/xlink">
    <!-- Generator: sketchtool 49.3 (51167) - http://www.bohemiancoding.com/sketch -->
    <title>92FE5F6C-D714-4C27-A020-CAEE8C1D1B30</title>
    <desc>Created with sketchtool.</desc>
    <defs></defs>
    <g id="Esanjo-Way" stroke="none" stroke-width="1" fill="none" fill-rule="evenodd">
        <g id="Esanjo-Way---Our-Engineering-Process" transform="translate(-76.000000, -96.000000)">
            <g id="Page-1" transform="translate(76.000000, 96.000000)">
                <path d="M14.1704,197.966 C14.1704,197.966 62.3494,182.456 33.0644,127.715 C3.7784,72.974 17.9484,62.938 51.0134,62.938 C84.0764,62.938 62.3494,22.794 96.3584,22.794 L185.1574,22.794 C214.4424,22.794 197.0124,-2.84e-14 227.2414,-2.84e-14 L325.4884,-2.84e-14 C358.5524,-2.84e-14 329.6934,26.444 352.3664,26.444 L394.8764,26.444 C416.6054,26.444 449.6684,24.619 449.6684,46.516 C449.6684,68.412 437.3874,93.958 458.1704,93.958 C478.9534,93.958 479.8984,114.942 463.8384,124.978 C447.7784,135.014 425.1074,154.173 441.1664,160.56 C457.2264,166.945 416.6054,189.127 430.7744,200.703 C430.7744,200.703 37.7874,221.687 14.1704,197.966" id="Fill-1" fill="#F8F5F0"></path>
                <polygon id="Fill-3" fill="#D26260" points="320.3833 188.1672 315.9123 155.8782 258.2903 154.8852 258.2903 187.6702"></polygon>
                <path d="M444.8999,187.302 L3.8249,187.302 C1.7209,187.302 0.0009,189.023 0.0009,191.126 L0.0009,205.84 C0.0009,207.943 1.7209,209.664 3.8249,209.664 L444.8999,209.664 C447.0029,209.664 448.7239,207.943 448.7239,205.84 L448.7239,191.126 C448.7239,189.023 447.0029,187.302 444.8999,187.302" id="Fill-5" fill="#724173"></path>
                <path d="M138.2026,140.7278 C138.2026,140.7278 132.9866,146.3168 132.9866,150.4148 C132.9866,154.5128 130.0066,168.2968 132.9866,168.2968 C135.9676,168.2968 135.4566,159.8148 139.6926,156.0028 C143.4186,152.6498 147.5156,145.1988 147.5156,145.1988 L138.2026,140.7278 Z" id="Fill-7" fill="#FDD4AB"></path>
                <path d="M272.6958,74.9094 C272.6958,74.9094 250.3418,64.9744 256.3028,42.1244 C262.2638,19.2744 282.1338,23.2474 288.5918,25.2354 C295.0498,27.2214 302.0038,25.2354 303.9908,36.6604 C305.9778,48.0854 309.4548,60.0074 296.5398,74.4124 C283.6248,88.8184 272.6958,74.9094 272.6958,74.9094" id="Fill-9" fill="#C34158"></path>
                <path d="M94.2407,81.8635 C94.2407,81.8635 83.0637,81.1185 72.6327,85.2175 C62.2007,89.3145 57.3577,98.6295 57.3577,112.7865 C57.3577,126.9435 56.2397,142.9635 59.9657,145.1985 C63.6907,147.4335 78.5937,153.3945 78.5937,153.3945 L91.3847,141.9695 L132.9867,168.2975 C132.9867,168.2975 134.4767,144.0815 135.2217,138.1205 C135.9677,132.1595 136.7127,116.1385 141.9287,119.1195 C147.1437,122.0995 151.2417,126.1985 151.2417,126.1985 L138.2027,140.7275 C138.2027,140.7275 142.6737,155.2585 145.2807,154.8845 C147.8887,154.5125 179.1837,127.3155 175.8307,123.2175 C172.4777,119.1195 149.7517,100.8645 141.1827,96.0205 C132.6137,91.1775 128.8877,83.3535 110.6337,85.2175 C92.3777,87.0795 94.2407,81.8635 94.2407,81.8635" id="Fill-11" fill="#724173"></path>
                <path d="M272.6958,74.9094 C272.6958,74.9094 277.1668,72.9224 276.1738,63.9804 C275.1788,55.0394 290.5788,67.9554 290.5788,67.9554 C290.5788,67.9554 292.0688,75.9024 292.0688,78.3874 C292.0688,80.8704 296.0428,94.7794 281.6368,91.7994 C267.2318,88.8184 272.6958,74.9094 272.6958,74.9094" id="Fill-13" fill="#FDD4AB"></path>
                <path d="M310.4487,80.3733 C310.4487,80.3733 322.8667,85.3413 324.3567,96.2693 C325.8467,107.1973 325.3507,127.5633 326.3447,131.5383 C327.3377,135.5123 328.8277,137.9953 335.2857,140.4793 C341.7437,142.9633 355.1547,146.4403 359.6257,149.4213 C364.0957,152.4013 376.5147,160.3493 372.0447,166.3103 C367.5737,172.2703 365.5867,162.8333 359.6257,160.8463 C353.6647,158.8583 318.3957,145.9433 315.9127,143.9563 C313.4287,141.9703 309.4547,84.3483 310.4487,80.3733" id="Fill-15" fill="#FDD4AB"></path>
                <path d="M258.2905,154.885 C258.2905,154.885 255.8065,101.734 255.8065,96.766 C255.8065,91.799 261.2705,82.858 254.8125,76.897 C254.8125,76.897 266.7345,69.446 272.6955,74.909 C278.6565,80.373 274.6835,90.805 285.1145,90.805 C295.5465,90.805 291.5715,74.412 291.5715,74.412 C291.5715,74.412 308.4615,71.929 310.4485,80.373 C312.4355,88.819 315.9125,155.878 315.9125,155.878 C315.9125,155.878 281.6375,164.82 258.2905,154.885" id="Fill-17" fill="#293E96"></path>
                <path d="M91.3843,141.97 C91.3843,141.97 80.4553,141.721 71.7633,156.623 C63.0703,171.526 53.1353,185.932 63.5673,192.141 C73.9983,198.35 97.0973,191.148 103.8033,190.403 C110.5093,189.658 115.4763,190.403 115.4763,190.403 L137.3333,188.912 C137.3333,188.912 136.8363,152.65 113.2403,147.434 C89.6463,142.218 91.3843,141.97 91.3843,141.97" id="Fill-19" fill="#B7B33E"></path>
                <path d="M254.813,76.8967 C254.813,76.8967 240.904,82.3607 240.408,95.7727 C239.911,109.1847 238.917,136.5047 244.381,141.9697 C249.845,147.4337 288.095,145.4467 294.056,146.4407 C300.017,147.4337 304.488,145.9437 306.971,149.9177 C309.455,153.8917 313.429,141.4727 306.971,139.4857 C300.513,137.4997 289.585,137.4997 289.585,137.4997 L257.296,131.0417 C257.296,131.0417 256.316,102.4247 256.551,96.7657 C256.8,90.8047 262.264,87.8247 254.813,76.8967" id="Fill-21" fill="#FDD4AB"></path>
                <path d="M92.4009,131.3147 C92.4009,131.3147 95.0889,134.5397 90.7889,145.0207 C86.4889,155.5027 97.2389,160.3407 100.1959,154.9647 C103.1519,149.5897 106.3779,148.2467 106.3779,148.2467 L92.4009,131.3147 Z" id="Fill-23" fill="#FDD4AB"></path>
                <path d="M271.7026,38.1506 C271.7026,38.1506 266.2376,63.4846 279.1536,70.9356 C292.0686,78.3866 300.0166,55.5366 297.5326,40.6336 C297.5326,40.6336 293.5586,24.2416 271.7026,38.1506" id="Fill-25" fill="#FDD4AB"></path>
                <path d="M276.6694,63.9807 C276.6694,63.9807 270.7084,59.5097 270.7084,51.0657 C270.7084,42.6217 272.6954,40.6337 275.1794,43.6147 C277.6634,46.5947 288.0954,46.5947 289.5854,37.1567 C289.5854,37.1567 291.5714,43.1177 300.0174,41.1307 C308.4614,39.1437 291.0754,26.7257 291.0754,26.7257 L267.7284,33.6797 L263.7544,54.5427 L276.6694,63.9807 Z" id="Fill-27" fill="#C34158"></path>
                <path d="M217.0981,190.1535 L149.5401,190.1535 C147.0811,190.1535 145.5231,188.1415 146.0761,185.6825 L155.9111,141.9695 C156.4641,139.5105 158.9291,137.4995 161.3881,137.4995 L228.9451,137.4995 C231.4041,137.4995 232.9631,139.5105 232.4101,141.9695 L222.5751,185.6825 C222.0211,188.1415 219.5571,190.1535 217.0981,190.1535" id="Fill-29" fill="#A9C3CF"></path>
                <path d="M175.5171,186.8996 L107.4161,186.8996 C106.5221,186.8996 105.7891,187.6316 105.7891,188.5266 C105.7891,189.4216 106.5221,190.1536 107.4161,190.1536 L175.5171,190.1536 C176.4131,190.1536 177.1441,189.4216 177.1441,188.5266 C177.1441,187.6316 176.4131,186.8996 175.5171,186.8996" id="Fill-31" fill="#A9C3CF"></path>
                <path d="M92.6704,125.9387 C92.6704,125.9387 98.3144,146.0957 102.0764,147.1707 C105.8394,148.2467 111.2144,149.3217 114.9774,146.6337 C118.7394,143.9467 124.1154,135.0777 122.5024,118.4137 C120.8904,101.7507 103.9584,106.8567 99.9264,108.4687 C95.8954,110.0827 89.4444,117.0697 92.6704,125.9387" id="Fill-33" fill="#FDD4AB"></path>
                <path d="M117.396,102.5569 C117.396,102.5569 123.041,114.9189 115.515,116.2639 C107.99,117.6079 98.583,115.4569 98.583,119.7569 C98.583,124.0579 103.42,130.5079 98.314,129.7019 C93.208,128.8959 100.196,134.2709 100.196,134.2709 C100.196,134.2709 98.852,139.9139 95.626,138.0339 C92.401,136.1519 89.445,126.4769 88.908,122.4449 C88.37,118.4129 89.983,106.5879 102.077,105.2449 C114.171,103.9009 116.859,100.6749 115.515,98.2559 L117.396,102.5569 Z" id="Fill-35" fill="#C34158"></path>
                <path d="M114.9771,111.1565 C114.9771,111.1565 122.5021,113.0385 122.7721,120.5635 C122.7721,120.5635 124.1161,111.6945 118.7401,107.3935 L114.9771,111.1565 Z" id="Fill-37" fill="#D24821"></path>
                <path d="M102.064,151.6565 C102.064,151.6565 101.071,156.8725 102.313,160.1005 C103.554,163.3295 92.875,166.8065 90.142,159.3555 C87.411,151.9045 90.789,145.0205 90.789,145.0205 L99.829,146.9365 L102.064,151.6565 Z" id="Fill-39" fill="#FDD4AB"></path>
                <path d="M99.4565,66.9612 C99.4565,66.9612 99.0835,76.6482 94.2405,81.8632 C89.3965,87.0792 103.1825,97.8842 106.9075,91.5502 L110.6335,85.2172 C110.6335,85.2172 105.4175,67.7062 99.4565,66.9612" id="Fill-41" fill="#FDD4AB"></path>
                <path d="M104.2993,182.2063 C104.2993,182.2063 108.0253,188.4153 103.8033,190.4023 L118.7053,190.4023 C120.4443,190.4023 120.1953,184.6893 114.4833,183.6963 C108.7703,182.7023 104.2993,182.2063 104.2993,182.2063" id="Fill-43" fill="#FDD4AB"></path>
                <path d="M110.0747,124.9075 C108.2327,124.9075 106.7347,126.4055 106.7347,128.2475 C106.7347,130.0895 108.2327,131.5875 110.0747,131.5875 C111.9157,131.5875 113.4137,130.0895 113.4137,128.2475 C113.4137,126.4055 111.9157,124.9075 110.0747,124.9075 M110.0747,133.4755 C107.1907,133.4755 104.8457,131.1315 104.8457,128.2475 C104.8457,125.3635 107.1907,123.0175 110.0747,123.0175 C112.9577,123.0175 115.3037,125.3635 115.3037,128.2475 C115.3037,131.1315 112.9577,133.4755 110.0747,133.4755" id="Fill-45" fill="#D24821"></path>
                <path d="M121.6235,124.9075 C119.7815,124.9075 118.2835,126.4055 118.2835,128.2475 C118.2835,130.0895 119.7815,131.5875 121.6235,131.5875 C123.4655,131.5875 124.9635,130.0895 124.9635,128.2475 C124.9635,126.4055 123.4655,124.9075 121.6235,124.9075 M121.6235,133.4755 C118.7405,133.4755 116.3945,131.1315 116.3945,128.2475 C116.3945,125.3635 118.7405,123.0175 121.6235,123.0175 C124.5065,123.0175 126.8525,125.3635 126.8525,128.2475 C126.8525,131.1315 124.5065,133.4755 121.6235,133.4755" id="Fill-47" fill="#D24821"></path>
                <path d="M115.2124,128.6496 L113.5044,127.8446 C113.6574,127.5196 114.4934,125.8956 115.9044,125.8956 C116.8154,125.8956 117.5854,126.5506 118.1944,127.8446 L116.4834,128.6496 C116.1284,127.8916 115.8774,127.7816 115.8744,127.7806 C115.7564,127.8246 115.3924,128.2706 115.2124,128.6496" id="Fill-49" fill="#D24821"></path>
                <path d="M103.5542,71.0598 C103.5542,71.0598 101.6922,87.4528 115.8492,87.4528 C130.0062,87.4528 128.8882,72.1768 138.2022,58.7648 C138.2022,58.7648 122.9272,44.2358 117.3392,45.7258 C111.7502,47.2158 103.5542,71.0598 103.5542,71.0598" id="Fill-51" fill="#FDD4AB"></path>
                <path d="M98.7114,56.5295 C98.7114,56.5295 94.2404,65.8435 99.4564,69.5695 C104.6724,73.2955 108.7704,69.1965 109.1434,65.8435 C109.5154,62.4905 107.2794,57.2745 112.1234,58.3925 C116.9664,59.5095 114.7314,51.6865 116.2214,50.9415 C117.7114,50.1965 122.9274,52.0585 127.0254,56.1575 C131.1234,60.2555 139.6924,59.5095 143.0454,55.0395 C143.0454,55.0395 151.2414,54.2945 150.4964,45.7255 C150.4964,45.7255 142.6734,48.7065 135.9674,44.6075 C129.2614,40.5095 120.3194,28.9605 112.1234,38.2745 C103.9274,47.5885 100.9464,39.7645 98.7114,56.5295" id="Fill-53" fill="#293E96"></path>
                <path d="M191.478,80.8703 L180.55,80.8703 C180.277,80.8703 180.053,80.6463 180.053,80.3733 C180.053,80.0993 180.277,79.8773 180.55,79.8773 L191.478,79.8773 C191.751,79.8773 191.975,80.0993 191.975,80.3733 C191.975,80.6463 191.751,80.8703 191.478,80.8703" id="Fill-55" fill="#B7B33E"></path>
                <path d="M191.478,83.8508 L180.55,83.8508 C180.277,83.8508 180.053,83.6268 180.053,83.3538 C180.053,83.0798 180.277,82.8578 180.55,82.8578 L191.478,82.8578 C191.751,82.8578 191.975,83.0798 191.975,83.3538 C191.975,83.6268 191.751,83.8508 191.478,83.8508" id="Fill-57" fill="#B7B33E"></path>
                <path d="M191.478,86.8313 L180.55,86.8313 C180.277,86.8313 180.053,86.6073 180.053,86.3343 C180.053,86.0603 180.277,85.8383 180.55,85.8383 L191.478,85.8383 C191.751,85.8383 191.975,86.0603 191.975,86.3343 C191.975,86.6073 191.751,86.8313 191.478,86.8313" id="Fill-59" fill="#B7B33E"></path>
                <path d="M195.8247,70.9358 C195.4827,70.9358 195.2037,70.6558 195.2037,70.3148 L195.2037,63.6088 C195.2037,63.2668 195.4827,62.9878 195.8247,62.9878 C196.1667,62.9878 196.4457,63.2668 196.4457,63.6088 L196.4457,70.3148 C196.4457,70.6558 196.1667,70.9358 195.8247,70.9358" id="Fill-61" fill="#B7B33E"></path>
                <path d="M191.8511,66.9612 C191.8511,66.6202 192.1301,66.3402 192.4721,66.3402 L199.1781,66.3402 C199.5191,66.3402 199.7981,66.6202 199.7981,66.9612 C199.7981,67.3032 199.5191,67.5822 199.1781,67.5822 L192.4721,67.5822 C192.1301,67.5822 191.8511,67.3032 191.8511,66.9612" id="Fill-63" fill="#B7B33E"></path>
                <path d="M219.0474,96.5178 C218.7054,96.5178 218.4264,96.2388 218.4264,95.8968 L218.4264,89.1908 C218.4264,88.8488 218.7054,88.5698 219.0474,88.5698 C219.3894,88.5698 219.6684,88.8488 219.6684,89.1908 L219.6684,95.8968 C219.6684,96.2388 219.3894,96.5178 219.0474,96.5178" id="Fill-65" fill="#FDD4AB"></path>
                <path d="M215.0737,92.5442 C215.0737,92.2022 215.3527,91.9232 215.6947,91.9232 L222.4007,91.9232 C222.7417,91.9232 223.0207,92.2022 223.0207,92.5442 C223.0207,92.8852 222.7417,93.1642 222.4007,93.1642 L215.6947,93.1642 C215.3527,93.1642 215.0737,92.8852 215.0737,92.5442" id="Fill-67" fill="#FDD4AB"></path>
                <path d="M167.6343,56.5295 C167.2933,56.5295 167.0133,56.2505 167.0133,55.9085 L167.0133,49.2025 C167.0133,48.8615 167.2933,48.5825 167.6343,48.5825 C167.9763,48.5825 168.2553,48.8615 168.2553,49.2025 L168.2553,55.9085 C168.2553,56.2505 167.9763,56.5295 167.6343,56.5295" id="Fill-69" fill="#FDD4AB"></path>
                <path d="M163.6606,52.5559 C163.6606,52.2139 163.9396,51.9349 164.2816,51.9349 L170.9876,51.9349 C171.3286,51.9349 171.6086,52.2139 171.6086,52.5559 C171.6086,52.8979 171.3286,53.1769 170.9876,53.1769 L164.2816,53.1769 C163.9396,53.1769 163.6606,52.8979 163.6606,52.5559" id="Fill-71" fill="#FDD4AB"></path>
                <path d="M379.4341,51.5627 C379.2361,51.5627 379.0751,51.4007 379.0751,51.2037 L379.0751,47.3267 C379.0751,47.1287 379.2361,46.9667 379.4341,46.9667 C379.6311,46.9667 379.7921,47.1287 379.7921,47.3267 L379.7921,51.2037 C379.7921,51.4007 379.6311,51.5627 379.4341,51.5627" id="Fill-73" fill="#FDD4AB"></path>
                <path d="M377.1362,49.2649 C377.1362,49.0679 377.2972,48.9059 377.4952,48.9059 L381.3712,48.9059 C381.5702,48.9059 381.7312,49.0679 381.7312,49.2649 C381.7312,49.4619 381.5702,49.6239 381.3712,49.6239 L377.4952,49.6239 C377.2972,49.6239 377.1362,49.4619 377.1362,49.2649" id="Fill-75" fill="#FDD4AB"></path>
                <path d="M417.2485,83.4162 C417.0505,83.4162 416.8895,83.2542 416.8895,83.0572 L416.8895,79.1802 C416.8895,78.9822 417.0505,78.8212 417.2485,78.8212 C417.4455,78.8212 417.6065,78.9822 417.6065,79.1802 L417.6065,83.0572 C417.6065,83.2542 417.4455,83.4162 417.2485,83.4162" id="Fill-77" fill="#B7B33E"></path>
                <path d="M414.9507,81.1184 C414.9507,80.9214 415.1117,80.7604 415.3097,80.7604 L419.1867,80.7604 C419.3847,80.7604 419.5457,80.9214 419.5457,81.1184 C419.5457,81.3154 419.3847,81.4774 419.1867,81.4774 L415.3097,81.4774 C415.1117,81.4774 414.9507,81.3154 414.9507,81.1184" id="Fill-79" fill="#B7B33E"></path>
                <path d="M401.6147,40.1233 C401.4167,40.1233 401.2557,39.9623 401.2557,39.7653 L401.2557,35.8883 C401.2557,35.6903 401.4167,35.5283 401.6147,35.5283 C401.8117,35.5283 401.9727,35.6903 401.9727,35.8883 L401.9727,39.7653 C401.9727,39.9623 401.8117,40.1233 401.6147,40.1233" id="Fill-81" fill="#B7B33E"></path>
                <path d="M399.3169,37.8264 C399.3169,37.6294 399.4779,37.4674 399.6759,37.4674 L403.5529,37.4674 C403.7509,37.4674 403.9119,37.6294 403.9119,37.8264 C403.9119,38.0234 403.7509,38.1844 403.5529,38.1844 L399.6759,38.1844 C399.4779,38.1844 399.3169,38.0234 399.3169,37.8264" id="Fill-83" fill="#B7B33E"></path>
                <path d="M205.5112,44.8567 C205.2232,44.8567 204.9882,44.6207 204.9882,44.3327 L204.9882,38.6737 C204.9882,38.3857 205.2232,38.1507 205.5112,38.1507 C205.7992,38.1507 206.0342,38.3857 206.0342,38.6737 L206.0342,44.3327 C206.0342,44.6207 205.7992,44.8567 205.5112,44.8567" id="Fill-85" fill="#FDD4AB"></path>
                <path d="M202.1587,41.5032 C202.1587,41.2152 202.3937,40.9802 202.6817,40.9802 L208.3407,40.9802 C208.6287,40.9802 208.8637,41.2152 208.8637,41.5032 C208.8637,41.7912 208.6287,42.0272 208.3407,42.0272 L202.6817,42.0272 C202.3937,42.0272 202.1587,41.7912 202.1587,41.5032" id="Fill-87" fill="#FDD4AB"></path>
                <path d="M377.4556,110.9309 C377.1676,110.9309 376.9326,110.6959 376.9326,110.4079 L376.9326,104.7489 C376.9326,104.4609 377.1676,104.2249 377.4556,104.2249 C377.7446,104.2249 377.9796,104.4609 377.9796,104.7489 L377.9796,110.4079 C377.9796,110.6959 377.7446,110.9309 377.4556,110.9309" id="Fill-89" fill="#FDD4AB"></path>
                <path d="M374.103,107.5784 C374.103,107.2904 374.338,107.0554 374.626,107.0554 L380.285,107.0554 C380.574,107.0554 380.809,107.2904 380.809,107.5784 C380.809,107.8664 380.574,108.1014 380.285,108.1014 L374.626,108.1014 C374.338,108.1014 374.103,107.8664 374.103,107.5784" id="Fill-91" fill="#FDD4AB"></path>
                <path d="M338.8599,61.8967 C338.5719,61.8967 338.3359,61.6617 338.3359,61.3737 L338.3359,55.7147 C338.3359,55.4267 338.5719,55.1907 338.8599,55.1907 C339.1479,55.1907 339.3829,55.4267 339.3829,55.7147 L339.3829,61.3737 C339.3829,61.6617 339.1479,61.8967 338.8599,61.8967" id="Fill-93" fill="#B7B33E"></path>
                <path d="M335.5063,58.5442 C335.5063,58.2562 335.7423,58.0202 336.0303,58.0202 L341.6893,58.0202 C341.9773,58.0202 342.2123,58.2562 342.2123,58.5442 C342.2123,58.8322 341.9773,59.0672 341.6893,59.0672 L336.0303,59.0672 C335.7423,59.0672 335.5063,58.8322 335.5063,58.5442" id="Fill-95" fill="#B7B33E"></path>
                <polygon id="Fill-97" fill="#724173" points="209.1606 54.1926 208.5216 54.1926 208.5216 53.2276 210.2986 53.2276 210.2986 57.6066 209.1606 57.6066"></polygon>
                <path d="M212.5815,55.4114 C212.5815,55.6054 212.5985,55.7814 212.6335,55.9394 C212.6685,56.0984 212.7175,56.2364 212.7815,56.3524 C212.8455,56.4694 212.9215,56.5584 213.0115,56.6224 C213.1005,56.6854 213.2005,56.7184 213.3125,56.7184 C213.4215,56.7184 213.5205,56.6854 213.6115,56.6224 C213.7025,56.5584 213.7785,56.4694 213.8415,56.3524 C213.9025,56.2364 213.9515,56.0984 213.9865,55.9394 C214.0205,55.7814 214.0385,55.6054 214.0385,55.4114 C214.0385,55.2224 214.0205,55.0474 213.9865,54.8864 C213.9515,54.7254 213.9025,54.5884 213.8415,54.4744 C213.7785,54.3594 213.7025,54.2704 213.6115,54.2064 C213.5205,54.1424 213.4215,54.1104 213.3125,54.1104 C213.2005,54.1104 213.1005,54.1424 213.0115,54.2064 C212.9215,54.2704 212.8455,54.3594 212.7815,54.4744 C212.7175,54.5884 212.6685,54.7254 212.6335,54.8864 C212.5985,55.0474 212.5815,55.2224 212.5815,55.4114 M211.4545,55.4114 C211.4545,55.0624 211.4995,54.7464 211.5915,54.4624 C211.6825,54.1784 211.8105,53.9344 211.9745,53.7334 C212.1395,53.5324 212.3345,53.3764 212.5605,53.2654 C212.7875,53.1554 213.0375,53.1004 213.3125,53.1004 C213.5835,53.1004 213.8335,53.1554 214.0615,53.2654 C214.2905,53.3764 214.4855,53.5324 214.6475,53.7334 C214.8105,53.9344 214.9375,54.1784 215.0285,54.4624 C215.1195,54.7464 215.1655,55.0624 215.1655,55.4114 C215.1655,55.7604 215.1195,56.0764 215.0285,56.3614 C214.9375,56.6454 214.8105,56.8904 214.6475,57.0934 C214.4855,57.2964 214.2905,57.4524 214.0615,57.5624 C213.8335,57.6734 213.5835,57.7284 213.3125,57.7284 C213.0375,57.7284 212.7875,57.6734 212.5605,57.5624 C212.3345,57.4524 212.1395,57.2964 211.9745,57.0934 C211.8105,56.8904 211.6825,56.6454 211.5915,56.3614 C211.4995,56.0764 211.4545,55.7604 211.4545,55.4114" id="Fill-99" fill="#724173"></path>
                <polygon id="Fill-101" fill="#724173" points="216.5298 54.1926 215.8908 54.1926 215.8908 53.2276 217.6678 53.2276 217.6678 57.6066 216.5298 57.6066"></polygon>
                <path d="M219.9507,55.4114 C219.9507,55.6054 219.9677,55.7814 220.0027,55.9394 C220.0377,56.0984 220.0867,56.2364 220.1507,56.3524 C220.2147,56.4694 220.2907,56.5584 220.3807,56.6224 C220.4697,56.6854 220.5697,56.7184 220.6817,56.7184 C220.7907,56.7184 220.8897,56.6854 220.9807,56.6224 C221.0717,56.5584 221.1477,56.4694 221.2107,56.3524 C221.2717,56.2364 221.3207,56.0984 221.3557,55.9394 C221.3897,55.7814 221.4077,55.6054 221.4077,55.4114 C221.4077,55.2224 221.3897,55.0474 221.3557,54.8864 C221.3207,54.7254 221.2717,54.5884 221.2107,54.4744 C221.1477,54.3594 221.0717,54.2704 220.9807,54.2064 C220.8897,54.1424 220.7907,54.1104 220.6817,54.1104 C220.5697,54.1104 220.4697,54.1424 220.3807,54.2064 C220.2907,54.2704 220.2147,54.3594 220.1507,54.4744 C220.0867,54.5884 220.0377,54.7254 220.0027,54.8864 C219.9677,55.0474 219.9507,55.2224 219.9507,55.4114 M218.8237,55.4114 C218.8237,55.0624 218.8687,54.7464 218.9607,54.4624 C219.0517,54.1784 219.1797,53.9344 219.3437,53.7334 C219.5087,53.5324 219.7037,53.3764 219.9297,53.2654 C220.1567,53.1554 220.4067,53.1004 220.6817,53.1004 C220.9527,53.1004 221.2027,53.1554 221.4307,53.2654 C221.6597,53.3764 221.8547,53.5324 222.0167,53.7334 C222.1797,53.9344 222.3067,54.1784 222.3977,54.4624 C222.4887,54.7464 222.5347,55.0624 222.5347,55.4114 C222.5347,55.7604 222.4887,56.0764 222.3977,56.3614 C222.3067,56.6454 222.1797,56.8904 222.0167,57.0934 C221.8547,57.2964 221.6597,57.4524 221.4307,57.5624 C221.2027,57.6734 220.9527,57.7284 220.6817,57.7284 C220.4067,57.7284 220.1567,57.6734 219.9297,57.5624 C219.7037,57.4524 219.5087,57.2964 219.3437,57.0934 C219.1797,56.8904 219.0517,56.6454 218.9607,56.3614 C218.8687,56.0764 218.8237,55.7604 218.8237,55.4114" id="Fill-103" fill="#724173"></path>
                <polygon id="Fill-105" fill="#724173" points="223.8989 54.1926 223.2599 54.1926 223.2599 53.2276 225.0369 53.2276 225.0369 57.6066 223.8989 57.6066"></polygon>
                <polygon id="Fill-107" fill="#724173" points="227.1509 54.1926 226.5119 54.1926 226.5119 53.2276 228.2889 53.2276 228.2889 57.6066 227.1509 57.6066"></polygon>
                <path d="M230.5718,55.4114 C230.5718,55.6054 230.5888,55.7814 230.6238,55.9394 C230.6588,56.0984 230.7078,56.2364 230.7718,56.3524 C230.8358,56.4694 230.9118,56.5584 231.0018,56.6224 C231.0908,56.6854 231.1908,56.7184 231.3028,56.7184 C231.4118,56.7184 231.5108,56.6854 231.6018,56.6224 C231.6928,56.5584 231.7688,56.4694 231.8318,56.3524 C231.8928,56.2364 231.9418,56.0984 231.9768,55.9394 C232.0108,55.7814 232.0288,55.6054 232.0288,55.4114 C232.0288,55.2224 232.0108,55.0474 231.9768,54.8864 C231.9418,54.7254 231.8928,54.5884 231.8318,54.4744 C231.7688,54.3594 231.6928,54.2704 231.6018,54.2064 C231.5108,54.1424 231.4118,54.1104 231.3028,54.1104 C231.1908,54.1104 231.0908,54.1424 231.0018,54.2064 C230.9118,54.2704 230.8358,54.3594 230.7718,54.4744 C230.7078,54.5884 230.6588,54.7254 230.6238,54.8864 C230.5888,55.0474 230.5718,55.2224 230.5718,55.4114 M229.4448,55.4114 C229.4448,55.0624 229.4898,54.7464 229.5818,54.4624 C229.6728,54.1784 229.8008,53.9344 229.9648,53.7334 C230.1298,53.5324 230.3248,53.3764 230.5508,53.2654 C230.7778,53.1554 231.0278,53.1004 231.3028,53.1004 C231.5738,53.1004 231.8238,53.1554 232.0518,53.2654 C232.2808,53.3764 232.4758,53.5324 232.6378,53.7334 C232.8008,53.9344 232.9278,54.1784 233.0188,54.4624 C233.1098,54.7464 233.1558,55.0624 233.1558,55.4114 C233.1558,55.7604 233.1098,56.0764 233.0188,56.3614 C232.9278,56.6454 232.8008,56.8904 232.6378,57.0934 C232.4758,57.2964 232.2808,57.4524 232.0518,57.5624 C231.8238,57.6734 231.5738,57.7284 231.3028,57.7284 C231.0278,57.7284 230.7778,57.6734 230.5508,57.5624 C230.3248,57.4524 230.1298,57.2964 229.9648,57.0934 C229.8008,56.8904 229.6728,56.6454 229.5818,56.3614 C229.4898,56.0764 229.4448,55.7604 229.4448,55.4114" id="Fill-109" fill="#724173"></path>
                <polygon id="Fill-111" fill="#724173" points="234.52 54.1926 233.881 54.1926 233.881 53.2276 235.658 53.2276 235.658 57.6066 234.52 57.6066"></polygon>
                <polygon id="Fill-113" fill="#724173" points="344.6577 87.927 343.9007 87.927 343.9007 86.784 346.0047 86.784 346.0047 91.969 344.6577 91.969"></polygon>
                <path d="M348.7075,89.3694 C348.7075,89.5994 348.7285,89.8074 348.7695,89.9954 C348.8115,90.1834 348.8685,90.3474 348.9445,90.4844 C349.0195,90.6214 349.1095,90.7274 349.2165,90.8034 C349.3215,90.8784 349.4405,90.9164 349.5735,90.9164 C349.7025,90.9164 349.8195,90.8784 349.9285,90.8034 C350.0355,90.7274 350.1255,90.6214 350.1995,90.4844 C350.2715,90.3474 350.3305,90.1834 350.3715,89.9954 C350.4125,89.8074 350.4335,89.5994 350.4335,89.3694 C350.4335,89.1444 350.4125,88.9384 350.3715,88.7474 C350.3305,88.5574 350.2715,88.3944 350.1995,88.2604 C350.1255,88.1244 350.0355,88.0184 349.9285,87.9424 C349.8195,87.8674 349.7025,87.8294 349.5735,87.8294 C349.4405,87.8294 349.3215,87.8674 349.2165,87.9424 C349.1095,88.0184 349.0195,88.1244 348.9445,88.2604 C348.8685,88.3944 348.8115,88.5574 348.7695,88.7474 C348.7285,88.9384 348.7075,89.1444 348.7075,89.3694 M347.3735,89.3694 C347.3735,88.9564 347.4275,88.5824 347.5355,88.2454 C347.6435,87.9094 347.7945,87.6214 347.9885,87.3834 C348.1845,87.1444 348.4155,86.9604 348.6845,86.8294 C348.9515,86.6984 349.2475,86.6344 349.5735,86.6344 C349.8945,86.6344 350.1895,86.6984 350.4605,86.8294 C350.7305,86.9604 350.9625,87.1444 351.1545,87.3834 C351.3475,87.6214 351.4975,87.9094 351.6055,88.2454 C351.7135,88.5824 351.7675,88.9564 351.7675,89.3694 C351.7675,89.7824 351.7135,90.1564 351.6055,90.4944 C351.4975,90.8314 351.3475,91.1204 351.1545,91.3604 C350.9625,91.6004 350.7305,91.7864 350.4605,91.9174 C350.1895,92.0474 349.8945,92.1134 349.5735,92.1134 C349.2475,92.1134 348.9515,92.0474 348.6845,91.9174 C348.4155,91.7864 348.1845,91.6004 347.9885,91.3604 C347.7945,91.1204 347.6435,90.8314 347.5355,90.4944 C347.4275,90.1564 347.3735,89.7824 347.3735,89.3694" id="Fill-115" fill="#724173"></path>
                <polygon id="Fill-117" fill="#724173" points="353.3823 87.927 352.6263 87.927 352.6263 86.784 354.7303 86.784 354.7303 91.969 353.3823 91.969"></polygon>
                <path d="M357.4331,89.3694 C357.4331,89.5994 357.4531,89.8074 357.4951,89.9954 C357.5361,90.1834 357.5931,90.3474 357.6701,90.4844 C357.7451,90.6214 357.8351,90.7274 357.9421,90.8034 C358.0471,90.8784 358.1661,90.9164 358.2991,90.9164 C358.4271,90.9164 358.5451,90.8784 358.6531,90.8034 C358.7601,90.7274 358.8511,90.6214 358.9241,90.4844 C358.9971,90.3474 359.0551,90.1834 359.0971,89.9954 C359.1371,89.8074 359.1581,89.5994 359.1581,89.3694 C359.1581,89.1444 359.1371,88.9384 359.0971,88.7474 C359.0551,88.5574 358.9971,88.3944 358.9241,88.2604 C358.8511,88.1244 358.7601,88.0184 358.6531,87.9424 C358.5451,87.8674 358.4271,87.8294 358.2991,87.8294 C358.1661,87.8294 358.0471,87.8674 357.9421,87.9424 C357.8351,88.0184 357.7451,88.1244 357.6701,88.2604 C357.5931,88.3944 357.5361,88.5574 357.4951,88.7474 C357.4531,88.9384 357.4331,89.1444 357.4331,89.3694 M356.0991,89.3694 C356.0991,88.9564 356.1521,88.5824 356.2601,88.2454 C356.3681,87.9094 356.5201,87.6214 356.7131,87.3834 C356.9101,87.1444 357.1401,86.9604 357.4091,86.8294 C357.6771,86.6984 357.9731,86.6344 358.2991,86.6344 C358.6201,86.6344 358.9151,86.6984 359.1861,86.8294 C359.4561,86.9604 359.6881,87.1444 359.8791,87.3834 C360.0731,87.6214 360.2231,87.9094 360.3301,88.2454 C360.4381,88.5824 360.4931,88.9564 360.4931,89.3694 C360.4931,89.7824 360.4381,90.1564 360.3301,90.4944 C360.2231,90.8314 360.0731,91.1204 359.8791,91.3604 C359.6881,91.6004 359.4561,91.7864 359.1861,91.9174 C358.9151,92.0474 358.6201,92.1134 358.2991,92.1134 C357.9731,92.1134 357.6771,92.0474 357.4091,91.9174 C357.1401,91.7864 356.9101,91.6004 356.7131,91.3604 C356.5201,91.1204 356.3681,90.8314 356.2601,90.4944 C356.1521,90.1564 356.0991,89.7824 356.0991,89.3694" id="Fill-119" fill="#724173"></path>
                <polygon id="Fill-121" fill="#724173" points="362.1079 87.927 361.3519 87.927 361.3519 86.784 363.4549 86.784 363.4549 91.969 362.1079 91.969"></polygon>
                <polygon id="Fill-123" fill="#724173" points="365.9585 87.927 365.2015 87.927 365.2015 86.784 367.3055 86.784 367.3055 91.969 365.9585 91.969"></polygon>
                <path d="M370.0083,89.3694 C370.0083,89.5994 370.0283,89.8074 370.0703,89.9954 C370.1123,90.1834 370.1693,90.3474 370.2453,90.4844 C370.3203,90.6214 370.4103,90.7274 370.5173,90.8034 C370.6223,90.8784 370.7413,90.9164 370.8743,90.9164 C371.0023,90.9164 371.1203,90.8784 371.2283,90.8034 C371.3353,90.7274 371.4263,90.6214 371.5003,90.4844 C371.5723,90.3474 371.6303,90.1834 371.6723,89.9954 C371.7123,89.8074 371.7343,89.5994 371.7343,89.3694 C371.7343,89.1444 371.7123,88.9384 371.6723,88.7474 C371.6303,88.5574 371.5723,88.3944 371.5003,88.2604 C371.4263,88.1244 371.3353,88.0184 371.2283,87.9424 C371.1203,87.8674 371.0023,87.8294 370.8743,87.8294 C370.7413,87.8294 370.6223,87.8674 370.5173,87.9424 C370.4103,88.0184 370.3203,88.1244 370.2453,88.2604 C370.1693,88.3944 370.1123,88.5574 370.0703,88.7474 C370.0283,88.9384 370.0083,89.1444 370.0083,89.3694 M368.6743,89.3694 C368.6743,88.9564 368.7273,88.5824 368.8363,88.2454 C368.9443,87.9094 369.0953,87.6214 369.2893,87.3834 C369.4853,87.1444 369.7163,86.9604 369.9843,86.8294 C370.2523,86.6984 370.5483,86.6344 370.8743,86.6344 C371.1953,86.6344 371.4903,86.6984 371.7613,86.8294 C372.0313,86.9604 372.2633,87.1444 372.4553,87.3834 C372.6483,87.6214 372.7983,87.9094 372.9053,88.2454 C373.0133,88.5824 373.0683,88.9564 373.0683,89.3694 C373.0683,89.7824 373.0133,90.1564 372.9053,90.4944 C372.7983,90.8314 372.6483,91.1204 372.4553,91.3604 C372.2633,91.6004 372.0313,91.7864 371.7613,91.9174 C371.4903,92.0474 371.1953,92.1134 370.8743,92.1134 C370.5483,92.1134 370.2523,92.0474 369.9843,91.9174 C369.7163,91.7864 369.4853,91.6004 369.2893,91.3604 C369.0953,91.1204 368.9443,90.8314 368.8363,90.4944 C368.7273,90.1564 368.6743,89.7824 368.6743,89.3694" id="Fill-125" fill="#724173"></path>
                <polygon id="Fill-127" fill="#724173" points="374.6831 87.927 373.9271 87.927 373.9271 86.784 376.0301 86.784 376.0301 91.969 374.6831 91.969"></polygon>
                <polygon id="Fill-129" fill="#D2DCD6" points="369.0591 64.4934 368.4201 64.4934 368.4201 63.5284 370.1971 63.5284 370.1971 67.9074 369.0591 67.9074"></polygon>
                <polygon id="Fill-131" fill="#D2DCD6" points="372.311 64.4934 371.672 64.4934 371.672 63.5284 373.449 63.5284 373.449 67.9074 372.311 67.9074"></polygon>
                <polygon id="Fill-133" fill="#D2DCD6" points="375.563 64.4934 374.924 64.4934 374.924 63.5284 376.701 63.5284 376.701 67.9074 375.563 67.9074"></polygon>
                <path d="M378.9839,65.7121 C378.9839,65.9061 379.0009,66.0821 379.0359,66.2401 C379.0709,66.3991 379.1199,66.5371 379.1839,66.6531 C379.2479,66.7701 379.3239,66.8591 379.4139,66.9231 C379.5029,66.9861 379.6029,67.0191 379.7149,67.0191 C379.8239,67.0191 379.9229,66.9861 380.0139,66.9231 C380.1049,66.8591 380.1809,66.7701 380.2439,66.6531 C380.3049,66.5371 380.3539,66.3991 380.3889,66.2401 C380.4229,66.0821 380.4409,65.9061 380.4409,65.7121 C380.4409,65.5231 380.4229,65.3481 380.3889,65.1871 C380.3539,65.0261 380.3049,64.8891 380.2439,64.7751 C380.1809,64.6601 380.1049,64.5711 380.0139,64.5071 C379.9229,64.4431 379.8239,64.4111 379.7149,64.4111 C379.6029,64.4111 379.5029,64.4431 379.4139,64.5071 C379.3239,64.5711 379.2479,64.6601 379.1839,64.7751 C379.1199,64.8891 379.0709,65.0261 379.0359,65.1871 C379.0009,65.3481 378.9839,65.5231 378.9839,65.7121 M377.8569,65.7121 C377.8569,65.3631 377.9019,65.0471 377.9939,64.7631 C378.0849,64.4791 378.2129,64.2351 378.3769,64.0341 C378.5419,63.8331 378.7369,63.6771 378.9629,63.5661 C379.1899,63.4561 379.4399,63.4011 379.7149,63.4011 C379.9859,63.4011 380.2359,63.4561 380.4639,63.5661 C380.6929,63.6771 380.8879,63.8331 381.0499,64.0341 C381.2129,64.2351 381.3399,64.4791 381.4309,64.7631 C381.5219,65.0471 381.5679,65.3631 381.5679,65.7121 C381.5679,66.0611 381.5219,66.3771 381.4309,66.6621 C381.3399,66.9461 381.2129,67.1911 381.0499,67.3941 C380.8879,67.5971 380.6929,67.7531 380.4639,67.8631 C380.2359,67.9741 379.9859,68.0291 379.7149,68.0291 C379.4399,68.0291 379.1899,67.9741 378.9629,67.8631 C378.7369,67.7531 378.5419,67.5971 378.3769,67.3941 C378.2129,67.1911 378.0849,66.9461 377.9939,66.6621 C377.9019,66.3771 377.8569,66.0611 377.8569,65.7121" id="Fill-135" fill="#D2DCD6"></path>
                <polygon id="Fill-137" fill="#D2DCD6" points="382.9321 64.4934 382.2931 64.4934 382.2931 63.5284 384.0701 63.5284 384.0701 67.9074 382.9321 67.9074"></polygon>
                <polygon id="Fill-139" fill="#D2DCD6" points="386.1841 64.4934 385.5451 64.4934 385.5451 63.5284 387.3221 63.5284 387.3221 67.9074 386.1841 67.9074"></polygon>
                <polygon id="Fill-141" fill="#C34158" points="172.0483 37.385 171.4383 37.385 171.4383 36.462 173.1373 36.462 173.1373 40.651 172.0483 40.651"></polygon>
                <polygon id="Fill-143" fill="#C34158" points="175.1587 37.385 174.5487 37.385 174.5487 36.462 176.2477 36.462 176.2477 40.651 175.1587 40.651"></polygon>
                <polygon id="Fill-145" fill="#C34158" points="178.269 37.385 177.659 37.385 177.659 36.462 179.358 36.462 179.358 40.651 178.269 40.651"></polygon>
                <path d="M181.5405,38.551 C181.5405,38.737 181.5575,38.905 181.5905,39.057 C181.6235,39.208 181.6715,39.34 181.7315,39.45 C181.7935,39.562 181.8665,39.648 181.9515,39.709 C182.0365,39.771 182.1335,39.801 182.2405,39.801 C182.3445,39.801 182.4395,39.771 182.5265,39.709 C182.6135,39.648 182.6865,39.562 182.7455,39.45 C182.8055,39.34 182.8515,39.208 182.8855,39.057 C182.9185,38.905 182.9355,38.737 182.9355,38.551 C182.9355,38.369 182.9185,38.202 182.8855,38.048 C182.8515,37.895 182.8055,37.763 182.7455,37.654 C182.6865,37.545 182.6135,37.459 182.5265,37.399 C182.4395,37.337 182.3445,37.307 182.2405,37.307 C182.1335,37.307 182.0365,37.337 181.9515,37.399 C181.8665,37.459 181.7935,37.545 181.7315,37.654 C181.6715,37.763 181.6235,37.895 181.5905,38.048 C181.5575,38.202 181.5405,38.369 181.5405,38.551 M180.4635,38.551 C180.4635,38.218 180.5065,37.915 180.5935,37.643 C180.6805,37.37 180.8035,37.139 180.9605,36.946 C181.1175,36.753 181.3045,36.605 181.5205,36.498 C181.7375,36.393 181.9775,36.34 182.2405,36.34 C182.4995,36.34 182.7385,36.393 182.9575,36.498 C183.1755,36.605 183.3625,36.753 183.5185,36.946 C183.6735,37.139 183.7945,37.37 183.8825,37.643 C183.9695,37.915 184.0125,38.218 184.0125,38.551 C184.0125,38.884 183.9695,39.187 183.8825,39.459 C183.7945,39.732 183.6735,39.965 183.5185,40.159 C183.3625,40.354 183.1755,40.503 182.9575,40.609 C182.7385,40.714 182.4995,40.767 182.2405,40.767 C181.9775,40.767 181.7375,40.714 181.5205,40.609 C181.3045,40.503 181.1175,40.354 180.9605,40.159 C180.8035,39.965 180.6805,39.732 180.5935,39.459 C180.5065,39.187 180.4635,38.884 180.4635,38.551" id="Fill-147" fill="#C34158"></path>
                <path d="M185.3179,38.551 C185.3179,38.737 185.3349,38.905 185.3679,39.057 C185.4009,39.208 185.4489,39.34 185.5089,39.45 C185.5709,39.562 185.6439,39.648 185.7289,39.709 C185.8139,39.771 185.9109,39.801 186.0179,39.801 C186.1219,39.801 186.2169,39.771 186.3039,39.709 C186.3909,39.648 186.4639,39.562 186.5229,39.45 C186.5829,39.34 186.6289,39.208 186.6629,39.057 C186.6959,38.905 186.7129,38.737 186.7129,38.551 C186.7129,38.369 186.6959,38.202 186.6629,38.048 C186.6289,37.895 186.5829,37.763 186.5229,37.654 C186.4639,37.545 186.3909,37.459 186.3039,37.399 C186.2169,37.337 186.1219,37.307 186.0179,37.307 C185.9109,37.307 185.8139,37.337 185.7289,37.399 C185.6439,37.459 185.5709,37.545 185.5089,37.654 C185.4489,37.763 185.4009,37.895 185.3679,38.048 C185.3349,38.202 185.3179,38.369 185.3179,38.551 M184.2409,38.551 C184.2409,38.218 184.2839,37.915 184.3709,37.643 C184.4579,37.37 184.5809,37.139 184.7379,36.946 C184.8949,36.753 185.0819,36.605 185.2979,36.498 C185.5149,36.393 185.7549,36.34 186.0179,36.34 C186.2769,36.34 186.5159,36.393 186.7349,36.498 C186.9529,36.605 187.1399,36.753 187.2959,36.946 C187.4509,37.139 187.5719,37.37 187.6599,37.643 C187.7469,37.915 187.7899,38.218 187.7899,38.551 C187.7899,38.884 187.7469,39.187 187.6599,39.459 C187.5719,39.732 187.4509,39.965 187.2959,40.159 C187.1399,40.354 186.9529,40.503 186.7349,40.609 C186.5159,40.714 186.2769,40.767 186.0179,40.767 C185.7549,40.767 185.5149,40.714 185.2979,40.609 C185.0819,40.503 184.8949,40.354 184.7379,40.159 C184.5809,39.965 184.4579,39.732 184.3709,39.459 C184.2839,39.187 184.2409,38.884 184.2409,38.551" id="Fill-149" fill="#C34158"></path>
                <polygon id="Fill-151" fill="#C34158" points="189.0942 37.385 188.4842 37.385 188.4842 36.462 190.1832 36.462 190.1832 40.651 189.0942 40.651"></polygon>
                <polygon id="Fill-153" fill="#C34158" points="192.2046 37.385 191.5946 37.385 191.5946 36.462 193.2936 36.462 193.2936 40.651 192.2046 40.651"></polygon>
                <path d="M196.896,163.3557 C196.896,167.2307 193.755,170.3717 189.881,170.3717 C186.006,170.3717 182.866,167.2307 182.866,163.3557 C182.866,159.4817 186.006,156.3407 189.881,156.3407 C193.755,156.3407 196.896,159.4817 196.896,163.3557" id="Fill-155" fill="#FFFFFF"></path>
                <path d="M409.0474,191.0666 L400.2304,191.0666 C397.1124,191.0666 394.5624,188.5156 394.5624,185.3986 L394.5624,173.7476 C394.5624,170.6296 397.1124,168.0796 400.2304,168.0796 L409.0474,168.0796 C412.1644,168.0796 414.7154,170.6296 414.7154,173.7476 L414.7154,185.3986 C414.7154,188.5156 412.1644,191.0666 409.0474,191.0666" id="Fill-157" fill="#A9C3CF"></path>
                <path d="M392.5151,191.0666 C391.3891,191.0666 390.4681,190.1456 390.4681,189.0196 L390.4681,180.2036 C390.4681,179.0776 391.3891,178.1566 392.5151,178.1566 C393.6411,178.1566 394.5621,179.0776 394.5621,180.2036 L394.5621,189.0196 C394.5621,190.1456 393.6411,191.0666 392.5151,191.0666" id="Fill-159" fill="#293E96"></path>
                <path d="M416.4468,191.0666 C415.3218,191.0666 414.3998,190.1456 414.3998,189.0196 L414.3998,180.2036 C414.3998,179.0776 415.3218,178.1566 416.4468,178.1566 C417.5728,178.1566 418.4938,179.0776 418.4938,180.2036 L418.4938,189.0196 C418.4938,190.1456 417.5728,191.0666 416.4468,191.0666" id="Fill-161" fill="#293E96"></path>
                <path d="M419.9019,192.9563 C418.9549,192.9563 418.1789,192.1813 418.1789,191.2333 L418.1789,183.8143 C418.1789,182.8673 418.9549,182.0923 419.9019,182.0923 C420.8489,182.0923 421.6239,182.8673 421.6239,183.8143 L421.6239,191.2333 C421.6239,192.1813 420.8489,192.9563 419.9019,192.9563" id="Fill-163" fill="#B7B33E"></path>
                <path d="M388.894,192.9563 C387.947,192.9563 387.171,192.1813 387.171,191.2333 L387.171,183.8143 C387.171,182.8673 387.947,182.0923 388.894,182.0923 C389.841,182.0923 390.617,182.8673 390.617,183.8143 L390.617,191.2333 C390.617,192.1813 389.841,192.9563 388.894,192.9563" id="Fill-165" fill="#B7B33E"></path>
                <path d="M406.5278,175.9524 L402.4338,175.9524 C399.3168,175.9524 396.7658,173.4014 396.7658,170.2834 L396.7658,166.1904 C396.7658,163.0724 399.3168,160.5214 402.4338,160.5214 L406.5278,160.5214 C409.6448,160.5214 412.1958,163.0724 412.1958,166.1904 L412.1958,170.2834 C412.1958,173.4014 409.6448,175.9524 406.5278,175.9524" id="Fill-167" fill="#293E96"></path>
                <path d="M408.2603,182.8791 L400.3873,182.8791 C399.4353,182.8791 398.6563,182.1001 398.6563,181.1481 C398.6563,180.1951 399.4353,179.4151 400.3873,179.4151 L408.2603,179.4151 C409.2123,179.4151 409.9913,180.1951 409.9913,181.1481 C409.9913,182.1001 409.2123,182.8791 408.2603,182.8791" id="Fill-169" fill="#D26260"></path>
                <path d="M408.2603,187.76 L400.3873,187.76 C399.4353,187.76 398.6563,186.981 398.6563,186.029 C398.6563,185.076 399.4353,184.296 400.3873,184.296 L408.2603,184.296 C409.2123,184.296 409.9913,185.076 409.9913,186.029 C409.9913,186.981 409.2123,187.76 408.2603,187.76" id="Fill-171" fill="#D26260"></path>
                <path d="M399.9155,164.6155 C399.4815,164.6155 399.1285,164.2615 399.1285,163.8285 L399.1285,156.5865 C399.1285,156.1525 399.4815,155.7995 399.9155,155.7995 C400.3485,155.7995 400.7025,156.1525 400.7025,156.5865 L400.7025,163.8285 C400.7025,164.2615 400.3485,164.6155 399.9155,164.6155" id="Fill-173" fill="#293E96"></path>
                <path d="M409.0474,164.6155 C408.6134,164.6155 408.2604,164.2615 408.2604,163.8285 L408.2604,156.5865 C408.2604,156.1525 408.6134,155.7995 409.0474,155.7995 C409.4804,155.7995 409.8344,156.1525 409.8344,156.5865 L409.8344,163.8285 C409.8344,164.2615 409.4804,164.6155 409.0474,164.6155" id="Fill-175" fill="#293E96"></path>
                <path d="M403.9673,167.6252 C403.9673,169.0262 402.8303,170.1632 401.4293,170.1632 C400.0283,170.1632 398.8923,169.0262 398.8923,167.6252 C398.8923,166.2242 400.0283,165.0882 401.4293,165.0882 C402.8303,165.0882 403.9673,166.2242 403.9673,167.6252" id="Fill-177" fill="#D26260"></path>
                <path d="M410.0708,167.6252 C410.0708,169.0262 408.9338,170.1632 407.5328,170.1632 C406.1318,170.1632 404.9958,169.0262 404.9958,167.6252 C404.9958,166.2242 406.1318,165.0882 407.5328,165.0882 C408.9338,165.0882 410.0708,166.2242 410.0708,167.6252" id="Fill-179" fill="#D26260"></path>
                <path d="M408.1812,172.9602 L400.7812,172.9602 C400.6082,172.9602 400.4662,172.8182 400.4662,172.6462 C400.4662,172.4722 400.6082,172.3302 400.7812,172.3302 L408.1812,172.3302 C408.3542,172.3302 408.4952,172.4722 408.4952,172.6462 C408.4952,172.8182 408.3542,172.9602 408.1812,172.9602" id="Fill-181" fill="#FDD4AB"></path>
                <path d="M403.2222,154.8537 L402.2772,154.8537 C402.2772,153.5517 401.2182,152.4927 399.9152,152.4927 C398.6132,152.4927 397.5532,153.5517 397.5532,154.8537 L396.6092,154.8537 C396.6092,153.0307 398.0922,151.5467 399.9152,151.5467 C401.7392,151.5467 403.2222,153.0307 403.2222,154.8537" id="Fill-183" fill="#293E96"></path>
                <path d="M406.3706,154.5393 L405.4256,154.5393 C405.4256,151.5003 402.9546,149.0283 399.9156,149.0283 C396.8766,149.0283 394.4046,151.5003 394.4046,154.5393 L393.4606,154.5393 C393.4606,150.9793 396.3556,148.0843 399.9156,148.0843 C403.4746,148.0843 406.3706,150.9793 406.3706,154.5393" id="Fill-185" fill="#293E96"></path>
                <path d="M87.3599,51.5862 L36.3509,51.5862 C35.4089,51.5862 34.6379,50.8152 34.6379,49.8732 C34.6379,48.9312 35.4089,48.1602 36.3509,48.1602 L87.3599,48.1602 C88.3019,48.1602 89.0729,48.9312 89.0729,49.8732 C89.0729,50.8152 88.3019,51.5862 87.3599,51.5862" id="Fill-187" fill="#FFFFFF"></path>
                <path d="M25.1509,69.8918 L71.9719,69.8918 C72.9149,69.8918 73.6849,69.1208 73.6849,68.1788 C73.6849,67.2368 72.9149,66.4658 71.9719,66.4658 L25.1509,66.4658 C24.2089,66.4658 23.4379,67.2368 23.4379,68.1788 C23.4379,69.1208 24.2089,69.8918 25.1509,69.8918" id="Fill-189" fill="#FFFFFF"></path>
                <path d="M82.9829,59.1994 L59.0009,59.1994 C58.3729,59.1994 57.8589,58.6854 57.8589,58.0574 C57.8589,57.4284 58.3729,56.9154 59.0009,56.9154 L82.9829,56.9154 C83.6109,56.9154 84.1249,57.4284 84.1249,58.0574 C84.1249,58.6854 83.6109,59.1994 82.9829,59.1994" id="Fill-191" fill="#FFFFFF"></path>
                <path d="M413.1577,64.51 L464.1667,64.51 C465.1087,64.51 465.8797,65.281 465.8797,66.223 C465.8797,67.165 465.1087,67.936 464.1667,67.936 L413.1577,67.936 C412.2157,67.936 411.4447,67.165 411.4447,66.223 C411.4447,65.281 412.2157,64.51 413.1577,64.51" id="Fill-193" fill="#FFFFFF"></path>
                <path d="M475.3667,46.2043 L428.5457,46.2043 C427.6027,46.2043 426.8327,46.9753 426.8327,47.9173 C426.8327,48.8583 427.6027,49.6303 428.5457,49.6303 L475.3667,49.6303 C476.3087,49.6303 477.0797,48.8583 477.0797,47.9173 C477.0797,46.9753 476.3087,46.2043 475.3667,46.2043" id="Fill-195" fill="#FFFFFF"></path>
                <path d="M417.5356,56.8967 L441.5166,56.8967 C442.1446,56.8967 442.6586,57.4107 442.6586,58.0387 C442.6586,58.6667 442.1446,59.1797 441.5166,59.1797 L417.5356,59.1797 C416.9066,59.1797 416.3926,58.6667 416.3926,58.0387 C416.3926,57.4107 416.9066,56.8967 417.5356,56.8967" id="Fill-197" fill="#FFFFFF"></path>
            </g>
        </g>
    </g>
</svg>