<?xml version="1.0" encoding="UTF-8"?>
<svg width="474px" height="197px" viewBox="0 0 474 197" version="1.1" xmlns="http://www.w3.org/2000/svg" xmlns:xlink="http://www.w3.org/1999/xlink">
    <!-- Generator: sketchtool 49.3 (51167) - http://www.bohemiancoding.com/sketch -->
    <title>E705DD4B-A066-47BA-98B5-BDAF44AE0D31</title>
    <desc>Created with sketchtool.</desc>
    <defs>
        <polygon id="path-1" points="0 0.272983163 469.47958 0.272983163 469.47958 192.6716 0 192.6716"></polygon>
        <polygon id="path-3" points="0 196.477 473.468 196.477 473.468 0 0 0"></polygon>
    </defs>
    <g id="Esanjo-Way" stroke="none" stroke-width="1" fill="none" fill-rule="evenodd">
        <g id="Esanjo-Way---Welcome-to-Esanjo" transform="translate(-84.000000, -102.000000)">
            <g id="Page-1" transform="translate(84.000000, 102.000000)">
                <g id="Group-3" transform="translate(0.000000, 3.477000)">
                    <mask id="mask-2" fill="white">
                        <use xlink:href="#path-1"></use>
                    </mask>
                    <g id="Clip-2"></g>
                    <path d="M97.9427,29.5466 C86.8397,33.1946 80.0297,45.7056 85.7447,57.7776 C89.3937,65.4846 98.8627,78.1706 95.3137,87.3766 C92.5717,94.4856 80.4877,98.5996 75.2557,92.7206 C71.5527,88.5606 73.0407,79.3716 70.8767,74.2706 C66.8317,64.7386 58.7037,62.8406 49.3187,64.0466 C37.7267,65.5356 30.9817,73.4946 30.0077,86.4266 C29.1427,97.9326 32.4847,110.0066 29.5277,121.3286 C26.2127,134.0216 12.7777,140.6066 5.2067,150.3736 C-5.6703,164.4026 0.9977,192.6716 20.5087,192.6716 L450.9457,192.6716 C474.7107,192.6716 471.1527,169.0896 464.6327,153.3746 C459.8227,141.7826 451.5917,132.1976 445.8097,121.1526 C440.6487,111.2926 438.3317,99.7296 430.1407,91.6836 C420.9157,82.6206 410.4257,74.9026 398.8017,70.3876 C393.0257,68.1446 387.0057,66.7026 380.9047,66.2576 C374.8637,65.8176 368.4287,67.9646 362.6077,65.5086 C355.3647,62.4526 353.2967,52.9636 349.1487,45.9996 C342.6277,35.0506 328.8477,38.9156 319.4747,33.5596 C307.7987,26.8876 302.1197,12.0676 290.6417,5.1986 C280.2117,-1.0434 265.9827,-1.3904 255.3367,4.3726 C247.5507,8.5876 244.1717,16.3806 242.9027,25.6136 C241.9647,32.4476 243.7037,47.2176 233.8777,45.8716 C231.4357,45.5376 229.1947,44.2356 226.9947,42.9966 C211.0967,34.0456 189.1997,21.2166 170.9977,27.8156 C165.7877,29.7036 164.9517,35.2076 162.3597,39.8126 C155.2207,52.4906 135.0387,48.3666 126.3527,40.6366 C118.8067,33.9216 112.2257,27.3696 101.9177,28.6556 C100.5447,28.8266 99.2147,29.1286 97.9427,29.5466" id="Fill-1" fill="#F8F5F0" mask="url(#mask-2)"></path>
                </g>
                <path d="M404.7694,153.4597 L406.4684,163.4117 L413.2654,162.1987 L416.1784,144.9637 C416.1784,144.9637 405.7404,148.8477 404.7694,153.4597" id="Fill-4" fill="#292480"></path>
                <path d="M412.5883,163.6125 C412.5883,163.6125 415.9353,147.6335 415.6923,146.9055 C415.4503,146.1775 402.0993,158.5575 397.7303,159.0425 C393.3613,159.5285 383.1663,163.8975 375.8843,156.1305 C368.6023,148.3625 369.3303,146.6635 372.2433,140.8375 C375.1563,135.0115 382.6803,143.7505 387.2933,142.0515 C391.9043,140.3525 393.3613,140.1095 397.0023,139.3815 C400.6433,138.6535 404.0413,136.2255 404.0413,136.2255 C404.0413,136.2255 412.7793,130.1575 421.5183,131.3705 C430.2563,132.5845 429.2863,135.9835 428.3153,144.2365 C427.3443,152.4885 424.2133,162.7375 424.2133,162.7375 L412.5883,163.6125 Z" id="Fill-6" fill="#293E96"></path>
                <path d="M390.6908,94.718 C390.6908,94.718 394.0888,93.261 394.0888,88.407 C394.0888,83.552 406.9538,92.533 406.9538,92.533 C406.9538,92.533 400.1578,98.359 402.8278,99.087 C405.4978,99.816 398.2158,100.301 394.8168,99.33 C391.4198,98.359 388.9918,97.388 390.6908,94.718" id="Fill-8" fill="#FAB165"></path>
                <path d="M410.8378,107.8259 C410.8378,107.8259 422.2468,102.7279 425.1598,105.3979 C425.1598,105.3979 428.7998,103.4559 434.3828,104.1849 C439.9658,104.9129 444.0928,104.4279 445.3068,102.9709 L440.4518,118.9919 L432.4418,129.6719 L417.3918,129.6719 L410.8378,107.8259 Z" id="Fill-10" fill="#FDE3CA"></path>
                <path d="M425.1595,105.3982 L421.5185,126.0312 L411.5665,123.3602 L410.8375,107.8262 C410.8375,107.8262 422.2465,102.2432 425.1595,105.3982" id="Fill-12" fill="#FDD4AB"></path>
                <path d="M390.6908,94.718 C390.6908,94.718 386.3218,99.087 384.8648,101.029 C383.4088,102.971 379.0398,110.01 376.3698,123.361 C373.6998,136.711 372.2428,140.838 372.2428,140.838 C372.2428,140.838 376.1268,147.149 381.2248,145.449 C386.3218,143.75 389.4778,141.566 394.0888,142.051 C398.7008,142.537 403.0708,140.838 403.0708,134.041 C403.0708,127.244 402.8278,122.147 404.7698,120.691 C406.7118,119.234 408.8958,127.244 412.7798,131.371 C416.6638,135.497 418.1198,137.682 425.1598,134.284 C432.1988,130.885 436.5678,127.73 436.5678,127.73 L432.9268,121.419 C432.9268,121.419 424.9168,125.302 421.5188,126.031 C418.1198,126.759 414.2358,114.865 413.2658,111.224 C412.2948,107.583 411.5658,99.816 402.8278,99.087 C394.0888,98.359 391.6618,97.145 390.6908,94.718" id="Fill-14" fill="#E1767B"></path>
                <path d="M402.8275,96.6599 C402.8275,96.6599 404.2735,95.2069 407.1975,95.2029 C412.1195,95.1979 410.5955,90.1059 413.7505,81.1249 C413.7505,81.1249 402.4675,74.2149 401.4965,80.0399 C400.5255,85.8659 401.1285,94.4749 402.8275,96.6599" id="Fill-16" fill="#FAB165"></path>
                <path d="M392.8754,91.5622 C392.8754,91.5622 393.8464,82.3382 394.3324,80.1542 C394.8174,77.9692 396.7594,73.1142 402.8274,73.6002 C408.8964,74.0852 415.4504,76.0272 416.4204,74.8132 C416.4204,74.8132 417.2264,81.5512 414.0714,82.2792 C410.9154,83.0072 406.1424,77.5012 402.5304,84.0012 C400.8084,87.1022 401.8984,89.1122 401.1524,91.0642 C399.0434,96.5802 392.8754,91.5622 392.8754,91.5622" id="Fill-18" fill="#293E96"></path>
                <path d="M432.9266,121.4187 C432.9266,121.4187 438.0246,118.5057 440.4516,118.9917 L441.4226,115.8357 C441.4226,115.8357 442.6356,117.7777 442.3936,119.7197 C442.1506,121.6617 442.8786,125.0597 440.6946,125.5447 C438.5096,126.0307 436.5676,127.7297 436.5676,127.7297 L432.9266,121.4187 Z" id="Fill-20" fill="#FAB165"></path>
                <path d="M325.9818,118.4514 C325.9818,118.4514 324.9078,145.6584 322.7598,158.5464 C320.6118,171.4334 320.2538,191.1234 320.2538,191.1234 L332.4258,195.7774 C332.4258,195.7774 314.8838,196.1354 313.8098,196.1354 C312.7358,196.1354 311.7858,134.0814 312.2608,125.0134 C312.7358,115.9454 325.9818,118.4514 325.9818,118.4514" id="Fill-22" fill="#FCC59C"></path>
                <path d="M297.3734,125.5442 C297.3734,125.5442 301.3714,176.4532 302.2974,182.0142 C303.2244,187.5752 299.9804,192.4402 295.5784,193.5992 C291.1754,194.7572 284.6224,196.0912 296.4474,195.9562 C308.9274,195.8142 309.8554,195.3682 308.2614,188.7962 C306.8374,182.9242 312.7134,157.6692 312.9454,152.5712 C313.1774,147.4732 313.4194,134.0502 312.2614,125.0132 C311.1024,115.9772 297.3734,125.5442 297.3734,125.5442" id="Fill-24" fill="#FCC59C"></path>
                <path d="M293.2255,72.6286 C293.2255,72.6286 284.7045,65.1856 289.7715,56.8036 C289.7715,56.8036 281.5855,47.6426 292.3055,43.5496 C292.3055,43.5496 294.8395,28.7356 305.7545,37.1176 C305.7545,37.1176 311.2125,33.6086 313.9415,38.0916 C316.6705,42.5746 316.2805,45.4986 313.3565,48.6176 C313.3565,48.6176 319.9835,51.7356 317.8395,56.6086 C315.6955,61.4816 315.3055,62.8466 315.3055,62.8466 L293.2255,72.6286 Z" id="Fill-26" fill="#C34158"></path>
                <path d="M277.2323,71.2277 C277.2323,71.2277 291.7863,60.7027 293.6693,60.5077 L291.9723,71.0177 L280.5883,75.4877 L277.2323,71.2277 Z" id="Fill-28" fill="#FCC59C"></path>
                <path d="M299.0629,85.3913 C299.0629,85.3913 298.4129,96.8273 298.0229,99.0363 C297.6329,101.2453 295.5539,118.6573 294.6449,120.2163 C293.7349,121.7763 294.6449,125.1543 297.3739,125.5443 C300.1029,125.9343 305.4299,124.3743 308.0289,126.0643 C310.6279,127.7533 318.6849,124.5043 320.5029,123.0753 C322.3229,121.6453 327.0009,119.1773 326.8709,115.6683 C326.7409,112.1603 324.7919,101.5043 323.1029,97.4763 C321.4129,93.4483 313.3559,84.4823 313.3559,84.4823 L299.0629,85.3913 Z" id="Fill-30" fill="#293E96"></path>
                <path d="M293.6698,60.5075 C293.6698,60.5075 298.9978,59.7275 299.9728,59.9225 C300.9468,60.1175 307.3788,59.7925 308.1588,59.7925 C308.9388,59.7925 315.6958,59.7275 315.5008,61.2865 C315.3058,62.8465 311.8408,61.1965 311.8408,65.2895 L312.5768,68.1095 C312.5768,68.1095 313.3378,73.4675 313.3378,73.9875 C313.3378,74.5075 314.8838,87.4855 314.8838,87.4855 C314.8838,87.4855 304.9098,92.9285 300.7518,88.5095 C296.5938,84.0915 298.4128,79.9335 295.9438,77.4655 C293.4748,74.9955 290.4858,75.3855 291.9158,68.2385 C293.3448,61.0915 293.6698,60.5075 293.6698,60.5075" id="Fill-32" fill="#F2AC9D"></path>
                <path d="M285.4633,81.4875 C285.4633,81.4875 298.5433,82.7925 299.0633,85.3915 C299.5823,87.9905 298.9333,93.9675 298.1533,95.1375 C297.3733,96.3065 298.4133,90.0695 296.8543,88.7705 C295.2943,87.4705 294.7753,86.3005 290.3563,86.8205 C285.9383,87.3405 285.4633,81.4875 285.4633,81.4875" id="Fill-34" fill="#FCC59C"></path>
                <path d="M315.5009,61.2868 C315.5009,61.2868 317.1249,62.2618 317.3849,64.3408 C317.6449,66.4198 321.6729,88.3798 321.0229,90.4588 C320.3739,92.5378 311.7969,109.4318 311.7969,109.9508 C311.7969,110.4708 312.3169,118.5268 309.7179,118.1378 C307.1189,117.7478 306.7299,113.1998 307.1189,110.9908 C307.5089,108.7818 314.5259,90.5888 314.5259,88.3798 C314.5259,86.1708 312.0569,76.0358 312.1869,71.2278 C312.3169,66.4198 310.3679,67.8488 311.0179,64.7958 C311.6679,61.7418 312.9669,60.9618 315.5009,61.2868" id="Fill-36" fill="#FCC59C"></path>
                <path d="M299.9076,56.6091 C299.9076,56.6091 299.5176,61.4821 299.5176,62.2611 C299.5176,63.0411 304.3906,64.7961 305.5596,61.0921 C306.7296,57.3891 306.1446,54.4651 306.1446,54.4651 L299.9076,56.6091 Z" id="Fill-38" fill="#EEB58F"></path>
                <path d="M298.7377,41.2107 C298.7377,41.2107 296.2037,45.6937 297.3737,51.1517 C298.5427,56.6087 299.5177,58.3627 302.8307,57.9737 C306.1447,57.5837 306.3397,55.6347 307.8987,51.3467 C308.7677,48.9577 309.2637,43.3547 307.7037,42.7697 C306.1447,42.1857 298.7377,41.2107 298.7377,41.2107" id="Fill-40" fill="#FCC59C"></path>
                <path d="M295.8143,41.7956 C295.8143,41.7956 296.0093,45.6936 302.6363,44.1346 C309.2633,42.5746 310.4333,42.9646 310.4333,42.9646 L299.1273,39.2616 L295.8143,41.7956 Z" id="Fill-42" fill="#C34158"></path>
                <path d="M445.1927,195.7907 C445.1927,195.7907 450.0927,178.6407 440.9047,168.2287 C431.7177,157.8157 399.8687,165.1657 381.4937,152.9157 C363.1187,140.6667 326.0277,144.9267 305.5447,144.9537 C290.7947,144.9737 284.1077,155.3667 284.1077,169.4537 L284.1077,195.7907 L445.1927,195.7907 Z" id="Fill-44" fill="#B3C5CF"></path>
                <path d="M209.3324,153.9865 C209.2044,153.0885 206.2784,131.8875 213.9744,122.9085 L216.5904,125.1505 C213.8824,128.3105 212.3484,134.1575 212.1544,142.0615 C212.0034,148.2195 212.7354,153.4475 212.7424,153.4995 L209.3324,153.9865 Z" id="Fill-46" fill="#99B55C"></path>
                <path d="M205.9261,151.0637 L204.2081,150.9417 C204.2331,150.5937 206.6011,115.8407 198.8331,90.4907 L200.4801,89.9857 C208.3431,115.6467 205.9511,150.7127 205.9261,151.0637" id="Fill-48" fill="#7FA160"></path>
                <path d="M215.3514,156.6911 L213.6344,156.5541 C213.6514,156.3331 214.0824,151.0691 215.6264,144.8921 C217.7264,136.4941 220.7574,130.7691 224.6374,127.8741 L225.6674,129.2541 C217.1224,135.6291 215.3684,156.4811 215.3514,156.6911" id="Fill-50" fill="#7FA160"></path>
                <path d="M202.3475,154.3318 L199.1095,153.1568 C199.1545,153.0308 203.5755,140.4748 197.4635,131.0298 L200.3555,129.1588 C207.4105,140.0608 202.5575,153.7538 202.3475,154.3318" id="Fill-52" fill="#99B55C"></path>
                <path d="M227.4022,194.0686 L186.8012,194.0686 L186.8012,163.8446 C186.8012,155.5716 193.5082,148.8656 201.7812,148.8656 L214.5742,148.8656 C221.6592,148.8656 227.4022,154.6086 227.4022,161.6936 L227.4022,194.0686 Z" id="Fill-54" fill="#D2DCD6"></path>
                <path d="M210.0614,131.8576 C210.0614,131.8576 207.1474,127.2796 207.5644,120.6206 C207.9804,113.9616 212.1424,115.2106 212.1424,115.2106 C212.1424,115.2106 209.6454,107.7186 213.3914,103.5566 C217.1364,99.3946 222.9634,89.8226 232.1194,91.9036 C241.2754,93.9846 235.0334,99.3946 233.7844,102.7246 C232.5364,106.0536 229.2064,104.3896 229.2064,104.3896 C229.2064,104.3896 229.2064,107.7186 232.5364,107.3026 C235.8654,106.8866 232.5364,113.9616 230.4554,116.4586 C228.3734,118.9556 218.3854,125.1986 217.1364,128.9446 C215.8884,132.6906 212.5584,134.3556 210.0614,131.8576" id="Fill-56" fill="#99B55C"></path>
                <path d="M202.1537,135.1872 C202.1537,135.1872 197.1597,136.0202 193.4137,126.8632 C189.6677,117.7072 183.8417,117.2912 180.0957,116.0422 C176.3497,114.7942 178.8467,108.1352 184.6737,107.7182 C190.5007,107.3022 197.5757,108.9672 199.6567,118.1242 C201.7377,127.2792 205.0677,131.4412 202.1537,135.1872" id="Fill-58" fill="#99B55C"></path>
                <path d="M220.8822,133.5227 C220.8822,133.5227 217.5532,128.9447 227.9582,123.9507 C238.3622,118.9557 245.8542,122.7017 240.8602,126.0307 C235.8652,129.3607 219.6332,143.5117 218.8012,139.3497 C217.9692,135.1877 220.8822,133.5227 220.8822,133.5227" id="Fill-60" fill="#7FA160"></path>
                <path d="M204.0795,107.6272 C204.0795,107.6272 196.7435,108.9672 194.2465,95.2332 C191.7485,81.4992 188.8355,72.7582 187.1705,69.4292 C185.5065,66.0992 195.0785,59.8562 197.9915,64.4352 C200.9055,69.0132 204.2345,77.7522 204.6505,81.4992 C205.0675,85.2442 204.0795,87.3952 204.0795,87.3952 L206.7315,87.7412 C206.7315,87.7412 207.6695,102.5412 204.0795,107.6272" id="Fill-62" fill="#7FA160"></path>
                <mask id="mask-4" fill="white">
                    <use xlink:href="#path-3"></use>
                </mask>
                <g id="Clip-65"></g>
                <polygon id="Fill-64" fill="#A9C3CF" mask="url(#mask-4)" points="187.246 173.054 227.207 173.054 227.207 163.408 187.246 163.408"></polygon>
                <path d="M217.309,195.7907 C217.309,195.7907 213.282,181.6977 220.832,173.1407 C228.382,164.5837 254.556,170.6237 269.656,160.5577 C284.756,150.4907 315.237,153.9917 332.069,154.0137 C344.191,154.0297 349.686,162.5707 349.686,174.1467 L349.686,195.7907 L217.309,195.7907 Z" id="Fill-66" fill="#B3C5CF" mask="url(#mask-4)"></path>
                <path d="M255.0038,66.739 C255.0038,66.739 257.4138,59.124 256.7308,55.799 L266.4298,54.697 C266.4298,54.697 266.5098,67.83 265.1028,69.092 C263.6958,70.354 256.9318,72.381 255.0038,66.739" id="Fill-67" fill="#EEB58F" mask="url(#mask-4)"></path>
                <path d="M264.973633,126.303711 C271.174633,138.705711 276.6035,150.6621 279.7035,153.4181 C282.8045,156.1731 313.5335,180.6381 313.8785,182.3601 C313.8785,182.3601 319.0455,176.8491 318.0125,175.4711 C316.9785,174.0931 292.7955,146.5271 286.2495,142.3941 C279.7035,138.2601 283.1495,114.4891 273.1585,100.3651 C273.1585,100.3651 266.6135,95.5421 251.4555,96.5761 C251.4555,96.5761 244.9105,113.1111 240.4315,122.7571 C235.9535,132.4031 232.1635,138.2601 230.0975,144.8051 C228.0295,151.3511 215.7895,186.1531 214.9385,186.8341 C213.2165,188.2121 220.4515,189.9341 223.2065,186.8341 C225.9625,183.7331 236.9865,167.8861 242.8435,146.5271 C242.8435,146.5271 263.161266,125.660156 261.442383,118.160156 C259.7235,110.660156 259.7235,106.5661 259.7235,106.5661 C259.7235,106.5661 258.930691,112.682347 263.513929,123.187213 C263.950048,124.186805 264.434844,125.226134 264.973633,126.303711 Z" id="Fill-68" fill="#293E96" mask="url(#mask-4)"></path>
                <path d="M255.0687,39.404 L253.5357,51.49 C253.5357,51.49 252.8267,56.372 253.3557,57.404 C254.5427,59.719 257.8927,59.97 261.8337,59.667 C265.7757,59.363 266.3467,56.969 267.7577,51.316 C269.3827,44.807 265.1077,41.393 255.0687,39.404" id="Fill-69" fill="#FCC59C" mask="url(#mask-4)"></path>
                <path d="M252.3378,33.4231 C252.3378,33.4231 251.3968,40.0321 257.4948,42.3241 C263.5918,44.6171 267.4628,48.5511 266.3468,56.9691 C266.3468,56.9691 273.0118,49.8991 271.8908,42.8271 C270.7698,35.7551 260.8318,38.9371 256.5848,36.1801 L252.3378,33.4231 Z" id="Fill-70" fill="#293E96" mask="url(#mask-4)"></path>
                <path d="M217.369,32.3508 C217.057,32.5188 216.669,32.4328 216.456,32.1488 C215.729,31.1768 213.939,28.8708 211.303,26.0318 C207.793,22.2518 215.202,16.5818 216.551,18.4728 C217.901,20.3618 218.711,24.1418 218.981,25.2218 C219.251,26.3018 220.871,19.5518 221.681,26.0318 C222.115,29.5028 222.2,30.3388 222.185,30.3678 C222.039,30.6608 221.608,30.0688 221.32,30.2238 L217.369,32.3508 Z" id="Fill-71" fill="#FCC59C" mask="url(#mask-4)"></path>
                <path d="M292.1058,112.0783 C292.1058,112.0783 291.6468,117.2453 290.4988,118.8533 C289.3498,120.4603 296.2398,122.2983 296.9288,117.7043 C297.6178,113.1113 296.9288,109.6663 296.9288,109.6663 L292.1058,112.0783 Z" id="Fill-72" fill="#FCC59C" mask="url(#mask-4)"></path>
                <path d="M217.0238,31.6687 C216.7518,31.8147 216.6318,32.1397 216.7458,32.4267 C218.0398,35.6847 227.7608,60.8727 228.3878,62.1267 C229.0768,63.5037 245.5988,71.4277 246.9768,76.2507 C248.3558,81.0737 243.2258,116.8687 243.2258,116.8687 C243.2258,116.8687 278.0238,108.5997 278.3678,112.7337 C278.3678,112.7337 273.8478,83.1407 272.1258,80.0407 C272.1258,80.0407 290.7278,100.3657 292.1058,112.0787 L296.9288,109.6667 C296.9288,109.6667 293.8358,90.9107 284.5348,79.1977 C275.2328,67.4847 266.0548,63.3897 266.0548,63.3897 C266.0548,63.3897 262.6198,67.7547 256.9808,64.7107 C248.3688,60.0597 238.3648,57.9927 236.2978,56.9587 C234.2688,55.9437 227.3878,37.2067 221.6878,29.9127 C221.5048,29.6797 220.8358,29.6167 220.5748,29.7567 L217.0238,31.6687 Z" id="Fill-73" fill="#6D8B96" mask="url(#mask-4)"></path>
                <polygon id="Fill-74" fill="#E1767B" mask="url(#mask-4)" points="89.2802 178.3283 87.1842 180.9493 83.2002 177.0703 85.1922 174.8693"></polygon>
                <path d="M126.3881,41.5329 C126.3881,41.5329 132.0481,36.5019 129.5331,35.8729 C127.0171,35.2439 125.4451,37.4449 122.9291,36.8159 C120.4131,36.1869 115.6961,35.8729 114.7521,39.6459 C113.8091,43.4199 110.3501,42.7909 111.6081,46.2499 C112.8661,49.7089 110.3501,50.0239 111.6081,54.7409 C112.8661,59.4579 107.8341,57.5709 110.6641,65.1179 C113.4941,72.6659 107.2051,71.0939 110.3501,76.7539 C113.4941,82.4139 120.0981,85.2449 125.7591,74.5529 C131.4191,63.8609 123.2431,50.6529 123.2431,50.6529 C123.2431,50.6529 123.2431,43.4199 126.3881,41.5329" id="Fill-75" fill="#293E96" mask="url(#mask-4)"></path>
                <path d="M91.7958,180.844 C91.7958,180.844 132.9918,135.56 140.8538,97.195 L124.5008,103.17 C124.5008,103.17 104.0608,158.831 85.1918,174.869 L91.7958,180.844 Z" id="Fill-76" fill="#C34158" mask="url(#mask-4)"></path>
                <path d="M87.184,180.9489 C87.184,180.9489 90.434,187.7619 92.635,188.8109 C94.836,189.8589 94.521,192.5839 91.272,191.8509 C88.022,191.1169 83.515,186.0849 81.838,183.6749 C80.161,181.2629 80.056,182.1019 80.056,182.1019 C80.056,182.1019 78.169,180.8439 78.798,180.3199 C79.427,179.7959 79.846,177.0709 83.201,177.0709 L87.184,180.9489 Z" id="Fill-77" fill="#F2AC9D" mask="url(#mask-4)"></path>
                <polygon id="Fill-78" fill="#E1767B" mask="url(#mask-4)" points="176.3383 182.8625 180.0403 185.3745 176.5993 189.7405 174.2023 187.9895"></polygon>
                <path d="M180.0404,185.3742 C180.0404,185.3742 186.4774,181.4312 187.2904,179.1322 C188.1024,176.8332 190.8464,176.8612 190.4554,180.1692 C190.0654,183.4782 185.5324,188.4862 183.3094,190.4062 C181.0864,192.3262 181.9314,192.3432 181.9314,192.3432 C181.9314,192.3432 180.8774,194.3512 180.2904,193.7802 C179.7044,193.2092 176.9494,193.0772 176.5994,189.7412 L180.0404,185.3742 Z" id="Fill-79" fill="#F2AC9D" mask="url(#mask-4)"></path>
                <path d="M140.8534,97.1945 C140.8534,97.1945 137.0804,109.7735 127.6454,117.0065 C127.6454,117.0065 166.0114,176.1275 177.0184,183.0455 C177.0184,183.0455 173.5584,194.3665 168.8414,192.7945 C168.8414,192.7945 116.6394,129.2705 112.8654,123.2955 C109.0924,117.3205 109.4064,109.1445 114.7524,103.1695 C120.0984,97.1945 123.2434,94.3645 123.2434,94.3645 C123.2434,94.3645 133.3064,101.9115 140.8534,97.1945" id="Fill-80" fill="#E1767B" mask="url(#mask-4)"></path>
                <path d="M135.1932,61.0305 C135.1932,61.0305 132.3622,58.5145 131.4192,54.4265 L124.5012,53.7975 L126.0732,63.8605 C126.0732,63.8605 135.1932,69.8355 136.4512,68.2635 C137.7092,66.6905 138.6522,61.9735 135.1932,61.0305" id="Fill-81" fill="#EEB58F" mask="url(#mask-4)"></path>
                <path d="M135.1932,61.0305 C135.1932,61.0305 140.5392,69.5215 131.4192,63.8605 C126.6022,60.8705 121.3562,64.4895 119.1552,72.0365 C116.9542,79.5845 112.2362,86.5025 112.2362,86.5025 C112.2362,86.5025 118.8402,92.7925 120.0982,91.8485 C121.3562,90.9055 127.9602,80.8425 127.9602,80.8425 L123.2432,94.3645 C123.2432,94.3645 132.6772,102.8555 140.8532,97.1945 C140.8532,97.1945 145.5702,88.0745 146.5142,79.8985 C147.4572,71.7225 142.1112,63.2315 135.1932,61.0305" id="Fill-82" fill="#B7B33E" mask="url(#mask-4)"></path>
                <path d="M147.7719,88.3894 C147.7719,88.3894 147.4579,81.4714 149.6589,80.8424 L145.8849,73.9234 L145.2559,86.5024 L147.7719,88.3894 Z" id="Fill-83" fill="#F7941E" mask="url(#mask-4)"></path>
                <path d="M154.3759,60.4016 C154.3759,60.4016 154.6899,75.4966 146.8289,83.3586 L136.7659,72.6656 C136.7659,72.6656 142.4259,53.7976 142.1119,49.7096 L154.3759,60.4016 Z" id="Fill-84" fill="#293E96" mask="url(#mask-4)"></path>
                <path d="M147.7719,88.3894 C147.7719,88.3894 151.5459,96.8804 154.0619,95.9364 C156.5769,94.9934 157.5209,91.8484 158.1499,89.0184 C158.7789,86.1884 153.4329,68.8924 153.4329,68.8924 C153.4329,68.8924 150.6029,60.0874 149.0299,60.0874 C147.4579,60.0874 143.9989,64.4894 144.9419,66.0614 C145.8849,67.6344 148.4009,71.0934 149.3439,73.2944 C150.2879,75.4964 147.4579,84.3014 147.7719,88.3894" id="Fill-85" fill="#FCC59C" mask="url(#mask-4)"></path>
                <path d="M120.0985,91.8488 C120.0985,91.8488 102.8025,113.8618 99.0285,116.0628 C95.2555,118.2648 98.0855,121.4088 93.9975,123.6098 C89.9095,125.8118 85.8215,124.2388 90.2235,118.2648 C94.6265,112.2888 108.4625,95.3078 112.2365,86.5028 L120.0985,91.8488 Z" id="Fill-86" fill="#FCC59C" mask="url(#mask-4)"></path>
                <path d="M134.8787,50.3385 C136.1367,52.8545 134.5797,57.7015 129.8467,58.1995 C123.8717,58.8295 115.3817,47.5085 117.5827,42.7915 C119.7837,38.0735 125.7587,35.5585 128.9037,41.2185 C128.9037,41.2185 133.6207,47.8225 134.8787,50.3385 Z" id="Fill-87" fill="#FCC59C" mask="url(#mask-4)"></path>
                <path d="M128.5892,38.3884 C128.5892,38.3884 127.3312,43.1054 122.6142,42.1624 C117.8972,41.2184 118.8402,47.5084 120.4132,48.1374 C121.9852,48.7654 123.8722,52.8544 121.3562,54.7414 C118.8402,56.6274 113.8092,44.0494 113.8092,44.0494 L119.4692,37.7594 C119.4692,37.7594 126.0732,36.8164 128.5892,38.3884" id="Fill-88" fill="#293E96" mask="url(#mask-4)"></path>
                <path d="M93.9974,123.6101 C93.9974,123.6101 63.8084,195.3101 53.7454,190.2781 C53.7454,190.2781 67.8964,170.7811 70.4124,165.1201 C72.9274,159.4601 91.7954,123.2961 91.7954,123.2961 L93.9974,123.6101 Z" id="Fill-89" fill="#B4C0CF" mask="url(#mask-4)"></path>
                <path d="M82.5355,144.2126 L57.8485,186.9716 C56.2055,189.8166 52.5335,190.8026 49.6875,189.1586 L32.8005,179.4096 C29.9545,177.7666 28.9725,174.0946 30.6165,171.2486 C34.9465,163.8046 38.8185,155.4876 43.0665,147.6986 C45.1225,143.9206 47.2695,140.2646 49.5975,136.8956 C55.4685,128.4006 72.6555,131.6076 80.3515,136.0516 C81.1715,136.5266 81.8395,137.1676 82.3315,137.9156 C83.5445,139.7486 83.7025,142.1906 82.5355,144.2126" id="Fill-90" fill="#B4C0CF" mask="url(#mask-4)"></path>
                <path d="M256.1771,63.0451 C256.1771,63.0451 253.6511,67.1791 255.4881,69.0161 C257.3251,70.8541 265.7061,69.0191 266.0551,63.3901 C266.4041,57.7611 256.1771,63.0451 256.1771,63.0451" id="Fill-91" fill="#EEB58F" mask="url(#mask-4)"></path>
                <path d="M223.2069,186.8337 C223.2069,186.8337 217.0059,186.4887 214.9389,186.8337 C212.8719,187.1777 205.3069,190.9677 203.5839,191.3127 C201.8619,191.6567 202.2149,194.0677 206.6849,194.0677 C211.1539,194.0687 218.7419,193.7237 221.4979,193.7237 C224.2539,193.7237 223.2069,186.8337 223.2069,186.8337" id="Fill-92" fill="#A34F66" mask="url(#mask-4)"></path>
                <path d="M317.7948,175.0715 C317.7948,175.0715 314.4698,180.3505 313.8778,182.3605 C313.2868,184.3705 312.9108,191.4635 312.4698,193.1635 C312.0278,194.8635 314.3518,195.5965 316.3018,191.5755 C318.2528,187.5535 321.2518,180.5755 322.4538,178.0955 C323.6568,175.6155 317.7948,175.0715 317.7948,175.0715" id="Fill-93" fill="#A34F66" mask="url(#mask-4)"></path>
                <path d="M339.3153,194.7575 L338.9703,194.7575 C338.5863,194.7575 338.5623,194.4735 338.5603,194.4175 C338.5593,194.3605 338.5733,194.0765 338.9573,194.0615 L339.3153,194.0475 L339.3153,194.7575 Z" id="Fill-94" fill="#6692CC" mask="url(#mask-4)"></path>
                <path d="M353.8119,194.4128 L353.8119,194.4028 C353.8979,194.4098 353.9009,194.4128 353.8119,194.4128" id="Fill-95" fill="#D2DCD6" mask="url(#mask-4)"></path>
                <path d="M347.6161,137.5549 C347.6161,137.5549 350.5951,139.2099 354.2371,124.9739 C357.8791,110.7389 363.5071,113.7189 362.8451,122.6569 C362.1821,131.5959 364.5001,132.9199 362.5131,137.2239 C360.5271,141.5279 365.1621,142.1899 363.5071,147.1559 C361.8511,152.1209 358.2101,160.3979 358.2101,160.3979 L349.9331,160.0669 L347.6161,137.5549 Z" id="Fill-96" fill="#7FA160" mask="url(#mask-4)"></path>
                <path d="M344.6366,158.7424 C344.6366,158.7424 337.6836,146.1624 337.6836,136.5614 C337.6836,126.9604 338.0146,118.3534 340.6636,121.9944 C343.3116,125.6364 347.9476,124.3124 347.2846,129.6094 C346.6226,134.9064 350.5956,134.5754 350.2646,141.1964 C349.9336,147.8174 349.9336,160.0664 349.9336,160.0664 L344.6366,158.7424 Z" id="Fill-97" fill="#B7B33E" mask="url(#mask-4)"></path>
                <path d="M336.8563,165.695 L365.6853,165.695 L360.5543,196.474 C359.8453,196.434 353.4623,196.238 351.3203,196.173 L351.2773,196.173 C349.1953,196.236 342.6993,196.434 341.9873,196.477 L336.8563,165.695 Z" id="Fill-98" fill="#D2DCD6" mask="url(#mask-4)"></path>
                <path d="M366.142,162.0534 L336.4,162.0534 C336.579,159.1494 338.995,156.7564 342.047,156.7564 L360.494,156.7564 C363.547,156.7564 365.963,159.1494 366.142,162.0534" id="Fill-99" fill="#D2DCD6" mask="url(#mask-4)"></path>
                <path d="M366.076,163.3444 L365.685,165.6954 L336.856,165.6954 L336.466,163.3444 C336.393,162.9074 336.373,162.4734 336.4,162.0534 L366.142,162.0534 C366.169,162.4734 366.149,162.9074 366.076,163.3444" id="Fill-100" fill="#7FA160" mask="url(#mask-4)"></path>
                <polygon id="Fill-101" fill="#F2AC9D" mask="url(#mask-4)" points="408.0551 5.1506 409.2341 8.3876 406.0881 16.8656 380.8281 1.8666"></polygon>
                <path d="M409.1122,-0.0003 C408.1412,0.3537 380.8282,1.8667 380.8282,1.8667 L408.0552,5.1507 L409.1122,-0.0003 Z" id="Fill-102" fill="#FDE3CA" mask="url(#mask-4)"></path>
                <polygon id="Fill-103" fill="#FDE3CA" mask="url(#mask-4)" points="380.8285 1.8664 409.2335 8.3874 413.3875 16.7744"></polygon>
                <path d="M409.0731,20.6281 C408.9271,20.4561 408.8501,20.3641 408.8501,20.3641 L409.1161,20.1451 C409.1161,20.1451 409.1921,20.2361 409.3351,20.4051 L409.0731,20.6281 Z" id="Fill-104" fill="#BA6B4D" mask="url(#mask-4)"></path>
                <path d="M409.9799,21.6735 C409.8099,21.4805 409.6569,21.3055 409.5229,21.1525 L409.7829,20.9255 C409.9169,21.0795 410.0679,21.2535 410.2379,21.4455 L409.9799,21.6735 Z M410.9059,22.7045 C410.7419,22.5255 410.5869,22.3535 410.4409,22.1915 L410.6979,21.9615 C410.8429,22.1225 410.9979,22.2935 411.1609,22.4735 L410.9059,22.7045 Z M411.8439,23.7225 C411.6809,23.5485 411.5239,23.3795 411.3739,23.2155 L411.6259,22.9815 C411.7769,23.1455 411.9339,23.3135 412.0959,23.4875 L411.8439,23.7225 Z M412.7949,24.7275 C412.6319,24.5575 412.4729,24.3905 412.3179,24.2265 L412.5679,23.9895 C412.7229,24.1525 412.8809,24.3195 413.0439,24.4895 L412.7949,24.7275 Z M441.4179,25.3725 C441.1919,25.3565 440.9719,25.3465 440.7529,25.3405 L440.7619,24.9965 C440.9849,25.0025 441.2109,25.0125 441.4389,25.0285 L441.4469,25.2015 L441.4179,25.3725 Z M439.3929,25.3735 L439.3669,25.0295 C439.5969,25.0125 439.8289,25.0015 440.0639,24.9955 L440.0719,25.3405 C439.8429,25.3455 439.6159,25.3565 439.3929,25.3735 Z M441.4329,25.3735 L441.4469,25.2015 L441.4329,25.3735 Z M442.8009,25.4965 C442.5769,25.4715 442.3499,25.4485 442.1179,25.4275 L442.1489,25.0845 C442.3819,25.1055 442.6129,25.1285 442.8389,25.1535 L442.8009,25.4965 Z M438.0439,25.5475 L437.9819,25.2085 C438.2079,25.1665 438.4379,25.1305 438.6719,25.0995 L438.7159,25.4415 C438.4889,25.4705 438.2649,25.5065 438.0439,25.5475 Z M444.1609,25.6765 C443.9379,25.6425 443.7119,25.6095 443.4819,25.5785 L443.5279,25.2375 C443.7599,25.2685 443.9889,25.3015 444.2139,25.3365 L444.1609,25.6765 Z M413.7579,25.7215 C413.5929,25.5535 413.4319,25.3885 413.2739,25.2255 L413.5219,24.9865 C413.6789,25.1485 413.8389,25.3125 414.0029,25.4795 L413.7579,25.7215 Z M436.7269,25.8735 L436.6249,25.5445 C436.8449,25.4755 437.0689,25.4125 437.2979,25.3555 L437.3809,25.6905 C437.1589,25.7445 436.9409,25.8055 436.7269,25.8735 Z M445.5079,25.9235 C445.2879,25.8775 445.0639,25.8335 444.8359,25.7915 L444.8979,25.4525 C445.1289,25.4945 445.3559,25.5395 445.5789,25.5865 L445.5079,25.9235 Z M446.8389,26.2425 C446.6229,26.1835 446.4009,26.1275 446.1759,26.0735 L446.2559,25.7375 C446.4849,25.7935 446.7099,25.8505 446.9299,25.9105 L446.8389,26.2425 Z M435.4619,26.3605 L435.3179,26.0485 C435.5269,25.9505 435.7449,25.8595 435.9629,25.7745 L436.0869,26.0965 C435.8739,26.1785 435.6659,26.2665 435.4619,26.3605 Z M448.1449,26.6455 C447.9339,26.5725 447.7169,26.5015 447.4959,26.4335 L447.5969,26.1045 C447.8219,26.1735 448.0429,26.2455 448.2579,26.3205 L448.1449,26.6455 Z M414.7329,26.7025 C414.5669,26.5375 414.4039,26.3745 414.2439,26.2135 L414.4879,25.9705 C414.6479,26.1315 414.8109,26.2935 414.9759,26.4575 L414.7329,26.7025 Z M434.2759,27.0135 L434.0899,26.7235 C434.2849,26.5975 434.4869,26.4775 434.6919,26.3645 L434.8579,26.6665 C434.6599,26.7755 434.4639,26.8915 434.2759,27.0135 Z M449.4149,27.1435 C449.2109,27.0535 449.0009,26.9665 448.7849,26.8825 L448.9109,26.5615 C449.1309,26.6475 449.3449,26.7365 449.5539,26.8285 L449.4149,27.1435 Z M415.7199,27.6715 C415.5519,27.5085 415.3869,27.3475 415.2249,27.1885 L415.4659,26.9425 C415.6279,27.1015 415.7919,27.2615 415.9589,27.4235 L415.7199,27.6715 Z M450.6349,27.7485 C450.4409,27.6405 450.2409,27.5345 450.0329,27.4315 L450.1859,27.1235 C450.3989,27.2285 450.6049,27.3365 450.8029,27.4475 L450.6349,27.7485 Z M433.1949,27.8265 L432.9679,27.5675 C433.1439,27.4135 433.3279,27.2645 433.5139,27.1245 L433.7209,27.4005 C433.5419,27.5345 433.3639,27.6785 433.1949,27.8265 Z M451.7829,28.4755 C451.6029,28.3455 451.4159,28.2195 451.2199,28.0955 L451.4039,27.8045 C451.6049,27.9315 451.7989,28.0625 451.9839,28.1945 L451.7829,28.4755 Z M416.7189,28.6275 C416.5499,28.4675 416.3819,28.3085 416.2179,28.1505 L416.4559,27.9025 C416.6199,28.0595 416.7869,28.2175 416.9549,28.3765 L416.7189,28.6275 Z M432.2439,28.7885 L431.9809,28.5655 C432.1319,28.3875 432.2919,28.2135 432.4569,28.0485 L432.7009,28.2905 C432.5429,28.4495 432.3889,28.6175 432.2439,28.7885 Z M452.8289,29.3345 C452.6679,29.1825 452.4979,29.0315 452.3209,28.8875 L452.5399,28.6215 C452.7219,28.7705 452.8989,28.9265 453.0659,29.0845 L452.8289,29.3345 Z M417.7299,29.5705 C417.5589,29.4135 417.3899,29.2565 417.2229,29.1005 L417.4579,28.8485 C417.6239,29.0045 417.7929,29.1605 417.9629,29.3175 L417.7299,29.5705 Z M431.4439,29.8775 L431.1529,29.6945 C431.2779,29.4955 431.4109,29.2995 431.5459,29.1145 L431.8239,29.3185 C431.6929,29.4975 431.5649,29.6855 431.4439,29.8775 Z M453.7349,30.3345 C453.5999,30.1585 453.4549,29.9845 453.3029,29.8175 L453.5579,29.5855 C453.7159,29.7595 453.8679,29.9415 454.0089,30.1255 L453.7349,30.3345 Z M418.7539,30.4995 C418.5809,30.3445 418.4099,30.1905 418.2399,30.0365 L418.4719,29.7815 C418.6409,29.9355 418.8109,30.0885 418.9839,30.2425 L418.7539,30.4995 Z M430.8079,31.0715 L430.4929,30.9315 C430.5889,30.7175 430.6919,30.5055 430.8009,30.3015 L431.1049,30.4635 C431.0009,30.6605 430.8999,30.8645 430.8079,31.0715 Z M419.7909,31.4145 C419.6159,31.2625 419.4419,31.1115 419.2709,30.9595 L419.4989,30.7005 C419.6699,30.8525 419.8429,31.0035 420.0169,31.1545 L419.7909,31.4145 Z M454.4519,31.4715 C454.3529,31.2755 454.2409,31.0785 454.1199,30.8865 L454.4109,30.7035 C454.5379,30.9035 454.6549,31.1095 454.7589,31.3165 L454.4519,31.4715 Z M420.8419,32.3145 C420.6649,32.1655 420.4889,32.0155 420.3139,31.8665 L420.5389,31.6045 C420.7119,31.7535 420.8869,31.9025 421.0639,32.0505 L420.8419,32.3145 Z M430.3399,32.3435 L430.0099,32.2465 C430.0759,32.0205 430.1489,31.7985 430.2299,31.5805 L430.5529,31.6995 C430.4749,31.9105 430.4049,32.1255 430.3399,32.3435 Z M454.9309,32.7235 C454.8739,32.5095 454.8039,32.2955 454.7239,32.0855 L455.0449,31.9625 C455.1299,32.1825 455.2039,32.4095 455.2639,32.6335 L454.9309,32.7235 Z M421.9059,33.1975 C421.7269,33.0515 421.5489,32.9045 421.3719,32.7575 L421.5919,32.4925 C421.7679,32.6385 421.9459,32.7845 422.1239,32.9305 L421.9059,33.1975 Z M430.0399,33.6665 L429.6999,33.6115 C429.7379,33.3785 429.7829,33.1495 429.8339,32.9235 L430.1699,33.0005 C430.1199,33.2185 430.0769,33.4415 430.0399,33.6665 Z M455.1359,34.0455 C455.1249,33.8215 455.1029,33.5975 455.0689,33.3795 L455.4089,33.3265 C455.4449,33.5565 455.4689,33.7935 455.4799,34.0295 L455.1359,34.0455 Z M422.9839,34.0625 C422.8029,33.9205 422.6229,33.7765 422.4429,33.6325 L422.6589,33.3635 C422.8369,33.5075 423.0169,33.6505 423.1979,33.7925 L422.9839,34.0625 Z M424.0769,34.9085 C423.8939,34.7685 423.7109,34.6295 423.5299,34.4885 L423.7409,34.2155 C423.9209,34.3565 424.1029,34.4945 424.2859,34.6335 L424.0769,34.9085 Z M429.8999,35.0175 L429.5569,35.0015 C429.5669,34.7665 429.5849,34.5335 429.6079,34.3045 L429.9509,34.3395 C429.9279,34.5625 429.9109,34.7885 429.8999,35.0175 Z M455.3919,35.4395 L455.0519,35.3815 C455.0889,35.1605 455.1149,34.9365 455.1289,34.7155 L455.4729,34.7365 C455.4589,34.9695 455.4309,35.2065 455.3919,35.4395 Z M425.1859,35.7335 C424.9999,35.5975 424.8139,35.4605 424.6289,35.3225 L424.8349,35.0465 C425.0189,35.1835 425.2039,35.3195 425.3889,35.4545 L425.1859,35.7335 Z M429.5669,36.3975 C429.5529,36.1625 429.5449,35.9305 429.5429,35.6995 L429.8879,35.6975 C429.8899,35.9225 429.8969,36.1485 429.9109,36.3775 L429.5669,36.3975 Z M426.3129,36.5365 C426.1229,36.4045 425.9349,36.2715 425.7469,36.1375 L425.9469,35.8575 C426.1339,35.9905 426.3209,36.1225 426.5099,36.2545 L426.3129,36.5365 Z M455.0179,36.7995 L454.6959,36.6755 C454.7769,36.4655 454.8479,36.2505 454.9059,36.0375 L455.2379,36.1295 C455.1769,36.3525 455.1019,36.5785 455.0179,36.7995 Z M427.4599,37.3185 C427.2679,37.1905 427.0749,37.0605 426.8839,36.9305 L427.0779,36.6455 C427.2689,36.7755 427.4589,36.9035 427.6509,37.0305 L427.4599,37.3185 Z M429.7189,37.7835 C429.6819,37.5515 429.6509,37.3215 429.6259,37.0925 L429.9689,37.0555 C429.9929,37.2785 430.0229,37.5035 430.0589,37.7305 L429.7189,37.7835 Z M454.3949,38.0625 L454.1009,37.8825 C454.2189,37.6885 454.3279,37.4895 454.4249,37.2925 L454.7339,37.4445 C454.6329,37.6515 454.5179,37.8595 454.3949,38.0625 Z M428.6219,38.0695 C428.4269,37.9475 428.2329,37.8225 428.0389,37.6975 L428.2259,37.4085 C428.4179,37.5325 428.6119,37.6565 428.8059,37.7785 L428.6219,38.0695 Z M429.9969,39.1495 C429.9559,38.9855 429.9179,38.8215 429.8829,38.6585 L429.8039,38.7915 C429.6049,38.6745 429.4079,38.5555 429.2099,38.4345 L429.3899,38.1405 C429.5639,38.2465 429.7379,38.3515 429.9129,38.4555 L430.1809,38.4015 C430.2249,38.6215 430.2749,38.8425 430.3319,39.0655 L429.9969,39.1495 Z M453.5669,39.1975 L453.3059,38.9735 C453.4529,38.8015 453.5939,38.6235 453.7249,38.4435 L454.0029,38.6475 C453.8669,38.8345 453.7199,39.0195 453.5669,39.1975 Z M431.0049,39.4805 C430.8039,39.3685 430.6029,39.2555 430.4019,39.1405 L430.5729,38.8415 C430.7719,38.9555 430.9719,39.0685 431.1719,39.1785 L431.0049,39.4805 Z M432.2289,40.1315 C432.0229,40.0275 431.8189,39.9195 431.6139,39.8115 L431.7759,39.5065 C431.9789,39.6145 432.1819,39.7205 432.3849,39.8245 L432.2289,40.1315 Z M452.5769,40.1915 L452.3509,39.9315 C452.5209,39.7835 452.6879,39.6285 452.8459,39.4695 L453.0899,39.7135 C452.9259,39.8775 452.7529,40.0385 452.5769,40.1915 Z M430.3899,40.4855 C430.3149,40.2625 430.2449,40.0415 430.1799,39.8215 L430.5099,39.7235 C430.5739,39.9405 430.6429,40.1575 430.7159,40.3745 L430.3899,40.4855 Z M433.4729,40.7415 C433.2649,40.6435 433.0559,40.5445 432.8479,40.4425 L432.9999,40.1325 C433.2059,40.2335 433.4129,40.3325 433.6189,40.4285 L433.4729,40.7415 Z M451.4609,41.0385 L451.2709,40.7515 C451.4619,40.6245 451.6469,40.4935 451.8249,40.3595 L452.0329,40.6335 C451.8489,40.7735 451.6589,40.9075 451.4609,41.0385 Z M434.7409,41.3035 C434.5289,41.2145 434.3159,41.1225 434.1039,41.0285 L434.2439,40.7135 C434.4539,40.8065 434.6639,40.8975 434.8739,40.9855 L434.7409,41.3035 Z M450.2509,41.7385 L450.0959,41.4305 C450.3009,41.3275 450.5009,41.2205 450.6939,41.1085 L450.8669,41.4065 C450.6669,41.5225 450.4609,41.6325 450.2509,41.7385 Z M430.8829,41.7855 C430.7919,41.5695 430.7059,41.3545 430.6239,41.1395 L430.9459,41.0175 C431.0259,41.2285 431.1109,41.4395 431.2009,41.6515 L430.8829,41.7855 Z M436.0319,41.8115 C435.8159,41.7315 435.5999,41.6495 435.3839,41.5645 L435.5099,41.2435 C435.7239,41.3275 435.9379,41.4095 436.1509,41.4875 L436.0319,41.8115 Z M437.3449,42.2575 C437.1259,42.1895 436.9059,42.1175 436.6859,42.0425 L436.7959,41.7165 C437.0139,41.7905 437.2309,41.8605 437.4479,41.9285 L437.3449,42.2575 Z M448.9699,42.2965 L448.8499,41.9735 C449.0639,41.8935 449.2749,41.8085 449.4799,41.7185 L449.6179,42.0345 C449.4069,42.1265 449.1909,42.2135 448.9699,42.2965 Z M438.6829,42.6325 C438.4589,42.5775 438.2349,42.5175 438.0109,42.4545 L438.1049,42.1235 C438.3259,42.1855 438.5459,42.2435 438.7659,42.2985 L438.6829,42.6325 Z M447.6389,42.7165 L447.5509,42.3835 C447.7729,42.3255 447.9919,42.2625 448.2059,42.1945 L448.3089,42.5235 C448.0899,42.5915 447.8669,42.6565 447.6389,42.7165 Z M440.0419,42.9275 C439.8139,42.8855 439.5869,42.8405 439.3599,42.7915 L439.4329,42.4545 C439.6569,42.5035 439.8799,42.5485 440.1029,42.5895 L440.0419,42.9275 Z M446.2749,43.0085 L446.2189,42.6685 C446.4459,42.6305 446.6689,42.5885 446.8889,42.5415 L446.9599,42.8785 C446.7359,42.9255 446.5079,42.9695 446.2749,43.0085 Z M431.4679,43.0475 C431.3619,42.8375 431.2609,42.6295 431.1649,42.4215 L431.4779,42.2765 C431.5719,42.4805 431.6709,42.6855 431.7749,42.8915 L431.4679,43.0475 Z M441.4179,43.1295 C441.1879,43.1045 440.9579,43.0745 440.7279,43.0405 L440.7779,42.6995 C441.0039,42.7335 441.2299,42.7625 441.4549,42.7865 L441.4179,43.1295 Z M444.8929,43.1795 L444.8649,42.8355 C445.0939,42.8175 445.3199,42.7945 445.5429,42.7665 L445.5859,43.1085 C445.3579,43.1365 445.1269,43.1595 444.8929,43.1795 Z M442.8059,43.2265 C442.6209,43.2205 442.4339,43.2125 442.2459,43.2005 L442.1109,43.1915 L442.1349,42.8475 L442.2679,42.8565 C442.4519,42.8675 442.6349,42.8765 442.8179,42.8825 L442.8059,43.2265 Z M443.5019,43.2375 L443.5009,42.8925 C443.7309,42.8915 443.9589,42.8865 444.1839,42.8775 L444.1979,43.2215 C443.9689,43.2315 443.7369,43.2365 443.5019,43.2375 Z M432.1319,44.2665 C432.0139,44.0645 431.8999,43.8625 431.7909,43.6615 L432.0929,43.4975 C432.2009,43.6955 432.3129,43.8935 432.4299,44.0925 L432.1319,44.2665 Z M432.8679,45.4445 C432.7379,45.2495 432.6129,45.0555 432.4919,44.8605 L432.7839,44.6785 C432.9029,44.8705 433.0269,45.0615 433.1539,45.2535 L432.8679,45.4445 Z M433.6669,46.5785 C433.5279,46.3915 433.3919,46.2045 433.2599,46.0175 L433.5419,45.8185 C433.6719,46.0035 433.8059,46.1885 433.9429,46.3735 L433.6669,46.5785 Z M434.5219,47.6705 C434.3739,47.4905 434.2289,47.3105 434.0879,47.1305 L434.3589,46.9175 C434.4989,47.0955 434.6419,47.2745 434.7879,47.4525 L434.5219,47.6705 Z M435.4289,48.7205 C435.2719,48.5485 435.1199,48.3745 434.9699,48.2015 L435.2309,47.9765 C435.3779,48.1475 435.5299,48.3185 435.6849,48.4895 L435.4289,48.7205 Z M436.3789,49.7295 C436.2149,49.5635 436.0549,49.3965 435.8979,49.2305 L436.1489,48.9935 C436.3039,49.1585 436.4629,49.3235 436.6249,49.4875 L436.3789,49.7295 Z M437.3709,50.6985 C437.1999,50.5385 437.0329,50.3785 436.8699,50.2185 L437.1109,49.9725 C437.2729,50.1315 437.4379,50.2895 437.6059,50.4465 L437.3709,50.6985 Z M438.3969,51.6275 C438.2219,51.4745 438.0489,51.3215 437.8789,51.1675 L438.1109,50.9125 C438.2779,51.0645 438.4499,51.2165 438.6239,51.3685 L438.3969,51.6275 Z M439.4569,52.5205 C439.2759,52.3735 439.0979,52.2255 438.9229,52.0785 L439.1449,51.8155 C439.3189,51.9615 439.4949,52.1075 439.6739,52.2525 L439.4569,52.5205 Z M440.5449,53.3755 C440.3589,53.2355 440.1769,53.0935 439.9969,52.9525 L440.2099,52.6815 C440.3889,52.8215 440.5689,52.9625 440.7529,53.1015 L440.5449,53.3755 Z M441.6599,54.1965 C441.4699,54.0615 441.2829,53.9265 441.0989,53.7905 L441.3029,53.5125 C441.4859,53.6475 441.6709,53.7825 441.8589,53.9165 L441.6599,54.1965 Z M442.7979,54.9835 C442.6049,54.8545 442.4139,54.7245 442.2259,54.5945 L442.4209,54.3105 C442.6079,54.4405 442.7979,54.5695 442.9889,54.6975 L442.7979,54.9835 Z M443.9579,55.7385 C443.7619,55.6145 443.5669,55.4895 443.3759,55.3645 L443.5629,55.0765 C443.7539,55.2005 443.9459,55.3235 444.1419,55.4475 L443.9579,55.7385 Z M445.1369,56.4625 C444.9379,56.3435 444.7399,56.2235 444.5439,56.1045 L444.7249,55.8105 C444.9189,55.9295 445.1149,56.0485 445.3129,56.1665 L445.1369,56.4625 Z M446.3339,57.1555 C446.1309,57.0415 445.9309,56.9275 445.7329,56.8125 L445.9059,56.5145 C446.1029,56.6285 446.3009,56.7425 446.5019,56.8555 L446.3339,57.1555 Z M447.5459,57.8205 C447.3419,57.7115 447.1389,57.6015 446.9379,57.4915 L447.1039,57.1895 C447.3029,57.2985 447.5049,57.4075 447.7089,57.5165 L447.5459,57.8205 Z M448.7739,58.4575 C448.5669,58.3525 448.3619,58.2475 448.1589,58.1425 L448.3169,57.8365 C448.5199,57.9415 448.7229,58.0465 448.9299,58.1495 L448.7739,58.4575 Z M450.0149,59.0675 C449.8059,58.9665 449.5989,58.8665 449.3929,58.7655 L449.5449,58.4565 C449.7499,58.5565 449.9559,58.6565 450.1639,58.7565 L450.0149,59.0675 Z M451.2679,59.6525 C451.0569,59.5555 450.8469,59.4595 450.6399,59.3625 L450.7859,59.0505 C450.9919,59.1475 451.1999,59.2425 451.4099,59.3385 L451.2679,59.6525 Z M452.5319,60.2115 C452.3189,60.1195 452.1079,60.0275 451.8979,59.9345 L452.0379,59.6195 C452.2469,59.7125 452.4559,59.8035 452.6679,59.8955 L452.5319,60.2115 Z M453.8059,60.7475 C453.5909,60.6595 453.3789,60.5715 453.1679,60.4825 L453.3009,60.1645 C453.5109,60.2535 453.7229,60.3415 453.9369,60.4285 L453.8059,60.7475 Z M455.0899,61.2605 C454.8739,61.1765 454.6599,61.0915 454.4469,61.0065 L454.5749,60.6865 C454.7869,60.7715 454.9999,60.8555 455.2149,60.9395 L455.0899,61.2605 Z M456.3819,61.7505 C456.1649,61.6705 455.9489,61.5895 455.7349,61.5075 L455.8569,61.1865 C456.0699,61.2675 456.2849,61.3475 456.5009,61.4275 L456.3819,61.7505 Z M457.6819,62.2205 C457.4629,62.1435 457.2459,62.0665 457.0309,61.9885 L457.1469,61.6645 C457.3619,61.7415 457.5779,61.8195 457.7959,61.8955 L457.6819,62.2205 Z M458.9879,62.6695 C458.7689,62.5955 458.5509,62.5215 458.3339,62.4475 L458.4459,62.1215 C458.6619,62.1955 458.8789,62.2695 459.0979,62.3425 L458.9879,62.6695 Z M460.3019,63.0975 C460.0809,63.0275 459.8619,62.9565 459.6449,62.8855 L459.7509,62.5585 C459.9689,62.6295 460.1869,62.6995 460.4069,62.7695 L460.3019,63.0975 Z M461.6219,63.5075 C461.3999,63.4405 461.1799,63.3725 460.9609,63.3045 L461.0629,62.9755 C461.2809,63.0435 461.5009,63.1115 461.7209,63.1775 L461.6219,63.5075 Z M462.9459,63.8985 C462.7239,63.8345 462.5029,63.7705 462.2829,63.7055 L462.3809,63.3755 C462.5999,63.4395 462.8199,63.5035 463.0419,63.5675 L462.9459,63.8985 Z M464.2769,64.2715 C464.0539,64.2105 463.8319,64.1495 463.6109,64.0875 L463.7039,63.7555 C463.9239,63.8175 464.1459,63.8785 464.3679,63.9395 L464.2769,64.2715 Z M465.6119,64.6275 C465.3879,64.5695 465.1649,64.5105 464.9429,64.4515 L465.0319,64.1185 C465.2529,64.1775 465.4749,64.2355 465.6979,64.2935 L465.6119,64.6275 Z M466.9509,64.9655 C466.7259,64.9105 466.5029,64.8545 466.2809,64.7985 L466.3659,64.4645 C466.5869,64.5205 466.8099,64.5755 467.0329,64.6315 L466.9509,64.9655 Z M468.2949,65.2885 C468.0699,65.2365 467.8449,65.1825 467.6219,65.1295 L467.7029,64.7945 C467.9249,64.8475 468.1479,64.9005 468.3729,64.9525 L468.2949,65.2885 Z M469.6409,65.5945 C469.4149,65.5455 469.1899,65.4945 468.9669,65.4435 L469.0429,65.1075 C469.2659,65.1585 469.4899,65.2085 469.7149,65.2585 L469.6409,65.5945 Z M470.9909,65.8865 C470.7649,65.8385 470.5399,65.7905 470.3149,65.7425 L470.3879,65.4055 C470.6119,65.4545 470.8359,65.5015 471.0619,65.5485 L470.9909,65.8865 Z M472.3439,66.1625 L471.6679,66.0265 L471.7359,65.6885 L472.4119,65.8245 L472.3439,66.1625 Z" id="Fill-105" fill="#BA6B4D" mask="url(#mask-4)"></path>
                <polygon id="Fill-106" fill="#BA6B4D" mask="url(#mask-4)" points="473.4037 66.3684 473.0647 66.3034 473.1297 65.9654 473.4687 66.0304"></polygon>
                <path d="M82.3319,137.9152 C82.2939,138.4632 82.1769,139.0412 81.9739,139.6512 C81.9739,139.6512 50.9689,158.7712 43.2179,147.9192 C43.1659,147.8472 43.1149,147.7742 43.0659,147.6992 C45.1229,143.9202 47.2689,140.2652 49.5979,136.8952 C55.4679,128.4002 72.6549,131.6072 80.3519,136.0512 C81.1709,136.5272 81.8389,137.1672 82.3319,137.9152" id="Fill-107" fill="#D2DBE6" mask="url(#mask-4)"></path>
                <polygon id="Fill-108" fill="#D2DBE6" mask="url(#mask-4)" points="52.0033 177.8903 69.5713 143.7863 74.7383 143.7863 56.1373 180.4733"></polygon>
                <path d="M44.6254,183.3601 C44.6254,188.5701 48.8494,192.7941 54.0604,192.7941 C59.2704,192.7941 63.4944,188.5701 63.4944,183.3601 C63.4944,178.1501 59.2704,173.9261 54.0604,173.9261 C48.8494,173.9261 44.6254,178.1501 44.6254,183.3601" id="Fill-109" fill="#293E96" mask="url(#mask-4)"></path>
                <path d="M409.9369,81.4182 C409.9369,81.4182 407.5259,81.0732 407.0089,82.7962 C406.4919,84.5192 407.0089,86.4132 407.0089,86.4132 L405.2869,86.0692 C405.2869,86.0692 402.7029,82.1072 401.8409,85.5522 C401.1029,88.5082 399.9469,80.3842 399.9469,80.3842 C399.9469,80.3842 402.8749,77.2842 403.9089,77.1122 C404.9419,76.9392 411.3149,78.1452 409.9369,81.4182" id="Fill-110" fill="#293E96" mask="url(#mask-4)"></path>
                <path d="M263.848877,123.844727 C262.464762,122.297526 261.037598,120.68221 259.567383,118.998779 C258.097168,117.315348 257.898437,115.493408 258.971191,113.532959 L262.482422,112.855713 L263.848877,123.844727 Z" id="Path-2" fill="#293E96" mask="url(#mask-4)"></path>
            </g>
        </g>
    </g>
</svg>