<?xml version="1.0" encoding="UTF-8"?>
<svg width="460px" height="219px" viewBox="0 0 460 219" version="1.1" xmlns="http://www.w3.org/2000/svg" xmlns:xlink="http://www.w3.org/1999/xlink">
    <!-- Generator: sketchtool 49.3 (51167) - http://www.bohemiancoding.com/sketch -->
    <title>15F523B3-87C2-4DBB-A296-843F94207E7F</title>
    <desc>Created with sketchtool.</desc>
    <defs>
        <polygon id="path-1" points="0 0.8358 39.6001381 0.8358 39.6001381 10.8548 0 10.8548"></polygon>
        <polygon id="path-3" points="0.875424103 0.0677554902 56.637 0.0677554902 56.637 141.950267 0.875424103 141.950267"></polygon>
        <polygon id="path-5" points="0 218.748 459.637 218.748 459.637 0 0 0"></polygon>
    </defs>
    <g id="Esanjo-Way" stroke="none" stroke-width="1" fill="none" fill-rule="evenodd">
        <g id="Esanjo-Way---How-we-do-Leave" transform="translate(-91.000000, -91.000000)">
            <g id="Page-1" transform="translate(91.000000, 91.000000)">
                <path d="M59.4306,121.6237 L59.4306,167.7817 C59.4306,167.7817 34.7786,163.0617 59.4306,121.6237" id="Fill-1" fill="#293E96"></path>
                <path d="M175.2938,81.695 C175.8218,78.716 169.9338,73.422 167.9358,72.526 C157.2958,67.757 144.2248,73.873 144.7288,86.45 C145.0678,94.94 146.5018,103.79 145.4078,112.6 C144.7458,117.929 142.3508,119.732 138.6148,127.544 C134.8788,135.355 140.6528,139.77 146.7658,140.449 C152.8788,141.129 148.8038,159.467 155.9358,162.184 C163.0678,164.901 168.1618,151.317 168.5018,137.732 C168.8408,124.147 171.5578,102.752 171.5578,102.752 C171.5578,102.752 175.2768,81.788 175.2938,81.695" id="Fill-3" fill="#C34158"></path>
                <path d="M193.9725,105.4684 C193.9725,105.4684 209.9345,92.5634 213.3305,86.1104 C216.7265,79.6574 205.5195,55.5444 202.8025,50.7904 C200.0855,46.0354 184.8115,41.9094 185.4915,36.4764 C186.1705,31.0414 198.0175,32.1714 201.4135,34.5494 C204.8095,36.9264 208.2365,45.0174 209.5955,46.7144 C210.9535,48.4124 228.6135,75.5824 229.6325,84.4124 C230.6515,93.2414 206.8775,111.9214 206.8775,111.9214 L193.9725,105.4684 Z" id="Fill-5" fill="#FCC59C"></path>
                <path d="M166.4638,112.6002 C166.4638,112.6002 172.2368,109.5432 168.1618,103.4302 C164.0868,97.3182 169.5208,101.0532 172.2368,100.3742 C174.9538,99.6952 176.3128,96.9782 177.3318,97.3182 C178.3508,97.6572 181.4068,106.4872 185.4828,106.4872 C189.5578,106.4872 193.9728,105.4682 193.9728,105.4682 C193.9728,105.4682 203.4818,109.2042 200.4248,113.6192 C197.3688,118.0342 184.4638,120.4122 166.4638,112.6002" id="Fill-7" fill="#FCC59C"></path>
                <path d="M172.2372,131.9586 C172.2372,131.9586 179.3692,141.4676 185.4822,143.5056 C191.5952,145.5436 191.5952,147.2406 191.5952,147.2406 C191.5952,147.2406 238.1232,148.6006 248.6512,145.5436 C248.6512,145.5436 232.0092,142.4866 222.8402,132.6376 C213.6702,122.7886 220.8022,118.3736 213.6702,114.9786 C206.5382,111.5816 196.3502,105.1286 193.9722,105.4686 L191.5952,105.8086 C191.5952,105.8086 200.4252,112.9396 196.0102,114.9786 C191.5952,117.0156 186.1612,115.3166 180.7272,112.2606 C175.2942,109.2046 169.8602,110.9016 166.4642,112.6006 C163.0682,114.2986 162.3882,119.3936 165.1052,123.8086 C167.8222,128.2226 172.2372,131.9586 172.2372,131.9586" id="Fill-9" fill="#293E96"></path>
                <path d="M179.3681,121.0885 C179.3681,121.0885 177.0331,125.7695 172.7431,132.6045 C171.4841,134.6255 170.0451,136.8275 168.4431,139.1625 C164.2681,145.2735 158.9961,152.2325 152.8001,158.8675 C148.6911,163.2905 144.1731,167.5705 139.2921,171.3555 C135.4121,174.3775 132.2091,177.0465 129.5591,179.4205 L117.6911,179.4205 C124.3641,174.9965 139.0351,155.1785 148.7671,141.6415 C153.0671,135.6545 156.3941,130.8985 157.6331,129.2385 C159.8921,126.2275 161.3231,122.3855 163.5151,119.4405 C165.1171,117.3045 167.1281,115.6455 170.1591,115.1215 C170.5021,115.0545 170.8551,115.0065 171.2181,114.9785 C171.6941,114.9405 172.1331,114.9215 172.5521,114.9405 C174.4871,114.9685 175.8691,115.4845 176.8611,116.1985 C179.3681,118.0005 179.3681,121.0885 179.3681,121.0885" id="Fill-11" fill="#FCC59C"></path>
                <path d="M239.1415,142.8258 C239.1415,142.8258 254.0845,133.6568 256.8015,127.2038 L278.8765,144.5238 C278.8765,144.5238 247.9715,148.2608 239.1415,142.8258" id="Fill-13" fill="#292480"></path>
                <path d="M256.8017,127.2038 C256.8017,127.2038 273.1427,104.1988 277.1787,101.7328 C283.2917,97.9968 288.0467,95.2798 293.8197,110.2238 C299.5937,125.1668 304.3477,143.5058 304.3477,143.5058 L264.9527,133.6568 L256.8017,127.2038 Z" id="Fill-15" fill="#EC987A"></path>
                <path d="M270.3861,130.9401 C270.3861,130.9401 247.9711,144.5241 241.5191,144.1851 C235.0661,143.8451 241.1791,147.2411 241.1791,147.2411 L284.3101,144.5241 L270.3861,130.9401 Z" id="Fill-17" fill="#293E96"></path>
                <path d="M352.5028,179.4206 L341.2068,179.4206 C336.2308,168.1136 327.3748,148.2376 326.0868,140.7936 C324.3808,130.9366 301.7618,145.6676 301.7618,145.6676 L297.7368,143.8436 L284.3148,144.5206 L283.6188,143.8436 L276.0118,136.4176 L270.3868,130.9366 C270.3868,130.9366 284.3618,123.8056 296.7938,118.4196 C303.5428,115.4926 309.8338,113.0816 313.1798,112.6056 C322.6838,111.2416 334.2378,112.2616 338.6518,126.8656 C341.9118,137.6376 347.9368,163.5666 352.5028,179.4206" id="Fill-19" fill="#FCC59C"></path>
                <path d="M312.5238,179.4157 L301.8558,179.4157 C301.8238,179.3427 301.8028,179.2587 301.7818,179.1857 C301.0888,177.1287 300.6168,175.7657 300.6168,175.7657 C297.5538,164.8967 306.3868,150.9767 306.3868,150.9767 C306.3868,150.9767 308.8418,163.0297 311.1808,173.5197 C311.4958,174.9367 311.7998,176.3317 312.1048,177.6637 C312.2518,178.2617 312.3878,178.8497 312.5238,179.4157" id="Fill-21" fill="#EC987A"></path>
                <path d="M314.8739,161.5504 L314.8739,168.1914 C314.8739,171.6734 313.8559,174.9254 312.1039,177.6634 C311.7159,178.2724 311.2969,178.8604 310.8349,179.4154 L172.1929,179.4154 C169.6859,176.3634 168.1649,172.4494 168.1649,168.1914 L168.1649,161.5504 C168.1649,151.8154 176.1269,143.8424 185.8619,143.8424 L297.1769,143.8424 C297.3019,143.8424 297.4279,143.8424 297.5539,143.8534 C307.1219,144.0524 314.8739,151.9414 314.8739,161.5504" id="Fill-23" fill="#C34158"></path>
                <path d="M155.5473,80.9489 C155.5473,80.9489 152.5933,93.9919 165.5153,100.5129 C178.4353,107.0329 185.8193,101.9639 185.8213,99.7889 C185.8313,91.8379 175.6793,78.7079 168.4693,75.8779 C161.0853,72.9789 155.5473,80.9489 155.5473,80.9489" id="Fill-25" fill="#FCC59C"></path>
                <path d="M166.9657,93.7331 C165.3377,94.5771 164.0447,95.3951 167.0867,96.5871 C168.5997,97.1801 169.9557,98.1701 170.9817,99.4321 C171.7807,100.4161 172.3167,102.0111 171.3537,102.8361 C170.6987,103.3971 169.7137,103.2521 168.8767,103.0451 C164.2827,101.9101 159.9167,99.8621 156.1067,97.0561 C150.8157,93.1601 149.9337,89.0041 151.1887,82.8291 C152.0747,78.4651 154.4347,74.2401 159.1057,72.4131 C161.7087,71.3931 167.1427,70.6011 169.5207,74.3371 C169.5207,74.3371 170.1967,78.8771 163.8607,83.2801 C160.8187,85.3941 161.8617,86.9481 164.5537,88.5171 C165.6447,89.1511 169.0557,90.1951 169.4747,91.4751 C169.7697,92.3771 168.2617,93.0621 166.9657,93.7331" id="Fill-27" fill="#C34158"></path>
                <path d="M62.578,172.5026 L62.578,109.0346 C62.578,109.0346 88.28,137.8836 78.838,160.4386 C69.396,182.9926 62.578,172.5026 62.578,172.5026" id="Fill-29" fill="#C34158"></path>
                <path d="M397.537,86.2106 C397.062,84.0976 395.075,82.6656 392.909,82.6656 L390.215,82.6656 C388.825,82.6656 387.517,82.1526 386.359,81.3846 C385.885,81.0696 385.319,80.8866 384.71,80.8866 L383.397,80.8866 C381.431,80.8866 379.625,79.9626 378.304,78.5066 C377.295,77.3966 375.844,76.6956 374.234,76.6956 L353.569,76.6956 C352.621,76.6956 351.728,76.9396 350.949,77.3656 C347.64,79.1746 343.849,79.9106 340.078,79.9106 L326.407,79.9106 C324.132,79.9106 322.046,81.4136 321.547,83.6336 C320.845,86.7576 323.234,89.5546 326.245,89.5546 L341.217,89.5546 C343.036,89.5546 344.538,90.8346 345.002,92.5936 C345.008,92.6146 345.014,92.6376 345.02,92.6596 C345.577,94.6636 347.498,95.9826 349.578,95.9826 L368.264,95.9826 C369.121,95.9826 369.924,95.7446 370.611,95.3316 C372.333,94.2956 374.253,93.6296 376.263,93.6296 L388.499,93.6296 C388.991,93.6296 389.438,93.4306 389.765,93.1076 C390.528,92.3546 391.501,91.8506 392.574,91.8506 L393.062,91.8506 C395.93,91.8506 398.205,89.1866 397.537,86.2106" id="Fill-31" fill="#F8F5F0"></path>
                <g id="Group-35" transform="translate(0.000000, 94.748000)">
                    <mask id="mask-2" fill="white">
                        <use xlink:href="#path-1"></use>
                    </mask>
                    <g id="Clip-34"></g>
                    <path d="M0.0609,5.9128 C0.3079,7.0108 1.3399,7.7548 2.4649,7.7548 L3.8649,7.7548 C4.5859,7.7548 5.2659,8.0208 5.8679,8.4198 C6.1139,8.5828 6.4079,8.6788 6.7239,8.6788 L7.4059,8.6788 C8.4279,8.6788 9.3659,9.1578 10.0519,9.9148 C10.5759,10.4918 11.3299,10.8548 12.1659,10.8548 L22.9009,10.8548 C23.3939,10.8548 23.8569,10.7288 24.2629,10.5078 C25.9809,9.5678 27.9509,9.1848 29.9099,9.1848 L37.0119,9.1848 C38.1929,9.1848 39.2769,8.4048 39.5359,7.2518 C39.9009,5.6288 38.6599,4.1758 37.0949,4.1758 L29.3179,4.1758 C28.3729,4.1758 27.5919,3.5108 27.3519,2.5978 C27.3489,2.5858 27.3459,2.5738 27.3419,2.5628 C27.0529,1.5218 26.0549,0.8358 24.9749,0.8358 L15.2679,0.8358 C14.8229,0.8358 14.4059,0.9598 14.0479,1.1748 C13.1539,1.7128 12.1569,2.0588 11.1119,2.0588 L4.7559,2.0588 C4.4999,2.0588 4.2679,2.1628 4.0989,2.3298 C3.7019,2.7218 3.1969,2.9828 2.6389,2.9828 L2.3859,2.9828 C0.8959,2.9828 -0.2861,4.3668 0.0609,5.9128" id="Fill-33" fill="#F8F5F0" mask="url(#mask-2)"></path>
                </g>
                <path d="M419.7865,103.9762 C420.0335,105.0742 421.0655,105.8182 422.1905,105.8182 L423.5895,105.8182 C424.3115,105.8182 424.9915,106.0842 425.5935,106.4832 C425.8395,106.6472 426.1335,106.7422 426.4495,106.7422 L427.1315,106.7422 C428.1535,106.7422 429.0915,107.2222 429.7775,107.9782 C430.3015,108.5552 431.0555,108.9182 431.8915,108.9182 L442.6265,108.9182 C443.1195,108.9182 443.5825,108.7922 443.9875,108.5712 C445.7065,107.6312 447.6765,107.2482 449.6355,107.2482 L456.7365,107.2482 C457.9185,107.2482 459.0025,106.4682 459.2615,105.3152 C459.6255,103.6922 458.3845,102.2402 456.8205,102.2402 L449.0435,102.2402 C448.0985,102.2402 447.3175,101.5752 447.0775,100.6612 C447.0745,100.6492 447.0715,100.6382 447.0675,100.6262 C446.7785,99.5852 445.7805,98.9002 444.6995,98.9002 L434.9935,98.9002 C434.5475,98.9002 434.1305,99.0232 433.7735,99.2382 C432.8785,99.7762 431.8825,100.1222 430.8375,100.1222 L424.4815,100.1222 C424.2255,100.1222 423.9935,100.2262 423.8245,100.3932 C423.4275,100.7852 422.9215,101.0462 422.3645,101.0462 L422.1105,101.0462 C420.6215,101.0462 419.4395,102.4302 419.7865,103.9762" id="Fill-36" fill="#F8F5F0"></path>
                <path d="M129.559,179.4206 C115.479,191.9656 116.585,195.8076 111.447,195.8076 C105.336,195.8076 99.903,208.0276 97.863,196.4836 C95.823,184.9396 108.053,185.6166 117.558,179.5056 C117.605,179.4776 117.643,179.4486 117.691,179.4206 L129.559,179.4206 Z" id="Fill-38" fill="#BDC7C2"></path>
                <path d="M331.8549,200.5641 C327.0979,199.8771 316.9169,198.5241 314.1999,199.2011 C311.4829,199.8771 307.4029,200.2201 307.0689,196.8271 C306.8219,194.4151 303.6669,184.7871 301.8549,179.4201 L312.5219,179.4201 C313.5229,183.7671 314.3999,187.1891 314.8769,188.3341 C316.5739,192.4141 315.2199,191.7271 323.0269,194.4441 C330.8349,197.1611 336.6119,201.2411 331.8549,200.5641" id="Fill-40" fill="#BDC7C2"></path>
                <path d="M28.8334,164.8092 C28.8334,164.8092 34.4284,180.1962 63.1024,180.1962 L91.7764,180.1962 L94.5734,164.8092 L28.8334,164.8092 Z" id="Fill-42" fill="#B3C5CF"></path>
                <g id="Group-46" transform="translate(403.000000, 28.748000)">
                    <mask id="mask-4" fill="white">
                        <use xlink:href="#path-3"></use>
                    </mask>
                    <g id="Clip-45"></g>
                    <path d="M53.2646,25.5163 C51.4186,29.9433 49.6556,33.6773 47.9666,36.8673 L41.2526,40.1823 L45.7856,40.8223 C37.6966,54.7013 32.0946,56.5573 30.8466,67.1533 C30.7306,68.1493 30.6576,69.3033 30.6156,70.5833 C30.5216,73.2693 30.5526,76.5313 30.5946,80.1713 C30.8356,98.3623 31.2766,125.8583 16.4326,137.6073 C10.3066,142.4643 6.5396,142.7473 4.2526,140.8903 C-0.6354,136.9353 1.2216,123.2043 1.2216,123.2043 C1.2216,123.2043 1.2846,119.8263 1.5256,114.2343 C1.8506,107.0273 2.4806,96.1383 3.6976,84.0533 C3.9276,81.7873 4.1696,79.4903 4.4416,77.1613 C5.7326,65.9983 7.5366,54.2493 10.0436,43.6853 C12.8446,31.8733 16.5266,21.5613 21.3636,15.2673 C21.8456,14.6373 22.3386,14.0503 22.8426,13.5043 C42.8576,-8.1167 65.2766,-3.3117 53.2646,25.5163" id="Fill-44" fill="#C1C43D" mask="url(#mask-4)"></path>
                </g>
                <path d="M403.8144,80.8483 C406.1274,60.1463 393.0714,36.5743 373.3664,29.4253 C343.5834,18.6213 395.5244,-26.0527 417.8324,21.4353 C425.2874,37.3063 426.8554,55.5063 423.0064,72.5543 C421.0564,81.1933 417.7454,89.5223 413.2314,97.1423 C411.6624,99.7903 409.1334,105.4553 406.1694,106.7273 C401.7594,108.6193 400.1014,103.7433 400.2074,100.0153 C400.3524,94.9073 402.0324,89.9933 403.1214,85.0483 C403.4264,83.6653 403.6564,82.2643 403.8144,80.8483" id="Fill-47" fill="#7FA160"></path>
                <path d="M418.4569,129.6588 C417.8489,133.6458 418.1629,148.0698 415.3309,151.0498 C412.8339,153.6618 410.3789,152.9278 408.4589,150.9448 C407.1379,149.5598 406.0679,147.5878 405.4279,145.6988 C405.1339,144.8288 404.8299,143.9268 404.5259,142.9818 C401.9559,135.0408 399.1439,125.0438 397.3079,117.8258 C395.0419,108.8988 391.4649,100.8008 383.9429,93.6358 C383.8589,93.5608 383.7859,93.4768 383.7019,93.4038 C380.0089,89.9318 376.1279,86.5638 372.0789,83.3958 C371.0089,82.5668 369.9279,81.7388 368.8369,80.9308 C366.8539,79.4628 364.8299,78.0468 362.7839,76.6928 C356.1749,72.3398 349.2089,68.6258 341.9919,65.9088 C317.9159,56.8458 325.6579,25.8768 347.1319,19.0578 L348.3279,24.8488 L351.1499,18.0938 C355.2099,17.4318 359.6579,17.6098 364.3989,18.8588 C372.1629,20.9148 380.7119,25.8668 389.6079,34.8258 C400.0249,45.3158 407.9349,58.2818 413.0439,72.4328 C414.9529,77.7308 416.4739,83.2078 417.5759,88.7778 C417.9849,90.8028 418.3309,92.8478 418.6249,94.8938 C420.2819,106.3908 420.2189,118.1728 418.4569,129.6588" id="Fill-49" fill="#C1C43D"></path>
                <path d="M384.1112,155.3678 C384.1112,155.3678 363.0832,124.5388 375.7182,116.9028 C388.3542,109.2658 384.2092,118.0328 392.5032,131.5898 C400.7982,145.1458 404.3722,161.5608 399.2382,163.1408 C394.1052,164.7218 390.5622,165.3708 384.1112,155.3678" id="Fill-51" fill="#C1C43D"></path>
                <path d="M157.1669,179.821 C157.1669,179.821 168.4259,178.448 168.9759,177.075 C168.9759,177.075 171.7219,179.821 176.3899,179.821 C181.0589,179.821 161.2859,181.469 157.1669,179.821" id="Fill-53" fill="#D1ECEE"></path>
                <path d="M366.4975,209.7331 C352.2415,204.6341 351.2125,208.3701 349.1775,202.9351 C347.1325,197.5021 346.1245,191.7311 344.4145,186.9791 C344.0265,185.8781 342.9255,183.3291 341.4465,179.9511 C343.0405,179.8361 344.1945,179.7101 344.6145,179.6261 C346.2825,180.1501 349.3555,180.3711 352.7965,180.4121 C354.3075,185.5741 355.6505,189.5491 356.6465,191.3961 C360.7175,198.8651 371.2495,205.6521 373.9665,207.6981 C376.6845,209.7331 380.7545,214.8211 366.4975,209.7331 Z M111.4425,195.8011 C105.3365,195.8011 99.9025,208.0231 97.8675,196.4841 C95.9275,185.5521 106.7955,185.5741 116.0265,180.4121 C120.4645,180.4751 125.5105,180.2451 128.9095,180.0041 C115.5235,192.0781 116.4985,195.8011 111.4425,195.8011 Z M455.2055,206.8791 L455.2055,193.8921 C455.2055,185.8881 448.7325,179.4161 440.7385,179.4161 L404.0115,179.4161 C398.9445,178.9331 395.9975,175.9961 395.9975,175.9961 C395.3885,177.5381 384.2785,179.0701 381.5615,179.4161 L367.2945,179.4161 C362.2275,178.9331 359.2805,175.9961 359.2805,175.9961 C358.9555,176.8141 355.6195,177.6431 352.1785,178.2831 C349.1985,178.8381 346.1355,179.2581 344.8665,179.4161 C344.5305,179.4681 344.3105,179.4891 344.2575,179.5001 L343.9015,179.5001 C343.3875,179.5001 342.8935,179.4781 342.4115,179.4161 C341.9605,179.3841 341.5305,179.3211 341.1215,179.2271 C336.8825,178.4201 334.4595,175.9961 334.4595,175.9961 C333.8405,177.5381 322.7315,179.0701 320.0145,179.4161 L312.5235,179.4161 C313.5205,183.7691 314.4015,187.1891 314.8735,188.3331 C316.5735,192.4141 315.2205,191.7311 323.0245,194.4491 C330.8305,197.1661 336.6105,201.2361 331.8575,200.5641 C327.0955,199.8821 316.9195,198.5191 314.2025,199.2011 C311.4855,199.8821 307.4045,200.2181 307.0685,196.8301 C306.8905,195.0881 305.2015,189.6121 303.5965,184.6821 C301.6035,185.4681 299.4425,185.8991 297.1765,185.8991 L185.8615,185.8991 C180.3755,185.8991 175.4555,183.3711 172.1925,179.4161 L155.3875,179.4161 C150.3205,178.9331 147.3725,175.9961 147.3725,175.9961 C146.7645,177.5381 135.6545,179.0701 132.9375,179.4161 L130.5665,179.4161 C130.2625,179.3841 129.9685,179.3531 129.6855,179.3001 C125.1535,178.5971 122.5515,175.9961 122.5515,175.9961 C122.4055,176.3631 121.6395,176.7411 120.5275,177.0971 C117.0445,178.2101 110.1625,179.1531 108.1065,179.4161 L105.7355,179.4161 C100.6685,178.9331 97.7215,175.9961 97.7215,175.9961 C97.1125,177.5381 86.0025,179.0701 83.2865,179.4161 L80.9045,179.4161 C75.8375,178.9331 72.8905,175.9961 72.8905,175.9961 C72.2815,177.5381 61.1725,179.0701 58.4555,179.4161 L56.0845,179.4161 C51.0065,178.9331 48.0695,175.9961 48.0695,175.9961 C47.4505,177.5381 36.3415,179.0701 33.6235,179.4161 L21.1615,179.4161 C13.1675,179.4161 6.6955,185.8881 6.6955,193.8921 L6.6955,206.8791 L455.2055,206.8791 Z" id="Fill-55" fill="#D1ECEE"></path>
                <path d="M112.058,175.8249 C112.058,175.8249 111.009,171.8039 109.61,172.8519 C108.211,173.9009 112.058,175.8249 112.058,175.8249" id="Fill-57" fill="#D1ECEE"></path>
                <path d="M111.7084,166.7331 C109.7854,168.8311 114.3314,173.7261 114.3314,173.7261 C114.3314,173.7261 113.6314,164.6341 111.7084,166.7331" id="Fill-59" fill="#D1ECEE"></path>
                <path d="M405.6186,184.567 C405.5416,184.567 405.4646,184.562 405.3866,184.55 C404.5276,184.423 403.9326,183.624 404.0596,182.764 C408.1456,155.086 407.2206,132.275 405.7246,118.013 C404.1076,102.603 401.5106,93.657 401.4846,93.568 C401.2396,92.734 401.7166,91.86 402.5506,91.615 C403.3876,91.373 404.2586,91.846 404.5036,92.681 C404.6136,93.054 407.2076,101.993 408.8536,117.685 C410.3686,132.127 410.7866,159.915 406.6526,187.916 C406.5376,188.698 406.3866,184.567 405.6186,184.567" id="Fill-61" fill="#7FA160"></path>
                <path d="M122.142,68.571 C121.667,66.458 119.68,65.026 117.514,65.026 L114.82,65.026 C113.431,65.026 112.122,64.512 110.964,63.745 C110.491,63.43 109.924,63.247 109.315,63.247 L108.002,63.247 C106.036,63.247 104.23,62.323 102.909,60.867 C101.901,59.757 100.449,59.056 98.839,59.056 L78.174,59.056 C77.226,59.056 76.334,59.3 75.554,59.725 C72.245,61.535 68.454,62.271 64.683,62.271 L51.012,62.271 C48.737,62.271 46.651,63.774 46.152,65.993 C45.45,69.117 47.84,71.915 50.85,71.915 L65.822,71.915 C67.641,71.915 69.144,73.194 69.607,74.953 C69.613,74.975 69.619,74.998 69.625,75.019 C70.182,77.023 72.103,78.343 74.184,78.343 L92.87,78.343 C93.726,78.343 94.529,78.105 95.216,77.692 C96.938,76.656 98.858,75.99 100.868,75.99 L113.104,75.99 C113.596,75.99 114.043,75.791 114.37,75.468 C115.133,74.715 116.106,74.211 117.179,74.211 L117.667,74.211 C120.535,74.211 122.811,71.547 122.142,68.571" id="Fill-63" fill="#F8F5F0"></path>
                <path d="M298.7885,46.2672 L298.0845,46.2672 C294.0435,46.2672 290.3455,44.3362 287.6735,41.3052 C286.1995,39.6322 284.0455,38.5742 281.6545,38.5742 L263.9915,38.5742 C260.3135,38.5742 256.8995,40.8372 255.7845,44.3412 C255.7735,44.3732 255.7635,44.4062 255.7535,44.4382 C255.0595,46.7222 253.0745,48.3652 250.6875,48.3652 L244.2385,48.3652 C240.7765,48.3652 237.9435,51.1982 237.9435,54.6602 C237.9435,58.1212 240.7765,60.9542 244.2375,60.9542 L245.2995,60.9542 C249.7775,60.9542 253.9325,62.8832 257.2285,65.9152 C258.5985,67.1752 260.4235,67.9472 262.4215,67.9472 L284.2525,67.9472 C287.3865,67.9472 290.3805,66.3652 291.9235,63.6372 C292.0245,63.4582 292.1165,63.2812 292.1985,63.1042 C293.3785,60.5872 295.7625,58.8552 298.5415,58.8552 L298.7885,58.8552 C302.2505,58.8552 305.0825,56.0232 305.0825,52.5612 C305.0825,49.0992 302.2505,46.2672 298.7885,46.2672" id="Fill-65" fill="#F8F5F0"></path>
                <path d="M405.0941,189.2877 C405.0271,189.2877 404.9591,189.2837 404.8911,189.2737 C404.0291,189.1637 403.4201,188.3747 403.5321,187.5127 C403.9611,184.1847 402.7101,176.5087 394.3141,158.8377 C389.2161,148.1107 383.8501,138.7627 383.7961,138.6687 C383.3631,137.9157 383.6221,136.9537 384.3751,136.5207 C385.1281,136.0867 386.0901,136.3457 386.5241,137.0997 C387.4141,138.6457 408.3021,175.1247 406.6531,187.9157 C406.5511,188.7087 405.8731,189.2877 405.0941,189.2877" id="Fill-67" fill="#7FA160"></path>
                <path d="M147.7255,193.4831 C147.7255,195.2211 146.3165,196.6301 144.5785,196.6301 C142.8405,196.6301 141.4315,195.2211 141.4315,193.4831 C141.4315,191.7461 142.8405,190.3371 144.5785,190.3371 C146.3165,190.3371 147.7255,191.7461 147.7255,193.4831" id="Fill-69" fill="#FFFFFF"></path>
                <path d="M190.7367,205.3727 C190.7367,207.1107 189.3277,208.5197 187.5897,208.5197 C185.8517,208.5197 184.4427,207.1107 184.4427,205.3727 C184.4427,203.6347 185.8517,202.2257 187.5897,202.2257 C189.3277,202.2257 190.7367,203.6347 190.7367,205.3727" id="Fill-71" fill="#FFFFFF"></path>
                <path d="M310.2167,196.8268 C310.2167,198.5648 308.8077,199.9738 307.0697,199.9738 C305.3317,199.9738 303.9227,198.5648 303.9227,196.8268 C303.9227,195.0888 305.3317,193.6808 307.0697,193.6808 C308.8077,193.6808 310.2167,195.0888 310.2167,196.8268" id="Fill-73" fill="#FFFFFF"></path>
                <path d="M170.7035,188.2887 C170.7035,190.7707 168.6905,192.7837 166.2085,192.7837 C163.7255,192.7837 161.7125,190.7707 161.7125,188.2887 C161.7125,185.8067 163.7255,183.7937 166.2085,183.7937 C168.6905,183.7937 170.7035,185.8067 170.7035,188.2887" id="Fill-75" fill="#FFFFFF"></path>
                <path d="M157.1669,201.7008 C157.1669,202.5698 156.4619,203.2738 155.5929,203.2738 C154.7249,203.2738 154.0199,202.5698 154.0199,201.7008 C154.0199,200.8318 154.7249,200.1278 155.5929,200.1278 C156.4619,200.1278 157.1669,200.8318 157.1669,201.7008" id="Fill-77" fill="#FFFFFF"></path>
                <path d="M164.685,214.1149 C164.685,214.9839 163.981,215.6879 163.112,215.6879 C162.243,215.6879 161.538,214.9839 161.538,214.1149 C161.538,213.2459 162.243,212.5409 163.112,212.5409 C163.981,212.5409 164.685,213.2459 164.685,214.1149" id="Fill-79" fill="#FFFFFF"></path>
                <path d="M124.996,199.4284 C124.996,200.2974 124.292,201.0014 123.423,201.0014 C122.554,201.0014 121.849,200.2974 121.849,199.4284 C121.849,198.5594 122.554,197.8544 123.423,197.8544 C124.292,197.8544 124.996,198.5594 124.996,199.4284" id="Fill-81" fill="#FFFFFF"></path>
                <path d="M122.8979,211.0553 C122.8979,211.4903 122.5459,211.8413 122.1109,211.8413 C121.6769,211.8413 121.3249,211.4903 121.3249,211.0553 C121.3249,210.6203 121.6769,210.2683 122.1109,210.2683 C122.5459,210.2683 122.8979,210.6203 122.8979,211.0553" id="Fill-83" fill="#FFFFFF"></path>
                <path d="M128.9301,215.776 C128.9301,216.211 128.5781,216.562 128.1431,216.562 C127.7091,216.562 127.3561,216.211 127.3561,215.776 C127.3561,215.341 127.7091,214.989 128.1431,214.989 C128.5781,214.989 128.9301,215.341 128.9301,215.776" id="Fill-85" fill="#FFFFFF"></path>
                <path d="M171.5912,215.6012 C171.5912,216.0362 171.2392,216.3872 170.8042,216.3872 C170.3702,216.3872 170.0182,216.0362 170.0182,215.6012 C170.0182,215.1662 170.3702,214.8142 170.8042,214.8142 C171.2392,214.8142 171.5912,215.1662 171.5912,215.6012" id="Fill-87" fill="#FFFFFF"></path>
                <path d="M315.6606,202.9245 C315.6606,203.3595 315.3086,203.7115 314.8736,203.7115 C314.4396,203.7115 314.0876,203.3595 314.0876,202.9245 C314.0876,202.4895 314.4396,202.1385 314.8736,202.1385 C315.3086,202.1385 315.6606,202.4895 315.6606,202.9245" id="Fill-89" fill="#FFFFFF"></path>
                <path d="M315.5732,213.4157 C315.5732,213.8507 315.2212,214.2017 314.7862,214.2017 C314.3522,214.2017 314.0002,213.8507 314.0002,213.4157 C314.0002,212.9807 314.3522,212.6287 314.7862,212.6287 C315.2212,212.6287 315.5732,212.9807 315.5732,213.4157" id="Fill-91" fill="#FFFFFF"></path>
                <path d="M368.1132,215.1637 C368.1132,215.5987 367.7602,215.9507 367.3262,215.9507 C366.8922,215.9507 366.5392,215.5987 366.5392,215.1637 C366.5392,214.7287 366.8922,214.3767 367.3262,214.3767 C367.7602,214.3767 368.1132,214.7287 368.1132,215.1637" id="Fill-93" fill="#FFFFFF"></path>
                <path d="M319.5072,217.9616 C319.5072,218.3966 319.1542,218.7476 318.7202,218.7476 C318.2862,218.7476 317.9332,218.3966 317.9332,217.9616 C317.9332,217.5266 318.2862,217.1746 318.7202,217.1746 C319.1542,217.1746 319.5072,217.5266 319.5072,217.9616" id="Fill-95" fill="#FFFFFF"></path>
                <path d="M361.8188,211.2301 C361.8188,211.6651 361.4668,212.0161 361.0318,212.0161 C360.5978,212.0161 360.2448,211.6651 360.2448,211.2301 C360.2448,210.7951 360.5978,210.4431 361.0318,210.4431 C361.4668,210.4431 361.8188,210.7951 361.8188,211.2301" id="Fill-97" fill="#FFFFFF"></path>
                <path d="M322.392,213.7653 C322.392,214.2003 322.04,214.5513 321.605,214.5513 C321.171,214.5513 320.818,214.2003 320.818,213.7653 C320.818,213.3303 321.171,212.9783 321.605,212.9783 C322.04,212.9783 322.392,213.3303 322.392,213.7653" id="Fill-99" fill="#FFFFFF"></path>
                <path d="M363.9169,216.9118 C363.9169,217.3468 363.5649,217.6988 363.1299,217.6988 C362.6959,217.6988 362.3429,217.3468 362.3429,216.9118 C362.3429,216.4768 362.6959,216.1258 363.1299,216.1258 C363.5649,216.1258 363.9169,216.4768 363.9169,216.9118" id="Fill-101" fill="#FFFFFF"></path>
                <path d="M317.4091,209.6559 C317.4091,210.0909 317.0571,210.4429 316.6221,210.4429 C316.1881,210.4429 315.8351,210.0909 315.8351,209.6559 C315.8351,209.2209 316.1881,208.8699 316.6221,208.8699 C317.0571,208.8699 317.4091,209.2209 317.4091,209.6559" id="Fill-103" fill="#FFFFFF"></path>
                <path d="M161.4506,208.2575 C161.4506,208.6925 161.0986,209.0445 160.6636,209.0445 C160.2296,209.0445 159.8766,208.6925 159.8766,208.2575 C159.8766,207.8225 160.2296,207.4705 160.6636,207.4705 C161.0986,207.4705 161.4506,207.8225 161.4506,208.2575" id="Fill-105" fill="#FFFFFF"></path>
                <path d="M154.1073,186.5768 C154.1073,187.0118 153.7543,187.3638 153.3203,187.3638 C152.8863,187.3638 152.5333,187.0118 152.5333,186.5768 C152.5333,186.1418 152.8863,185.7908 153.3203,185.7908 C153.7543,185.7908 154.1073,186.1418 154.1073,186.5768" id="Fill-107" fill="#FFFFFF"></path>
                <path d="M165.2973,200.2145 C165.2973,200.6495 164.9443,201.0015 164.5103,201.0015 C164.0753,201.0015 163.7233,200.6495 163.7233,200.2145 C163.7233,199.7795 164.0753,199.4285 164.5103,199.4285 C164.9443,199.4285 165.2973,199.7795 165.2973,200.2145" id="Fill-109" fill="#FFFFFF"></path>
                <path d="M125.0834,205.7223 C125.0834,206.1573 124.7314,206.5093 124.2964,206.5093 C123.8624,206.5093 123.5104,206.1573 123.5104,205.7223 C123.5104,205.2873 123.8624,204.9353 124.2964,204.9353 C124.7314,204.9353 125.0834,205.2873 125.0834,205.7223" id="Fill-111" fill="#FFFFFF"></path>
                <path d="M321.3432,188.4127 C321.3432,189.2817 320.6382,189.9867 319.7692,189.9867 C318.9002,189.9867 318.1962,189.2817 318.1962,188.4127 C318.1962,187.5437 318.9002,186.8397 319.7692,186.8397 C320.6382,186.8397 321.3432,187.5437 321.3432,188.4127" id="Fill-113" fill="#FFFFFF"></path>
                <path d="M263.2958,206.946 C263.2958,207.815 262.5908,208.52 261.7218,208.52 C260.8528,208.52 260.1488,207.815 260.1488,206.946 C260.1488,206.077 260.8528,205.373 261.7218,205.373 C262.5908,205.373 263.2958,206.077 263.2958,206.946" id="Fill-115" fill="#FFFFFF"></path>
                <path d="M109.4355,190.3366 C109.4355,191.2056 108.7305,191.9096 107.8615,191.9096 C106.9925,191.9096 106.2885,191.2056 106.2885,190.3366 C106.2885,189.4676 106.9925,188.7626 107.8615,188.7626 C108.7305,188.7626 109.4355,189.4676 109.4355,190.3366" id="Fill-117" fill="#FFFFFF"></path>
                <path d="M292.1444,200.1276 C292.1444,200.9966 291.4394,201.7006 290.5704,201.7006 C289.7024,201.7006 288.9974,200.9966 288.9974,200.1276 C288.9974,199.2586 289.7024,198.5536 290.5704,198.5536 C291.4394,198.5536 292.1444,199.2586 292.1444,200.1276" id="Fill-119" fill="#FFFFFF"></path>
                <path d="M310.1532,208.3454 C310.1532,209.2134 309.4482,209.9184 308.5792,209.9184 C307.7102,209.9184 307.0062,209.2134 307.0062,208.3454 C307.0062,207.4764 307.7102,206.7714 308.5792,206.7714 C309.4482,206.7714 310.1532,207.4764 310.1532,208.3454" id="Fill-121" fill="#FFFFFF"></path>
                <path d="M295.2919,189.6374 C295.2919,190.5054 294.5869,191.2104 293.7179,191.2104 C292.8489,191.2104 292.1449,190.5054 292.1449,189.6374 C292.1449,188.7684 292.8489,188.0634 293.7179,188.0634 C294.5869,188.0634 295.2919,188.7684 295.2919,189.6374" id="Fill-123" fill="#FFFFFF"></path>
                <path d="M172.2499,207.1208 C172.2499,208.6918 170.9769,209.9648 169.4059,209.9648 C167.8349,209.9648 166.5619,208.6918 166.5619,207.1208 C166.5619,205.5508 167.8349,204.2768 169.4059,204.2768 C170.9769,204.2768 172.2499,205.5508 172.2499,207.1208" id="Fill-125" fill="#FFFFFF"></path>
                <path d="M114.9482,203.6247 C114.9482,205.1947 113.6752,206.4687 112.1042,206.4687 C110.5332,206.4687 109.2612,205.1947 109.2612,203.6247 C109.2612,202.0537 110.5332,200.7797 112.1042,200.7797 C113.6752,200.7797 114.9482,202.0537 114.9482,203.6247" id="Fill-127" fill="#FFFFFF"></path>
                <path d="M370.2987,192.2594 C370.2987,193.1284 369.5937,193.8324 368.7247,193.8324 C367.8557,193.8324 367.1517,193.1284 367.1517,192.2594 C367.1517,191.3904 367.8557,190.6864 368.7247,190.6864 C369.5937,190.6864 370.2987,191.3904 370.2987,192.2594" id="Fill-129" fill="#FFFFFF"></path>
                <path d="M353.5141,209.9186 C353.5141,210.7876 352.8091,211.4916 351.9401,211.4916 C351.0711,211.4916 350.3671,210.7876 350.3671,209.9186 C350.3671,209.0496 351.0711,208.3456 351.9401,208.3456 C352.8091,208.3456 353.5141,209.0496 353.5141,209.9186" id="Fill-131" fill="#FFFFFF"></path>
                <path d="M344.4223,193.8327 C344.4223,194.7017 343.7173,195.4067 342.8483,195.4067 C341.9793,195.4067 341.2753,194.7017 341.2753,193.8327 C341.2753,192.9647 341.9793,192.2597 342.8483,192.2597 C343.7173,192.2597 344.4223,192.9647 344.4223,193.8327" id="Fill-133" fill="#FFFFFF"></path>
                <path d="M98.288,106.6198 C96.392,102.1928 89.19,104.0998 89.117,104.1208 L88.841,103.1088 C89.132,103.0298 95.218,101.4218 98.214,104.6058 C98.454,102.3758 99.791,98.7598 105.598,96.8228 L105.93,97.8188 C98.077,100.4358 99.269,106.2408 99.282,106.2998 L98.288,106.6198 Z" id="Fill-135" fill="#1F50AE"></path>
                <path d="M112.3266,115.0495 L111.3246,114.7555 C111.8356,112.1165 107.8056,110.6945 107.7646,110.6795 L108.1046,109.6885 C108.2726,109.7455 111.5826,110.9085 112.2896,113.3385 C113.2906,112.3345 115.2006,111.2725 118.4946,112.2015 L118.2096,113.2125 C113.6226,111.9155 112.3766,114.9215 112.3266,115.0495" id="Fill-137" fill="#1F50AE"></path>
                <path d="M103.6117,135.3649 C102.8307,132.7919 98.6027,133.4179 98.5597,133.4239 L98.3977,132.3869 C98.5737,132.3589 102.0447,131.8439 103.8027,133.6599 C104.2197,132.3039 105.4117,130.4749 108.7587,129.7569 L108.9787,130.7829 C104.3597,131.7739 104.6217,135.0209 104.6357,135.1579 L103.6117,135.3649 Z" id="Fill-139" fill="#1F50AE"></path>
                <path d="M310.8349,179.4157 C308.9259,181.7447 306.4389,183.5697 303.5969,184.6827 C301.6039,185.4687 299.4419,185.8987 297.1769,185.8987 L185.8619,185.8987 C180.3759,185.8987 175.4559,183.3707 172.1929,179.4157 L310.8349,179.4157 Z" id="Fill-141" fill="#A34F66"></path>
                <path d="M172.1928,179.4157 C172.1928,179.4157 189.6878,177.0487 193.1848,174.6007 C193.1848,174.6007 198.7788,179.1457 207.1718,179.1457 C215.5638,179.1457 192.1348,183.3427 192.1348,183.3427 L172.1928,179.4157 Z" id="Fill-143" fill="#A34F66"></path>
                <path d="M206.4618,179.4157 C206.4618,179.4157 223.9568,177.0487 227.4528,174.6007 C227.4528,174.6007 233.0478,179.1457 241.4408,179.1457 C249.8328,179.1457 226.4038,183.3427 226.4038,183.3427 L206.4618,179.4157 Z" id="Fill-145" fill="#A34F66"></path>
                <path d="M240.7309,179.4157 C240.7309,179.4157 258.2259,177.0487 261.7219,174.6007 C261.7219,174.6007 267.3169,179.1457 275.7099,179.1457 C284.1019,179.1457 260.6729,183.3427 260.6729,183.3427 L240.7309,179.4157 Z" id="Fill-147" fill="#A34F66"></path>
                <path d="M274.9994,179.8336 C274.9994,179.8336 290.6334,177.7176 293.7584,175.5296 C293.7584,175.5296 298.7584,179.5926 306.2574,179.5926 C313.7574,179.5926 292.8204,183.3426 292.8204,183.3426 L274.9994,179.8336 Z" id="Fill-149" fill="#A34F66"></path>
                <path d="M131.0414,44.7536 C131.0414,45.5976 131.7104,46.2896 132.5284,46.2896 L140.7004,46.2896 L138.7384,53.1576 L140.7004,53.1576 L145.6054,46.2896 L152.5324,46.2896 C153.3504,46.2896 154.0204,45.5986 154.0204,44.7536 L154.0204,44.4366 C154.0204,43.5916 153.3504,42.8996 152.5324,42.8996 L145.5924,42.8996 L140.7004,36.0506 L138.7384,36.0506 L140.6954,42.8996 L132.8884,42.8996 L131.0414,40.3586 L130.2214,40.3586 L131.0414,44.7486 L131.0414,44.7536 Z" id="Fill-151" fill="#FAB165"></path>
                <mask id="mask-6" fill="white">
                    <use xlink:href="#path-5"></use>
                </mask>
                <g id="Clip-154"></g>
                <polygon id="Fill-153" fill="#A9C3CF" mask="url(#mask-6)" points="84.146 42.66 125.775 42.66 125.775 42.136 84.146 42.136"></polygon>
                <polygon id="Fill-155" fill="#A9C3CF" mask="url(#mask-6)" points="96.212 46.28 126.378 46.28 126.378 45.756 96.212 45.756"></polygon>
                <path d="M361.6596,160.9635 C361.1356,160.9635 360.7116,160.5395 360.7116,160.0165 C360.7116,159.4905 361.1356,159.0675 361.6596,159.0675 C362.1826,159.0675 362.6086,159.4905 362.6086,160.0165 C362.6086,160.5395 362.1826,160.9635 361.6596,160.9635 M381.2606,164.4945 C376.8756,168.2395 370.4046,167.2205 369.5756,166.8885 C368.7446,166.5575 368.7216,165.8215 369.5276,164.5895 C370.3336,163.3575 371.8726,156.7925 365.9496,155.6085 C360.0246,154.4225 358.6506,159.3275 358.4836,160.4655 C355.6866,161.8885 353.9566,161.5325 353.9566,161.5325 C353.7666,162.1015 353.7666,163.1685 354.6686,163.5715 C356.7526,164.7095 359.3846,164.5185 359.3846,164.5185 L360.2146,165.5625 C361.0446,166.6045 359.9386,167.3955 359.9386,167.3955 C359.9386,167.3955 356.5246,169.4165 356.5876,173.5585 C356.6516,177.6985 362.0856,181.3955 368.7216,181.5505 C385.3126,181.9625 381.9716,166.4845 381.2606,164.4945" id="Fill-156" fill="#FAB165" mask="url(#mask-6)"></path>
                <path d="M422.2123,206.6413 C421.9203,207.1963 421.3953,207.5513 420.8383,207.6173 C421.2973,207.3953 421.7063,207.0233 421.9683,206.5123 C422.2303,206.0013 422.3283,205.4673 422.2563,204.9573 C422.4983,205.4443 422.5033,206.0863 422.2123,206.6413 Z M420.4973,205.2843 C420.2403,205.2483 420.0353,205.0053 420.0743,204.7253 C420.1103,204.4683 420.3533,204.2643 420.6333,204.3033 C420.8903,204.3393 421.0943,204.5813 421.0553,204.8623 C420.9933,205.1393 420.7543,205.3203 420.4973,205.2843 Z M432.0503,205.5593 C432.0893,205.2793 431.8793,205.0833 431.6723,205.1973 C431.0273,205.5603 429.8893,206.2103 429.7563,206.3113 C429.2863,206.2693 428.7613,206.1013 427.7073,205.8123 C427.9733,205.6113 428.3783,205.0953 428.6903,204.7353 C428.9423,204.4603 428.4423,202.5813 427.2713,203.1323 C425.9463,203.7573 424.7063,203.7753 424.4153,203.6393 C420.9723,202.0413 418.1463,204.2183 418.1593,204.2913 C418.3243,204.8153 418.4783,205.7643 418.5663,206.1583 C418.6303,206.5473 417.6263,206.2413 417.4233,206.3313 C417.0203,206.4903 417.9823,207.9563 419.2953,208.7833 C421.4413,210.1283 423.6463,210.5313 424.8133,210.3603 C425.9793,210.1893 426.9293,211.2263 427.1633,211.2583 C427.7433,211.3633 428.5123,210.8033 428.3703,210.4513 C428.2293,210.0973 427.8913,209.6213 427.5193,209.2133 C428.0883,209.0543 428.6383,208.8693 429.2083,208.7103 C429.4583,208.6263 430.4813,209.4833 431.0293,209.9883 C431.2003,210.1303 431.4563,209.9993 431.4953,209.7193 L432.0503,205.5593 Z" id="Fill-157" fill="#C34158" mask="url(#mask-6)"></path>
                <polygon id="Fill-158" fill="#F8F5F0" mask="url(#mask-6)" points="357.6508 82.6999 375.8878 79.8139 366.2228 88.9069"></polygon>
                <path d="M366.497,209.734 C352.236,204.634 351.216,208.371 349.176,202.937 C347.136,197.504 346.125,191.727 344.419,186.979 C344.009,185.817 342.808,183.061 341.206,179.421 L352.503,179.421 C354.133,185.063 355.582,189.429 356.65,191.393 C360.72,198.867 371.254,205.654 373.971,207.694 C376.687,209.734 380.758,214.825 366.497,209.734" id="Fill-159" fill="#BDC7C2" mask="url(#mask-6)"></path>
                <path d="M356.183,188.9372 C356.183,190.5082 354.91,191.7822 353.339,191.7822 C351.768,191.7822 350.495,190.5082 350.495,188.9372 C350.495,187.3672 351.768,186.0932 353.339,186.0932 C354.91,186.0932 356.183,187.3672 356.183,188.9372" id="Fill-160" fill="#FFFFFF" mask="url(#mask-6)"></path>
                <path d="M354.2133,202.2252 C354.2133,203.0942 353.5083,203.7992 352.6393,203.7992 C351.7703,203.7992 351.0663,203.0942 351.0663,202.2252 C351.0663,201.3562 351.7703,200.6522 352.6393,200.6522 C353.5083,200.6522 354.2133,201.3562 354.2133,202.2252" id="Fill-161" fill="#FFFFFF" mask="url(#mask-6)"></path>
                <path d="M385.8593,206.4215 C385.8593,207.9915 384.5863,209.2655 383.0153,209.2655 C381.4443,209.2655 380.1723,207.9915 380.1723,206.4215 C380.1723,204.8515 381.4443,203.5775 383.0153,203.5775 C384.5863,203.5775 385.8593,204.8515 385.8593,206.4215" id="Fill-162" fill="#FFFFFF" mask="url(#mask-6)"></path>
            </g>
        </g>
    </g>
</svg>