<?xml version="1.0" encoding="UTF-8"?>
<svg width="442px" height="210px" viewBox="0 0 442 210" version="1.1" xmlns="http://www.w3.org/2000/svg" xmlns:xlink="http://www.w3.org/1999/xlink">
    <!-- Generator: sketchtool 49.3 (51167) - http://www.bohemiancoding.com/sketch -->
    <title>A8455A1D-75CC-4386-B31C-22CA7487AB2A</title>
    <desc>Created with sketchtool.</desc>
    <defs>
        <polygon id="path-1" points="0 210 441.829 210 441.829 0.831 0 0.831"></polygon>
    </defs>
    <g id="Esanjo-Way" stroke="none" stroke-width="1" fill="none" fill-rule="evenodd">
        <g id="Esanjo-Way---How-we-handle-Expenses" transform="translate(-100.000000, -96.000000)">
            <g id="Page-1" transform="translate(100.000000, 95.000000)">
                <polygon id="Fill-1" fill="#FFFFFF" points="0 204.999 441.829 204.999 441.829 1 0 1"></polygon>
                <g id="Group-136" transform="translate(0.000000, 0.169000)">
                    <path d="M411.0244,191.2775 L29.5264,191.2775 C23.4824,191.2775 18.5844,186.3785 18.5844,180.3355 L18.5844,18.4655 C18.5844,12.4215 23.4824,7.5225 29.5264,7.5225 L411.0244,7.5225 C417.0674,7.5225 421.9664,12.4215 421.9664,18.4655 L421.9664,180.3355 C421.9664,186.3785 417.0674,191.2775 411.0244,191.2775" id="Fill-2" fill="#F8F5F0"></path>
                    <polygon id="Fill-4" fill="#D2DCD6" points="276.7398 92.2048 331.5758 37.3678 347.3808 53.1728 353.8458 46.7068 395.8788 91.3548"></polygon>
                    <polygon id="Fill-6" fill="#A9C3CF" points="322.0586 95.0988 325.3276 81.0038 329.3346 95.0988"></polygon>
                    <mask id="mask-2" fill="white">
                        <use xlink:href="#path-1"></use>
                    </mask>
                    <g id="Clip-9"></g>
                    <polygon id="Fill-8" fill="#A9C3CF" mask="url(#mask-2)" points="18.584 122.586 421.967 122.586 421.967 91.56 18.584 91.56"></polygon>
                    <path d="M164.8799,91.0197 C164.8799,91.0197 200.0759,102.7317 182.7129,103.6407 C165.3499,104.5487 126.0389,102.6477 143.7669,122.7057 L188.6549,122.7057 C188.6549,122.7057 143.7669,112.8037 174.8829,112.8037 C187.1699,112.8037 219.7159,112.0807 205.1379,103.6407 C190.5589,95.2007 175.9889,90.3877 175.9889,90.3877 L164.8799,91.0197 Z" id="Fill-10" fill="#F8F5F0" mask="url(#mask-2)"></path>
                    <polygon id="Fill-11" fill="#A9C3CF" mask="url(#mask-2)" points="326.7066 91.6564 365.1996 53.1634 375.1676 63.1334 378.6436 59.6564 410.9276 91.9414"></polygon>
                    <polygon id="Fill-12" fill="#B7B33E" mask="url(#mask-2)" points="37.047 130.772 421.967 130.772 421.967 121.647 37.047 121.647"></polygon>
                    <polygon id="Fill-13" fill="#C34158" mask="url(#mask-2)" points="12.647 191.824 69.17 191.824 69.17 96.176 12.647 96.176"></polygon>
                    <polygon id="Fill-14" fill="#E1767B" mask="url(#mask-2)" points="15.951 117.59 64.878 117.59 64.878 100.396 15.951 100.396"></polygon>
                    <polygon id="Fill-15" fill="#E1767B" mask="url(#mask-2)" points="15.951 139.369 64.878 139.369 64.878 122.174 15.951 122.174"></polygon>
                    <polygon id="Fill-16" fill="#E1767B" mask="url(#mask-2)" points="15.951 161.149 64.878 161.149 64.878 143.955 15.951 143.955"></polygon>
                    <polygon id="Fill-17" fill="#E1767B" mask="url(#mask-2)" points="15.951 182.928 64.878 182.928 64.878 165.734 15.951 165.734"></polygon>
                    <polygon id="Fill-18" fill="#D2DCD6" mask="url(#mask-2)" points="180.9058 91.6584 216.3638 56.2004 222.1648 62.0014 249.8578 34.3084 270.0008 54.4514 273.3418 51.1104 315.4478 91.5544"></polygon>
                    <polygon id="Fill-19" fill="#D2DCD6" mask="url(#mask-2)" points="88.8096 92.2048 124.0526 56.9618 134.2106 67.1188 138.3656 62.9638 165.3806 91.6588"></polygon>
                    <polygon id="Fill-20" fill="#A9C3CF" mask="url(#mask-2)" points="18.3111 93.7629 73.2011 38.8729 89.0201 54.6929 95.4921 48.2209 139.2761 92.0049"></polygon>
                    <path d="M424.8936,210.0002 L13.5226,210.0002 C7.1846,210.0002 2.0456,204.8612 2.0456,198.5232 L2.0456,191.2772 L436.3706,191.2772 L436.3706,198.5232 C436.3706,204.8612 431.2316,210.0002 424.8936,210.0002" id="Fill-21" fill="#D2DCD6" mask="url(#mask-2)"></path>
                    <polygon id="Fill-22" fill="#A9C3CF" mask="url(#mask-2)" points="211.7168 91.7253 213.6548 83.3673 216.0308 91.7253"></polygon>
                    <path d="M342.4556,191.5983 L296.4346,191.5983 C295.2916,191.5983 294.3576,190.6633 294.3576,189.5213 L294.3576,189.5203 C294.3576,188.3783 295.2916,187.4433 296.4346,187.4433 L342.4556,187.4433 C343.5986,187.4433 344.5336,188.3783 344.5336,189.5203 L344.5336,189.5213 C344.5336,190.6633 343.5986,191.5983 342.4556,191.5983" id="Fill-23" fill="#FDD4AB" mask="url(#mask-2)"></path>
                    <path d="M325.1807,119.7394 L310.0347,119.7394 C308.9587,119.7394 308.0797,120.6184 308.0797,121.6934 C308.0797,122.7684 308.9587,123.6484 310.0347,123.6484 L325.1807,123.6484 C326.2557,123.6484 327.1357,122.7684 327.1357,121.6934 C327.1357,120.6184 326.2557,119.7394 325.1807,119.7394" id="Fill-24" fill="#293E96" mask="url(#mask-2)"></path>
                    <path d="M46.9146,75.2262 L46.4536,128.5432 C46.4536,128.5432 56.8986,101.1822 57.1926,95.8862 C57.4866,90.5902 56.6036,76.1732 56.6036,76.1732 C56.6036,76.1732 48.5326,75.9622 46.9146,75.2262" id="Fill-25" fill="#532B54" mask="url(#mask-2)"></path>
                    <path d="M238.8662,98.5407 C241.2202,98.9327 246.3202,106.7787 246.3202,106.7787 L251.0282,103.6407 L240.4352,94.2257 L238.8662,98.5407 Z" id="Fill-26" fill="#292480" mask="url(#mask-2)"></path>
                    <path d="M50.1314,41.1618 C50.1314,41.1618 43.0704,40.2788 39.5394,42.9268 C36.0094,45.5748 35.2734,47.3408 34.6854,58.2258 L34.0964,69.1128 C34.0964,69.1128 39.2454,70.1418 40.2754,69.7008 C41.3054,69.2598 41.1574,64.8458 41.1574,64.8458 C41.1574,64.8458 45.8654,65.4348 47.1894,78.3798 C47.1894,78.3798 59.1054,77.0558 64.1064,72.3488 C64.1064,72.3488 63.8124,66.6118 63.9594,65.4348 C63.9594,65.4348 72.7864,63.3748 73.0804,62.6398 C73.3744,61.9038 71.3154,42.9268 58.2224,42.3388 L50.1314,41.1618 Z" id="Fill-27" fill="#293E96" mask="url(#mask-2)"></path>
                    <path d="M44.6885,37.631 L45.8255,20.678 L58.3695,21.449 C58.3695,21.449 60.4295,38.955 58.2225,42.339 C56.0155,45.722 48.8075,50.724 46.3065,46.016 C46.3065,46.016 50.8675,41.603 51.1615,37.778 C51.1615,37.778 45.8655,39.102 44.6885,37.631" id="Fill-28" fill="#FCC59C" mask="url(#mask-2)"></path>
                    <path d="M45.8257,20.6779 C45.8257,20.6779 44.6487,26.8569 53.1817,30.3879 C53.1817,30.3879 54.3597,37.7449 53.1817,38.6279 C53.1817,38.6279 64.3647,38.9219 64.3647,34.5079 C64.3647,30.0939 64.6587,19.5009 55.8307,19.2069 C47.0027,18.9119 45.8257,20.6779 45.8257,20.6779" id="Fill-29" fill="#C34158" mask="url(#mask-2)"></path>
                    <path d="M45.041,33.0368 C45.041,33.0368 39.058,23.9148 45.826,20.6778 L45.041,33.0368 Z" id="Fill-30" fill="#8C2B3D" mask="url(#mask-2)"></path>
                    <path d="M34.0967,69.1125 L31.3017,94.8565 C31.3017,94.8565 24.9327,93.9405 24.1977,96.4415 L37.6277,96.4745 L40.2757,69.7005 C40.2757,69.7005 36.1567,70.1415 34.0967,69.1125" id="Fill-31" fill="#FCC59C" mask="url(#mask-2)"></path>
                    <path d="M63.6655,179.0016 L65.0755,184.5876 C65.0755,184.5876 72.6265,181.0566 71.3525,177.5256 L70.0775,173.9956 L63.6655,179.0016 Z" id="Fill-32" fill="#F0BE88" mask="url(#mask-2)"></path>
                    <path d="M54.6792,192.1398 C54.6792,192.1398 63.8002,185.7648 65.0752,184.5878 C66.3502,183.4108 72.0382,180.2728 71.3522,177.5258 C71.3522,177.5258 73.7062,176.6438 74.6862,179.0958 C75.6672,181.5478 73.7062,188.5108 73.7062,190.7668 C73.7062,193.0218 73.6082,191.8458 73.6082,191.8458 L72.4312,191.8458 L72.0382,187.2358 C72.0382,187.2358 69.8812,186.7448 68.2132,189.5898 C66.5462,192.4338 62.1332,193.1198 54.6792,192.1398" id="Fill-33" fill="#B7B33E" mask="url(#mask-2)"></path>
                    <path d="M46.1597,138.841 L44.0167,176.404 C44.0167,176.404 50.4447,173.261 53.0147,173.69 L55.0147,158.837 L46.1597,138.841 Z" id="Fill-34" fill="#532B54" mask="url(#mask-2)"></path>
                    <path d="M68.52,70.4362 C68.52,70.4362 56.751,76.4672 55.574,76.3202 C55.574,76.3202 57.781,95.2972 55.28,101.1822 C52.779,107.0662 46.16,129.4262 45.571,131.7802 C44.983,134.1342 44.983,139.4292 51.014,151.9342 C57.045,164.4372 63.666,179.0012 63.666,179.0012 C63.666,179.0012 70.874,174.2942 71.315,172.5292 C71.756,170.7632 60.87,141.3422 59.988,134.5752 C59.105,127.8082 74.551,112.6562 76.758,102.0642 C78.964,91.4722 68.52,70.4362 68.52,70.4362" id="Fill-35" fill="#724173" mask="url(#mask-2)"></path>
                    <path d="M44.0171,176.4035 C44.0171,176.4035 43.8741,182.8305 43.1601,183.6875 C42.4461,184.5445 38.3041,189.4005 38.3041,189.4005 L51.1581,179.9745 L51.8721,173.5475 C51.8721,173.5475 46.4451,174.2615 44.0171,176.4035" id="Fill-36" fill="#F0BE88" mask="url(#mask-2)"></path>
                    <path d="M34.2446,192.1398 C34.2446,192.1398 43.3656,185.7648 44.6406,184.5878 C45.9156,183.4108 52.4156,180.0068 51.7296,177.2608 C51.7296,177.2608 53.2716,176.6438 54.2526,179.0958 C55.2336,181.5478 53.2716,188.5108 53.2716,190.7668 C53.2716,193.0218 53.1736,191.8458 53.1736,191.8458 L51.9966,191.8458 L51.6046,187.2358 C51.6046,187.2358 49.4466,186.7448 47.7796,189.5898 C46.1126,192.4338 41.6986,193.1198 34.2446,192.1398" id="Fill-37" fill="#B7B33E" mask="url(#mask-2)"></path>
                    <path d="M64.5835,181.6882 C64.5835,181.6882 61.2985,186.9722 58.7285,189.1152 C56.1575,191.2572 66.5835,183.5442 66.5835,183.5442 L64.5835,181.6882 Z" id="Fill-38" fill="#F0BE88" mask="url(#mask-2)"></path>
                    <path d="M63.9595,65.4347 L64.4005,73.8197 C64.4005,73.8197 50.5725,82.7927 48.2195,83.9697 C45.8655,85.1467 41.8935,87.0597 45.1295,95.1497 C45.1295,95.1497 49.2495,97.7977 49.6895,95.0027 C50.1315,92.2077 46.7485,90.4427 52.6325,87.7947 C58.5165,85.1467 72.6385,79.4097 72.6385,77.9387 C72.6385,76.4677 73.0805,62.6397 73.0805,62.6397 C73.0805,62.6397 68.3725,61.4627 63.9595,65.4347" id="Fill-39" fill="#FCC59C" mask="url(#mask-2)"></path>
                    <path d="M252.5972,72.256 C252.5972,72.256 241.1932,72.256 237.1722,64.285 C236.7182,63.386 236.3592,62.385 236.1202,61.271 C233.7662,50.287 241.2202,48.325 246.7122,49.11 C252.2042,49.895 255.3432,64.802 254.9512,69.117 C254.5582,73.433 252.5972,72.256 252.5972,72.256" id="Fill-40" fill="#FCC59C" mask="url(#mask-2)"></path>
                    <path d="M229.96,74.2673 C229.96,74.2673 235.859,71.8903 236.877,67.0673 C237.047,66.2593 237.154,65.3373 237.172,64.2853 L244.751,69.5103 C244.751,69.5103 241.612,76.9633 242.005,78.1403 C242.397,79.3173 229.96,74.2673 229.96,74.2673" id="Fill-41" fill="#FCC59C" mask="url(#mask-2)"></path>
                    <path d="M299.6739,124.0402 C299.6739,124.0402 322.8199,127.8242 320.4659,141.8232 C318.1119,155.8222 294.5739,147.4982 294.5739,161.1192 L294.5739,188.3612 L309.0889,186.8482 C309.0889,186.8482 307.5199,170.9572 307.5199,168.3082 C307.5199,159.2282 314.1889,154.6872 327.1349,153.5522 C340.0809,152.4172 334.9819,130.0942 319.2889,124.7972 L299.6739,124.0402 Z" id="Fill-42" fill="#FDD4AB" mask="url(#mask-2)"></path>
                    <path d="M232.1973,117.7634 C232.1973,117.7634 227.4893,117.7634 223.1743,115.8024 C218.8593,113.8404 211.7973,113.0554 210.2283,113.0554 C208.6583,113.0554 217.6813,75.7864 232.5893,72.6484 C232.5893,72.6484 235.7283,77.7484 242.0053,78.1404 C242.0053,78.1404 249.0663,83.6334 245.1433,90.6944 C241.2203,97.7564 232.1973,117.7634 232.1973,117.7634" id="Fill-43" fill="#B7B33E" mask="url(#mask-2)"></path>
                    <path d="M251.0278,103.6403 C251.0278,103.6403 238.0818,93.0483 237.6898,90.3023 C237.2968,87.5563 240.4358,78.1403 247.1048,84.8093 C253.7738,91.4793 256.1278,95.7943 256.1278,95.7943 L251.0278,103.6403 Z" id="Fill-44" fill="#293E96" mask="url(#mask-2)"></path>
                    <path d="M288.3174,187.3918 C288.3174,187.3918 286.6654,191.8768 292.4474,191.8768 C298.2284,191.8768 311.4424,191.0608 311.4424,191.0608 C311.4424,191.0608 314.7464,186.9838 307.3134,186.1688 C299.8804,185.3528 298.2284,183.3148 298.2284,183.3148 L288.3174,187.3918 Z" id="Fill-45" fill="#293E96" mask="url(#mask-2)"></path>
                    <path d="M246.3203,106.779 C246.3203,106.779 257.6963,115.41 263.1893,116.979 C268.6813,118.548 285.5503,122.863 293.3973,122.863 C301.2433,122.863 285.9433,119.725 285.9433,119.725 L251.0283,103.64 L246.3203,106.779 Z" id="Fill-46" fill="#E4A389" mask="url(#mask-2)"></path>
                    <path d="M264.1909,186.2209 L257.4799,186.2209 L257.4799,185.0439 C257.4799,175.9709 250.0979,168.5879 241.0239,168.5879 L237.1009,168.5879 C228.0269,168.5879 220.6449,175.9709 220.6449,185.0439 L220.6449,186.2209 L213.9339,186.2209 L213.9339,185.0439 C213.9339,172.2699 224.3269,161.8769 237.1009,161.8769 L241.0239,161.8769 C253.7979,161.8769 264.1909,172.2699 264.1909,185.0439 L264.1909,186.2209 Z" id="Fill-47" fill="#E1767B" mask="url(#mask-2)"></path>
                    <path d="M221.605,187.0055 C221.605,189.4975 219.585,191.5175 217.093,191.5175 C214.602,191.5175 212.582,189.4975 212.582,187.0055 C212.582,184.5135 214.602,182.4935 217.093,182.4935 C219.585,182.4935 221.605,184.5135 221.605,187.0055" id="Fill-48" fill="#E1767B" mask="url(#mask-2)"></path>
                    <path d="M217.0933,182.7336 C214.7373,182.7336 212.8213,184.6506 212.8213,187.0056 C212.8213,189.3616 214.7373,191.2776 217.0933,191.2776 C219.4483,191.2776 221.3653,189.3616 221.3653,187.0056 C221.3653,184.6506 219.4483,182.7336 217.0933,182.7336 M217.0933,191.7566 C214.4733,191.7566 212.3423,189.6256 212.3423,187.0056 C212.3423,184.3856 214.4733,182.2546 217.0933,182.2546 C219.7133,182.2546 221.8443,184.3856 221.8443,187.0056 C221.8443,189.6256 219.7133,191.7566 217.0933,191.7566" id="Fill-49" fill="#E1767B" mask="url(#mask-2)"></path>
                    <path d="M265.3501,187.0055 C265.3501,189.4975 263.3301,191.5175 260.8381,191.5175 C258.3471,191.5175 256.3271,189.4975 256.3271,187.0055 C256.3271,184.5135 258.3471,182.4935 260.8381,182.4935 C263.3301,182.4935 265.3501,184.5135 265.3501,187.0055" id="Fill-50" fill="#E1767B" mask="url(#mask-2)"></path>
                    <path d="M260.8384,182.7336 C258.4834,182.7336 256.5674,184.6506 256.5674,187.0056 C256.5674,189.3616 258.4834,191.2776 260.8384,191.2776 C263.1944,191.2776 265.1104,189.3616 265.1104,187.0056 C265.1104,184.6506 263.1944,182.7336 260.8384,182.7336 M260.8384,191.7566 C258.2184,191.7566 256.0874,189.6256 256.0874,187.0056 C256.0874,184.3856 258.2184,182.2546 260.8384,182.2546 C263.4584,182.2546 265.5894,184.3856 265.5894,187.0056 C265.5894,189.6256 263.4584,191.7566 260.8384,191.7566" id="Fill-51" fill="#E1767B" mask="url(#mask-2)"></path>
                    <path d="M266.8438,140.9093 C266.8438,140.9093 294.9248,180.8673 298.2288,183.3143 C301.5318,185.7613 293.2728,188.6153 288.3178,187.3913 C283.3628,186.1683 264.3658,156.8113 264.3658,156.8113 L266.8438,140.9093 Z" id="Fill-52" fill="#532B54" mask="url(#mask-2)"></path>
                    <path d="M232.1973,117.8312 C232.1973,117.8312 231.8043,120.6152 236.9053,120.6152 C242.0053,120.6152 264.7583,125.7852 267.5043,132.1472 C270.2513,138.5102 262.0123,177.8802 258.4813,185.4362 C258.4813,185.4362 248.2813,189.8102 247.8893,184.6412 C247.4973,179.4712 253.3823,143.6802 253.7743,140.8962 C254.1663,138.1132 250.2433,138.1132 245.9273,137.7152 C241.6123,137.3172 217.2893,137.7152 212.9743,134.5342 C208.6583,131.3522 207.0893,114.6502 210.2283,113.0592 C213.3663,111.4682 232.1973,117.8312 232.1973,117.8312" id="Fill-53" fill="#724173" mask="url(#mask-2)"></path>
                    <path d="M256.128,95.7941 C256.128,95.7941 269.858,109.1321 273.782,109.9171 C277.705,110.7021 295.751,117.3711 300.459,118.5481 C305.166,119.7251 305.877,121.2761 306.662,122.8451 C307.446,124.4141 300.459,122.8631 295.751,122.4711 C291.043,122.0791 272.997,116.5861 270.251,116.5861 C267.504,116.5861 251.028,103.6401 251.028,103.6401 L256.128,95.7941 Z" id="Fill-54" fill="#FCC59C" mask="url(#mask-2)"></path>
                    <path d="M247.8892,184.6408 C247.8892,184.6408 246.7122,192.1968 252.9892,192.1968 C259.2662,192.1968 271.8202,191.7988 271.8202,191.7988 C271.8202,191.7988 276.1352,188.6178 258.4812,185.4358 L247.8892,184.6408 Z" id="Fill-55" fill="#293E96" mask="url(#mask-2)"></path>
                    <path d="M199.6358,94.2253 C199.6358,94.2253 195.7128,93.8323 197.6748,100.8943 C199.6358,107.9553 205.1278,124.0403 214.1508,138.5563 C214.1508,138.5563 222.7818,137.7713 220.8208,132.2793 C218.8588,126.7863 206.6978,98.1483 205.1278,95.7943 C203.5588,93.4403 199.6358,94.2253 199.6358,94.2253" id="Fill-56" fill="#C34158" mask="url(#mask-2)"></path>
                    <path d="M259.8545,146.402 L217.8775,146.402 C215.1805,146.402 212.9745,144.195 212.9745,141.498 L212.9745,139.144 C212.9745,136.447 215.1805,134.24 217.8775,134.24 L259.8545,134.24 C262.5515,134.24 264.7585,136.447 264.7585,139.144 L264.7585,141.498 C264.7585,144.195 262.5515,146.402 259.8545,146.402" id="Fill-57" fill="#C34158" mask="url(#mask-2)"></path>
                    <path d="M238.2778,171.9015 C237.5228,171.9015 236.9048,171.2835 236.9048,170.5285 L236.9048,144.6365 C236.9048,143.8805 237.5228,143.2635 238.2778,143.2635 C239.0328,143.2635 239.6508,143.8805 239.6508,144.6365 L239.6508,170.5285 C239.6508,171.2835 239.0328,171.9015 238.2778,171.9015" id="Fill-58" fill="#C34158" mask="url(#mask-2)"></path>
                    <path d="M241.0239,153.071 L235.9239,153.071 C233.2269,153.071 231.0199,150.864 231.0199,148.167 L231.0199,146.206 C231.0199,143.508 233.2269,141.302 235.9239,141.302 L241.0239,141.302 C243.7209,141.302 245.9279,143.508 245.9279,146.206 L245.9279,148.167 C245.9279,150.864 243.7209,153.071 241.0239,153.071" id="Fill-59" fill="#C34158" mask="url(#mask-2)"></path>
                    <path d="M252.5972,48.3254 C252.5972,48.3254 248.6742,49.1104 243.5742,49.1104 C238.4742,49.1104 233.7662,51.0714 234.9432,56.1714 C236.1202,61.2714 236.8762,67.0674 236.8762,67.0674 C236.8762,67.0674 240.4352,66.3714 242.0052,57.7404 C243.5742,49.1104 251.8122,59.3094 252.5972,48.3254" id="Fill-60" fill="#293E96" mask="url(#mask-2)"></path>
                    <path d="M312.7764,49.6589 L299.0084,108.5839 C299.0084,108.5839 306.1684,105.8299 308.3704,95.9179 C310.5734,86.0049 317.1824,56.2669 317.1824,56.2669 C317.1824,56.2669 318.2834,50.2099 312.7764,49.6589" id="Fill-61" fill="#293E96" mask="url(#mask-2)"></path>
                    <path d="M320.8994,121.9738 L314.5394,119.8298 C325.1794,88.2668 309.1614,81.3138 308.9974,81.2478 L311.5344,75.0338 C312.1414,75.2818 317.5804,77.6648 321.3744,84.8638 C326.2454,94.1028 326.0854,106.5888 320.8994,121.9738" id="Fill-62" fill="#293E96" mask="url(#mask-2)"></path>
                    <path d="M335.3736,125.2175 L281.2356,125.2175 C280.5876,125.2175 280.0586,124.6875 280.0586,124.0405 C280.0586,123.3935 280.5876,122.8635 281.2356,122.8635 L335.3736,122.8635 C336.0206,122.8635 336.5506,123.3935 336.5506,124.0405 C336.5506,124.6875 336.0206,125.2175 335.3736,125.2175" id="Fill-63" fill="#C34158" mask="url(#mask-2)"></path>
                    <path d="M88.8096,122.2111 L99.4016,134.7651 C99.4016,134.7651 114.7026,138.2951 124.1176,126.5261 L113.5246,114.7571 C113.5246,114.7571 107.6406,121.8191 88.8096,122.2111" id="Fill-64" fill="#FDD4AB" mask="url(#mask-2)"></path>
                    <path d="M85.2788,102.988 C83.9478,103.82 99.4018,111.227 99.4018,111.227 C99.4018,111.227 113.9178,95.926 109.2098,84.55 L93.5178,87.296 C93.5178,87.296 88.4178,101.027 85.2788,102.988" id="Fill-65" fill="#FDD4AB" mask="url(#mask-2)"></path>
                    <path d="M91.5557,148.8879 C91.5557,148.8879 97.8327,164.9719 112.7407,168.5029 L132.3557,159.0879 C132.3557,159.0879 119.4097,153.5959 111.5637,141.0419 L91.5557,148.8879 Z" id="Fill-66" fill="#FDD4AB" mask="url(#mask-2)"></path>
                    <path d="M180.812,191.4113 L146.13,191.4113 C142.419,191.4113 139.383,188.3753 139.383,184.6643 L139.383,147.2923 C139.383,143.5813 142.419,140.5453 146.13,140.5453 L180.812,140.5453 C184.523,140.5453 187.559,143.5813 187.559,147.2923 L187.559,184.6643 C187.559,188.3753 184.523,191.4113 180.812,191.4113" id="Fill-67" fill="#D2DCD6" mask="url(#mask-2)"></path>
                    <path d="M177.8838,186.5856 L149.0588,186.5856 C145.9968,186.5856 143.4918,184.0806 143.4918,181.0186 L143.4918,150.4046 C143.4918,147.3436 145.9968,144.8376 149.0588,144.8376 L177.8838,144.8376 C180.9458,144.8376 183.4498,147.3436 183.4498,150.4046 L183.4498,181.0186 C183.4498,184.0806 180.9458,186.5856 177.8838,186.5856" id="Fill-68" fill="#A9C3CF" mask="url(#mask-2)"></path>
                    <path d="M169.5571,156.3224 C169.5571,159.6324 166.8741,162.3144 163.5651,162.3144 C160.2551,162.3144 157.5731,159.6324 157.5731,156.3224 C157.5731,153.0124 160.2551,150.3304 163.5651,150.3304 C166.8741,150.3304 169.5571,153.0124 169.5571,156.3224" id="Fill-69" fill="#F8F5F0" mask="url(#mask-2)"></path>
                    <path d="M167.5869,156.3224 C167.5869,158.5434 165.7859,160.3444 163.5649,160.3444 C161.3439,160.3444 159.5429,158.5434 159.5429,156.3224 C159.5429,154.1014 161.3439,152.3004 163.5649,152.3004 C165.7859,152.3004 167.5869,154.1014 167.5869,156.3224" id="Fill-70" fill="#A9C3CF" mask="url(#mask-2)"></path>
                    <path d="M167.707,171.423 C167.707,173.644 165.906,175.445 163.685,175.445 C161.463,175.445 159.663,173.644 159.663,171.423 C159.663,169.202 161.463,167.401 163.685,167.401 C165.906,167.401 167.707,169.202 167.707,171.423" id="Fill-71" fill="#FFFFFF" mask="url(#mask-2)"></path>
                    <path d="M169.0239,178.4567 L156.6509,166.0837 C156.1849,165.6187 156.1849,164.8557 156.6509,164.3897 C157.1169,163.9227 157.8799,163.9227 158.3459,164.3897 L170.7189,176.7617 C171.1849,177.2277 171.1849,177.9907 170.7189,178.4567 C170.2529,178.9227 169.4899,178.9227 169.0239,178.4567" id="Fill-72" fill="#D2DCD6" mask="url(#mask-2)"></path>
                    <path d="M156.6509,176.7619 L169.0239,164.3889 C169.4899,163.9229 170.2529,163.9229 170.7189,164.3889 C171.1849,164.8559 171.1849,165.6179 170.7189,166.0839 L158.3459,178.4569 C157.8799,178.9229 157.1169,178.9229 156.6509,178.4569 C156.1849,177.9909 156.1849,177.2279 156.6509,176.7619" id="Fill-73" fill="#D2DCD6" mask="url(#mask-2)"></path>
                    <path d="M166.2197,171.423 C166.2197,172.823 165.0847,173.958 163.6847,173.958 C162.2847,173.958 161.1497,172.823 161.1497,171.423 C161.1497,170.023 162.2847,168.888 163.6847,168.888 C165.0847,168.888 166.2197,170.023 166.2197,171.423" id="Fill-74" fill="#D2DCD6" mask="url(#mask-2)"></path>
                    <path d="M142.9517,163.5134 L138.8767,163.5134 C138.0857,163.5134 137.4387,162.8664 137.4387,162.0754 L137.4387,154.6444 C137.4387,153.8534 138.0857,153.2064 138.8767,153.2064 L142.9517,153.2064 C143.7427,153.2064 144.3897,153.8534 144.3897,154.6444 L144.3897,162.0754 C144.3897,162.8664 143.7427,163.5134 142.9517,163.5134" id="Fill-75" fill="#A9C3CF" mask="url(#mask-2)"></path>
                    <path d="M142.9517,177.655 L138.8767,177.655 C138.0857,177.655 137.4387,177.008 137.4387,176.217 L137.4387,168.786 C137.4387,167.995 138.0857,167.348 138.8767,167.348 L142.9517,167.348 C143.7427,167.348 144.3897,167.995 144.3897,168.786 L144.3897,176.217 C144.3897,177.008 143.7427,177.655 142.9517,177.655" id="Fill-76" fill="#A9C3CF" mask="url(#mask-2)"></path>
                    <path d="M187.0547,170.7043 L182.9797,170.7043 C182.1887,170.7043 181.5417,170.0573 181.5417,169.2663 L181.5417,161.8353 C181.5417,161.0443 182.1887,160.3973 182.9797,160.3973 L187.0547,160.3973 C187.8457,160.3973 188.4927,161.0443 188.4927,161.8353 L188.4927,169.2663 C188.4927,170.0573 187.8457,170.7043 187.0547,170.7043" id="Fill-77" fill="#A9C3CF" mask="url(#mask-2)"></path>
                    <path d="M178.3062,178.3742 C177.5812,178.3742 176.9882,177.7812 176.9882,177.0562 L176.9882,154.2852 C176.9882,153.5602 177.5812,152.9672 178.3062,152.9672 C179.0312,152.9672 179.6242,153.5602 179.6242,154.2852 L179.6242,177.0562 C179.6242,177.7812 179.0312,178.3742 178.3062,178.3742" id="Fill-78" fill="#D2DCD6" mask="url(#mask-2)"></path>
                    <path d="M94.8931,91.1462 L94.8931,90.1462 C95.3161,90.1462 101.0471,89.6462 104.7951,89.3092 L104.8851,90.3052 C103.9261,90.3912 95.4971,91.1462 94.8931,91.1462" id="Fill-79" fill="#C34158" mask="url(#mask-2)"></path>
                    <path d="M94.294,92.944 L94.294,91.944 C94.572,91.944 99.894,91.788 102.668,91.705 L102.698,92.705 C102.37,92.715 94.657,92.944 94.294,92.944" id="Fill-80" fill="#C34158" mask="url(#mask-2)"></path>
                    <polygon id="Fill-81" fill="#C34158" mask="url(#mask-2)" points="103.5098 94.9811 93.5628 94.7421 93.5868 93.7421 103.5338 93.9811"></polygon>
                    <path d="M102.5059,97.6149 C98.8169,97.1889 93.1999,96.5519 92.8489,96.5399 L92.8559,95.5399 C93.2249,95.5399 101.0549,96.4399 102.6199,96.6209 L102.5059,97.6149 Z" id="Fill-82" fill="#C34158" mask="url(#mask-2)"></path>
                    <polygon id="Fill-83" fill="#C34158" mask="url(#mask-2)" points="101.2437 100.5993 92.1357 98.3233 92.3777 97.3523 101.4857 99.6283"></polygon>
                    <polygon id="Fill-84" fill="#C34158" mask="url(#mask-2)" points="98.69 102.3864 91.14 99.8694 91.456 98.9204 99.006 101.4374"></polygon>
                    <polygon id="Fill-85" fill="#C34158" mask="url(#mask-2)" points="97.6929 105.0085 90.3819 101.8925 90.7749 100.9725 98.0859 104.0885"></polygon>
                    <polygon id="Fill-86" fill="#C34158" mask="url(#mask-2)" points="118.1182 126.9196 111.6462 119.1296 112.4162 118.4906 118.8882 126.2806"></polygon>
                    <polygon id="Fill-87" fill="#C34158" mask="url(#mask-2)" points="107.8052 131.8268 101.0942 123.4368 101.8752 122.8118 108.5862 131.2018"></polygon>
                    <polygon id="Fill-88" fill="#C34158" mask="url(#mask-2)" points="105.5342 131.7135 99.0622 123.9235 99.8322 123.2845 106.3042 131.0745"></polygon>
                    <polygon id="Fill-89" fill="#C34158" mask="url(#mask-2)" points="103.4966 132.3132 97.0246 124.5232 97.7946 123.8842 104.2666 131.6742"></polygon>
                    <polygon id="Fill-90" fill="#C34158" mask="url(#mask-2)" points="101.0996 132.4323 94.6276 124.6423 95.3976 124.0033 101.8696 131.7933"></polygon>
                    <polygon id="Fill-91" fill="#C34158" mask="url(#mask-2)" points="114.6387 125.7165 110.0847 120.0835 110.8617 119.4545 115.4157 125.0875"></polygon>
                    <polygon id="Fill-92" fill="#C34158" mask="url(#mask-2)" points="111.8736 125.4655 108.3976 120.9115 109.1926 120.3045 112.6686 124.8585"></polygon>
                    <polygon id="Fill-93" fill="#C34158" mask="url(#mask-2)" points="97.0044 151.7497 96.6164 150.8277 105.7254 146.9927 106.1124 147.9147"></polygon>
                    <polygon id="Fill-94" fill="#C34158" mask="url(#mask-2)" points="97.7222 153.4284 97.3372 152.5044 111.7192 146.5124 112.1032 147.4364"></polygon>
                    <polygon id="Fill-95" fill="#C34158" mask="url(#mask-2)" points="98.5611 154.987 98.1761 154.063 112.5581 148.07 112.9421 148.994"></polygon>
                    <polygon id="Fill-96" fill="#C34158" mask="url(#mask-2)" points="104.4678 161.7106 104.0698 160.7926 119.5918 154.0446 119.9898 154.9626"></polygon>
                    <polygon id="Fill-97" fill="#C34158" mask="url(#mask-2)" points="106.0879 163.0573 105.6959 162.1373 120.9589 155.6453 121.3499 156.5653"></polygon>
                    <polygon id="Fill-98" fill="#C34158" mask="url(#mask-2)" points="108.2554 164.5114 107.8434 163.6014 122.4394 156.9984 122.8514 157.9084"></polygon>
                    <polygon id="Fill-99" fill="#C34158" mask="url(#mask-2)" points="110.5435 165.7155 110.1245 164.8075 121.5625 159.5305 121.9815 160.4395"></polygon>
                    <polygon id="Fill-100" fill="#D2DCD6" mask="url(#mask-2)" points="368.394 183.933 427.358 183.933 427.358 120.175 368.394 120.175"></polygon>
                    <polygon id="Fill-101" fill="#A9C3CF" mask="url(#mask-2)" points="372.709 139.67 423.044 139.67 423.044 124.33 372.709 124.33"></polygon>
                    <polygon id="Fill-102" fill="#A9C3CF" mask="url(#mask-2)" points="372.709 157.886 423.044 157.886 423.044 142.546 372.709 142.546"></polygon>
                    <polygon id="Fill-103" fill="#A9C3CF" mask="url(#mask-2)" points="372.709 176.103 423.044 176.103 423.044 160.763 372.709 160.763"></polygon>
                    <path d="M399.8741,129.363 C399.8741,130.466 398.9791,131.361 397.8771,131.361 C396.7731,131.361 395.8791,130.466 395.8791,129.363 C395.8791,128.26 396.7731,127.365 397.8771,127.365 C398.9791,127.365 399.8741,128.26 399.8741,129.363" id="Fill-104" fill="#C34158" mask="url(#mask-2)"></path>
                    <path d="M399.8741,147.4997 C399.8741,148.6027 398.9791,149.4977 397.8771,149.4977 C396.7731,149.4977 395.8791,148.6027 395.8791,147.4997 C395.8791,146.3967 396.7731,145.5017 397.8771,145.5017 C398.9791,145.5017 399.8741,146.3967 399.8741,147.4997" id="Fill-105" fill="#C34158" mask="url(#mask-2)"></path>
                    <path d="M399.8741,165.6364 C399.8741,166.7404 398.9791,167.6344 397.8771,167.6344 C396.7731,167.6344 395.8791,166.7404 395.8791,165.6364 C395.8791,164.5334 396.7731,163.6394 397.8771,163.6394 C398.9791,163.6394 399.8741,164.5334 399.8741,165.6364" id="Fill-106" fill="#C34158" mask="url(#mask-2)"></path>
                    <path d="M368.3946,183.9333 L368.3946,191.7633 C368.3946,191.7633 371.2706,191.7633 371.2706,189.6853 C371.2706,187.6083 372.3896,183.9333 375.4256,183.9333 L368.3946,183.9333 Z" id="Fill-107" fill="#C34158" mask="url(#mask-2)"></path>
                    <path d="M427.1992,183.9333 L427.1992,191.7633 C427.1992,191.7633 424.3222,191.7633 424.3222,189.6853 C424.3222,187.6083 423.2042,183.9333 420.1682,183.9333 L427.1992,183.9333 Z" id="Fill-108" fill="#C34158" mask="url(#mask-2)"></path>
                    <path d="M399.6201,114.9762 L399.6091,114.9762 C400.6061,113.6432 401.2041,111.9952 401.2041,110.2032 C401.2041,107.8572 400.1861,105.7552 398.5771,104.2942 C398.4521,104.1372 398.2861,103.9612 398.0671,103.7602 C396.5671,102.3872 396.2321,100.9112 396.2511,99.8202 C396.2671,98.9112 395.5271,98.1702 394.6181,98.1702 L393.2181,98.1702 L391.8171,98.1702 C390.9081,98.1702 390.1691,98.9112 390.1841,99.8202 C390.2031,100.9112 389.8681,102.3872 388.3691,103.7602 C388.1491,103.9612 387.9831,104.1372 387.8581,104.2942 C386.2491,105.7552 385.2321,107.8572 385.2321,110.2032 C385.2321,111.9922 385.8201,113.6442 386.8151,114.9762 C387.6711,116.2382 387.7421,117.3942 387.5421,118.3052 C387.3161,119.3372 388.0751,120.3182 389.1321,120.3182 L393.2181,120.3182 L397.3051,120.3182 C398.3601,120.3182 399.1201,119.3372 398.8931,118.3052 C398.6931,117.3942 398.7651,116.2382 399.6201,114.9762" id="Fill-109" fill="#C34158" mask="url(#mask-2)"></path>
                    <polygon id="Fill-110" fill="#293E96" mask="url(#mask-2)" points="386.1026 78.6349 380.4056 101.9579 393.2176 101.9579 393.2176 78.6349"></polygon>
                    <polygon id="Fill-111" fill="#293E96" mask="url(#mask-2)" points="400.333 78.6349 406.03 101.9579 393.219 101.9579 393.219 78.6349"></polygon>
                    <polygon id="Fill-112" fill="#A9C3CF" mask="url(#mask-2)" points="139.4761 92.5241 143.1911 76.5041 147.7451 92.5241"></polygon>
                    <polygon id="Fill-113" fill="#A9C3CF" mask="url(#mask-2)" points="183.4199 91.7253 187.1349 75.7053 191.6889 91.7253"></polygon>
                    <polygon id="Fill-114" fill="#A9C3CF" mask="url(#mask-2)" points="206.25 91.7253 209.965 75.7053 214.52 91.7253"></polygon>
                    <polygon id="Fill-115" fill="#A9C3CF" mask="url(#mask-2)" points="259.9844 92.0446 263.6994 76.0256 268.2544 92.0446"></polygon>
                    <polygon id="Fill-116" fill="#A9C3CF" mask="url(#mask-2)" points="189.2158 91.7253 192.9308 75.7053 197.4858 91.7253"></polygon>
                    <polygon id="Fill-117" fill="#A9C3CF" mask="url(#mask-2)" points="146.9854 92.5241 149.5884 81.3011 152.7784 92.5241"></polygon>
                    <polygon id="Fill-118" fill="#A9C3CF" mask="url(#mask-2)" points="135.6602 93.6427 138.2632 82.4197 140.4952 92.3647"></polygon>
                    <polygon id="Fill-119" fill="#A9C3CF" mask="url(#mask-2)" points="149.6626 91.2458 152.5596 84.1658 154.9356 92.5238"></polygon>
                    <polygon id="Fill-120" fill="#A9C3CF" mask="url(#mask-2)" points="180.1768 91.7253 182.1148 83.3673 184.4908 91.7253"></polygon>
                    <polygon id="Fill-121" fill="#A9C3CF" mask="url(#mask-2)" points="266.0967 92.0446 268.0347 83.6866 270.4107 92.0446"></polygon>
                    <polygon id="Fill-122" fill="#A9C3CF" mask="url(#mask-2)" points="269.8731 92.0446 272.4761 80.8216 275.6661 92.0446"></polygon>
                    <polygon id="Fill-123" fill="#A9C3CF" mask="url(#mask-2)" points="276.5225 92.0446 278.0045 85.6556 279.8205 92.0446"></polygon>
                    <polygon id="Fill-124" fill="#A9C3CF" mask="url(#mask-2)" points="407.6407 91.2458 409.1227 84.8568 410.9397 91.2458"></polygon>
                    <polygon id="Fill-125" fill="#A9C3CF" mask="url(#mask-2)" points="285.4693 92.0446 287.5053 83.2666 290.0003 92.0446"></polygon>
                    <polygon id="Fill-126" fill="#A9C3CF" mask="url(#mask-2)" points="328.044 91.2458 330.08 82.4678 332.575 91.2458"></polygon>
                    <polygon id="Fill-127" fill="#A9C3CF" mask="url(#mask-2)" points="330.3096 91.2458 333.5786 77.1508 337.5856 91.2458"></polygon>
                    <polygon id="Fill-128" fill="#A9C3CF" mask="url(#mask-2)" points="409.9698 92.0641 413.2388 77.9691 417.2448 92.0641"></polygon>
                    <polygon id="Fill-129" fill="#A9C3CF" mask="url(#mask-2)" points="289.7471 92.0446 292.5591 79.9196 296.0061 92.0446"></polygon>
                    <polygon id="Fill-130" fill="#A9C3CF" mask="url(#mask-2)" points="295.1099 92.0446 297.9219 79.9196 301.3689 92.0446"></polygon>
                    <path d="M199.2432,90.6945 C199.2432,90.6945 195.7122,95.4025 191.3972,82.8485 C187.0822,70.2945 195.3202,71.8635 198.4582,78.1405 C201.5972,84.4175 201.9892,89.5175 199.2432,90.6945" id="Fill-131" fill="#C34158" mask="url(#mask-2)"></path>
                    <path d="M42.4893,106.9176 C42.4893,108.0636 41.5603,108.9926 40.4143,108.9926 C39.2693,108.9926 38.3403,108.0636 38.3403,106.9176 C38.3403,105.7716 39.2693,104.8426 40.4143,104.8426 C41.5603,104.8426 42.4893,105.7716 42.4893,106.9176" id="Fill-132" fill="#293E96" mask="url(#mask-2)"></path>
                    <path d="M42.4893,127.6745 C42.4893,128.8205 41.5603,129.7495 40.4143,129.7495 C39.2693,129.7495 38.3403,128.8205 38.3403,127.6745 C38.3403,126.5285 39.2693,125.5995 40.4143,125.5995 C41.5603,125.5995 42.4893,126.5285 42.4893,127.6745" id="Fill-133" fill="#293E96" mask="url(#mask-2)"></path>
                    <path d="M42.4893,149.8693 C42.4893,151.0153 41.5603,151.9443 40.4143,151.9443 C39.2693,151.9443 38.3403,151.0153 38.3403,149.8693 C38.3403,148.7233 39.2693,147.7943 40.4143,147.7943 C41.5603,147.7943 42.4893,148.7233 42.4893,149.8693" id="Fill-134" fill="#293E96" mask="url(#mask-2)"></path>
                    <path d="M42.4893,171.1056 C42.4893,172.2516 41.5603,173.1806 40.4143,173.1806 C39.2693,173.1806 38.3403,172.2516 38.3403,171.1056 C38.3403,169.9596 39.2693,169.0306 40.4143,169.0306 C41.5603,169.0306 42.4893,169.9596 42.4893,171.1056" id="Fill-135" fill="#293E96" mask="url(#mask-2)"></path>
                </g>
            </g>
        </g>
    </g>
</svg>