<?xml version="1.0" encoding="UTF-8"?>
<svg width="457px" height="194px" viewBox="0 0 457 194" version="1.1" xmlns="http://www.w3.org/2000/svg" xmlns:xlink="http://www.w3.org/1999/xlink">
    <!-- Generator: sketchtool 49.3 (51167) - http://www.bohemiancoding.com/sketch -->
    <title>912AE6EF-304E-4EA1-A9B7-5ED97CD298B2</title>
    <desc>Created with sketchtool.</desc>
    <defs>
        <polygon id="path-1" points="0 0.188 290.093642 0.188 290.093642 181.279 0 181.279"></polygon>
        <polygon id="path-3" points="0.783 46.078 28.371 74.596 80.421 63.574 27.146 0.195"></polygon>
        <polygon id="path-5" points="0.7611 0.3331 44.5441 0.3331 44.5441 25 0.7611 25"></polygon>
        <polygon id="path-7" points="0.1532 0.298499671 33.205 0.298499671 33.205 24.434373 0.1532 24.434373"></polygon>
    </defs>
    <g id="Esanjo-Way" stroke="none" stroke-width="1" fill="none" fill-rule="evenodd">
        <g id="Esanjo-Way---How-We-Communicate" transform="translate(-92.000000, -104.000000)">
            <g id="Page-1" transform="translate(92.000000, 103.000000)">
                <g id="Group-40" transform="translate(0.000000, 5.500000)">
                    <g id="Group-3" transform="translate(0.000000, 7.000000)">
                        <mask id="mask-2" fill="white">
                            <use xlink:href="#path-1"></use>
                        </mask>
                        <g id="Clip-2"></g>
                        <path d="M5.9872,97.689 L82.8662,97.689 C86.9082,97.689 89.7862,101.476 88.5692,105.193 L86.9892,110.017 C86.2042,112.417 83.8952,114.048 81.2862,114.048 L30.7942,114.048 C28.5392,114.048 26.4752,115.272 25.4582,117.212 L19.1322,129.272 C17.1192,133.108 20.0102,137.643 24.4682,137.643 L60.7932,137.643 C65.0102,137.643 67.9032,141.74 66.3562,145.525 L65.2742,148.172 C64.3742,150.376 62.1672,151.824 59.7112,151.824 L33.8172,151.824 C31.5582,151.824 29.4932,153.051 28.4762,154.996 L19.1112,172.916 C17.1072,176.752 19.9982,181.279 24.4522,181.279 L191.9902,181.279 C194.2152,181.279 196.2552,180.088 197.2872,178.188 L289.4022,8.631 C291.4892,4.792 288.6002,0.188 284.1052,0.188 L153.6902,0.188 L66.0502,0.188 L62.0692,0.188 C47.5042,0.188 34.4562,8.874 29.2932,22.008 L21.1912,42.612 L0.4812,89.668 C-1.1928,93.472 1.7022,97.689 5.9872,97.689" id="Fill-1" fill="#F8F5F0" mask="url(#mask-2)"></path>
                    </g>
                    <path d="M144.12,140.3907 C144.12,140.3907 140.349,174.3277 128.283,178.0987 C116.217,181.8687 130.923,188.2787 140.349,174.3277 C149.776,160.3757 151.661,140.3907 158.826,138.5057 C165.99,136.6197 170.138,142.2767 168.63,149.0637 C167.121,155.8507 179.625,141.0527 179.625,141.0527 C179.625,141.0527 176.231,135.7737 178.871,133.8877 C178.871,133.8877 148.267,136.6197 144.12,140.3907" id="Fill-4" fill="#1C195E"></path>
                    <path d="M118.8563,140.3907 C118.8563,140.3907 115.0853,174.3277 103.0193,178.0987 C90.9533,181.8687 105.6593,188.2787 115.0853,174.3277 C124.5123,160.3757 126.3973,140.3907 133.5623,138.5057 C140.7263,136.6197 144.8743,142.2767 143.3663,149.0637 C141.8573,155.8507 149.3993,140.7677 149.3993,140.7677 C149.3993,140.7677 146.0053,135.4887 148.6443,133.6037 C148.6443,133.6037 123.0033,136.6197 118.8563,140.3907" id="Fill-6" fill="#1C195E"></path>
                    <path d="M203.3202,65.7305 C196.1562,65.7305 187.1062,84.5845 187.1062,84.5845 L187.1582,84.7265 L183.3362,86.4695 L141.1032,129.4555 L136.9562,141.1455 C136.9562,141.1455 147.5132,141.1455 165.9902,136.6205 C184.4662,132.0955 186.8522,131.9915 191.2472,117.6375 C196.1522,101.6145 205.3052,86.7335 207.6512,83.0625 L208.2632,76.3265 C208.2632,76.3265 210.4842,65.7305 203.3202,65.7305" id="Fill-8" fill="#C34158"></path>
                    <path d="M180.6962,35.188 C180.6962,35.188 174.6632,47.254 173.5312,48.008 C172.4002,48.762 179.1872,61.583 187.1062,54.795 C195.0242,48.008 189.7462,41.975 195.4012,31.04 L180.6962,35.188 Z" id="Fill-10" fill="#FDD4AB"></path>
                    <path d="M149.0213,97.7818 L164.8593,99.6668 C164.8593,99.6668 152.7923,113.9958 145.6273,115.1268 C138.4633,116.2588 99.6263,178.8518 99.6263,178.8518 L82.6573,179.2288 C82.6573,179.2288 117.3473,121.5368 120.7413,113.9958 C124.1343,106.4548 132.4303,100.4218 149.0213,97.7818" id="Fill-12" fill="#633764"></path>
                    <path d="M145.2508,135.4888 C145.2508,135.4888 91.3298,174.3268 82.6568,179.2288 C82.6568,179.2288 64.1808,181.1148 62.6728,178.4748 C61.1638,175.8358 119.2328,127.9468 127.1508,120.7828 C135.0698,113.6188 147.8908,109.4708 154.3008,107.2088 C160.7108,104.9468 164.8588,99.6668 164.8588,99.6668 C164.8588,99.6668 176.1708,104.5688 184.8438,95.1418 C184.8438,95.1418 187.4828,123.0458 165.2358,129.8328 L145.2508,135.4888 Z" id="Fill-14" fill="#724173"></path>
                    <path d="M99.6259,178.8521 C99.6259,178.8521 101.5109,181.4921 100.0029,187.1471 L80.0179,187.9021 C80.0179,187.9021 78.8869,179.6061 82.6569,179.2291 C86.4279,178.8521 99.6259,178.8521 99.6259,178.8521" id="Fill-16" fill="#1C195E"></path>
                    <path d="M62.6727,178.4752 C62.6727,178.4752 46.8357,180.3602 46.4587,188.2792 L80.0177,187.9022 C80.0177,187.9022 82.6567,186.3932 82.6567,179.2292 L62.6727,178.4752 Z" id="Fill-18" fill="#1C195E"></path>
                    <path d="M127.9061,100.4214 L149.7761,59.6974 L156.1861,69.1244 C156.1861,69.1244 138.4641,98.1584 134.6931,100.4214 L127.9061,100.4214 Z" id="Fill-20" fill="#FDD4AB"></path>
                    <path d="M149.7762,59.6973 L156.1862,69.1243 C156.1862,69.1243 165.2362,41.2213 170.8922,40.0903 C170.8922,40.0903 163.2552,34.8393 149.7762,59.6973" id="Fill-22" fill="#B7B33E"></path>
                    <path d="M149.0213,97.7818 C149.0213,97.7818 176.9243,108.3398 184.8433,95.1418 L192.5423,65.3088 L193.8933,60.0748 L195.0243,39.3358 C195.0243,39.3358 187.1063,53.2868 178.8103,52.9098 C170.5143,52.5328 179.1873,39.7128 179.1873,39.7128 C179.1873,39.7128 175.0403,37.0738 170.8923,40.0898 C166.7443,43.1068 159.5803,44.2378 149.0213,97.7818" id="Fill-24" fill="#293E96"></path>
                    <path d="M205.1356,63.9537 C205.1356,63.9537 196.7786,62.3567 190.9646,67.6797 C190.9646,67.6797 190.0526,49.6247 193.4476,41.7067 C196.8406,33.7877 209.2836,40.1987 208.1526,50.0017 C207.0216,59.8057 205.1356,63.9537 205.1356,63.9537" id="Fill-26" fill="#B7B33E"></path>
                    <path d="M133.1151,101.2837 C133.1151,101.2837 135.0011,98.2667 140.6571,98.2667 C146.3121,98.2667 171.1991,86.2007 175.7241,83.9387 C180.2491,81.6757 189.6141,72.9137 190.9651,67.6797 C192.3151,62.4457 205.1361,63.9537 205.1361,63.9537 C205.1361,63.9537 198.7251,82.8067 193.0691,86.2007 C187.4141,89.5947 155.3621,100.9067 148.9521,100.9067 C142.5421,100.9067 133.1151,101.2837 133.1151,101.2837" id="Fill-28" fill="#FDD4AB"></path>
                    <path d="M167.4071,101.9297 L125.8411,101.9297 C125.3691,101.9297 124.9831,101.5437 124.9831,101.0727 C124.9831,100.6007 125.3691,100.2157 125.8411,100.2157 L167.4071,100.2157 C167.8781,100.2157 168.2631,100.6007 168.2631,101.0727 C168.2631,101.5437 167.8781,101.9297 167.4071,101.9297" id="Fill-30" fill="#C34158"></path>
                    <path d="M186.7294,7.2847 C186.7294,7.2847 177.6794,20.8587 177.3024,29.9087 C176.9244,38.9587 184.8434,36.6967 189.7464,35.5647 C194.6474,34.4337 202.9434,22.3677 202.9434,22.3677 C202.9434,22.3677 204.0744,5.7767 186.7294,7.2847" id="Fill-32" fill="#FDD4AB"></path>
                    <path d="M182.204,0.4971 C182.204,0.4971 181.45,11.4321 189.368,12.1861 C197.287,12.9401 199.173,17.8431 199.173,17.8431 C199.173,17.8431 205.583,17.4651 205.583,13.6951 C205.583,9.9241 201.058,6.5301 195.024,5.3991 C188.991,4.2681 182.204,0.4971 182.204,0.4971" id="Fill-34" fill="#C34158"></path>
                    <path d="M195.4012,31.0401 C195.4012,31.0401 193.8932,20.1051 199.1722,17.8431 C204.4512,15.5801 205.5832,13.6951 205.5832,13.6951 C205.5832,13.6951 207.4672,22.3671 202.5662,27.2691 C197.6642,32.1711 193.1392,35.1881 193.1392,35.1881 L195.4012,31.0401 Z" id="Fill-36" fill="#C34158"></path>
                    <path d="M136.9559,141.1451 C136.9559,141.1451 137.7099,132.8501 145.2509,132.0951 C152.7929,131.3411 170.1379,131.7181 178.0569,121.5371 C185.9749,111.3561 176.1709,127.9471 176.1709,127.9471 C176.1709,127.9471 151.2839,140.3911 136.9559,141.1451" id="Fill-38" fill="#C34158"></path>
                </g>
                <g id="Group-43" transform="translate(96.000000, 30.500000)">
                    <mask id="mask-4" fill="white">
                        <use xlink:href="#path-3"></use>
                    </mask>
                    <g id="Clip-42"></g>
                    <polygon id="Fill-41" fill="#FFFFFF" mask="url(#mask-4)" points="0.7831 59.1626 12.9091 74.5956 0.7831 74.5956"></polygon>
                </g>
                <g id="Group-134" transform="translate(76.000000, 0.500000)">
                    <path d="M357.1649,95.7774 L280.2859,95.7774 C276.2439,95.7774 273.3659,91.9904 274.5829,88.2734 L276.1629,83.4494 C276.9479,81.0494 279.2569,79.4184 281.8659,79.4184 L332.3579,79.4184 C334.6129,79.4184 336.6769,78.1954 337.6939,76.2544 L344.0199,64.1944 C346.0329,60.3584 343.1419,55.8244 338.6839,55.8244 L302.3589,55.8244 C298.1419,55.8244 295.2489,51.7264 296.7959,47.9424 L297.8779,45.2954 C298.7779,43.0904 300.9849,41.6424 303.4409,41.6424 L329.3349,41.6424 C331.5939,41.6424 333.6589,40.4154 334.6759,38.4704 L344.0409,20.5504 C346.0449,16.7154 343.1539,12.1874 338.6999,12.1874 L171.1619,12.1874 C168.9369,12.1874 166.8969,13.3784 165.8649,15.2784 L73.7499,184.8354 C71.6629,188.6744 74.5519,193.2784 79.0469,193.2784 L209.4619,193.2784 L297.1019,193.2784 L301.0829,193.2784 C315.6479,193.2784 328.6959,184.5924 333.8589,171.4594 L341.9609,150.8544 L362.6709,103.7984 C364.3449,99.9944 361.4499,95.7774 357.1649,95.7774" id="Fill-44" fill="#D2DCD6"></path>
                    <path d="M153.3827,157.2589 L114.5137,157.2589 C107.2377,157.2589 101.3397,163.1569 101.3397,170.4319 L101.3397,180.8269 C101.3397,188.1019 107.2377,193.9999 114.5137,193.9999 L153.3827,193.9999 C160.6577,193.9999 166.5557,188.1019 166.5557,180.8269 L166.5557,170.4319 C166.5557,163.1569 160.6577,157.2589 153.3827,157.2589" id="Fill-46" fill="#F8F5F0"></path>
                    <path d="M152.1649,168.2808 L114.1989,168.2808 C113.6939,168.2808 113.2809,167.8678 113.2809,167.3628 C113.2809,166.8578 113.6939,166.4438 114.1989,166.4438 L152.1649,166.4438 C152.6709,166.4438 153.0839,166.8578 153.0839,167.3628 C153.0839,167.8678 152.6709,168.2808 152.1649,168.2808" id="Fill-48" fill="#D2DCD6"></path>
                    <path d="M152.1649,174.0982 L114.1989,174.0982 C113.6939,174.0982 113.2809,173.6852 113.2809,173.1802 C113.2809,172.6752 113.6939,172.2612 114.1989,172.2612 L152.1649,172.2612 C152.6709,172.2612 153.0839,172.6752 153.0839,173.1802 C153.0839,173.6852 152.6709,174.0982 152.1649,174.0982" id="Fill-50" fill="#D2DCD6"></path>
                    <path d="M152.1649,179.9156 L114.1989,179.9156 C113.6939,179.9156 113.2809,179.5026 113.2809,178.9976 C113.2809,178.4926 113.6939,178.0786 114.1989,178.0786 L152.1649,178.0786 C152.6709,178.0786 153.0839,178.4926 153.0839,178.9976 C153.0839,179.5026 152.6709,179.9156 152.1649,179.9156" id="Fill-52" fill="#D2DCD6"></path>
                    <path d="M152.1649,185.733 L114.1989,185.733 C113.6939,185.733 113.2809,185.32 113.2809,184.815 C113.2809,184.31 113.6939,183.896 114.1989,183.896 L152.1649,183.896 C152.6709,183.896 153.0839,184.31 153.0839,184.815 C153.0839,185.32 152.6709,185.733 152.1649,185.733" id="Fill-54" fill="#D2DCD6"></path>
                    <g id="Group-58" transform="translate(171.000000, 169.000000)">
                        <mask id="mask-6" fill="white">
                            <use xlink:href="#path-5"></use>
                        </mask>
                        <g id="Clip-57"></g>
                        <path d="M35.7001,0.3331 L9.6041,0.3331 C4.7201,0.3331 0.7611,4.2931 0.7611,9.1771 L0.7611,16.1561 C0.7611,21.0411 4.7201,25.0001 9.6041,25.0001 L35.7001,25.0001 C40.5851,25.0001 44.5441,21.0411 44.5441,16.1561 L44.5441,9.1771 C44.5441,4.2931 40.5851,0.3331 35.7001,0.3331" id="Fill-56" fill="#F8F5F0" mask="url(#mask-6)"></path>
                    </g>
                    <path d="M205.8827,176.7335 L180.3947,176.7335 C180.0547,176.7335 179.7777,176.4555 179.7777,176.1165 C179.7777,175.7775 180.0547,175.5005 180.3947,175.5005 L205.8827,175.5005 C206.2227,175.5005 206.4997,175.7775 206.4997,176.1165 C206.4997,176.4555 206.2227,176.7335 205.8827,176.7335" id="Fill-59" fill="#D2DCD6"></path>
                    <path d="M205.8827,180.6387 L180.3947,180.6387 C180.0547,180.6387 179.7777,180.3617 179.7777,180.0217 C179.7777,179.6827 180.0547,179.4057 180.3947,179.4057 L205.8827,179.4057 C206.2227,179.4057 206.4997,179.6827 206.4997,180.0217 C206.4997,180.3617 206.2227,180.6387 205.8827,180.6387" id="Fill-61" fill="#D2DCD6"></path>
                    <path d="M205.8827,184.5445 L180.3947,184.5445 C180.0547,184.5445 179.7777,184.2675 179.7777,183.9275 C179.7777,183.5885 180.0547,183.3115 180.3947,183.3115 L205.8827,183.3115 C206.2227,183.3115 206.4997,183.5885 206.4997,183.9275 C206.4997,184.2675 206.2227,184.5445 205.8827,184.5445" id="Fill-63" fill="#D2DCD6"></path>
                    <path d="M205.8827,188.4498 L180.3947,188.4498 C180.0547,188.4498 179.7777,188.1728 179.7777,187.8338 C179.7777,187.4938 180.0547,187.2168 180.3947,187.2168 L205.8827,187.2168 C206.2227,187.2168 206.4997,187.4938 206.4997,187.8338 C206.4997,188.1728 206.2227,188.4498 205.8827,188.4498" id="Fill-65" fill="#D2DCD6"></path>
                    <path d="M186.0311,152.9918 L133.3531,193.2788 L147.9331,193.2788 C147.9331,193.2788 193.9361,164.1188 208.0131,164.1188 L186.0311,152.9918 Z" id="Fill-67" fill="#C34158"></path>
                    <path d="M191.1473,160.5508 L190.5713,160.8838 C188.3763,162.1508 185.5433,161.3908 184.2763,159.1968 L143.4873,88.5478 C142.2203,86.3528 142.9793,83.5198 145.1733,82.2528 L145.7503,81.9198 C147.9453,80.6528 150.7773,81.4118 152.0443,83.6068 L192.8343,154.2558 C194.1013,156.4508 193.3423,159.2828 191.1473,160.5508" id="Fill-69" fill="#C34158"></path>
                    <path d="M284.1942,154.1998 L284.2262,154.6948 C284.3952,157.3368 282.3722,159.6358 279.7302,159.8048 L192.8452,165.3608 C190.2042,165.5298 187.9042,163.5068 187.7352,160.8648 L187.7042,160.3698 C187.5352,157.7278 189.5582,155.4288 192.2002,155.2598 L279.0852,149.7038 C281.7262,149.5348 284.0262,151.5578 284.1942,154.1998" id="Fill-71" fill="#C34158"></path>
                    <path d="M183.5038,24.3511 C183.5038,24.3511 194.4398,24.3511 198.2098,33.7781 C201.9808,43.2051 199.3408,63.1891 205.3738,66.5831 C205.3738,66.5831 189.9138,68.8451 183.8808,59.7951 C177.8478,50.7461 174.4538,28.4981 183.5038,24.3511" id="Fill-73" fill="#9D3929"></path>
                    <path d="M169.5526,61.6812 C169.5526,61.6812 160.5026,67.3372 165.4046,81.2882 C170.3066,95.2402 193.6846,134.4552 193.6846,134.4552 L198.9636,132.9472 C198.9636,132.9472 204.6196,112.9632 215.9316,112.9632 C215.9316,112.9632 202.7346,92.9782 202.7346,85.8132 C202.7346,78.6492 202.3596,71.7372 194.8166,67.7142 L189.1596,64.6972 C189.1596,64.6972 174.4536,67.3372 169.5526,61.6812" id="Fill-75" fill="#293E96"></path>
                    <path d="M205.1053,92.1753 C205.1053,92.1753 233.7463,99.9263 237.1803,100.8723 C240.6143,101.8173 248.3383,105.8373 250.2363,108.9273 C252.1333,112.0183 206.3833,99.1513 206.3833,99.1513 L205.1053,92.1753 Z" id="Fill-77" fill="#FAB795"></path>
                    <path d="M179.8104,90.9327 C179.8104,90.9327 187.1684,107.2427 194.3474,107.1907 C205.8164,107.1097 238.3964,108.2357 240.9304,109.8347 C243.4634,111.4337 243.6664,112.6607 248.4524,112.6267 C253.2374,112.5927 255.5404,118.1387 259.2844,117.1407 C263.0284,116.1447 246.8464,105.2007 242.2474,104.0697 C237.6474,102.9377 203.1974,96.6517 200.5404,95.8297 C197.8824,95.0077 196.2154,87.9707 196.2154,87.9707 C196.2154,87.9707 182.2304,85.7417 179.8104,90.9327" id="Fill-79" fill="#FDD4AB"></path>
                    <path d="M190.3466,57.8995 C188.3786,58.1445 177.6566,55.1235 176.4656,52.3475 C175.2766,49.5705 170.9136,36.8805 177.2586,29.7415 C183.6046,22.6035 193.2166,29.5125 194.7086,36.0875 C196.3246,43.2045 199.3406,56.7785 190.3466,57.8995" id="Fill-81" fill="#FDD4AB"></path>
                    <path d="M169.5526,61.6812 C169.5526,61.6812 176.3396,51.8772 177.8476,50.7452 L185.7666,53.7622 C185.7666,53.7622 183.5036,63.5662 189.1596,64.6972 C189.1596,64.6972 177.8476,71.4852 169.5526,61.6812" id="Fill-83" fill="#FDD4AB"></path>
                    <path d="M172.9462,52.254 C172.9462,52.254 179.3562,57.156 183.1272,50.369 C183.1272,50.369 180.1102,46.975 181.2412,43.582 C181.2412,43.582 175.2082,41.696 178.6012,37.171 C181.9962,32.647 181.2412,40.565 186.1432,40.565 C191.0452,40.565 195.3562,41.79 194.7092,36.087 C194.0612,30.384 192.5532,25.105 183.5042,24.351 C174.4542,23.597 170.3062,30.007 169.9292,37.171 C169.5522,44.336 172.9462,52.254 172.9462,52.254" id="Fill-85" fill="#9D3929"></path>
                    <path d="M348.411,136.7154 C348.411,136.7154 353.093,142.7884 357.633,138.1274 C362.172,133.4654 376.941,115.8534 374.931,113.3394 C372.932,110.8414 364.372,115.8534 358.842,121.3834 C353.068,127.1584 351.675,124.3124 351.675,124.3124 L348.411,136.7154 Z" id="Fill-87" fill="#1C195E"></path>
                    <g id="Group-91" transform="translate(347.000000, 123.000000)">
                        <mask id="mask-8" fill="white">
                            <use xlink:href="#path-7"></use>
                        </mask>
                        <g id="Clip-90"></g>
                        <path d="M0.1532,19.815 C0.1532,19.815 3.1292,26.882 8.7082,23.534 C14.2872,20.187 29.8512,5.774 32.4552,3.914 C35.0582,2.055 30.5952,-2.037 23.5282,2.055 C16.4622,6.146 6.4762,8.656 6.4762,8.656 L0.1532,19.815 Z" id="Fill-89" fill="#293E96" mask="url(#mask-8)"></path>
                    </g>
                    <path d="M350.1698,123.898 C350.1698,123.898 291.7238,118.619 280.0338,118.996 C268.3448,119.373 254.3938,120.881 254.3938,120.881 L353.5638,131.439 C353.5638,131.439 355.8248,123.521 350.1698,123.898" id="Fill-92" fill="#B7B33E"></path>
                    <path d="M193.6844,134.4556 C193.6844,134.4556 199.7174,149.9156 212.5384,146.8986 C225.3584,143.8826 290.2144,138.6036 308.6914,141.2436 C327.1674,143.8826 345.6444,150.6696 350.5464,141.2436 C355.4484,131.8166 355.8254,129.9306 349.0384,129.9306 C343.7144,129.9306 299.6504,123.8996 273.6154,120.5706 C266.4574,119.6546 260.6624,118.9436 257.4104,118.6186 C242.3274,117.1106 215.9314,112.9626 215.9314,112.9626 C215.9314,112.9626 201.2264,111.8316 193.6844,134.4556" id="Fill-94" fill="#B7B33E"></path>
                    <path d="M200.8495,159.9976 C196.4185,162.5556 190.7015,161.0236 188.1435,156.5936 L147.9225,86.9286 C145.3655,82.4986 146.8965,76.7806 151.3275,74.2236 C155.7575,71.6646 161.4745,73.1976 164.0325,77.6276 L204.2535,147.2926 C206.8115,151.7226 205.2795,157.4396 200.8495,159.9976" id="Fill-96" fill="#724173"></path>
                    <path d="M186.0311,152.9918 C185.6481,147.8898 189.5091,143.4038 194.6101,143.0208 L274.8261,137.0038 C279.9271,136.6208 284.4151,140.4818 284.7981,145.5828 C285.1791,150.6838 281.3191,155.1708 276.2181,155.5538 L196.0021,161.5708 C190.9001,161.9538 186.4131,158.0928 186.0311,152.9918" id="Fill-98" fill="#724173"></path>
                    <path d="M278.1053,193.7784 C278.1053,193.7784 266.6593,156.9534 254.3933,157.5324 C242.1273,158.1114 276.2173,155.5534 276.2173,155.5534 C276.2173,155.5534 288.6503,171.6974 285.8043,193.6734 L278.1053,193.7784 Z" id="Fill-100" fill="#C34158"></path>
                    <path d="M286.4999,117.8165 L242.7129,117.8165 C242.1599,117.8165 241.7079,118.2695 241.7079,118.8225 L241.7079,118.8895 C241.7079,119.4425 242.1599,119.8955 242.7129,119.8955 L286.4999,119.8955 C287.0539,119.8955 287.5059,119.4425 287.5059,118.8895 L287.5059,118.8225 C287.5059,118.2695 287.0539,117.8165 286.4999,117.8165" id="Fill-102" fill="#C34158"></path>
                    <path d="M302.2001,77.3565 L285.9291,118.0075 C285.7231,118.5215 285.9751,119.1095 286.4891,119.3155 L286.5521,119.3405 C287.0651,119.5455 287.6531,119.2945 287.8591,118.7805 L304.1301,78.1285 C304.3361,77.6155 304.0841,77.0265 303.5701,76.8215 L303.5081,76.7965 C302.9941,76.5905 302.4061,76.8425 302.2001,77.3565" id="Fill-104" fill="#C34158"></path>
                    <path d="M183.9178,98.9268 L173.8968,84.3548 C173.8968,84.3548 169.8998,70.7308 183.9178,69.6008 C190.8218,69.0438 192.2898,71.5298 193.3818,77.3178 C194.4748,83.1058 198.4788,93.5248 198.4788,93.5248 C198.4788,93.5248 190.1058,100.4708 183.9178,98.9268" id="Fill-106" fill="#C34158"></path>
                    <path d="M42.2469,47.647 C42.2469,47.647 6.1179,51.321 1.2199,34.787 C-5.7681,11.207 31.8379,4.782 44.0849,16.417 C56.3319,28.051 30.6119,37.849 42.2469,47.647" id="Fill-108" fill="#C34158"></path>
                    <path d="M30.6122,24.837 L9.1802,24.837 C8.9262,24.837 8.7212,24.631 8.7212,24.378 C8.7212,24.124 8.9262,23.919 9.1802,23.919 L30.6122,23.919 C30.8662,23.919 31.0722,24.124 31.0722,24.378 C31.0722,24.631 30.8662,24.837 30.6122,24.837" id="Fill-110" fill="#F8F5F0"></path>
                    <path d="M33.6737,27.8985 L12.2417,27.8985 C11.9877,27.8985 11.7827,27.6925 11.7827,27.4395 C11.7827,27.1855 11.9877,26.9805 12.2417,26.9805 L33.6737,26.9805 C33.9277,26.9805 34.1337,27.1855 34.1337,27.4395 C34.1337,27.6925 33.9277,27.8985 33.6737,27.8985" id="Fill-112" fill="#F8F5F0"></path>
                    <path d="M36.7362,30.96 L15.3032,30.96 C15.0492,30.96 14.8442,30.754 14.8442,30.501 C14.8442,30.247 15.0492,30.042 15.3032,30.042 L36.7362,30.042 C36.9902,30.042 37.1962,30.247 37.1962,30.501 C37.1962,30.754 36.9902,30.96 36.7362,30.96" id="Fill-114" fill="#F8F5F0"></path>
                    <path d="M241.7225,43.3604 C241.7225,47.1654 234.8335,53.3114 234.8335,53.3114 C234.8335,53.3114 227.9445,47.1654 227.9445,43.3604 C227.9445,39.5554 231.0295,36.4714 234.8335,36.4714 C238.6385,36.4714 241.7225,39.5554 241.7225,43.3604" id="Fill-116" fill="#293E96"></path>
                    <path d="M255.9598,32.338 C255.9598,34.832 251.4428,38.861 251.4428,38.861 C251.4428,38.861 246.9278,34.832 246.9278,32.338 C246.9278,29.844 248.9488,27.822 251.4428,27.822 C253.9378,27.822 255.9598,29.844 255.9598,32.338" id="Fill-118" fill="#724173"></path>
                    <path d="M228.0214,23.9947 C228.0214,26.4887 223.5044,30.5177 223.5044,30.5177 C223.5044,30.5177 218.9894,26.4887 218.9894,23.9947 C218.9894,21.5007 221.0104,19.4787 223.5044,19.4787 C225.9994,19.4787 228.0214,21.5007 228.0214,23.9947" id="Fill-120" fill="#C34158"></path>
                    <path d="M252.2762,8.8951 C252.2762,12.9481 244.9372,19.4961 244.9372,19.4961 C244.9372,19.4961 237.5982,12.9481 237.5982,8.8951 C237.5982,4.8421 240.8842,1.5561 244.9372,1.5561 C248.9902,1.5561 252.2762,4.8421 252.2762,8.8951" id="Fill-122" fill="#B7B33E"></path>
                    <path d="M69.1317,33.1964 C69.1317,36.0244 64.0117,40.5924 64.0117,40.5924 C64.0117,40.5924 58.8917,36.0244 58.8917,33.1964 C58.8917,30.3684 61.1837,28.0754 64.0117,28.0754 C66.8397,28.0754 69.1317,30.3684 69.1317,33.1964" id="Fill-124" fill="#293E96"></path>
                    <path d="M69.4325,3.856 C69.4325,5.71 66.0765,8.705 66.0765,8.705 C66.0765,8.705 62.7195,5.71 62.7195,3.856 C62.7195,2.002 64.2225,0.5 66.0765,0.5 C67.9305,0.5 69.4325,2.002 69.4325,3.856" id="Fill-126" fill="#724173"></path>
                    <path d="M92.3309,22.0811 C92.3309,23.9351 88.9749,26.9291 88.9749,26.9291 C88.9749,26.9291 85.6169,23.9351 85.6169,22.0811 C85.6169,20.2271 87.1199,18.7251 88.9749,18.7251 C90.8279,18.7251 92.3309,20.2271 92.3309,22.0811" id="Fill-128" fill="#C34158"></path>
                    <path d="M80.2469,18.3282 C80.2469,21.3402 74.7919,26.2062 74.7919,26.2062 C74.7919,26.2062 69.3379,21.3402 69.3379,18.3282 C69.3379,15.3152 71.7799,12.8732 74.7919,12.8732 C77.8049,12.8732 80.2469,15.3152 80.2469,18.3282" id="Fill-130" fill="#B7B33E"></path>
                    <path d="M48.9628,106.6827 L19.5708,77.2907 C19.2368,76.9567 19.2368,76.4117 19.5708,76.0787 C19.9038,75.7457 20.4488,75.7457 20.7828,76.0787 L50.1748,105.4707 C50.5078,105.8037 50.5078,106.3497 50.1748,106.6827 C49.8418,107.0157 49.2958,107.0157 48.9628,106.6827" id="Fill-132" fill="#C34158"></path>
                </g>
            </g>
        </g>
    </g>
</svg>