<?xml version="1.0" encoding="UTF-8"?>
<svg width="509px" height="228px" viewBox="0 0 509 228" version="1.1" xmlns="http://www.w3.org/2000/svg" xmlns:xlink="http://www.w3.org/1999/xlink">
    <!-- Generator: sketchtool 49.3 (51167) - http://www.bohemiancoding.com/sketch -->
    <title>44967C0B-B9F4-4BCF-8B7A-EC5E0A70E379</title>
    <desc>Created with sketchtool.</desc>
    <defs></defs>
    <g id="Esanjo-Way" stroke="none" stroke-width="1" fill="none" fill-rule="evenodd">
        <g id="Esanjo-Way---Our-Core-Values" transform="translate(-47.000000, -87.000000)" fill-rule="nonzero">
            <g id="Group" transform="translate(47.000000, 87.000000)">
                <path d="M66.0505066,57.7289124 C72.9732971,50.2654114 80.9740906,44.2280503 89.108429,40.5678025 C98.3070374,36.42865 108.800537,35.8837891 118.788193,37.2958298 C130.137482,38.9003678 141.242813,42.9332428 152.696838,42.5032044 C172.62088,41.7551575 176.740509,23.1624451 192.497223,14.9460373 C209.109619,6.2834168 229.002808,3.642025 247.422089,1.8893967 C274.876343,-0.7229194 302.266357,5.4045983 323.921448,23.0817261 C331.592102,29.3433228 344.834045,42.4158173 356.049835,38.6609497 C359.874115,37.3806381 361.607208,33.4279632 364.602966,31.2388229 C373.323914,24.8660125 384.330475,22.8020858 395.059112,22.9038772 C433.744079,23.2709579 471.464355,40.1111755 463.646667,84.6720275 C459.942871,105.784393 463.978088,124.776703 474.807251,143.013122 C478.291138,148.880051 482.981567,154.572494 485.351562,161.029266 C488.96051,170.861267 485.100281,182.528168 492.441711,191.203049 C496.719238,196.257416 510.041077,200.659485 508.689514,208.76886 C506.851013,219.799744 491.223938,216.122772 491.223938,216.122772 C491.223938,216.122772 49.7258909,216.122772 49.0703733,216.122772 C37.8215711,216.122772 26.2269056,216.493805 15.4534605,212.578552 C-3.4960787,205.691376 -1.962929,186.289123 9.1001738,172.389755 C15.1565016,164.780746 23.4443739,159.240463 32.0886153,154.784775 C37.9314574,151.773071 44.2024077,149.045242 48.4402236,144.020462 C57.867134,132.842987 44.0061339,116.407196 44.7501601,103.130524 C45.6992493,86.1949005 54.7086182,69.9567261 66.0505066,57.7289124 Z" id="Shape" fill="#F8F5F0"></path>
                <path d="M92.3190918,122.329956 C92.1666107,122.990677 107.75824,122.329956 107.75824,122.329956 C107.75824,122.329956 107.543808,119.75676 105.185043,119.542328 C102.826279,119.327896 92.9623871,119.542328 92.3190918,122.329956 Z" id="Shape" fill="#B4C0CF"></path>
                <g transform="translate(97.000000, 123.000000)" fill="#B4C0CF" id="Shape">
                    <path d="M13.1169891,1.2598419 C19.3355407,1.2598419 26.1973724,1.4742737 26.1973724,10.4804535 C26.1973724,19.4866181 26.1973724,29.3505097 26.1973724,37.9278107 C26.1973724,46.5051117 26.1973724,82.7442322 26.1973724,85.5318604 C26.1973724,88.3194581 22.1231536,89.6060792 16.7623443,89.6060792 C11.401535,89.6060792 7.7561797,89.6060792 4.9685516,89.6060792 C2.1809235,89.6060792 0.0366058,91.5359498 0.0366058,93.0369874 L31.7726287,93.0369874 L31.7726287,0.6165467 L13.1169891,1.2598419 Z"></path>
                    <path d="M49.7849579,1.2598419 C43.5664215,1.2598419 36.7045746,1.4742737 36.7045746,10.4804535 C36.7045746,19.4866181 36.7045746,29.3505097 36.7045746,37.9278107 C36.7045746,46.5051117 36.7045746,82.7442322 36.7045746,85.5318604 C36.7045746,88.3194581 40.7787934,89.6060792 46.1396027,89.6060792 C51.5004273,89.6060792 55.1457825,89.6060792 57.9333954,89.6060792 C60.7210236,89.6060792 62.8653412,91.5359498 62.8653412,93.0369874 L31.1293335,93.0369874 L31.1293335,0.6165467 L49.7849579,1.2598419 Z"></path>
                </g>
                <g transform="translate(76.000000, 69.000000)" id="Shape">
                    <path d="M58.7107391,42.9670563 C58.7107391,42.9670563 58.7107391,46.1952057 58.7107391,47.8092804 C58.7107391,49.4233704 56.5586395,51.0374451 53.868515,51.3064575 C51.1783905,51.5754699 46.6051636,52.1134949 46.6051636,52.9205322 L46.5755158,53.7749023 C46.5755158,53.7749023 65.5932923,53.9016876 68.5093537,53.9016876 C71.4254151,53.9016876 72.1861268,53.0141907 72.2495118,51.1124115 C72.3129121,49.2106323 72.2495118,43.8856659 72.2495118,43.8856659 L58.7107391,42.9670563 Z" fill="#B4C0CF"></path>
                    <path d="M31.3166046,13.8054047 L28.0913086,39.3773041 C27.9185791,40.7469177 28.9237061,41.9837036 30.2996826,42.0946656 L92.0469818,47.0742951 C93.3913116,47.1827088 94.5652466,46.172165 94.6580353,44.8266602 L97.5048371,3.5480652 C97.6130524,1.9791184 96.2206116,0.7247009 94.6714173,0.9954987 L33.3026124,11.7225647 C32.255188,11.9056549 31.4496613,12.7504578 31.3166046,13.8054047 Z" fill="#D2DCD6"></path>
                    <path d="M103.59314,55.6887054 L1.3088074,55.6887054 C0.7191162,55.6887054 0.2366486,55.2062377 0.2366486,54.6165466 C0.2366486,54.0268554 0.7191163,53.5443878 1.3088074,53.5443878 L103.59314,53.5443878 C104.182831,53.5443878 104.665314,54.0268555 104.665314,54.6165466 C104.665314,55.2062378 104.182831,55.6887054 103.59314,55.6887054 Z" fill="#293E96"></path>
                </g>
                <g transform="translate(119.000000, 167.000000)" id="Shape">
                    <path d="M55.3361511,0.7872162 C55.3361511,0.7872162 92.0831604,0.7872162 96.5876159,0.7872162 C101.092102,0.7872162 105.833649,1.2613678 105.833649,5.7658386 C105.833649,10.2703094 105.97522,13.6158752 105.97522,13.6158752 L61.167572,13.6158752 L55.3361511,0.7872162 Z" fill="#C34158"></path>
                    <path d="M55.4777222,24.7585144 C55.4777222,24.7585144 92.2247315,24.7585144 96.729187,24.7585144 C101.233673,24.7585144 105.97522,24.2843628 105.97522,19.779892 C105.97522,15.2754212 105.97522,11.4821778 105.97522,11.4821778 L61.167572,11.4821778 L55.4777222,24.7585144 Z" fill="#C34158"></path>
                    <polygon fill="#FCC59C" points="3.5577698 2.4732361 3.5577698 22.1506653 56.7213745 23.0989838 64.0125122 19.3057404 65.434967 8.6372528 58.5597229 2.947403"></polygon>
                    <path d="M10.9071655,3.6586304 C10.9071655,3.6586304 8.0622406,5.0811005 8.0622406,10.2967987 C8.0622406,15.5124969 8.0622406,15.5124969 8.0622406,15.5124969 L10.6700897,12.9046478 L13.040863,15.5124969 L13.040863,9.822647 C13.040863,9.822647 14.9016265,3.2277831 17.0353241,2.9907073 L10.9071655,3.6586304 Z" fill="#CE415C"></path>
                    <path d="M56.721405,24.4779205 L1.6029358,24.4779205 C0.8412476,24.4779205 0.2240753,23.8607483 0.2240753,23.09906 C0.2240753,22.3373565 0.8412475,21.7201995 1.6029358,21.7201995 L56.721405,21.7201995 C60.6349029,21.7201995 63.8190307,18.5360717 63.8190307,14.6225738 L63.8190307,10.7126617 C63.8190307,6.7991638 60.6349029,3.615036 56.721405,3.615036 L1.6029358,3.615036 C0.8412476,3.615036 0.2240753,2.9978638 0.2240753,2.2361755 C0.2240753,1.474472 0.8412475,0.857315 1.6029358,0.857315 L56.721405,0.857315 C62.1556091,0.857315 66.5767517,5.2784576 66.5767517,10.7126617 L66.5767517,14.6225738 C66.5767517,20.0567627 62.1556091,24.4779205 56.721405,24.4779205 Z" fill="#C34158"></path>
                    <g transform="translate(8.000000, 24.000000)">
                        <path d="M55.9542389,0.4732971 C55.9542389,0.4732971 92.7012329,0.4732971 97.2056885,0.4732971 C101.710175,0.4732971 106.451721,0.947464 106.451721,5.4519348 C106.451721,9.9563904 106.451721,13.7496338 106.451721,13.7496338 L61.6440888,13.7496338 L55.9542389,0.4732971 Z" fill="#293E96"></path>
                        <g>
                            <path d="M55.9542389,24.8922729 C55.9542389,24.8922729 92.7012329,24.8922729 97.2056885,24.8922729 C101.710175,24.8922729 106.451721,24.4181213 106.451721,19.9136352 C106.451721,15.4091796 106.451721,11.6159362 106.451721,11.6159362 L61.6440888,11.6159362 L55.9542389,24.8922729 Z" fill="#293E96"></path>
                            <polygon fill="#FCC59C" points="4.0342865 2.6069946 4.0342865 22.2844238 57.1978912 23.2327271 64.4890137 19.4394836 65.911499 8.7710266 59.0362396 3.0811462"></polygon>
                            <path d="M57.1978607,25.0172119 L2.0794067,25.0172119 C1.0939025,25.0172119 0.2948761,24.2182007 0.2948761,23.2326965 C0.2948761,22.2471923 1.0939026,21.4481506 2.0794067,21.4481506 L57.1978607,21.4481506 C60.8878326,21.4481506 63.8898468,18.4463501 63.8898468,14.7561645 L63.8898468,10.846405 C63.8898468,7.1562347 60.8878326,4.1544342 57.1978607,4.1544342 L2.0794067,4.1544342 C1.0939025,4.1544342 0.2948761,3.3554077 0.2948761,2.3699036 C0.2948761,1.3843995 1.0939026,0.585373 2.0794067,0.585373 L57.1978607,0.585373 C62.8557739,0.585373 67.4589233,5.1882935 67.4589233,10.8464051 L67.4589233,14.7561646 C67.4589233,20.4143066 62.8557739,25.0172119 57.1978607,25.0172119 Z" fill="#293E96"></path>
                        </g>
                    </g>
                </g>
                <path d="M283.402161,175.251633 L281.574463,175.055924 C281.933533,171.705276 281.754883,171.505997 279.569,169.066513 C279.098175,168.540909 278.546082,167.925095 277.903778,167.170578 C275.023987,163.790314 270.059265,162.030823 265.257507,160.329697 C264.171295,159.94458 263.104828,159.56665 262.088196,159.177948 C256.014404,156.855606 253.967651,151.123383 253.29483,149.240021 C252.767883,147.764206 249.761932,146.68338 248.750244,146.420807 L249.21167,144.641571 C249.707184,144.769943 254.080749,145.973312 255.026489,148.621506 C255.692108,150.486465 257.461487,155.440399 262.744415,157.460663 C263.747589,157.844421 264.799682,158.216965 265.871521,158.596695 C270.66748,160.296036 276.103454,162.222031 279.303283,165.978439 C279.934387,166.71904 280.476135,167.323639 280.937988,167.839355 C283.38736,170.572846 283.834869,171.215149 283.402161,175.251633 Z" id="Shape" fill="#99B55C"></path>
                <path d="M284.851959,175.305038 L283.038605,175.002518 C283.046692,174.954483 283.843841,170.127579 284.160706,164.740067 C284.323212,161.98056 283.056091,159.316193 281.831207,156.739365 C280.746796,154.458771 279.62558,152.100525 279.466675,149.637253 C279.16864,145.019959 271.207428,136.460877 268.842438,135.904755 C265.540283,135.12735 262.953583,130.041458 262.953583,124.325836 C262.953583,119.647049 259.40094,117.777603 259.249695,117.700394 L260.075561,116.057617 C260.268127,116.154129 264.792053,118.483185 264.792053,124.325836 C264.792053,129.474563 267.148498,133.616989 269.263458,134.114761 C272.602447,134.900238 280.964935,144.30629 281.301575,149.518753 C281.437561,151.629684 282.435364,153.728485 283.491486,155.949844 C284.816498,158.736282 286.185913,161.617432 285.995605,164.847793 C285.672882,170.337189 284.860016,175.255661 284.851959,175.305038 Z" id="Shape" fill="#99B55C"></path>
                <path d="M226.966095,99.0738831 C226.966095,99.0738831 237.811554,100.368866 239.106537,104.577545 C240.40152,108.786224 239.106537,110.081207 240.72525,109.757462 C242.343964,109.433716 243.638947,107.167511 243.638947,107.167511 C243.638947,107.167511 243.477081,108.786224 245.581421,111.21431 C247.685761,113.642395 248.009522,113.966141 250.437592,115.908615 C252.865692,117.851089 260.635559,121.250412 260.635559,124.973465 C260.635559,128.696533 259.664307,135.980789 260.95929,136.14267 C262.254273,136.304535 259.178711,143.912537 259.178711,143.912537 C259.178711,143.912537 251.246948,143.265045 250.437592,137.437637 C249.628235,131.610245 250.923218,130.962753 248.818878,130.477127 C246.714539,129.991516 250.437592,129.344025 250.437592,129.344025 C250.437592,129.344025 253.189423,131.610245 247.36203,126.592193 C241.534607,121.574142 228.584809,115.584869 227.937317,111.052444 C227.289856,106.520019 228.908569,108.786224 228.908569,108.786224 C228.908569,108.786224 229.394196,106.681885 227.937317,104.253799 C226.480469,101.825714 226.966095,99.0738831 226.966095,99.0738831 Z" id="Shape" fill="#99B55C"></path>
                <path d="M318.10025,106.358139 C318.10025,106.358139 321.823334,103.930054 322.308929,98.9120178 C322.794556,93.8939667 323.280182,86.2859649 329.26944,82.8866424 C330.400909,82.2444763 331.480347,81.6947326 332.487091,81.225418 C336.809448,79.2104186 339.791168,78.6779632 339.791168,78.6779632 C339.791168,78.6779632 337.039337,84.990982 337.848694,87.5809478 C338.658051,90.1708984 338.658051,90.6565246 336.391846,93.0846099 C334.12561,95.5126952 332.345032,98.4263915 332.183167,100.530731 C332.021271,102.635086 331.050049,109.27185 327.974457,109.595596 C324.898895,109.919342 329.107575,110.890564 329.107575,110.890564 C329.107575,110.890564 328.298218,115.74675 323.603912,117.689209 C318.909607,119.631683 317.77652,141.970077 301.265534,140.513214 C301.265534,140.513214 303.531738,123.354751 309.197266,117.203598 C314.862793,111.052444 318.10025,106.358139 318.10025,106.358139 Z" id="Shape" fill="#99B55C"></path>
                <path d="M286.407196,171.348892 C286.017609,171.348892 285.663025,171.166672 285.439484,170.933716 L286.767181,169.661682 C286.66214,169.552154 286.525238,169.500992 286.366363,169.512207 C286.167511,169.52478 286.047241,169.629364 286.020752,169.665268 C286.037353,169.642822 286.425171,169.084915 286.425171,166.088852 C286.425171,162.962631 284.425079,161.76915 280.042541,159.153717 C277.795166,157.812561 274.998382,156.143738 271.741119,153.714584 C262.122314,146.540649 258.8125,139.900406 258.676056,139.621216 L260.32782,138.813736 C260.35968,138.878372 263.611145,145.357941 272.839874,152.24057 C276.021759,154.613617 278.773651,156.255508 280.98468,157.575119 C285.523865,160.283905 288.263641,161.919067 288.263641,166.088852 C288.263641,169.363647 287.861023,170.86145 286.873108,171.258225 C286.716461,171.321518 286.559357,171.348892 286.407196,171.348892 Z" id="Shape" fill="#99B55C"></path>
                <path d="M277.901947,172.024384 C277.901947,172.024384 278.981079,169.650253 286.103485,170.297745 C293.225861,170.945236 292.146698,173.535187 291.283386,175.04599 C290.420074,176.556808 288.776459,183.828644 291.067566,189.938263 C294.305023,198.571457 298.621612,198.355621 298.189941,204.830505 C297.758301,211.30542 294.305023,211.089569 288.26178,211.089569 C282.218536,211.089569 280.491913,211.089569 278.765259,211.089569 C277.038635,211.089569 272.722015,210.226257 272.722015,205.262176 C272.722015,200.298096 280.060242,193.175705 280.491913,187.564133 C280.923553,181.952545 278.765259,177.851791 278.333588,176.125152 C277.901947,174.398514 277.038635,173.751022 277.901947,172.024384 Z" id="Shape" fill="#293E96"></path>
                <path d="M290.420075,146.340637 C289.938446,144.134659 294.01828,140.145035 295.334564,138.868774 C305.067139,129.432968 327.098236,128.996384 332.971588,142.476852 C335.97644,149.373642 338.882568,153.729355 346.765472,155.038437 C358.901916,157.053894 370.840027,160.399567 382.122467,165.32991 C392.307312,169.780624 395.654449,177.891739 397.198395,188.440002 C397.697266,191.848267 397.720856,210.315186 402.11203,211.41333 C405.996948,212.384552 405.565308,216.161591 402.867432,215.406189 C400.169556,214.650787 304.664856,215.406189 300.132416,215.406189 C295.600006,215.406189 288.531555,215.028473 286.858887,213.355804 C285.186188,211.683105 286.858887,208.499634 289.448852,206.88089 C292.038757,205.262207 292.685974,156.702148 290.420075,146.340637 Z" id="Shape" fill="#D2DCD6"></path>
                <path d="M287.059021,130.788879 C287.059021,130.788879 293.981262,131.933975 295.11438,126.106583 C296.247467,120.279175 298.086243,112.023682 300.404327,111.21431 C300.404327,111.21431 303.531738,113.966141 303.693603,111.21431 C303.855469,108.462479 302.236755,103.994141 306.121704,99.6724854 C310.006622,95.3508149 312.920349,89.0917511 317.938385,88.49823 C317.938385,88.49823 315.510284,91.9515076 316.481537,94.3795929 C317.452759,96.8076782 318.909607,104.091934 317.938385,108.624359 C316.967133,113.156784 309.359131,118.984192 308.387909,122.869125 C307.416687,126.754059 301.21405,145.648712 293.918854,146.526123 L287.059021,130.788879 Z" id="Shape" fill="#7FA160"></path>
                <path d="M307.443329,102.390656 C307.292084,102.273071 303.772217,99.4296112 307.171784,92.0523529 C309.907074,86.1172485 308.523254,84.2684479 308.508911,84.2504883 L309.856354,83.0009003 C310.100067,83.2513581 312.143219,85.6567231 308.841492,92.8216858 C306.097687,98.77565 308.479736,100.861435 308.58252,100.947617 L307.443329,102.390656 Z" id="Shape" fill="#7FA160"></path>
                <circle id="Oval" fill="#99B55C" cx="309.021027" cy="83.5197601" r="2.1187174"></circle>
                <circle id="Oval" fill="#99B55C" cx="243.345001" cy="82.4308319" r="2.3103921"></circle>
                <path d="M313.989777,89.8467255 C313.91571,89.5240021 312.240631,81.9093018 317.866028,79.249878 C322.360321,77.1245881 322.74231,72.4435578 321.945587,70.5242844 L323.643127,69.8195954 C324.700165,72.3645631 324.32135,78.2314454 318.65152,80.9119569 C314.347961,82.9465944 315.766754,89.3709413 315.781586,89.4355775 L313.989777,89.8467255 Z" id="Shape" fill="#99B55C"></path>
                <path d="M321.606415,64.9406204 C321.606415,64.9406204 319.825806,68.2668762 321.606415,70.1205368 C323.387024,71.9741974 324.843872,68.1780701 321.606415,64.9406204 Z" id="Shape" fill="#7FA160"></path>
                <path d="M314.678528,75.5711975 C314.678528,75.5711975 314.68335,79.3440552 317.129028,80.1348114 C319.574677,80.9255676 319.062347,76.8919067 314.678528,75.5711975 Z" id="Shape" fill="#7FA160"></path>
                <path d="M331.580109,81.3738251 C330.678833,75.8745423 334.643494,72.3097992 334.812714,72.1607819 L336.028198,73.5405426 L335.420441,72.8506622 L336.029999,73.538742 C335.892181,73.6617278 332.66095,76.6012267 333.394348,81.0766906 L331.580109,81.3738251 Z" id="Shape" fill="#99B55C"></path>
                <path d="M340.761627,66.6005096 C340.761627,66.6005096 343.870697,66.431015 343.627136,67.2196502 C343.383575,68.0082931 343.6521,70.1511764 342.974976,70.4072189 C342.297852,70.6632538 337.896545,72.3275146 337.983093,69.8955764 C338.069641,67.4636382 340.761627,66.6005096 340.761627,66.6005096 Z" id="Shape" fill="#C34158"></path>
                <path d="M343.48706,71.7614746 C343.48706,71.7614746 340.287445,75.9897003 336.315247,73.4671936 C336.315247,73.4671936 336.352295,71.5183411 337.983093,69.8955765 C339.613891,68.2727967 340.753601,69.8540955 341.913788,69.6475678 C343.074005,69.4410477 343.48706,71.7614746 343.48706,71.7614746 Z" id="Shape" fill="#CE415C"></path>
                <path d="M333.015747,65.9693146 C333.015747,65.9693146 331.504486,64.8380966 330.794342,65.4161911 C330.084198,65.9942856 329.692108,68.2321854 330.026672,69.730957 C330.361206,71.2297363 332.12851,73.0380706 334.221893,73.2526397 C336.315247,73.4671936 335.427154,67.8436737 333.015747,65.9693146 Z" id="Shape" fill="#C34158"></path>
                <path d="M331.074249,103.715652 L331.025787,101.878082 C333.654236,101.807159 336.820862,101.157684 337.162415,100.338974 L338.85907,101.046356 C337.895386,103.358826 332.656891,103.674362 331.074249,103.715652 Z" id="Shape" fill="#99B55C"></path>
                <path d="M340.092529,63.6029663 C340.092529,63.6029663 339.01886,61.3775558 337.631622,62.2116852 C336.244354,63.0458222 335.839783,63.817955 335.001617,64.0574951 C334.163452,64.2970276 332.995209,67.7571335 333.05722,68.7398147 C333.119232,69.7224883 333.647797,70.9157104 333.759308,71.4152984 C333.759308,71.4152984 334.366394,73.4301757 336.315247,73.4671935 C338.264099,73.5042266 336.418304,70.8742293 337.983093,69.8955764 C339.547882,68.9169158 340.95166,67.9217529 340.761627,66.6005096 C340.571594,65.279274 340.092529,63.6029663 340.092529,63.6029663 Z" id="Shape" fill="#CE415C"></path>
                <path d="M342.057373,94.3795929 C342.057373,94.3795929 337.363068,95.0270844 337.363068,97.6170349 C337.363068,100.207001 336.068085,101.987595 340.438629,101.178223 C344.809204,100.368866 340.276764,95.836441 342.057373,94.3795929 Z" id="Shape" fill="#C34158"></path>
                <path d="M344.647339,99.2357635 C344.647339,99.2357635 344.161713,101.663849 343.028595,102.31134 C341.895508,102.958816 338.172424,104.577545 337.363068,100.207001 C336.553711,95.836441 341.409882,97.9407806 343.514221,97.1314239 C345.618561,96.322052 344.647339,99.2357635 344.647339,99.2357635 Z" id="Shape" fill="#CE415C"></path>
                <path d="M241.210876,134.847687 C241.210876,134.847687 232.955383,132.905212 231.174774,133.067093 C229.394196,133.228958 228.261078,135.171433 227.289856,136.790161 C226.318604,138.408874 227.775452,137.599518 225.994873,140.189468 C224.214264,142.779434 225.185486,141.808197 224.376129,146.664368 C223.566772,151.520538 224.861755,151.520538 224.861755,151.520538 C224.861755,151.520538 225.994873,147.79747 227.775452,147.149994 C229.556061,146.502503 231.336639,147.47374 232.307892,145.045639 C233.279114,142.617554 236.516571,142.293808 236.516571,142.293808 C236.516571,142.293808 236.030945,139.703857 238.620911,140.83696 C241.210877,141.970078 241.372742,141.808197 241.696472,143.426926 C242.020233,145.045639 244.286438,148.121216 246.552643,147.635605 C248.818878,147.149994 249.142609,146.826248 249.951965,146.988113 C250.761353,147.149994 252.703796,142.617554 249.7901,139.865723 C246.876404,137.113892 245.25769,134.03833 243.315216,133.714584 C241.372742,133.390839 241.210876,134.847687 241.210876,134.847687 Z" id="Shape" fill="#7FA160"></path>
                <path d="M256.576355,103.208466 C256.548065,103.152359 253.689362,97.5444489 248.147003,93.8495484 C241.890503,89.6784058 242.696625,84.7145997 242.733887,84.5054322 L244.544983,84.8209687 C244.518951,84.983902 243.963287,88.8507233 249.166779,92.3198701 C255.128815,96.2944184 258.097046,102.138855 258.22049,102.385727 L256.576355,103.208466 Z" id="Shape" fill="#99B55C"></path>
                <path d="M235.707214,87.2572021 C235.707214,87.2572021 234.250366,91.789627 237.164062,92.7608642 C240.077759,93.7321014 248.818878,98.7501373 248.495117,101.016357 C248.171387,103.282562 246.552643,102.14946 246.552643,102.14946 C246.552643,102.14946 250.761353,104.253799 251.085083,108.948105 C251.408814,113.642395 255.293762,117.689209 257.236237,118.012955 C259.178711,118.336701 261.606781,119.146057 261.444916,117.85109 C261.283051,116.556107 260.797424,116.717972 260.797424,113.318665 C260.797424,109.919342 259.988068,102.958817 255.617523,99.0738831 C251.246948,95.1889496 245.25769,89.5234223 240.563385,89.3615418 C235.86908,89.1996765 235.707214,87.2572021 235.707214,87.2572021 Z" id="Shape" fill="#99B55C"></path>
                <path d="M351.499939,97.3472443 C351.499939,97.3472443 349.557465,102.31134 348.046631,104.685471 C346.535828,107.059586 345.456696,109.433716 348.046631,111.160355 C350.636597,112.886993 356.89566,113.318665 358.190643,113.102829 C359.485626,112.886994 361.428101,98.6422272 361.428101,98.6422272 L351.499939,97.3472443 Z" id="Shape" fill="#FCC59C"></path>
                <path d="M351.93158,90.4406891 C351.93158,90.4406891 347.830811,97.5630798 352.1474,98.8580628 C356.46402,100.15303 359.701446,99.505539 359.917297,101.232178 C360.133118,102.958817 356.89566,107.059586 356.89566,107.059586 L358.406494,108.138748 C358.406494,108.138748 359.701446,110.944534 358.190643,113.102829 C356.67984,115.261124 365.097199,108.570404 365.96051,104.253799 C366.823853,99.9372101 366.176361,96.6997529 362.291412,95.6206055 C358.406494,94.5414581 351.93158,90.4406891 351.93158,90.4406891 Z" id="Shape" fill="#C34158"></path>
                <path d="M349.773285,110.728699 C349.773285,110.728699 350.636597,117.419418 348.262482,119.361893 C348.262482,119.361893 353.442383,125.189301 356.46402,122.81517 C359.485626,120.44104 357.543152,118.282745 357.543152,118.282745 C357.543152,118.282745 357.974823,113.102829 358.622315,111.592026 L349.773285,110.728699 Z" id="Shape" fill="#FCC59C"></path>
                <path d="M325.168671,123.031006 C325.168671,123.031006 312.866394,125.836792 310.492249,126.268448 C308.118134,126.700104 308.981445,132.311691 310.708069,135.549133 C312.434723,138.786575 317.830475,145.69313 318.693787,148.498917 C319.557098,151.304718 319.98877,154.54216 319.341278,156.268799 C318.693787,157.995438 317.398804,161.448715 320.20459,162.096207 C323.010376,162.743698 324.952851,162.527863 324.952851,154.757996 C324.952851,146.988113 322.794556,141.592361 321.067902,139.434067 C319.341278,137.275772 316.103821,133.175003 318.262116,132.959167 C320.42041,132.743347 327.758637,132.095856 329.701111,130.800873 C331.643586,129.50589 325.168671,123.031006 325.168671,123.031006 Z" id="Shape" fill="#FDCC9A"></path>
                <path d="M339.197632,219.506958 C339.197632,219.506958 338.765961,224.255219 340.060944,224.471039 C341.355927,224.686859 342.650909,224.686859 345.456696,225.766022 C348.262482,226.845154 350.636597,228.140137 353.658234,227.061005 C356.67984,225.981842 358.622315,223.823547 348.262482,221.665253 L339.197632,219.506958 Z" id="Shape" fill="#263B96"></path>
                <path d="M368.982147,139.865723 L368.982147,153.031357 C368.982147,153.031357 363.370575,141.592362 364.449707,140.297394 C365.52887,139.002411 368.982147,139.865723 368.982147,139.865723 Z" id="Shape" fill="#FDCC9A"></path>
                <path d="M402.867432,215.406189 C402.867432,215.406189 404.378235,219.938599 405.673218,220.15445 C406.968201,220.37027 417.975525,221.881073 421.212982,221.233582 C424.450409,220.58609 416.464722,215.83783 412.148102,215.83783 C407.831512,215.83783 402.867432,215.406189 402.867432,215.406189 Z" id="Shape" fill="#263B96"></path>
                <path d="M339.413452,151.520538 C339.413452,151.520538 335.960175,157.347946 342.650909,163.391189 C349.341614,169.434418 355.600678,178.283447 356.67984,179.79425 C357.759003,181.305069 358.838135,183.031708 357.543152,186.700806 C356.248169,190.369919 339.629273,217.348663 339.197632,219.506958 C338.765961,221.665253 346.104187,222.744385 348.262482,221.665253 C350.420777,220.58609 366.823853,193.607361 369.413788,189.722427 C372.003754,185.837494 373.514557,185.190002 371.572113,181.520889 C369.629639,177.851791 366.392182,171.808548 367.471344,172.240204 C368.550476,172.671875 376.752014,180.441742 380.421112,183.895019 C384.090241,187.348297 393.802582,198.355621 397.25586,206.125488 C400.709137,213.895355 400.493286,216.05368 404.594055,216.485321 C408.694824,216.916992 413.58487,218.168579 412.363953,213.895355 C410.637299,207.852142 397.040009,182.600037 394.881714,180.657578 C392.723419,178.715103 368.982147,153.031357 368.982147,153.031357 L339.413452,151.520538 Z" id="Shape" fill="#6A4E77"></path>
                <path d="M349.557465,116.987762 C349.557465,116.987762 348.046631,122.599335 353.442383,122.167679 C358.838135,121.736023 357.543152,118.282745 357.543152,118.282745 C357.543152,118.282745 361.859772,118.714401 362.938904,119.361893 C364.018066,120.009384 370.924622,124.757645 369.845459,133.390839 C368.766327,142.024033 368.982147,139.865723 368.982147,139.865723 C368.982147,139.865723 365.52887,140.513214 364.449707,140.297394 C363.370575,140.081558 368.766327,150.441391 368.982147,153.031357 C369.197968,155.621307 353.226563,154.757995 349.341614,154.326324 C345.456696,153.894668 338.33429,152.599686 338.55014,149.578079 C338.765961,146.556457 342.435059,134.901642 340.276764,131.016708 C338.118469,127.131775 331.427734,130.800873 329.701111,130.800873 C327.974457,130.800873 324.95285,123.894318 325.168671,123.031006 C325.384521,122.167679 326.032013,121.520187 327.542816,121.304367 C329.053619,121.088531 336.175995,116.771942 338.33429,116.124451 C340.492615,115.476959 348.694122,114.397812 349.557465,116.987762 Z" id="Shape" fill="#B7B33E"></path>
                <path d="M269.207336,125.543137 C269.207336,125.543137 260.261078,157.545059 259.669403,162.110153 C259.077759,166.675247 259.669403,210.873596 259.669403,210.873596 L266.572082,210.873596 C266.572082,210.873596 268.697693,174.35289 269.804321,171.032822 C270.910919,167.712769 278.405273,146.547348 279.785797,146.13234 C281.166351,145.717331 288.660675,166.467743 289.055115,170.202805 C289.449554,173.937882 281.560852,209.421082 281.166382,211.703613 L289.069428,211.703613 C289.069428,211.703613 300.493866,177.15419 299.507752,169.632172 C298.521668,162.110153 295.129395,127.56073 295.129395,127.56073 L269.207336,125.543137 Z" id="Shape" fill="#A34F66"></path>
                <path d="M294.191345,33.7904968 C294.191345,33.7904968 288.754242,43.111206 282.928803,43.111206 C277.103363,43.111206 271.66629,33.7904968 271.66629,33.7904968 C268.555481,28.667984 269.091431,24.0348205 272.233307,19.1725082 C273.452728,17.2889556 275.608185,16.1083145 277.751923,15.5995636 C278.268463,15.4753113 282.924927,14.9548874 282.928803,15.1490707 C282.932709,14.9548874 287.589172,15.4753112 288.105682,15.5995636 C290.249451,16.1083145 292.404877,17.2889557 293.624329,19.1725082 C296.766174,24.0348206 297.302124,28.667984 294.191345,33.7904968 Z" id="Shape" fill="#C34158"></path>
                <path d="M259.978973,25.5216217 C259.978973,25.5216217 263.135956,31.2542038 264.319824,33.2683487 C265.503693,35.2825012 267.608337,39.1558609 266.819092,42.099617 C266.029846,45.0433731 261.557465,58.5226746 260.89975,61.0016327 C260.242035,63.4805832 259.847412,64.7200546 261.162842,67.6638107 C262.478241,70.6075668 264.582886,73.8611908 264.582886,73.8611908 C264.582886,73.8611908 258.663544,77.5796204 255.769653,77.1148224 C255.769653,77.1148224 252.875732,67.6638107 252.612671,65.6496658 C252.349579,63.6355133 257.915466,49.5364761 259.802246,45.1983108 C261.688995,40.8601455 262.215149,37.2966461 260.636658,32.3387451 C259.058167,27.3808365 258.268921,25.2117538 259.978973,25.5216217 Z" id="Shape" fill="#FCC59C"></path>
                <path d="M269.916229,123.894318 C269.916229,123.894318 268.405426,127.455505 269.916229,127.995087 C271.427032,128.534668 276.606964,131.124618 283.513519,130.153381 C290.420074,129.182144 292.038788,129.721771 292.254639,130.369232 C292.470459,131.016708 295.146149,131.66423 295.373077,130.369232 C295.600006,129.074234 297.65036,129.39798 297.326629,128.318832 C297.002899,127.239685 294.952667,123.678497 293.441772,123.894317 L269.916229,123.894317 Z" id="Shape" fill="#E6E649"></path>
                <path d="M276.978485,88.3758392 C276.978485,88.3758392 279.222534,87.378479 279.09787,85.2590789 L282.46402,85.2590789 L282.46402,94.9833678 C282.46402,94.9833678 276.105774,92.2406311 276.978485,88.3758392 Z" id="Shape" fill="#FCC59C"></path>
                <path d="M287.949554,88.3758392 C287.949554,88.3758392 285.705475,87.378479 285.83017,85.2590789 L282.46402,85.2590789 L282.46402,94.9833678 C282.46402,94.9833678 288.822235,92.2406311 287.949554,88.3758392 Z" id="Shape" fill="#FCC59C"></path>
                <path d="M276.978485,88.3758392 C276.978485,88.3758392 278.225281,93.1133117 282.46402,93.3626556 L282.46402,127.39772 C282.46402,127.39772 272.490357,127.771667 268.874909,124.280899 L267.791901,100.967545 L273.737061,88.3758392 L276.978485,88.3758392 Z" id="Shape" fill="#293E96"></path>
                <path d="M287.949554,88.3758392 C287.949554,88.3758392 286.702759,93.1133117 282.46402,93.3626556 L282.46402,127.39772 C282.46402,127.39772 292.437683,127.771667 296.053131,124.280899 L297.136139,100.967545 L291.190979,88.3758392 L287.949554,88.3758392 Z" id="Shape" fill="#293E96"></path>
                <path d="M282.548828,90.394516 L282.548798,90.394516 C278.521118,90.394516 276.744812,87.5211334 275.225769,83.0714722 L275.225769,74.841568 C275.225769,70.8138962 278.521118,67.5185242 282.548798,67.5185242 L282.548828,67.5185242 C286.576507,67.5185242 289.871857,70.8138962 289.871857,74.841568 L289.871857,83.0714722 C288.696014,87.0352478 286.576508,90.394516 282.548828,90.394516 Z" id="Shape" fill="#FCC59C"></path>
                <path d="M255.769653,77.1148224 C255.769653,77.1148224 260.110504,89.199707 263.399017,94.6224213 C266.687561,100.045136 267.951996,103.074036 267.951996,103.074036 C267.951996,103.074036 279.841675,98.8056489 273.264618,87.0306244 C273.264618,87.0306244 269.400726,82.8473969 266.991821,78.3542938 C264.582886,73.8611908 264.582886,73.8611908 264.582886,73.8611908 L255.769653,77.1148224 Z" id="Shape" fill="#724173"></path>
                <path d="M300.874359,38.4080658 C300.874359,38.4080658 298.141663,43.3701935 297.116913,45.1136475 C296.092132,46.8571015 294.270355,50.2098923 294.953522,52.7580109 C295.636688,55.3061371 299.508026,66.9738541 300.077331,69.1196366 C300.646637,71.2654267 300.98822,72.3383179 299.849609,74.8864442 C298.710968,77.4345552 296.889191,80.2509004 296.889191,80.2509004 C296.889191,80.2509004 302.01297,83.4695894 304.517944,83.0672456 C304.517944,83.0672456 307.022919,74.8864442 307.250641,73.1429902 C307.478363,71.3995362 302.660522,59.1953736 301.027344,55.4402467 C299.394165,51.6851198 298.93869,48.6005479 300.305054,44.3089753 C301.671387,40.0174026 302.354584,38.1398392 300.874359,38.4080658 Z" id="Shape" fill="#FCC59C"></path>
                <path d="M308.84906,77.1148224 C308.84906,77.1148224 304.508209,89.199707 301.219666,94.6224213 C297.931152,100.045136 296.951996,103.407364 296.951996,103.407364 C296.951996,103.407364 284.777039,98.8056488 291.354095,87.0306244 C291.354095,87.0306244 295.217987,82.8473969 297.626892,78.3542938 C300.035797,73.8611907 300.035797,73.8611908 300.035797,73.8611908 L308.84906,77.1148224 Z" id="Shape" fill="#724173"></path>
                <path d="M259.669403,210.873596 C259.669403,210.873596 250.99176,214.401184 251.977844,216.268707 C252.963959,218.136261 261.838837,219.173767 266.572083,210.873596 L259.669403,210.873596 Z" id="Shape" fill="#6A4E77"></path>
                <path d="M281.166382,211.703613 C281.166382,211.703613 285.246368,219.796265 292.771515,219.588776 C300.296631,219.381256 289.069428,211.703613 289.069428,211.703613 L281.166382,211.703613 Z" id="Shape" fill="#6A4E77"></path>
                <path d="M267.614288,18.7781906 C267.112213,19.2146149 266.34433,19.1608887 265.907898,18.6587982 L260.743317,12.7171326 C260.306885,12.2150345 260.360596,11.4471588 260.862701,11.010727 C261.364807,10.5743027 262.13269,10.6280289 262.569092,11.1301194 L267.733704,17.0717927 C268.170105,17.5738831 268.116394,18.3417587 267.614288,18.7781906 Z" id="Shape" fill="#B7B33E"></path>
                <path d="M278.493805,11.9029312 C277.851288,12.0753784 277.184509,11.6907806 277.012054,11.0482635 L274.971313,3.4448585 C274.798859,2.8023452 275.183472,2.1355552 275.825989,1.9631042 C276.468506,1.790657 277.135284,2.1752548 277.307739,2.8177719 L279.34848,10.4211731 C279.520935,11.0636902 279.136322,11.730484 278.493805,11.9029312 Z" id="Shape" fill="#B7B33E"></path>
                <path d="M297.790161,18.5389633 L297.790161,18.5389557 C297.412384,18.1043472 297.458893,17.4396668 297.893494,17.0618973 L303.036621,12.5914231 C303.471252,12.213646 304.135925,12.2601548 304.513702,12.6947632 L304.513702,12.6947708 C304.891449,13.1293793 304.844971,13.7940597 304.410339,14.1718292 L299.267212,18.6423111 C298.832611,19.0200806 298.167938,18.9735718 297.790161,18.5389633 Z" id="Shape" fill="#B7B33E"></path>
                <path d="M288.937653,12.2357101 C288.329529,11.884613 288.119263,11.0998077 288.470337,10.4916992 L294.047516,0.8317528 C294.398621,0.2236405 295.183411,0.0133515 295.791535,0.3644448 C296.399628,0.7155381 296.609924,1.5003434 296.25882,2.1084557 L290.681671,11.7684021 C290.330566,12.3765182 289.545776,12.5867996 288.937653,12.2357101 Z" id="Shape" fill="#B7B33E"></path>
                <path d="M105.706635,177.564484 C105.706635,176.656555 104.972244,175.92215 104.064331,175.92215 L102.841705,175.92215 L102.817459,175.857605 L77.3473358,175.857605 L77.3231506,175.92215 L76.1004791,175.92215 C75.1925506,175.92215 74.4540863,176.656555 74.4540863,177.564484 L74.2604065,179.174515 C74.2604065,180.082428 74.9988709,180.820877 75.9067993,180.820877 L104.258057,180.820877 C105.16597,180.820877 105.900314,180.082428 105.900314,179.174515 L105.706635,177.564484 Z M80.3495483,213.187164 C80.3535308,213.219452 80.3575744,213.251709 80.3656463,213.279968 C80.6037139,214.865784 81.9676055,216.052155 83.5776977,216.052155 L96.5831146,216.052155 C98.1971893,216.052155 99.5610351,214.865784 99.795105,213.279968 C99.8031922,213.251709 99.8112641,213.219452 99.8153076,213.187164 L102.292877,191.998367 L77.8718872,191.998367 L80.3495483,213.187164 Z" id="Shape" fill="#B7B33E"></path>
                <polygon id="Shape" fill="#FCC59C" points="102.817459 175.857605 77.3473358 175.857605 78.5538483 172.431717 101.610947 172.431717"></polygon>
                <polygon id="Shape" fill="#CE415C" points="103.600266 180.820877 102.292877 191.998367 77.8718872 191.998367 76.5644836 180.820877"></polygon>
                <g opacity="0.37" transform="translate(84.000000, 143.000000)" fill="#E0D2CA" id="Shape">
                    <g>
                        <path d="M4.3835754,25.7960052 C4.3835754,25.7960052 -1.2656861,23.1731414 1.155426,16.111557 C3.5765381,9.0499573 7.6117248,6.6288452 0.953659,0.1725464 C0.953659,0.1725464 8.8222808,5.2165375 6.1994171,11.0675659 C3.5765381,16.9185944 2.1642151,19.7432251 4.3835754,25.7960052 Z"></path>
                    </g>
                </g>
                <g opacity="0.37" transform="translate(90.000000, 155.000000)" fill="#E0D2CA" id="Shape">
                    <g>
                        <path d="M2.9044189,14.6890106 C2.9044189,14.6890106 -0.2917328,13.2050781 1.0780487,9.2098846 C2.4478302,5.2146911 4.7308044,3.8449096 0.9638977,0.1921539 C0.9638977,0.1921539 5.4156952,3.0458679 3.9317627,6.3561706 C2.4478302,9.6664733 1.6487885,11.2645569 2.9044189,14.6890106 Z"></path>
                    </g>
                </g>
                <ellipse id="Oval" fill="#FFFFFF" transform="translate(391.467386, 65.975005) rotate(-49.232627) translate(-391.467386, -65.975005) " cx="391.467386" cy="65.9750048" rx="12.8836379" ry="13.3521333"></ellipse>
                <ellipse id="Oval" fill="#F18D65" transform="translate(391.467386, 65.975005) rotate(-49.232627) translate(-391.467386, -65.975005) " cx="391.467386" cy="65.9750048" rx="1.52859435" ry="1.58417954"></ellipse>
                <path d="M391.9133,80.8993988 C388.239929,80.8993988 384.696716,79.5761871 381.853729,77.1250305 C378.790344,74.4835663 376.902039,70.8443146 376.53714,66.8778457 C376.169983,62.8866958 377.38678,59.043663 379.962738,56.0556869 C382.538208,53.0681533 386.160858,51.2987976 390.162781,51.0743789 C394.135101,50.8530959 398.017181,52.1834792 401.080994,54.8249435 C404.144379,57.4664154 406.032684,61.1056671 406.397613,65.0721359 C406.76477,69.0632858 405.547943,72.9063263 402.971985,75.8943023 C400.396515,78.8818206 396.773865,80.651184 392.771942,80.8756103 C392.485565,80.8917694 392.198761,80.8993988 391.9133,80.8993988 Z M391.017853,54.7275467 C390.801941,54.7275467 390.585602,54.7333832 390.368347,54.7454987 C387.372315,54.9138184 384.665741,56.2316361 382.747376,58.4565735 C380.82901,60.6819534 379.923676,63.5527878 380.198822,66.541214 C380.475769,69.5543289 381.916107,72.3241577 384.255066,74.3403931 C386.593567,76.3566132 389.537994,77.3728028 392.566376,77.2044831 C395.562439,77.0361634 398.268982,75.7183533 400.187347,73.4934083 C402.105713,71.2680207 403.011047,68.397194 402.735901,65.4087678 C402.458954,62.3956605 401.018616,59.6258164 398.679657,57.6095964 C396.509033,55.7383499 393.81012,54.7275467 391.017853,54.7275467 Z" id="Shape" fill="#B7B33E"></path>
                <path d="M398.167328,71.8052673 C398.057129,71.9330902 397.862366,71.9474945 397.734528,71.8372955 L391.47287,66.438591 C391.345062,66.3283844 391.330658,66.1336365 391.440857,66.0058136 C391.551056,65.8779907 391.745819,65.8635788 391.873627,65.9737854 L398.135285,71.3724823 C398.263123,71.4826965 398.277527,71.6774445 398.167328,71.8052673 Z" id="Shape" fill="#F18D65"></path>
                <path d="M395.436951,69.6992874 C395.369476,69.7775574 395.250214,69.7863769 395.171967,69.7188949 L391.337769,66.413124 C391.259491,66.345642 391.250671,66.2263869 391.318146,66.148117 C391.385651,66.069847 391.504883,66.0610198 391.58316,66.1285095 L395.417358,69.4342804 C395.495606,69.5017624 395.504456,69.6210175 395.436951,69.6992874 Z" id="Shape" fill="#F18D65"></path>
                <path d="M391.684998,56.914032 L391.800232,56.9178086 C392.009216,56.9246445 392.174591,57.1012269 392.167755,57.3102112 L391.896088,65.6086731 C391.889252,65.8176575 391.712647,65.9830399 391.503693,65.9761963 L391.388458,65.9724274 C391.179474,65.9655838 391.014099,65.7890091 391.020935,65.5800248 L391.292603,57.2815629 C391.299439,57.0725784 391.476013,56.907196 391.684998,56.914032 Z" id="Shape" fill="#F18D65"></path>
                <path d="M436.764648,110.209396 L390.763458,110.209396 C389.875702,110.209396 389.149383,109.483063 389.149383,108.595322 C389.149383,107.707581 389.875702,106.981247 390.763458,106.981247 L436.764648,106.981247 C437.652374,106.981247 438.378723,107.707581 438.378723,108.595322 C438.378723,109.483063 437.652374,110.209396 436.764648,110.209396 Z" id="Shape" fill="#D2DCD6"></path>
                <path d="M449.273743,123.122009 L403.272553,123.122009 C402.384796,123.122009 401.658478,122.395676 401.658478,121.507935 C401.658478,120.620193 402.384796,119.89386 403.272553,119.89386 L449.273743,119.89386 C450.161499,119.89386 450.887817,120.620193 450.887817,121.507935 C450.887817,122.395676 450.161499,123.122009 449.273743,123.122009 Z" id="Shape" fill="#D2DCD6"></path>
                <path d="M431.922424,139.262787 L385.921234,139.262787 C385.033478,139.262787 384.307159,138.536453 384.307159,137.648712 C384.307159,136.760971 385.033478,136.034638 385.921234,136.034638 L431.922424,136.034638 C432.81015,136.034638 433.536499,136.760971 433.536499,137.648712 C433.536499,138.536453 432.81015,139.262787 431.922424,139.262787 Z" id="Shape" fill="#D2DCD6"></path>
                <path d="M441.606873,155.403549 L395.605682,155.403549 C394.717926,155.403549 393.991608,154.677216 393.991608,153.789475 C393.991608,152.901733 394.717926,152.1754 395.605682,152.1754 L441.606873,152.1754 C442.494629,152.1754 443.220947,152.901733 443.220947,153.789475 C443.220947,154.677216 442.494629,155.403549 441.606873,155.403549 Z" id="Shape" fill="#D2DCD6"></path>
                <path d="M426.273132,121.507935 C425.385406,121.507935 424.659058,120.781601 424.659058,119.89386 L424.659058,109.402359 C424.659058,108.514618 425.385406,107.788284 426.273132,107.788284 C427.160889,107.788284 427.887207,108.514618 427.887207,109.402359 L427.887207,119.89386 C427.887207,120.781601 427.160889,121.507935 426.273132,121.507935 Z" id="Shape" fill="#D2DCD6"></path>
                <path d="M406.097198,152.578919 L406.097168,152.578919 C405.209442,152.578919 404.483093,151.852585 404.483093,150.964844 L404.483093,140.473343 C404.483093,139.585602 405.209442,138.859268 406.097168,138.859268 L406.097198,138.859268 C406.984924,138.859268 407.711273,139.585602 407.711273,140.473343 L407.711273,150.964844 C407.711273,151.852585 406.984924,152.578919 406.097198,152.578919 Z" id="Shape" fill="#D2DCD6"></path>
                <path d="M431.96936,107.685272 L430.841126,108.219666 C430.013763,108.611542 429.016174,108.255234 428.624298,107.427856 L423.013275,95.5814209 C422.621399,94.7540588 422.977722,93.756485 423.805084,93.3646088 L424.933319,92.8302307 C425.760681,92.4383392 426.75827,92.7946472 427.150147,93.6220245 L432.76117,105.46846 C433.153046,106.295822 432.796722,107.293396 431.96936,107.685272 Z" id="Shape" fill="#D2DCD6"></path>
                <path d="M421.248077,107.788284 L419.999695,107.788284 C419.084198,107.788284 418.335174,107.039261 418.335174,106.123764 L418.335174,93.0157013 C418.335174,92.1002197 419.084198,91.351181 419.999695,91.351181 L421.248077,91.351181 C422.163544,91.351181 422.912598,92.1002197 422.912598,93.0157013 L422.912598,106.123764 C422.912598,107.039261 422.163544,107.788284 421.248077,107.788284 Z" id="Shape" fill="#D2DCD6"></path>
                <path d="M414.117126,107.788284 L412.868744,107.788284 C411.953247,107.788284 411.204224,107.039261 411.204224,106.123764 L411.204224,93.0157013 C411.204224,92.1002197 411.953247,91.351181 412.868744,91.351181 L414.117126,91.351181 C415.032623,91.351181 415.781647,92.1002197 415.781647,93.0157013 L415.781647,106.123764 C415.781647,107.039261 415.032623,107.788284 414.117126,107.788284 Z" id="Shape" fill="#D2DCD6"></path>
                <path d="M406.986176,107.788284 L405.737793,107.788284 C404.822327,107.788284 404.073273,107.039261 404.073273,106.123764 L404.073273,93.0157013 C404.073273,92.1002197 404.822327,91.351181 405.737793,91.351181 L406.986176,91.351181 C407.901672,91.351181 408.650696,92.1002197 408.650696,93.0157013 L408.650696,106.123764 C408.650696,107.039261 407.901672,107.788284 406.986176,107.788284 Z" id="Shape" fill="#D2DCD6"></path>
                <path d="M399.855255,107.788284 L398.606873,107.788284 C397.691376,107.788284 396.942352,107.039261 396.942352,106.123764 L396.942352,93.0157013 C396.942352,92.1002197 397.691376,91.351181 398.606873,91.351181 L399.855255,91.351181 C400.770721,91.351181 401.519775,92.1002197 401.519775,93.0157013 L401.519775,106.123764 C401.519775,107.039261 400.770721,107.788284 399.855255,107.788284 Z" id="Shape" fill="#D2DCD6"></path>
                <circle id="Oval" fill="#D2DCD6" cx="390.96521" cy="131.797684" r="4.2369518"></circle>
                <circle id="Oval" fill="#D2DCD6" cx="399.297241" cy="133.351852" r="2.6827722"></circle>
                <path d="M275.225769,83.0714722 C275.225769,83.0714722 274.383423,75.5283966 273.45108,71.7990265 C272.518738,68.0696564 275.005005,64.9618454 279.977478,64.651062 C284.949982,64.3402862 290.233276,68.0696564 290.544037,65.5834045 C290.544037,65.5834045 291.794189,77.7671051 289.871857,83.0714721 C289.871857,83.0714721 289.922485,73.6637115 286.814667,73.3529357 C283.706848,73.0421599 281.531402,76.460739 278.423584,73.3529357 C278.423584,73.3529358 275.135742,74.4539337 275.225769,83.0714722 Z" id="Shape" fill="#C34158"></path>
                <polygon id="Shape" fill="#FFFFFF" points="284.346283 33.5875854 281.594696 33.5875854 281.594696 29.5244445 277.510254 29.5244445 277.510254 26.7306823 281.594696 26.7306823 281.594696 22.646263 284.346283 22.646263 284.346283 26.7306823 288.451996 26.7306823 288.451996 29.5244445 284.346283 29.5244445"></polygon>
            </g>
        </g>
    </g>
</svg>