<?xml version="1.0" encoding="UTF-8"?>
<svg width="458px" height="240px" viewBox="0 0 458 240" version="1.1" xmlns="http://www.w3.org/2000/svg" xmlns:xlink="http://www.w3.org/1999/xlink">
    <!-- Generator: sketchtool 49.3 (51167) - http://www.bohemiancoding.com/sketch -->
    <title>46B72EFE-EA89-45D3-AFB6-61A04548A0E5</title>
    <desc>Created with sketchtool.</desc>
    <defs>
        <polygon id="path-1" points="0 0.360224407 457.696 0.360224407 457.696 177.9809 0 177.9809"></polygon>
        <polygon id="path-3" points="0 239.299 457.696 239.299 457.696 0 0 0"></polygon>
    </defs>
    <g id="Esanjo-Way" stroke="none" stroke-width="1" fill="none" fill-rule="evenodd">
        <g id="Esanjo-Way---Our-Product-Development-Process" transform="translate(-92.000000, -81.000000)">
            <g id="Page-1" transform="translate(92.000000, 81.000000)">
                <g id="Group-3" transform="translate(0.000000, 5.299000)">
                    <mask id="mask-2" fill="white">
                        <use xlink:href="#path-1"></use>
                    </mask>
                    <g id="Clip-2"></g>
                    <path d="M89.133,10.3549 C74.732,17.0519 64.046,28.4559 52.386,43.3979 C38.46,61.2439 20.606,77.4329 12.179,98.4479 C9.026,106.8939 2.339,111.6469 0.633,121.1399 C-2.8,140.2449 7.913,158.8129 28.235,160.3439 C61.656,162.8629 11.443,177.9809 11.443,177.9809 L457.696,177.9809 C457.696,177.9809 397.435,165.2549 418.246,147.9639 C439.056,130.6749 473.077,96.2929 447.177,79.3879 C436.677,72.5359 436.676,64.0759 431.823,53.9569 C425.205,40.1589 408.963,39.3419 395.492,39.3409 C369.317,39.3389 391.53,30.8159 389.348,19.6629 C387.769,11.5929 373.519,12.4139 367.469,12.1429 C341.829,10.9959 319.053,12.4919 293.741,8.1939 C265.697,3.4319 237.262,1.2459 208.842,0.5799 C176.968,-0.1681 145.05,0.9949 113.315,4.0569 C104.016,4.9539 96.135,7.0979 89.133,10.3549" id="Fill-1" fill="#F8F5F0" mask="url(#mask-2)"></path>
                </g>
                <path d="M122.2257,49.5552 C122.2257,49.5552 114.7437,39.5362 122.7207,33.4302 C130.6997,27.3232 132.9827,22.1012 136.2697,11.0182 C141.0887,-5.2268 160.4717,-1.2708 156.7957,8.5392 C153.1207,18.3492 142.0617,28.5722 146.1247,37.5222 C150.1887,46.4722 141.3957,53.2562 141.3957,53.2562 L122.2257,49.5552 Z" id="Fill-4" fill="#D26260"></path>
                <path d="M153.0324,57.8375 C153.0324,57.8375 145.1934,48.8445 150.4824,40.4925 C155.7714,32.1405 152.7944,28.5995 151.8974,24.0375 C151.0004,19.4765 158.6474,14.1855 163.6404,21.0405 C168.6344,27.8965 163.1444,37.2605 168.7044,46.7695 C174.2624,56.2775 168.7044,72.5165 168.7044,72.5165 L153.0324,57.8375 Z" id="Fill-6" fill="#B7B33E"></path>
                <path d="M133.2931,40.2906 L132.3491,40.1236 C132.3801,39.9486 133.1331,35.8206 135.8511,30.9336 C136.8241,29.1826 138.1571,27.1066 139.5691,24.9106 C142.1101,20.9556 144.7381,16.8656 145.6701,14.0686 L145.7191,13.9226 L150.2791,10.6296 L150.8411,11.4066 L146.5291,14.5196 C145.5211,17.4226 142.9061,21.4906 140.3761,25.4296 C138.9731,27.6126 137.6471,29.6756 136.6891,31.3996 C134.0541,36.1386 133.3001,40.2496 133.2931,40.2906" id="Fill-8" fill="#F8F5F0"></path>
                <polygon id="Fill-10" fill="#F8F5F0" points="134.5011 33.8267 133.3331 26.7057 134.2781 26.5507 135.4461 33.6717"></polygon>
                <path d="M140.0919,25.8716 L139.2849,25.3526 C139.7169,24.6806 139.5859,20.0636 139.2109,15.9896 L140.1659,15.9016 C140.2979,17.3406 140.9179,24.5836 140.0919,25.8716" id="Fill-12" fill="#F8F5F0"></path>
                <mask id="mask-4" fill="white">
                    <use xlink:href="#path-3"></use>
                </mask>
                <g id="Clip-15"></g>
                <polygon id="Fill-14" fill="#F8F5F0" mask="url(#mask-4)" points="145.646 14.221 146.605 14.221 146.605 6.337 145.646 6.337"></polygon>
                <path d="M136.6828,31.4097 L135.8568,30.9237 C137.2118,28.6267 142.8698,26.2827 143.1108,26.1837 L143.4748,27.0717 C141.9198,27.7097 137.6708,29.7327 136.6828,31.4097" id="Fill-16" fill="#F8F5F0" mask="url(#mask-4)"></path>
                <path d="M157.4054,65.064 C157.3654,64.893 156.4444,60.797 157.0354,55.237 C157.2474,53.244 157.6614,50.813 158.1014,48.239 C158.8934,43.606 159.7124,38.814 159.4774,35.876 L159.4644,35.721 L162.3734,30.907 L163.1934,31.404 L160.4444,35.955 C160.6494,39.02 159.8354,43.788 159.0474,48.4 C158.6094,50.96 158.1964,53.376 157.9884,55.337 C157.4144,60.741 158.3304,64.808 158.3404,64.848 L157.4054,65.064 Z" id="Fill-17" fill="#F8F5F0" mask="url(#mask-4)"></path>
                <polygon id="Fill-18" fill="#F8F5F0" mask="url(#mask-4)" points="156.923 58.4283 153.064 52.3303 153.875 51.8183 157.734 57.9143"></polygon>
                <path d="M158.9581,48.9195 L158.0131,48.7585 C158.1471,47.9705 156.2231,43.7725 154.2831,40.1705 L155.1281,39.7145 C155.8121,40.9875 159.2151,47.4105 158.9581,48.9195" id="Fill-19" fill="#F8F5F0" mask="url(#mask-4)"></path>
                <polygon id="Fill-20" fill="#F8F5F0" mask="url(#mask-4)" points="159.5138 36.025 156.4298 28.769 157.3128 28.395 160.3958 35.65"></polygon>
                <path d="M157.9874,55.3502 L157.0364,55.2242 C157.3844,52.5802 161.6754,48.2112 161.8584,48.0272 L162.5404,48.7022 C161.3604,49.8962 158.2414,53.4192 157.9874,55.3502" id="Fill-21" fill="#F8F5F0" mask="url(#mask-4)"></path>
                <path d="M457.6964,183.2799 L11.4424,183.2799 L11.4424,222.3009 C11.4424,231.6889 19.0534,239.2999 28.4414,239.2999 L440.6984,239.2999 C450.0864,239.2999 457.6964,231.6889 457.6964,222.3009 L457.6964,183.2799 Z" id="Fill-22" fill="#D2DCD6" mask="url(#mask-4)"></path>
                <path d="M288.2404,133.1861 L288.2404,202.7291 C288.2404,208.2291 293.2634,212.1951 298.2994,210.6701 L313.7014,206.0071 C317.0724,204.9871 319.3934,201.7491 319.3934,198.0661 L319.3934,134.1191 C319.3934,129.7391 316.1384,126.1191 311.9724,125.8671 L296.5694,124.9341 C292.0494,124.6611 288.2404,128.4341 288.2404,133.1861" id="Fill-23" fill="#724173" mask="url(#mask-4)"></path>
                <path d="M379.9035,133.1861 L379.9035,202.7291 C379.9035,208.2291 384.9255,212.1951 389.9615,210.6701 L405.3645,206.0071 C408.7355,204.9871 411.0565,201.7491 411.0565,198.0661 L411.0565,134.1191 C411.0565,129.7391 407.8015,126.1191 403.6345,125.8671 L388.2325,124.9341 C383.7125,124.6611 379.9035,128.4341 379.9035,133.1861" id="Fill-24" fill="#724173" mask="url(#mask-4)"></path>
                <polygon id="Fill-25" fill="#C34158" mask="url(#mask-4)" points="246.725 130.989 439.058 130.989 439.058 123.622 246.725 123.622"></polygon>
                <path d="M270.3927,123.7213 L265.0757,123.7213 C264.3007,123.7213 263.6207,123.2103 263.4037,122.4673 L261.1327,111.5733 C260.8077,110.4573 261.6437,109.3433 262.8047,109.3433 L272.5387,109.3433 C273.6997,109.3433 274.5357,110.4573 274.2097,111.5733 L272.0647,122.4673 C271.8477,123.2103 271.1667,123.7213 270.3927,123.7213" id="Fill-26" fill="#B7B33E" mask="url(#mask-4)"></path>
                <path d="M271.6662,112.3384 C269.5732,112.3384 267.8712,114.0404 267.8712,116.1334 C267.8712,118.2254 269.5732,119.9284 271.6662,119.9284 C273.7582,119.9284 275.4612,118.2254 275.4612,116.1334 C275.4612,114.0404 273.7582,112.3384 271.6662,112.3384 M271.6662,121.1264 C268.9122,121.1264 266.6732,118.8864 266.6732,116.1334 C266.6732,113.3794 268.9122,111.1404 271.6662,111.1404 C274.4192,111.1404 276.6592,113.3794 276.6592,116.1334 C276.6592,118.8864 274.4192,121.1264 271.6662,121.1264" id="Fill-27" fill="#B7B33E" mask="url(#mask-4)"></path>
                <path d="M265.5519,107.9459 C265.4499,107.9459 265.3479,107.9209 265.2529,107.8659 C264.9659,107.6999 264.8679,107.3339 265.0329,107.0479 C266.5379,104.4399 265.3339,102.8329 263.6669,100.6089 C262.7489,99.3829 261.7089,97.9949 261.1149,96.2799 C259.7139,92.2319 262.9159,89.7589 264.8059,89.0149 C265.1099,88.8959 265.4609,89.0459 265.5819,89.3539 C265.7029,89.6619 265.5519,90.0089 265.2449,90.1309 C265.0589,90.2049 260.8749,91.9249 262.2469,95.8879 C262.7799,97.4259 263.7189,98.6789 264.6259,99.8909 C266.2709,102.0849 267.9709,104.3539 266.0719,107.6459 C265.9599,107.8389 265.7589,107.9459 265.5519,107.9459" id="Fill-28" fill="#A9C3CF" mask="url(#mask-4)"></path>
                <path d="M270.1271,107.9459 C270.0251,107.9459 269.9231,107.9209 269.8281,107.8659 C269.5411,107.6999 269.4431,107.3339 269.6081,107.0479 C271.1131,104.4399 269.9091,102.8329 268.2421,100.6089 C267.3241,99.3829 266.2841,97.9949 265.6901,96.2799 C264.2891,92.2319 267.4911,89.7589 269.3811,89.0149 C269.6861,88.8959 270.0361,89.0459 270.1571,89.3539 C270.2781,89.6619 270.1271,90.0089 269.8201,90.1309 C269.6341,90.2049 265.4501,91.9249 266.8221,95.8879 C267.3551,97.4259 268.2941,98.6789 269.2011,99.8909 C270.8461,102.0849 272.5461,104.3539 270.6471,107.6459 C270.5351,107.8389 270.3341,107.9459 270.1271,107.9459" id="Fill-29" fill="#A9C3CF" mask="url(#mask-4)"></path>
                <path d="M387.0968,100.355 C387.0968,100.355 397.9538,114.703 401.0568,117.417 C404.1588,120.131 401.4448,123.622 396.4038,123.622 L387.4848,123.622 C387.4848,123.622 394.0758,119.356 390.1988,115.866 C386.3218,112.376 384.3818,110.437 384.3818,110.437 L387.0968,100.355 Z" id="Fill-30" fill="#1C195E" mask="url(#mask-4)"></path>
                <path d="M375.7882,123.234 L292.2392,123.234 C290.2632,123.234 289.3412,121.616 290.1912,119.639 L310.2812,72.928 C311.1322,70.951 313.4452,69.334 315.4222,69.334 L398.9712,69.334 C400.9482,69.334 401.8702,70.951 401.0192,72.928 L380.9292,119.639 C380.0782,121.616 377.7662,123.234 375.7882,123.234" id="Fill-31" fill="#293E96" mask="url(#mask-4)"></path>
                <path d="M395.4796,75.7232 L393.8926,79.4242 L392.9136,81.6922 L392.5566,82.5262 L377.7996,116.8412 C377.0386,118.6072 374.9736,120.0482 373.2086,120.0482 L297.5556,120.0482 C295.7906,120.0482 294.9716,118.6072 295.7246,116.8412 L313.4136,75.7232 C314.1746,73.9572 316.2396,72.5162 318.0046,72.5162 L393.6496,72.5162 C395.4156,72.5162 396.2416,73.9572 395.4796,75.7232" id="Fill-32" fill="#FFFFFF" mask="url(#mask-4)"></path>
                <path d="M256.425,141.1783 L239.679,141.1783 C236.532,141.1783 233.957,138.6033 233.957,135.4563 C233.957,132.3093 236.532,129.7353 239.679,129.7353 L256.425,129.7353 C259.572,129.7353 262.147,132.3093 262.147,135.4563 C262.147,138.6033 259.572,141.1783 256.425,141.1783" id="Fill-33" fill="#D26260" mask="url(#mask-4)"></path>
                <path d="M298.6164,138.2007 L227.9104,138.2007 C226.1704,138.2007 224.7474,136.7767 224.7474,135.0377 C224.7474,133.2977 226.1704,131.8747 227.9104,131.8747 L298.6164,131.8747 C300.3564,131.8747 301.7794,133.2977 301.7794,135.0377 C301.7794,136.7767 300.3564,138.2007 298.6164,138.2007" id="Fill-34" fill="#D26260" mask="url(#mask-4)"></path>
                <path d="M194.0421,60.1158 C192.8191,57.3478 194.6901,54.1968 197.7011,53.8938 C205.1971,53.1408 222.8621,51.3588 224.5741,51.1138 C226.7541,50.8028 232.0491,51.1138 233.6051,58.5888 C235.1631,66.0618 248.5541,112.1518 250.7331,116.2008 C252.9131,120.2498 255.7161,128.9698 267.8611,129.5918 C280.0071,130.2148 297.4461,128.9698 298.6921,130.5258 C299.9381,132.0828 303.0521,133.6398 295.5781,133.6398 C288.1041,133.6398 234.2291,133.0168 227.6881,132.7058 C221.1481,132.3938 212.1171,126.7888 208.0691,113.7098 C204.0211,100.6298 194.0561,60.1448 194.0561,60.1448 C194.0561,60.1448 194.0511,60.1358 194.0421,60.1158" id="Fill-35" fill="#293E96" mask="url(#mask-4)"></path>
                <path d="M216.0656,53.4888 L204.7446,54.5668 C203.6616,54.6698 202.7756,53.8678 202.7756,52.7848 L202.7756,49.3398 C202.7756,48.2568 203.6616,47.2858 204.7446,47.1828 L216.0656,46.1048 C217.1486,46.0018 218.0346,46.8028 218.0346,47.8858 L218.0346,51.3318 C218.0346,52.4148 217.1486,53.3848 216.0656,53.4888" id="Fill-36" fill="#A9C3CF" mask="url(#mask-4)"></path>
                <path d="M248.7501,145.6431 L247.3541,145.6431 C245.0521,145.6431 243.1681,143.7591 243.1681,141.4561 C243.1681,139.1541 245.0521,137.2701 247.3541,137.2701 L248.7501,137.2701 C251.0531,137.2701 252.9371,139.1541 252.9371,141.4561 C252.9371,143.7591 251.0531,145.6431 248.7501,145.6431" id="Fill-37" fill="#D26260" mask="url(#mask-4)"></path>
                <polygon id="Fill-38" fill="#D26260" mask="url(#mask-4)" points="244.563 193.307 251.541 193.307 251.541 142.015 244.563 142.015"></polygon>
                <path d="M254.0529,190.0211 L242.0509,190.0211 C240.8239,190.0211 239.8189,189.0161 239.8189,187.7891 L239.8189,166.0181 C239.8189,164.7901 240.8239,163.7861 242.0509,163.7861 L254.0529,163.7861 C255.2819,163.7861 256.2849,164.7901 256.2849,166.0181 L256.2849,187.7891 C256.2849,189.0161 255.2819,190.0211 254.0529,190.0211" id="Fill-39" fill="#C34158" mask="url(#mask-4)"></path>
                <path d="M279.172,220.1646 L276.381,220.1646 L276.381,206.7676 C276.381,200.1496 270.997,194.7666 264.38,194.7666 L234.795,194.7666 C228.177,194.7666 222.793,200.1496 222.793,206.7676 L222.793,220.1646 L220.002,220.1646 L220.002,206.7676 C220.002,198.6106 226.638,191.9756 234.795,191.9756 L264.38,191.9756 C272.536,191.9756 279.172,198.6106 279.172,206.7676 L279.172,220.1646 Z" id="Fill-40" fill="#D26260" mask="url(#mask-4)"></path>
                <path d="M222.7931,219.4664 C222.7931,222.0104 220.7311,224.0714 218.1881,224.0714 C215.6451,224.0714 213.5831,222.0104 213.5831,219.4664 C213.5831,216.9234 215.6451,214.8614 218.1881,214.8614 C220.7311,214.8614 222.7931,216.9234 222.7931,219.4664" id="Fill-41" fill="#C34158" mask="url(#mask-4)"></path>
                <path d="M249.0294,219.4664 L246.2384,219.4664 L246.2384,200.3484 C246.2384,193.8714 250.8564,192.0724 251.0524,191.9994 L252.0454,194.6084 C251.9214,194.6574 249.0294,195.8714 249.0294,200.3484 L249.0294,219.4664 Z" id="Fill-42" fill="#D26260" mask="url(#mask-4)"></path>
                <path d="M221.1486,47.2886 L199.6616,49.3346 C197.6056,49.5306 195.9236,48.0096 195.9236,45.9536 L195.9236,39.4136 C195.9236,37.3586 197.6056,35.5166 199.6616,35.3206 L221.1486,33.2736 C223.2046,33.0786 224.8856,34.6006 224.8856,36.6556 L224.8856,43.1946 C224.8856,45.2506 223.2046,47.0926 221.1486,47.2886" id="Fill-43" fill="#C34158" mask="url(#mask-4)"></path>
                <path d="M248.8898,219.4664 C248.8898,222.0104 246.8268,224.0714 244.2848,224.0714 C241.7408,224.0714 239.6788,222.0104 239.6788,219.4664 C239.6788,216.9234 241.7408,214.8614 244.2848,214.8614 C246.8268,214.8614 248.8898,216.9234 248.8898,219.4664" id="Fill-44" fill="#C34158" mask="url(#mask-4)"></path>
                <path d="M285.0187,219.4664 C285.0187,222.0104 282.9567,224.0714 280.4137,224.0714 C277.8707,224.0714 275.8087,222.0104 275.8087,219.4664 C275.8087,216.9234 277.8707,214.8614 280.4137,214.8614 C282.9567,214.8614 285.0187,216.9234 285.0187,219.4664" id="Fill-45" fill="#C34158" mask="url(#mask-4)"></path>
                <path d="M174.8888,84.6168 C190.8058,130.0118 168.1208,179.2898 124.2208,194.6818 C80.3218,210.0748 31.8298,185.7528 15.9128,140.3578 C-0.0042,94.9638 22.6818,45.6848 66.5808,30.2928 C110.4818,14.8998 158.9718,39.2208 174.8888,84.6168" id="Fill-46" fill="#A9C3CF" mask="url(#mask-4)"></path>
                <path d="M165.1173,82.0045 C177.7623,118.0685 161.7533,156.5125 129.3583,167.8705 C96.9653,179.2295 60.4533,159.2005 47.8073,123.1365 C35.1623,87.0725 51.1723,48.6285 83.5663,37.2705 C115.9603,25.9115 152.4713,45.9405 165.1173,82.0045" id="Fill-47" fill="#F8F5F0" mask="url(#mask-4)"></path>
                <path d="M129.3556,167.9537 C110.6236,174.5217 90.5126,170.5947 74.4366,159.1267 C68.5976,154.9717 63.2926,149.8207 58.7816,143.8187 C54.2296,137.7687 50.4886,130.8517 47.8076,123.2157 C35.1656,87.1507 51.1676,48.7127 83.5646,37.3497 C115.9606,25.9957 152.4706,46.0237 165.1216,82.0887 C177.7636,118.1537 161.7516,156.5917 129.3556,167.9537" id="Fill-48" fill="#F8F5F0" mask="url(#mask-4)"></path>
                <path d="M148.4542,215.0914 C148.4542,220.0514 127.3032,224.0714 101.2112,224.0714 C75.1192,224.0714 53.9682,220.0514 53.9682,215.0914 C53.9682,210.1324 75.1192,206.1124 101.2112,206.1124 C127.3032,206.1124 148.4542,210.1324 148.4542,215.0914" id="Fill-49" fill="#A9C3CF" mask="url(#mask-4)"></path>
                <path d="M119.3019,191.5357 C119.3019,197.2857 111.2019,201.9467 101.2109,201.9467 C91.2199,201.9467 83.1209,197.2857 83.1209,191.5357 C83.1209,185.7847 91.2199,181.1237 101.2109,181.1237 C111.2019,181.1237 119.3019,185.7847 119.3019,191.5357" id="Fill-50" fill="#A9C3CF" mask="url(#mask-4)"></path>
                <path d="M94.6154,200.6451 C94.6154,200.6451 97.4784,209.2351 88.3684,210.5371 C79.2584,211.8381 101.9034,211.0571 101.9034,211.0571 L101.9034,200.1241 L94.6154,200.6451 Z" id="Fill-51" fill="#A9C3CF" mask="url(#mask-4)"></path>
                <path d="M105.7345,200.6451 C105.7345,200.6451 102.8715,209.2351 111.9815,210.5371 C121.0915,211.8381 98.4465,211.0571 98.4465,211.0571 L98.4465,200.1241 L105.7345,200.6451 Z" id="Fill-52" fill="#B7B33E" mask="url(#mask-4)"></path>
                <polygon id="Fill-53" fill="#A9C3CF" mask="url(#mask-4)" points="121.297 109.2203 130.228 120.1353 121.865 120.1353"></polygon>
                <path d="M126.7404,149.4644 L74.4364,159.1264 C68.5974,154.9714 63.2934,149.8204 58.7814,143.8184 C64.6934,134.5774 81.1104,109.0504 83.8884,106.2724 C87.2904,102.8784 91.0314,98.4564 100.8964,100.4974 C110.7534,102.5384 119.2974,106.5314 121.2974,109.2204 C123.1364,111.7064 127.6634,125.8714 126.7404,149.4644" id="Fill-54" fill="#293E96" mask="url(#mask-4)"></path>
                <path d="M81.174,113.8326 C81.174,113.8326 71.308,134.8406 70.627,137.9006 C69.947,140.9616 71.308,144.0216 78.449,145.3826 C78.449,145.3826 84.57,135.5206 88.651,135.8606 C88.651,135.8606 91.528,123.7216 98.513,115.4576 C98.513,115.4576 98.364,108.4676 90.543,107.4476 C82.722,106.4276 81.174,113.8326 81.174,113.8326" id="Fill-55" fill="#A9C3CF" mask="url(#mask-4)"></path>
                <path d="M100.8927,100.4947 C100.8927,100.4947 93.7517,94.3737 94.4317,83.1507 C95.1127,71.9297 98.1727,63.0877 110.0747,63.4287 C121.9767,63.7677 125.3767,64.4477 124.6977,60.7077 C124.6977,60.7077 129.1187,72.2687 122.3167,74.3097 L104.9737,102.5347 L100.8927,100.4947 Z" id="Fill-56" fill="#C34158" mask="url(#mask-4)"></path>
                <path d="M105.6535,68.8687 C105.6535,68.8687 102.2535,79.4107 99.5325,86.5527 C96.8125,93.6927 109.0545,102.5347 116.5365,99.4737 C124.0165,96.4137 122.3165,79.0707 122.3165,74.3097 C122.3165,69.5497 119.5965,63.0877 105.6535,68.8687" id="Fill-57" fill="#FDD4AB" mask="url(#mask-4)"></path>
                <path d="M99.8732,106.2759 L104.3112,95.2309 L115.8552,96.0739 L111.7742,107.6359 C111.7742,107.6359 107.3542,115.1169 99.8732,106.2759" id="Fill-58" fill="#FDD4AB" mask="url(#mask-4)"></path>
                <path d="M103.3664,97.525 C103.3664,97.525 104.2944,94.034 103.6134,90.632 C102.9334,87.232 100.5534,81.111 103.2734,82.471 L105.9944,83.832 L105.9944,86.892 C105.9944,86.892 108.3744,85.872 108.7144,83.151 C109.0544,80.431 107.3544,74.31 111.0954,72.269 C114.8354,70.229 118.9164,76.01 122.3164,74.31 C125.7184,72.61 123.6774,66.489 123.6774,66.489 C123.6774,66.489 107.0134,63.087 103.2734,66.489 C99.5324,69.889 94.4314,85.532 96.8124,90.632 C99.1924,95.734 103.3664,97.525 103.3664,97.525" id="Fill-59" fill="#C34158" mask="url(#mask-4)"></path>
                <path d="M118.5763,174.9683 L132.8583,173.6083 L135.5793,176.3283 L134.2193,222.2373 C134.2193,222.2373 146.4613,226.3173 151.9023,221.5563 C151.9023,221.5563 156.6633,167.8263 157.0033,160.6853 C157.3433,153.5443 156.3233,150.8233 145.1003,150.8233 C133.8793,150.8233 116.8763,152.8643 116.8763,152.8643 L118.5763,174.9683 Z" id="Fill-60" fill="#C34158" mask="url(#mask-4)"></path>
                <path d="M73.3478,158.4703 C73.3478,158.4703 105.6538,152.1843 110.0748,151.5033 C114.4948,150.8243 121.2968,151.1633 121.2968,158.3053 C121.2968,165.4463 118.9158,224.2773 118.9158,224.2773 C118.9158,224.2773 106.3338,229.0373 98.8528,225.6373 L99.1928,172.9273 C99.1928,172.9273 82.5298,167.3123 73.3478,158.4703" id="Fill-61" fill="#D26260" mask="url(#mask-4)"></path>
                <path d="M98.8527,225.6373 C98.8527,225.6373 101.2337,231.0783 109.0547,233.7983 C116.8757,236.5193 123.6767,236.8593 124.0167,233.4583 C124.3577,230.0583 114.8347,223.5973 114.8347,223.5973 L98.8527,225.6373 Z" id="Fill-62" fill="#724173" mask="url(#mask-4)"></path>
                <path d="M134.2189,222.2369 C134.2189,222.2369 143.0609,233.7989 155.9829,232.7789 C173.0179,231.4339 151.9029,221.5559 151.9029,221.5559 L134.2189,222.2369 Z" id="Fill-63" fill="#724173" mask="url(#mask-4)"></path>
                <path d="M159.3781,151.9908 L114.6971,151.9908 C113.2441,151.9908 112.3311,150.8128 112.6581,149.3588 L118.6421,122.7658 C118.9691,121.3128 120.4121,120.1358 121.8651,120.1358 L166.5461,120.1358 C167.9991,120.1358 168.9121,121.3128 168.5851,122.7658 L162.6021,149.3588 C162.2741,150.8128 160.8311,151.9908 159.3781,151.9908" id="Fill-64" fill="#D2DCD6" mask="url(#mask-4)"></path>
                <path d="M160.7345,153.3404 L99.7215,153.3404 C98.8315,153.3404 98.1015,152.6114 98.1015,151.7214 C98.1015,150.8294 98.8315,150.1014 99.7215,150.1014 L160.7345,150.1014 C161.6255,150.1014 162.3535,150.8294 162.3535,151.7214 C162.3535,152.6114 161.6255,153.3404 160.7345,153.3404" id="Fill-65" fill="#A9C3CF" mask="url(#mask-4)"></path>
                <path d="M78.4494,145.3824 L99.7214,150.1014 L111.4464,150.0924 C111.4464,150.0924 107.0544,146.0634 101.9034,145.3824 C96.7524,144.7014 88.6504,135.8614 88.6504,135.8614 C88.6504,135.8614 80.1234,136.8844 78.4494,145.3824" id="Fill-66" fill="#FDD4AB" mask="url(#mask-4)"></path>
                <path d="M392.5568,82.5259 L390.6688,86.9159 L377.7998,116.8409 C377.0378,118.6069 374.9738,120.0479 373.2078,120.0479 L305.4528,120.0479 L305.5738,119.5789 L306.2448,116.8979 C306.2448,116.8979 303.8158,99.8899 322.7108,101.2349 C341.6138,102.5879 347.2838,97.1849 352.6768,93.1349 C358.0788,89.0869 364.8258,82.0729 377.7848,87.1989 C385.2508,90.1549 389.4868,87.0129 391.7388,83.8219 C392.0458,83.3839 392.3218,82.9469 392.5568,82.5259" id="Fill-67" fill="#B7B33E" mask="url(#mask-4)"></path>
                <path d="M393.9738,79.1246 C393.9658,79.1736 393.9328,79.2706 393.8928,79.4246 C393.7308,79.9586 393.3338,81.1166 392.6048,82.4296 L392.9128,81.6916 L393.9738,79.1246 Z" id="Fill-68" fill="#F8F5F0" mask="url(#mask-4)"></path>
                <path d="M377.0148,48.7818 C377.0148,41.9278 371.4588,36.3738 364.6058,36.3738 C357.7528,36.3738 352.1978,41.9278 352.1978,48.7818 L377.0148,48.7818 Z" id="Fill-69" fill="#B7B33E" mask="url(#mask-4)"></path>
                <polygon id="Fill-70" fill="#C34158" mask="url(#mask-4)" points="352.198 53.047 377.015 53.047 377.015 48.781 352.198 48.781"></polygon>
                <path d="M421.3166,79.2925 L418.9206,74.3505 C412.5986,62.3255 401.8976,42.5425 400.1876,40.8315 C398.5196,39.1635 396.0426,40.5975 396.0176,40.6125 C395.9376,40.6605 386.7246,46.2345 383.9226,48.0035 C383.4276,48.3165 381.9206,49.2695 380.5456,48.4835 C379.1216,47.6695 379.1766,45.8255 379.2176,44.4795 C379.2236,44.2965 379.2296,44.1215 379.2296,43.9665 L379.2296,40.8205 C379.2296,36.5265 375.7356,33.0325 371.4406,33.0325 C367.1466,33.0325 363.6526,36.5265 363.6526,40.8205 L360.6576,40.8205 C360.6576,34.8745 365.4956,30.0365 371.4406,30.0365 C377.3866,30.0365 382.2246,34.8745 382.2246,40.8205 L382.2246,43.9665 C382.2246,44.1485 382.2186,44.3545 382.2126,44.5705 C382.2056,44.8135 382.1936,45.2045 382.2056,45.5435 C382.2426,45.5215 382.2826,45.4965 382.3236,45.4715 C385.1486,43.6875 394.3866,38.0985 394.4806,38.0415 C396.0436,37.1165 399.6706,36.0785 402.3056,38.7135 C404.9006,41.3085 419.8926,69.7645 421.5936,72.9995 L424.0116,77.9855 L421.3166,79.2925 Z" id="Fill-71" fill="#B7B33E" mask="url(#mask-4)"></path>
                <path d="M426.0343,78.19 C426.0343,80.341 424.2913,82.085 422.1403,82.085 C419.9893,82.085 418.2463,80.341 418.2463,78.19 C418.2463,76.04 419.9893,74.296 422.1403,74.296 C424.2913,74.296 426.0343,76.04 426.0343,78.19" id="Fill-72" fill="#B7B33E" mask="url(#mask-4)"></path>
                <polygon id="Fill-73" fill="#B7B33E" mask="url(#mask-4)" points="410.6896 119.9742 407.8296 119.0822 420.7106 77.7452 423.5706 78.6362"></polygon>
                <path d="M398.0705,123.9146 C398.0705,116.4706 401.8145,117.4316 409.2595,117.4316 C416.7045,117.4316 425.0305,116.4706 425.0305,123.9146 L398.0705,123.9146 Z" id="Fill-74" fill="#724173" mask="url(#mask-4)"></path>
                <path d="M97.6974,77.48 C99.7214,78.291 113.8944,87.064 113.8944,87.064 L112.6794,88.482 L96.2794,78.695 C96.2794,78.695 94.6604,76.265 97.6974,77.48" id="Fill-75" fill="#293E96" mask="url(#mask-4)"></path>
                <path d="M103.299,89.2242 C103.097,87.8062 100.329,82.0022 103.366,81.8002 C106.403,81.5972 107.354,86.4702 109.508,86.8622 C111.736,87.2672 107.82,91.4512 107.82,91.4512 L103.299,89.2242 Z" id="Fill-76" fill="#FDD4AB" mask="url(#mask-4)"></path>
                <path d="M112.6798,88.482 L115.4478,89.089 L113.8948,87.064 C113.8948,87.064 112.0048,86.66 112.6798,88.482" id="Fill-77" fill="#B7B33E" mask="url(#mask-4)"></path>
                <polygon id="Fill-78" fill="#D2DCD6" mask="url(#mask-4)" points="290.8439 56.4127 310.1439 37.1127 315.7059 42.6757 317.9829 40.3997 332.7769 56.1137"></polygon>
                <polygon id="Fill-79" fill="#A9C3CF" mask="url(#mask-4)" points="252.2365 57.2662 282.2965 27.2062 290.9595 35.8702 294.5035 32.3272 318.4805 56.3032"></polygon>
                <polygon id="Fill-80" fill="#A9C3CF" mask="url(#mask-4)" points="318.59 56.5884 320.625 47.8154 323.118 56.5884"></polygon>
                <polygon id="Fill-81" fill="#A9C3CF" mask="url(#mask-4)" points="322.7023 56.5884 324.1283 50.4424 325.8753 56.5884"></polygon>
                <polygon id="Fill-82" fill="#A9C3CF" mask="url(#mask-4)" points="316.5002 57.2007 317.9262 51.0547 319.1482 56.5007"></polygon>
                <polygon id="Fill-83" fill="#A9C3CF" mask="url(#mask-4)" points="324.1691 55.8882 325.7551 52.0112 327.0571 56.5882"></polygon>
                <path d="M254.86,54.494 L331.156,54.494 L331.156,21.808 L254.86,21.808 L254.86,54.494 Z M251.622,57.734 L334.396,57.734 L334.396,18.568 L251.622,18.568 L251.622,57.734 Z" id="Fill-84" fill="#293E96" mask="url(#mask-4)"></path>
                <polygon id="Fill-85" fill="#B7B33E" mask="url(#mask-4)" points="254.8605 46.7632 267.6995 33.9902 280.6525 46.9422 285.6895 41.9052 299.8405 54.6172 254.8605 54.6172"></polygon>
                <path d="M147.5294,132.5504 C147.5294,135.2204 145.3654,137.3844 142.6964,137.3844 C140.0274,137.3844 137.8634,135.2204 137.8634,132.5504 C137.8634,129.8814 140.0274,127.7174 142.6964,127.7174 C145.3654,127.7174 147.5294,129.8814 147.5294,132.5504" id="Fill-86" fill="#FFFFFF" mask="url(#mask-4)"></path>
            </g>
        </g>
    </g>
</svg>