<?xml version="1.0" encoding="UTF-8"?>
<svg width="456px" height="209px" viewBox="0 0 456 209" version="1.1" xmlns="http://www.w3.org/2000/svg" xmlns:xlink="http://www.w3.org/1999/xlink">
    <!-- Generator: sketchtool 49.3 (51167) - http://www.bohemiancoding.com/sketch -->
    <title>0AACFEFB-3A33-4886-8DEC-3374BE8E9D0D</title>
    <desc>Created with sketchtool.</desc>
    <defs>
        <polygon id="path-1" points="0.216 11.667 0.549 35.333 37.667 45.667 45.667 15.333 34 0"></polygon>
        <polygon id="path-3" points="0.216 11.667 0.549 35.333 37.667 45.667 45.667 15.333 34 0"></polygon>
        <polygon id="path-5" points="0 209 456.333 209 456.333 0 0 0"></polygon>
        <polygon id="path-7" points="0.772586522 0.599554294 108.001 0.599554294 108.001 50.3329 0.772586522 50.3329"></polygon>
        <polygon id="path-9" points="0 209 456.333 209 456.333 0 0 0"></polygon>
        <path d="M18.973,0 C8.494,0 0,8.495 0,18.973 L0,107.027 C0,117.506 8.494,126 18.973,126 L165.027,126 C175.505,126 184,117.506 184,107.027 L184,18.973 C184,8.495 175.505,0 165.027,0 L18.973,0 Z" id="path-11"></path>
        <path d="M18.973,0 C8.494,0 0,8.495 0,18.973 L0,107.027 C0,117.506 8.494,126 18.973,126 L165.027,126 C175.505,126 184,117.506 184,107.027 L184,18.973 C184,8.495 175.505,0 165.027,0" id="path-13"></path>
        <path d="M18.973,0 C8.494,0 0,8.495 0,18.973 L0,107.027 C0,117.506 8.494,126 18.973,126 L165.027,126 C175.505,126 184,117.506 184,107.027 L184,18.973 C184,8.495 175.505,0 165.027,0" id="path-15"></path>
        <path d="M18.973,0 C8.494,0 0,8.495 0,18.973 L0,107.027 C0,117.506 8.494,126 18.973,126 L165.027,126 C175.505,126 184,117.506 184,107.027 L184,18.973 C184,8.495 175.505,0 165.027,0" id="path-17"></path>
        <path d="M18.973,0 C8.494,0 0,8.495 0,18.973 L0,107.027 C0,117.506 8.494,126 18.973,126 L165.027,126 C175.505,126 184,117.506 184,107.027 L184,18.973 C184,8.495 175.505,0 165.027,0" id="path-19"></path>
        <path d="M18.973,0 C8.494,0 0,8.495 0,18.973 L0,107.027 C0,117.506 8.494,126 18.973,126 L165.027,126 C175.505,126 184,117.506 184,107.027 L184,18.973 C184,8.495 175.505,0 165.027,0" id="path-21"></path>
        <path d="M18.973,0 C8.494,0 0,8.495 0,18.973 L0,107.027 C0,117.506 8.494,126 18.973,126 L165.027,126 C175.505,126 184,117.506 184,107.027 L184,18.973 C184,8.495 175.505,0 165.027,0" id="path-23"></path>
        <path d="M18.973,0 C8.494,0 0,8.495 0,18.973 L0,107.027 C0,117.506 8.494,126 18.973,126 L165.027,126 C175.505,126 184,117.506 184,107.027 L184,18.973 C184,8.495 175.505,0 165.027,0" id="path-25"></path>
        <path d="M18.973,0 C8.494,0 0,8.495 0,18.973 L0,107.027 C0,117.506 8.494,126 18.973,126 L165.027,126 C175.505,126 184,117.506 184,107.027 L184,18.973 C184,8.495 175.505,0 165.027,0" id="path-27"></path>
    </defs>
    <g id="Esanjo-Way" stroke="none" stroke-width="1" fill="none" fill-rule="evenodd">
        <g id="Esanjo-Way---Working-Remotely" transform="translate(-92.000000, -73.000000)">
            <g id="Page-1" transform="translate(92.000000, 73.000000)">
                <polygon id="Fill-1" fill="#FFFFFF" points="0 209 454 209 454 0 0 0"></polygon>
                <g id="Group-8" transform="translate(0.000000, 31.000000)">
                    <path d="M450.5762,158.0927 L6.5982,158.0927 L6.5982,149.0457 C6.5982,143.3157 11.2432,138.6697 16.9732,138.6697 L440.2012,138.6697 C445.9302,138.6697 450.5762,143.3157 450.5762,149.0457 L450.5762,158.0927 Z" id="Fill-2" fill="#F8F5F0"></path>
                    <path d="M456.0001,165.9999 L0.0001,165.9999 C0.0001,161.0289 4.0291,156.9999 9.0001,156.9999 L447.0001,156.9999 C451.9711,156.9999 456.0001,161.0289 456.0001,165.9999" id="Fill-4" fill="#D2DCD6"></path>
                    <path d="M186.0274,125.9999 L39.9724,125.9999 C29.4944,125.9999 21.0004,117.5059 21.0004,107.0269 L21.0004,18.9729 C21.0004,8.4949 29.4944,-0.0001 39.9724,-0.0001 L186.0274,-0.0001 C196.5054,-0.0001 205.0004,8.4949 205.0004,18.9729 L205.0004,107.0269 C205.0004,117.5059 196.5054,125.9999 186.0274,125.9999" id="Fill-6" fill="#F8F5F0"></path>
                </g>
                <g id="Group-15" transform="translate(344.000000, 70.000000)">
                    <g id="Group-11">
                        <mask id="mask-2" fill="white">
                            <use xlink:href="#path-1"></use>
                        </mask>
                        <g id="Clip-10"></g>
                        <path d="M0.2154,-0.0001 L0.2154,45.6669 L0.2154,-0.0001 Z" id="Fill-9" fill="#FFFFFF" mask="url(#mask-2)"></path>
                    </g>
                    <g id="Group-14">
                        <mask id="mask-4" fill="white">
                            <use xlink:href="#path-3"></use>
                        </mask>
                        <g id="Clip-13"></g>
                        <path d="M45.6666,45.6669 L45.6666,-0.0001 L45.6666,45.6669 Z" id="Fill-12" fill="#FFFFFF" mask="url(#mask-4)"></path>
                    </g>
                </g>
                <g id="Group-126">
                    <path d="M147.0001,72.9999 L157.6671,80.3329 L161.0001,79.9999 L145.0001,69.9999 C145.0001,69.9999 143.0001,70.6669 147.0001,72.9999" id="Fill-16" fill="#293E96"></path>
                    <mask id="mask-6" fill="white">
                        <use xlink:href="#path-5"></use>
                    </mask>
                    <g id="Clip-19"></g>
                    <path d="M148.412,178.186 L159.036,178.186 L159.036,174.473 L148.412,174.473 L148.412,178.186 Z M147.411,179.186 L160.035,179.186 L160.035,173.473 L147.411,173.473 L147.411,179.186 Z" id="Fill-18" fill="#FFFFFF" mask="url(#mask-6)"></path>
                    <path d="M160.192,178.186 L170.816,178.186 L170.816,174.473 L160.192,174.473 L160.192,178.186 Z M159.192,179.186 L171.816,179.186 L171.816,173.473 L159.192,173.473 L159.192,179.186 Z" id="Fill-20" fill="#FFFFFF" mask="url(#mask-6)"></path>
                    <path d="M171.816,178.186 L182.44,178.186 L182.44,174.473 L171.816,174.473 L171.816,178.186 Z M170.816,179.186 L183.44,179.186 L183.44,173.473 L170.816,173.473 L170.816,179.186 Z" id="Fill-21" fill="#FFFFFF" mask="url(#mask-6)"></path>
                    <path d="M183.44,178.186 L194.064,178.186 L194.064,174.473 L183.44,174.473 L183.44,178.186 Z M182.44,179.186 L195.064,179.186 L195.064,173.473 L182.44,173.473 L182.44,179.186 Z" id="Fill-22" fill="#FFFFFF" mask="url(#mask-6)"></path>
                    <path d="M195.064,178.186 L205.688,178.186 L205.688,174.473 L195.064,174.473 L195.064,178.186 Z M194.064,179.186 L206.688,179.186 L206.688,173.473 L194.064,173.473 L194.064,179.186 Z" id="Fill-23" fill="#FFFFFF" mask="url(#mask-6)"></path>
                    <path d="M154.38,182.85 L165.004,182.85 L165.004,179.137 L154.38,179.137 L154.38,182.85 Z M153.38,183.85 L166.004,183.85 L166.004,178.137 L153.38,178.137 L153.38,183.85 Z" id="Fill-24" fill="#FFFFFF" mask="url(#mask-6)"></path>
                    <path d="M166.004,182.85 L176.628,182.85 L176.628,179.137 L166.004,179.137 L166.004,182.85 Z M165.004,183.85 L177.628,183.85 L177.628,178.137 L165.004,178.137 L165.004,183.85 Z" id="Fill-25" fill="#FFFFFF" mask="url(#mask-6)"></path>
                    <path d="M177.628,182.85 L188.252,182.85 L188.252,179.137 L177.628,179.137 L177.628,182.85 Z M176.628,183.85 L189.252,183.85 L189.252,178.137 L176.628,178.137 L176.628,183.85 Z" id="Fill-26" fill="#FFFFFF" mask="url(#mask-6)"></path>
                    <path d="M189.252,182.85 L199.876,182.85 L199.876,179.137 L189.252,179.137 L189.252,182.85 Z M188.252,183.85 L200.876,183.85 L200.876,178.137 L188.252,178.137 L188.252,183.85 Z" id="Fill-27" fill="#FFFFFF" mask="url(#mask-6)"></path>
                    <polygon id="Fill-28" fill="#FFFFFF" mask="url(#mask-6)" points="141 179.137 150.739 179.137 150.739 178.137 141 178.137"></polygon>
                    <polygon id="Fill-29" fill="#FFFFFF" mask="url(#mask-6)" points="144.612 174.474 153.88 174.474 153.88 173.474 144.612 173.474"></polygon>
                    <polygon id="Fill-30" fill="#FFFFFF" mask="url(#mask-6)" points="149.246 183.85 155.451 183.85 155.451 182.85 149.246 182.85"></polygon>
                    <polygon id="Fill-31" fill="#FFFFFF" mask="url(#mask-6)" points="200.375 183.85 210.664 183.85 210.664 182.85 200.375 182.85"></polygon>
                    <polygon id="Fill-32" fill="#FFFFFF" mask="url(#mask-6)" points="206.188 179.186 212.785 179.186 212.785 178.186 206.188 178.186"></polygon>
                    <polygon id="Fill-33" fill="#FFFFFF" mask="url(#mask-6)" points="222.826 179.186 229.423 179.186 229.423 178.186 222.826 178.186"></polygon>
                    <polygon id="Fill-34" fill="#FFFFFF" mask="url(#mask-6)" points="206.187 174.474 217 174.474 217 173.474 206.187 173.474"></polygon>
                    <polygon id="Fill-35" fill="#FFFFFF" mask="url(#mask-6)" points="159.192 175.548 160.192 175.548 160.192 172.04 159.192 172.04"></polygon>
                    <polygon id="Fill-36" fill="#FFFFFF" mask="url(#mask-6)" points="170.816 173.974 171.816 173.974 171.816 171.791 170.816 171.791"></polygon>
                    <polygon id="Fill-37" fill="#FFFFFF" mask="url(#mask-6)" points="182.44 173.974 183.44 173.974 183.44 172.715 182.44 172.715"></polygon>
                    <polygon id="Fill-38" fill="#FFFFFF" mask="url(#mask-6)" points="188.252 186.04 189.252 186.04 189.252 183.35 188.252 183.35"></polygon>
                    <polygon id="Fill-39" fill="#FFFFFF" mask="url(#mask-6)" points="165.004 186.04 166.004 186.04 166.004 183.35 165.004 183.35"></polygon>
                    <polygon id="Fill-40" fill="#FFFFFF" mask="url(#mask-6)" points="194.064 174.082 195.064 174.082 195.064 171.383 194.064 171.383"></polygon>
                    <polygon id="Fill-41" fill="#FFFFFF" mask="url(#mask-6)" points="199.876 184.694 200.876 184.694 200.876 183.349 199.876 183.349"></polygon>
                    <path d="M229.923,178.186 L242.052,178.186 L242.052,174.582 L229.923,174.582 L229.923,178.186 Z M228.923,179.186 L243.052,179.186 L243.052,173.582 L228.923,173.582 L228.923,179.186 Z" id="Fill-42" fill="#FFFFFF" mask="url(#mask-6)"></path>
                    <path d="M237.227,182.796 L249.356,182.796 L249.356,179.191 L237.227,179.191 L237.227,182.796 Z M236.227,183.796 L250.356,183.796 L250.356,178.191 L236.227,178.191 L236.227,183.796 Z" id="Fill-43" fill="#FFFFFF" mask="url(#mask-6)"></path>
                    <path d="M243.052,178.186 L255.181,178.186 L255.181,174.582 L243.052,174.582 L243.052,178.186 Z M242.052,179.186 L256.181,179.186 L256.181,173.582 L242.052,173.582 L242.052,179.186 Z" id="Fill-44" fill="#FFFFFF" mask="url(#mask-6)"></path>
                    <path d="M255.909,178.186 L266.533,178.186 L266.533,174.473 L255.909,174.473 L255.909,178.186 Z M254.908,179.186 L267.532,179.186 L267.532,173.473 L254.908,173.473 L254.908,179.186 Z" id="Fill-45" fill="#FFFFFF" mask="url(#mask-6)"></path>
                    <path d="M267.69,178.186 L278.314,178.186 L278.314,174.473 L267.69,174.473 L267.69,178.186 Z M266.69,179.186 L279.314,179.186 L279.314,173.473 L266.69,173.473 L266.69,179.186 Z" id="Fill-46" fill="#FFFFFF" mask="url(#mask-6)"></path>
                    <path d="M279.314,178.186 L289.938,178.186 L289.938,174.473 L279.314,174.473 L279.314,178.186 Z M278.313,179.186 L290.937,179.186 L290.937,173.473 L278.313,173.473 L278.313,179.186 Z" id="Fill-47" fill="#FFFFFF" mask="url(#mask-6)"></path>
                    <path d="M290.937,178.186 L301.561,178.186 L301.561,174.473 L290.937,174.473 L290.937,178.186 Z M289.937,179.186 L302.561,179.186 L302.561,173.473 L289.937,173.473 L289.937,179.186 Z" id="Fill-48" fill="#FFFFFF" mask="url(#mask-6)"></path>
                    <path d="M302.561,178.186 L313.185,178.186 L313.185,174.473 L302.561,174.473 L302.561,178.186 Z M301.561,179.186 L314.185,179.186 L314.185,173.473 L301.561,173.473 L301.561,179.186 Z" id="Fill-49" fill="#FFFFFF" mask="url(#mask-6)"></path>
                    <path d="M261.878,182.85 L272.502,182.85 L272.502,179.137 L261.878,179.137 L261.878,182.85 Z M260.878,183.85 L273.502,183.85 L273.502,178.137 L260.878,178.137 L260.878,183.85 Z" id="Fill-50" fill="#FFFFFF" mask="url(#mask-6)"></path>
                    <path d="M273.502,182.85 L284.126,182.85 L284.126,179.137 L273.502,179.137 L273.502,182.85 Z M272.501,183.85 L285.125,183.85 L285.125,178.137 L272.501,178.137 L272.501,183.85 Z" id="Fill-51" fill="#FFFFFF" mask="url(#mask-6)"></path>
                    <path d="M285.125,182.85 L295.749,182.85 L295.749,179.137 L285.125,179.137 L285.125,182.85 Z M284.125,183.85 L296.749,183.85 L296.749,178.137 L284.125,178.137 L284.125,183.85 Z" id="Fill-52" fill="#FFFFFF" mask="url(#mask-6)"></path>
                    <path d="M296.749,182.85 L307.373,182.85 L307.373,179.137 L296.749,179.137 L296.749,182.85 Z M295.749,183.85 L308.373,183.85 L308.373,178.137 L295.749,178.137 L295.749,183.85 Z" id="Fill-53" fill="#FFFFFF" mask="url(#mask-6)"></path>
                    <polygon id="Fill-54" fill="#FFFFFF" mask="url(#mask-6)" points="248.497 179.137 258.236 179.137 258.236 178.137 248.497 178.137"></polygon>
                    <polygon id="Fill-55" fill="#FFFFFF" mask="url(#mask-6)" points="252.11 174.474 261.378 174.474 261.378 173.474 252.11 173.474"></polygon>
                    <polygon id="Fill-56" fill="#FFFFFF" mask="url(#mask-6)" points="256.743 183.85 262.948 183.85 262.948 182.85 256.743 182.85"></polygon>
                    <polygon id="Fill-57" fill="#FFFFFF" mask="url(#mask-6)" points="307.873 183.85 318.162 183.85 318.162 182.85 307.873 182.85"></polygon>
                    <polygon id="Fill-58" fill="#FFFFFF" mask="url(#mask-6)" points="313.684 179.186 320.282 179.186 320.282 178.186 313.684 178.186"></polygon>
                    <polygon id="Fill-59" fill="#FFFFFF" mask="url(#mask-6)" points="313.684 174.474 324.497 174.474 324.497 173.474 313.684 173.474"></polygon>
                    <polygon id="Fill-60" fill="#FFFFFF" mask="url(#mask-6)" points="266.69 175.548 267.69 175.548 267.69 172.04 266.69 172.04"></polygon>
                    <polygon id="Fill-61" fill="#FFFFFF" mask="url(#mask-6)" points="278.314 173.974 279.314 173.974 279.314 171.791 278.314 171.791"></polygon>
                    <polygon id="Fill-62" fill="#FFFFFF" mask="url(#mask-6)" points="289.937 173.974 290.937 173.974 290.937 172.715 289.937 172.715"></polygon>
                    <polygon id="Fill-63" fill="#FFFFFF" mask="url(#mask-6)" points="295.749 186.04 296.749 186.04 296.749 183.35 295.749 183.35"></polygon>
                    <polygon id="Fill-64" fill="#FFFFFF" mask="url(#mask-6)" points="272.502 186.04 273.502 186.04 273.502 183.35 272.502 183.35"></polygon>
                    <polygon id="Fill-65" fill="#FFFFFF" mask="url(#mask-6)" points="301.561 174.082 302.561 174.082 302.561 171.383 301.561 171.383"></polygon>
                    <polygon id="Fill-66" fill="#FFFFFF" mask="url(#mask-6)" points="307.373 184.694 308.373 184.694 308.373 183.349 307.373 183.349"></polygon>
                    <path d="M28.412,178.186 L39.036,178.186 L39.036,174.473 L28.412,174.473 L28.412,178.186 Z M27.411,179.186 L40.035,179.186 L40.035,173.473 L27.411,173.473 L27.411,179.186 Z" id="Fill-67" fill="#FFFFFF" mask="url(#mask-6)"></path>
                    <path d="M40.192,178.186 L50.816,178.186 L50.816,174.473 L40.192,174.473 L40.192,178.186 Z M39.192,179.186 L51.816,179.186 L51.816,173.473 L39.192,173.473 L39.192,179.186 Z" id="Fill-68" fill="#FFFFFF" mask="url(#mask-6)"></path>
                    <path d="M51.816,178.186 L62.44,178.186 L62.44,174.473 L51.816,174.473 L51.816,178.186 Z M50.816,179.186 L63.44,179.186 L63.44,173.473 L50.816,173.473 L50.816,179.186 Z" id="Fill-69" fill="#FFFFFF" mask="url(#mask-6)"></path>
                    <path d="M63.44,178.186 L74.064,178.186 L74.064,174.473 L63.44,174.473 L63.44,178.186 Z M62.44,179.186 L75.064,179.186 L75.064,173.473 L62.44,173.473 L62.44,179.186 Z" id="Fill-70" fill="#FFFFFF" mask="url(#mask-6)"></path>
                    <path d="M75.064,178.186 L85.688,178.186 L85.688,174.473 L75.064,174.473 L75.064,178.186 Z M74.064,179.186 L86.688,179.186 L86.688,173.473 L74.064,173.473 L74.064,179.186 Z" id="Fill-71" fill="#FFFFFF" mask="url(#mask-6)"></path>
                    <path d="M34.38,182.85 L45.004,182.85 L45.004,179.137 L34.38,179.137 L34.38,182.85 Z M33.38,183.85 L46.004,183.85 L46.004,178.137 L33.38,178.137 L33.38,183.85 Z" id="Fill-72" fill="#FFFFFF" mask="url(#mask-6)"></path>
                    <path d="M46.004,182.85 L56.628,182.85 L56.628,179.137 L46.004,179.137 L46.004,182.85 Z M45.004,183.85 L57.628,183.85 L57.628,178.137 L45.004,178.137 L45.004,183.85 Z" id="Fill-73" fill="#FFFFFF" mask="url(#mask-6)"></path>
                    <path d="M57.628,182.85 L68.252,182.85 L68.252,179.137 L57.628,179.137 L57.628,182.85 Z M56.628,183.85 L69.252,183.85 L69.252,178.137 L56.628,178.137 L56.628,183.85 Z" id="Fill-74" fill="#FFFFFF" mask="url(#mask-6)"></path>
                    <path d="M69.252,182.85 L79.876,182.85 L79.876,179.137 L69.252,179.137 L69.252,182.85 Z M68.252,183.85 L80.876,183.85 L80.876,178.137 L68.252,178.137 L68.252,183.85 Z" id="Fill-75" fill="#FFFFFF" mask="url(#mask-6)"></path>
                    <polygon id="Fill-76" fill="#FFFFFF" mask="url(#mask-6)" points="21 179.137 30.739 179.137 30.739 178.137 21 178.137"></polygon>
                    <polygon id="Fill-77" fill="#FFFFFF" mask="url(#mask-6)" points="24.612 174.474 33.88 174.474 33.88 173.474 24.612 173.474"></polygon>
                    <polygon id="Fill-78" fill="#FFFFFF" mask="url(#mask-6)" points="29.246 183.85 35.451 183.85 35.451 182.85 29.246 182.85"></polygon>
                    <polygon id="Fill-79" fill="#FFFFFF" mask="url(#mask-6)" points="80.375 183.85 90.664 183.85 90.664 182.85 80.375 182.85"></polygon>
                    <polygon id="Fill-80" fill="#FFFFFF" mask="url(#mask-6)" points="86.188 179.186 92.785 179.186 92.785 178.186 86.188 178.186"></polygon>
                    <polygon id="Fill-81" fill="#FFFFFF" mask="url(#mask-6)" points="102.826 179.186 109.423 179.186 109.423 178.186 102.826 178.186"></polygon>
                    <polygon id="Fill-82" fill="#FFFFFF" mask="url(#mask-6)" points="86.187 174.474 97 174.474 97 173.474 86.187 173.474"></polygon>
                    <polygon id="Fill-83" fill="#FFFFFF" mask="url(#mask-6)" points="39.192 175.548 40.192 175.548 40.192 172.04 39.192 172.04"></polygon>
                    <polygon id="Fill-84" fill="#FFFFFF" mask="url(#mask-6)" points="50.816 173.974 51.816 173.974 51.816 171.791 50.816 171.791"></polygon>
                    <polygon id="Fill-85" fill="#FFFFFF" mask="url(#mask-6)" points="62.44 173.974 63.44 173.974 63.44 172.715 62.44 172.715"></polygon>
                    <polygon id="Fill-86" fill="#FFFFFF" mask="url(#mask-6)" points="68.252 186.04 69.252 186.04 69.252 183.35 68.252 183.35"></polygon>
                    <polygon id="Fill-87" fill="#FFFFFF" mask="url(#mask-6)" points="45.004 186.04 46.004 186.04 46.004 183.35 45.004 183.35"></polygon>
                    <polygon id="Fill-88" fill="#FFFFFF" mask="url(#mask-6)" points="74.064 174.082 75.064 174.082 75.064 171.383 74.064 171.383"></polygon>
                    <polygon id="Fill-89" fill="#FFFFFF" mask="url(#mask-6)" points="79.876 184.694 80.876 184.694 80.876 183.349 79.876 183.349"></polygon>
                    <path d="M109.923,178.186 L122.052,178.186 L122.052,174.582 L109.923,174.582 L109.923,178.186 Z M108.923,179.186 L123.052,179.186 L123.052,173.582 L108.923,173.582 L108.923,179.186 Z" id="Fill-90" fill="#FFFFFF" mask="url(#mask-6)"></path>
                    <path d="M117.227,182.796 L129.356,182.796 L129.356,179.191 L117.227,179.191 L117.227,182.796 Z M116.227,183.796 L130.356,183.796 L130.356,178.191 L116.227,178.191 L116.227,183.796 Z" id="Fill-91" fill="#FFFFFF" mask="url(#mask-6)"></path>
                    <path d="M123.052,178.186 L135.181,178.186 L135.181,174.582 L123.052,174.582 L123.052,178.186 Z M122.052,179.186 L136.181,179.186 L136.181,173.582 L122.052,173.582 L122.052,179.186 Z" id="Fill-92" fill="#FFFFFF" mask="url(#mask-6)"></path>
                    <path d="M416.022,178.186 L426.646,178.186 L426.646,174.473 L416.022,174.473 L416.022,178.186 Z M415.022,179.186 L427.646,179.186 L427.646,173.473 L415.022,173.473 L415.022,179.186 Z" id="Fill-93" fill="#FFFFFF" mask="url(#mask-6)"></path>
                    <path d="M410.21,182.85 L420.834,182.85 L420.834,179.137 L410.21,179.137 L410.21,182.85 Z M409.21,183.85 L421.834,183.85 L421.834,178.137 L409.21,178.137 L409.21,183.85 Z" id="Fill-94" fill="#FFFFFF" mask="url(#mask-6)"></path>
                    <polygon id="Fill-95" fill="#FFFFFF" mask="url(#mask-6)" points="421.333 183.85 431.622 183.85 431.622 182.85 421.333 182.85"></polygon>
                    <polygon id="Fill-96" fill="#FFFFFF" mask="url(#mask-6)" points="427.145 174.474 437.958 174.474 437.958 173.474 427.145 173.474"></polygon>
                    <polygon id="Fill-97" fill="#FFFFFF" mask="url(#mask-6)" points="403.398 173.974 404.398 173.974 404.398 172.715 403.398 172.715"></polygon>
                    <polygon id="Fill-98" fill="#FFFFFF" mask="url(#mask-6)" points="409.21 186.04 410.21 186.04 410.21 183.35 409.21 183.35"></polygon>
                    <polygon id="Fill-99" fill="#FFFFFF" mask="url(#mask-6)" points="415.022 174.082 416.022 174.082 416.022 171.383 415.022 171.383"></polygon>
                    <polygon id="Fill-100" fill="#FFFFFF" mask="url(#mask-6)" points="420.834 184.694 421.834 184.694 421.834 183.349 420.834 183.349"></polygon>
                    <path d="M357.334,178.186 L367.958,178.186 L367.958,174.473 L357.334,174.473 L357.334,178.186 Z M356.333,179.186 L368.957,179.186 L368.957,173.473 L356.333,173.473 L356.333,179.186 Z" id="Fill-101" fill="#FFFFFF" mask="url(#mask-6)"></path>
                    <path d="M368.957,178.186 L379.581,178.186 L379.581,174.473 L368.957,174.473 L368.957,178.186 Z M367.957,179.186 L380.581,179.186 L380.581,173.473 L367.957,173.473 L367.957,179.186 Z" id="Fill-102" fill="#FFFFFF" mask="url(#mask-6)"></path>
                    <path d="M351.522,182.85 L362.146,182.85 L362.146,179.137 L351.522,179.137 L351.522,182.85 Z M350.521,183.85 L363.145,183.85 L363.145,178.137 L350.521,178.137 L350.521,183.85 Z" id="Fill-103" fill="#FFFFFF" mask="url(#mask-6)"></path>
                    <path d="M363.145,182.85 L373.769,182.85 L373.769,179.137 L363.145,179.137 L363.145,182.85 Z M362.145,183.85 L374.769,183.85 L374.769,178.137 L362.145,178.137 L362.145,183.85 Z" id="Fill-104" fill="#FFFFFF" mask="url(#mask-6)"></path>
                    <path d="M380.581,182.85 L391.205,182.85 L391.205,179.137 L380.581,179.137 L380.581,182.85 Z M379.581,183.85 L392.205,183.85 L392.205,178.137 L379.581,178.137 L379.581,183.85 Z" id="Fill-105" fill="#FFFFFF" mask="url(#mask-6)"></path>
                    <polygon id="Fill-106" fill="#FFFFFF" mask="url(#mask-6)" points="338.141 179.137 347.88 179.137 347.88 178.137 338.141 178.137"></polygon>
                    <polygon id="Fill-107" fill="#FFFFFF" mask="url(#mask-6)" points="346.387 183.85 352.592 183.85 352.592 182.85 346.387 182.85"></polygon>
                    <polygon id="Fill-108" fill="#FFFFFF" mask="url(#mask-6)" points="397.516 183.85 407.805 183.85 407.805 182.85 397.516 182.85"></polygon>
                    <polygon id="Fill-109" fill="#FFFFFF" mask="url(#mask-6)" points="403.328 174.474 414.141 174.474 414.141 173.474 403.328 173.474"></polygon>
                    <polygon id="Fill-110" fill="#FFFFFF" mask="url(#mask-6)" points="356.334 175.548 357.334 175.548 357.334 172.04 356.334 172.04"></polygon>
                    <polygon id="Fill-111" fill="#FFFFFF" mask="url(#mask-6)" points="367.957 173.974 368.957 173.974 368.957 171.791 367.957 171.791"></polygon>
                    <polygon id="Fill-112" fill="#FFFFFF" mask="url(#mask-6)" points="379.581 173.974 380.581 173.974 380.581 172.715 379.581 172.715"></polygon>
                    <polygon id="Fill-113" fill="#FFFFFF" mask="url(#mask-6)" points="385.393 186.04 386.393 186.04 386.393 183.35 385.393 183.35"></polygon>
                    <polygon id="Fill-114" fill="#FFFFFF" mask="url(#mask-6)" points="362.145 186.04 363.145 186.04 363.145 183.35 362.145 183.35"></polygon>
                    <polygon id="Fill-115" fill="#FFFFFF" mask="url(#mask-6)" points="391.205 174.082 392.205 174.082 392.205 171.383 391.205 171.383"></polygon>
                    <path d="M158.3336,117.3329 C158.3336,117.3329 159.6666,111.3329 165.0006,110.3329 C170.3336,109.3329 183.6696,105.6699 183.6696,105.6699 L158.3336,117.3329 Z" id="Fill-116" fill="#292480" mask="url(#mask-6)"></path>
                    <path d="M143.3175,52.9472 C143.3175,52.9472 139.5465,52.6142 137.9935,56.3852 C136.4415,60.1562 133.5575,63.4832 126.9025,62.1522 C120.2485,60.8222 121.8005,63.2612 118.0295,63.0402 C114.2455,62.8172 117.8085,57.2722 125.1285,55.9412 C132.4485,54.6112 139.1035,48.3992 142.2085,50.1752 C145.3145,51.9492 143.3175,52.9472 143.3175,52.9472" id="Fill-117" fill="#292480" mask="url(#mask-6)"></path>
                    <path d="M317.438,62.5029 L275.563,62.5029 C274.979,62.5029 274.501,62.0249 274.501,61.4409 C274.501,60.8569 274.979,60.3789 275.563,60.3789 L317.438,60.3789 C318.022,60.3789 318.5,60.8569 318.5,61.4409 C318.5,62.0249 318.022,62.5029 317.438,62.5029" id="Fill-118" fill="#FDE3CA" mask="url(#mask-6)"></path>
                    <path d="M308.9346,69.912 L267.0596,69.912 C266.4756,69.912 265.9976,69.434 265.9976,68.85 C265.9976,68.266 266.4756,67.789 267.0596,67.789 L308.9346,67.789 C309.5186,67.789 309.9966,68.266 309.9966,68.85 C309.9966,69.434 309.5186,69.912 308.9346,69.912" id="Fill-119" fill="#FDE3CA" mask="url(#mask-6)"></path>
                    <path d="M330.9337,80.4218 L289.0587,80.4218 C288.4757,80.4218 287.9967,79.9438 287.9967,79.3598 C287.9967,78.7758 288.4757,78.2988 289.0587,78.2988 L330.9337,78.2988 C331.5177,78.2988 331.9957,78.7758 331.9957,79.3598 C331.9957,79.9438 331.5177,80.4218 330.9337,80.4218" id="Fill-120" fill="#FDE3CA" mask="url(#mask-6)"></path>
                    <path d="M322.794,89.87 L280.919,89.87 C280.335,89.87 279.857,89.392 279.857,88.808 C279.857,88.224 280.335,87.746 280.919,87.746 L322.794,87.746 C323.378,87.746 323.856,88.224 323.856,88.808 C323.856,89.392 323.378,89.87 322.794,89.87" id="Fill-121" fill="#FDE3CA" mask="url(#mask-6)"></path>
                    <polygon id="Fill-122" fill="#FDE3CA" mask="url(#mask-6)" points="308.9073 88.3095 307.2553 87.1835 313.6913 77.7355 315.3443 78.8615"></polygon>
                    <polygon id="Fill-123" fill="#FDE3CA" mask="url(#mask-6)" points="296.9464 80.1679 294.1174 69.0919 296.0544 68.5969 298.8834 79.6729"></polygon>
                    <polygon id="Fill-124" fill="#FDE3CA" mask="url(#mask-6)" points="286.0381 69.2714 283.8001 61.3414 285.7241 60.7984 287.9621 68.7284"></polygon>
                    <polygon id="Fill-125" fill="#292480" mask="url(#mask-6)" points="163.6666 130.3329 186.3336 165.6669 189.9996 154.9999 176.3336 122.9999"></polygon>
                </g>
                <g id="Group-150" transform="translate(323.000000, 66.000000)">
                    <path d="M95.2095,23.6142 L94.4255,27.0112 C94.4255,27.0112 97.3005,33.2842 96.5165,36.4212 C95.7325,39.5562 93.9025,43.4772 93.9025,43.4772 L56.0075,56.5452 L49.9395,51.4342 L46.0765,48.1812 C46.0765,48.1812 57.5755,42.1702 59.6665,41.6472 C61.7575,41.1252 68.2915,38.5112 68.5525,37.4662 C68.8135,36.4212 72.2105,34.0682 74.8245,31.4552 C77.4385,28.8422 81.8805,25.9672 81.8805,25.9672 L85.2785,23.6142 L95.2095,23.6142 Z" id="Fill-127" fill="#FDD4AB"></path>
                    <path d="M16.9678,37.0683 L54.6668,49.0003 L49.9398,51.4343 L36.1448,57.5893 L35.9998,62.3333 L16.5438,50.0103 C16.5438,50.0103 8.6048,45.6923 16.9678,37.0683" id="Fill-129" fill="#FDD4AB"></path>
                    <path d="M21.2481,49.4882 C21.2481,49.4882 22.8161,54.4542 19.4191,62.0332 C16.0211,69.6122 10.7411,84.2802 10.7411,84.2802 L0.5481,81.6672 C0.5481,81.6672 9.7891,47.9702 11.1421,44.5112 C14.0551,37.0682 18.6351,30.6712 21.2481,49.4882" id="Fill-131" fill="#FDD4AB"></path>
                    <path d="M93.1187,23.0917 L93.1187,16.8197 L88.4147,16.8197 L84.4937,21.2627 L85.2787,23.6137 C85.2787,23.6137 93.6417,25.4447 93.1187,23.0917" id="Fill-133" fill="#FDD4AB"></path>
                    <path d="M93.1187,16.8193 C93.1187,16.8193 87.1067,22.1913 84.4937,21.2623 C81.8817,20.3333 81.2157,9.6673 81.5487,7.6673 C81.8817,5.6673 90.8817,0.6673 92.8817,4.3333 C94.8817,8.0003 93.1187,16.8193 93.1187,16.8193" id="Fill-135" fill="#FDD4AB"></path>
                    <path d="M91.2154,19.9999 C91.2154,19.9999 95.2154,20.9999 95.5484,17.3329 C95.8824,13.6669 97.8824,5.3329 95.8824,2.6669 C93.8824,-0.0001 89.2154,0.6669 85.2154,2.6669 C81.2154,4.6669 80.5484,2.6669 80.5484,2.6669 C80.5484,2.6669 78.2154,4.6669 81.5484,7.6669 C84.8824,10.6669 92.8824,3.3329 91.2154,19.9999" id="Fill-137" fill="#FDD4AB"></path>
                    <polygon id="Fill-139" fill="#FDD4AB" points="46.0762 48.1816 45.5482 46.6666 22.5482 38.9996 21.2152 15.6666 20.2152 15.6666 21.5482 39.3326"></polygon>
                    <path d="M69.3897,45.6122 L43.4797,37.9552 C43.4797,37.9552 39.4727,37.3322 36.6267,37.4442 C34.9617,37.5092 36.3457,37.3552 40.2157,39.3332 C43.9657,41.2502 46.2307,42.3762 46.2307,42.3762 L58.3687,49.2002 L69.3897,45.6122 Z" id="Fill-141" fill="#FDD4AB"></path>
                    <path d="M34.2984,40.8329 C34.2984,40.8329 38.6314,38.7499 40.3814,38.7499 C42.1314,38.7499 37.0484,36.7499 35.8814,37.6669 C34.7154,38.5829 30.7984,42.7499 34.2984,40.8329" id="Fill-143" fill="#FDD4AB"></path>
                    <path d="M41.4654,38.9999 C41.4654,38.9999 39.1324,40.6669 36.9654,39.6669 C34.7984,38.6669 38.9654,38.3329 38.9654,38.3329 L41.4654,38.9999 Z" id="Fill-145" fill="#FDD4AB"></path>
                    <g id="Group-149" transform="translate(7.000000, 40.000000)">
                        <mask id="mask-8" fill="white">
                            <use xlink:href="#path-7"></use>
                        </mask>
                        <g id="Clip-148"></g>
                        <path d="M115.0489,18.2919 C115.0489,18.2919 103.5909,-4.0461 86.9029,1.4779 C70.2159,6.9999 67.5489,7.6669 60.8819,9.6669 C54.2159,11.6669 41.4079,6.8469 29.1449,15.5899 C16.8819,24.3329 12.2159,33.6669 12.2159,38.3329 C12.2159,42.9999 -5.1181,47.6669 2.8819,50.3329 L124.8959,50.3329 C124.8959,50.3329 131.8829,18.9169 115.0489,18.2919" id="Fill-147" fill="#FDE3CA" mask="url(#mask-8)"></path>
                    </g>
                </g>
                <g id="Group-238">
                    <path d="M211.67,96.9999 C210.62,109.1399 212.13,118.9899 203.67,120.9999 C195.2,123.0099 169.67,128.3299 161,135.6699 C152.33,142.9999 129.67,172.3299 129.67,172.3299 L118.33,169.6699 C118.33,169.6699 143.644,131.6089 147.67,125.6699 C154,116.3329 179.67,106.9999 183.67,105.6699 C183.67,105.6699 209.67,112.9999 211.67,96.9999" id="Fill-151" fill="#293E96"></path>
                    <path d="M183.4986,180.1025 C183.4986,180.1025 186.0116,150.7235 198.2296,140.4335 L258.3336,121.9995 C258.3336,121.9995 262.2336,127.8205 255.5366,131.4185 C248.8396,135.0165 244.5986,145.4875 250.2876,152.0975 C255.9776,158.7075 262.9546,156.9375 278.0856,153.4495 C278.0856,153.4495 286.6176,137.4115 286.2526,130.4535 C285.8876,123.4945 277.0236,106.8485 277.0236,106.8485 L286.4976,103.0585 C286.4976,103.0585 295.6426,118.4925 296.1656,124.9585 C296.6896,131.4255 297.1946,139.2975 297.1946,139.2975 C297.1946,139.2975 291.6566,144.3555 290.1256,148.0965 C288.5946,151.8385 285.8676,156.9325 286.7596,164.2785 L183.4986,180.1025 Z" id="Fill-153" fill="#A9C3CF"></path>
                    <polygon id="Fill-155" fill="#C34158" points="294.1319 117.788 306.5809 133.417 297.1949 139.298 296.1659 124.959"></polygon>
                    <path d="M236.0069,173.3417 C237.6989,184.3817 230.1209,194.7027 219.0809,196.3947 C208.0409,198.0857 197.7189,190.5077 196.0279,179.4677 C194.3359,168.4287 201.9139,158.1077 212.9539,156.4147 C223.9939,154.7237 234.3159,162.3017 236.0069,173.3417" id="Fill-157" fill="#293E96"></path>
                    <path d="M223.3038,175.288 C223.9208,179.312 221.1578,183.075 217.1338,183.691 C213.1098,184.308 209.3478,181.546 208.7308,177.521 C208.1148,173.497 210.8768,169.735 214.9008,169.118 C218.9248,168.502 222.6868,171.265 223.3038,175.288" id="Fill-159" fill="#FDD4AB"></path>
                    <path d="M336.7549,157.9032 C338.4469,168.9432 330.8679,179.2642 319.8289,180.9562 C308.7889,182.6472 298.4669,175.0692 296.7759,164.0292 C295.0839,152.9892 302.6619,142.6692 313.7019,140.9762 C324.7419,139.2852 335.0629,146.8632 336.7549,157.9032" id="Fill-161" fill="#293E96"></path>
                    <path d="M324.6011,159.7655 C325.2651,164.0935 322.2941,168.1395 317.9661,168.8025 C313.6381,169.4655 309.5921,166.4945 308.9291,162.1665 C308.2661,157.8395 311.2371,153.7935 315.5641,153.1295 C319.8921,152.4665 323.9381,155.4375 324.6011,159.7655" id="Fill-163" fill="#FDD4AB"></path>
                    <path d="M221.0142,121.2763 C221.0142,121.2763 220.3652,129.2453 225.9172,128.8613 C231.4702,128.4783 262.3952,121.2483 262.3952,121.2483 C262.3952,121.2483 264.7372,120.0743 263.6662,117.6673 C262.5962,115.2583 242.3482,117.0723 241.4342,117.2123 C240.5212,117.3523 231.8252,114.0083 225.5332,115.6733 C219.2422,117.3393 217.3952,119.0253 221.0142,121.2763" id="Fill-165" fill="#C34158"></path>
                    <polygon id="Fill-167" fill="#C34158" points="279.73 106.2001 275.062 98.6111 282.809 100.3501 286.497 103.0581"></polygon>
                    <path d="M287.2115,83.3085 C287.2115,83.3085 273.0655,84.0735 272.3215,94.4755 C271.5775,104.8765 289.0655,98.4555 289.0655,98.4555 L287.2115,83.3085 Z" id="Fill-169" fill="#C34158"></path>
                    <path d="M289.4708,96.5234 C289.4708,96.5234 295.8178,90.6404 288.0538,85.7514 L289.4708,96.5234 Z" id="Fill-171" fill="#FAB165"></path>
                    <path d="M221.1192,131.1572 L195.9132,135.0192 C192.2442,135.5822 188.7812,133.0402 188.2192,129.3702 C187.6572,125.7002 190.1992,122.2372 193.8692,121.6762 L219.0742,117.8122 C222.7442,117.2512 226.2062,119.7932 226.7692,123.4632 C227.3312,127.1322 224.7892,130.5952 221.1192,131.1572" id="Fill-173" fill="#C34158"></path>
                    <path d="M198.2301,140.4335 C198.2301,140.4335 193.9271,135.7915 195.9141,135.0195 C197.8991,134.2475 261.1851,117.9265 262.3961,121.2475 L198.2301,140.4335 Z" id="Fill-175" fill="#FAB165"></path>
                    <path d="M189.1383,181.8095 C189.1383,181.8095 190.0313,157.1225 205.0783,148.5035 C220.1243,139.8845 239.8763,137.5595 244.3333,148.3325 C248.7903,159.1075 250.3473,170.7935 242.5263,173.1615 C234.7053,175.5285 189.1383,181.8095 189.1383,181.8095" id="Fill-177" fill="#E1767B"></path>
                    <path d="M304.2647,156.8964 C304.2647,156.8964 298.2687,166.8384 289.1517,166.2304 C283.1587,165.8314 285.2517,157.4064 286.3197,153.8134 C290.1947,140.7744 303.9787,130.4444 317.8057,130.7564 C330.6347,131.0464 333.9247,141.0714 334.7697,144.9524 L315.8747,147.5964 C315.8747,147.5964 308.9807,145.1434 304.2647,156.8964" id="Fill-179" fill="#E1767B"></path>
                    <path d="M236.0157,175.1073 L181.0787,183.5253 C178.7747,183.8783 176.5997,182.2823 176.2467,179.9773 L176.0617,178.7703 C175.7087,176.4653 177.3057,174.2913 179.6097,173.9383 L234.5467,165.5193 C236.8507,165.1673 239.0257,166.7633 239.3787,169.0683 L239.5637,170.2743 C239.9167,172.5793 238.3207,174.7533 236.0157,175.1073" id="Fill-181" fill="#FDE3CA"></path>
                    <polygon id="Fill-183" fill="#FDE3CA" points="182.2589 179.6025 171.8809 181.1925 171.4259 178.2275 181.8049 176.6365"></polygon>
                    <path d="M280.4986,97.4999 C279.6166,97.4999 278.8126,96.9129 278.5706,96.0269 C278.5376,95.9259 278.1476,94.8219 276.6076,94.0759 C274.6696,93.1399 270.7526,92.6399 263.1026,95.5999 C262.0716,95.9989 260.9146,95.4859 260.5156,94.4559 C260.1176,93.4259 260.6296,92.2679 261.6596,91.8689 C269.0266,89.0189 274.7176,88.5899 278.5796,90.5909 C281.6556,92.1869 282.3696,94.7299 282.4406,95.0149 C282.7076,96.0869 282.0566,97.1729 280.9846,97.4399 C280.8226,97.4809 280.6596,97.4999 280.4986,97.4999" id="Fill-185" fill="#A9C3CF"></path>
                    <mask id="mask-10" fill="white">
                        <use xlink:href="#path-9"></use>
                    </mask>
                    <g id="Clip-188"></g>
                    <polygon id="Fill-187" fill="#A9C3CF" mask="url(#mask-10)" points="5 196.833 317 196.833 317 195.833 5 195.833"></polygon>
                    <polygon id="Fill-189" fill="#A9C3CF" mask="url(#mask-10)" points="347 196.833 390 196.833 390 195.833 347 195.833"></polygon>
                    <polygon id="Fill-190" fill="#A9C3CF" mask="url(#mask-10)" points="347 196.833 390 196.833 390 195.833 347 195.833"></polygon>
                    <polygon id="Fill-191" fill="#A9C3CF" mask="url(#mask-10)" points="324 196.833 343 196.833 343 195.833 324 195.833"></polygon>
                    <polygon id="Fill-192" fill="#A9C3CF" mask="url(#mask-10)" points="395 196.833 452 196.833 452 195.833 395 195.833"></polygon>
                    <polygon id="Fill-193" fill="#A9C3CF" mask="url(#mask-10)" points="151 161.5 167.667 161.5 167.667 160.5 151 160.5"></polygon>
                    <polygon id="Fill-194" fill="#A9C3CF" mask="url(#mask-10)" points="161 152.833 183 152.833 183 151.833 161 151.833"></polygon>
                    <path d="M154.6666,50.3329 C154.6666,50.3329 160.3506,47.8539 162.0086,52.2609 L157.6246,41.2499 L154.6666,50.3329 Z" id="Fill-195" fill="#292480" mask="url(#mask-10)"></path>
                    <polygon id="Fill-196" fill="#A9C3CF" mask="url(#mask-10)" points="141 142.167 175 142.167 175 141.167 141 141.167"></polygon>
                    <path d="M209.2882,107.8017 C209.2882,107.8017 210.1792,118.6407 222.7542,117.6767 C235.3292,116.7137 252.0002,117.6667 252.0002,117.6667 L264.6832,149.8277 L272.5002,149.4997 L266.3702,116.6647 C266.3702,116.6647 263.4062,101.6137 253.4002,101.5987 C243.3932,101.5837 238.5622,100.4817 238.5622,100.4817 L209.2882,107.8017 Z" id="Fill-197" fill="#E1767B" mask="url(#mask-10)"></path>
                    <path d="M227.2388,58.7607 C227.2388,58.7607 216.9078,61.3687 214.4338,74.9587 C211.9598,88.5487 209.2878,107.8017 209.2878,107.8017 L238.5618,100.4817 L240.4888,73.8647 C240.4888,73.8647 238.9638,58.2677 227.2388,58.7607" id="Fill-198" fill="#B7B33E" mask="url(#mask-10)"></path>
                    <path d="M221.5274,78.1415 C221.5274,78.1415 220.5574,96.4535 227.9754,97.0115 L235.0844,90.1875 C235.0844,90.1875 231.2634,82.0815 233.5954,75.4585 C235.9274,68.8355 223.0964,63.7195 221.5274,78.1415" id="Fill-199" fill="#293E96" mask="url(#mask-10)"></path>
                    <path d="M267.6465,93.6171 C267.6465,95.4851 266.1315,97.0001 264.2635,97.0001 C262.3955,97.0001 260.8805,95.4851 260.8805,93.6171 C260.8805,91.7491 262.3955,90.2341 264.2635,90.2341 C266.1315,90.2341 267.6465,91.7491 267.6465,93.6171" id="Fill-200" fill="#A9C3CF" mask="url(#mask-10)"></path>
                    <polygon id="Fill-201" fill="#FCC59C" mask="url(#mask-10)" points="261.0157 96.4931 227.9757 97.0121 235.0847 90.1871 260.3807 91.7341"></polygon>
                    <path d="M140.5001,39.4999 C140.5001,39.4999 135.0001,35.4999 132.0001,44.4999 C129.0001,53.4999 122.0001,47.4999 117.5001,53.9999 C113.0001,60.4999 113.0001,67.9999 121.5001,62.9999 C130.0001,57.9999 135.0001,50.4999 143.0001,54.4999 C151.0001,58.4999 155.0001,51.9999 156.5001,47.9999 C158.0001,43.9999 166.6631,39.4009 171.5001,43.4999 C176.3371,47.5999 180.5001,40.9999 176.0001,33.9999 C171.5001,26.9999 162.0001,23.9999 153.5001,31.9999 C145.0001,39.9999 147.5001,39.4999 140.5001,39.4999" id="Fill-202" fill="#293E96" mask="url(#mask-10)"></path>
                    <path d="M260.3809,91.7343 C260.3809,91.7343 263.4999,87.0003 266.9999,89.0003 C270.4999,91.0003 268.6319,91.3873 261.0159,96.4933 L260.3809,91.7343 Z" id="Fill-203" fill="#FCC59C" mask="url(#mask-10)"></path>
                    <path d="M264.6832,149.828 C264.6832,149.828 262.1712,157.898 278.0852,153.449 C278.0852,153.449 280.3162,149.172 272.5002,149.5 L264.6832,149.828 Z" id="Fill-204" fill="#293E96" mask="url(#mask-10)"></path>
                    <path d="M227.2388,58.7607 L229.4998,51.9997 L236.4998,55.9997 L235.9998,63.4997 C235.9998,63.4997 232.9768,68.0207 227.2388,58.7607" id="Fill-205" fill="#FCC59C" mask="url(#mask-10)"></path>
                    <path d="M229.5001,51.9999 C229.5001,51.9999 242.0001,64.4999 243.0001,51.9999 C244.0001,39.4999 245.0001,36.4999 235.0001,34.4999 C235.0001,34.4999 225.5001,34.4999 229.5001,51.9999" id="Fill-206" fill="#FCC59C" mask="url(#mask-10)"></path>
                    <path d="M176.3375,47.5995 C176.3375,47.5995 167.3855,65.1835 162.0085,52.2605 C156.6305,39.3385 154.5335,36.4985 164.4575,30.9235 C164.4575,30.9235 174.5405,27.6435 176.3375,47.5995" id="Fill-207" fill="#FCC59C" mask="url(#mask-10)"></path>
                    <path d="M243.5001,41.4999 C242.2601,42.3699 240.5701,41.9499 238.7701,41.1899 C241.4901,37.8199 243.8001,34.6899 244.0001,33.4999 C243.5001,41.4999 248.5001,37.9999 243.5001,41.4999" id="Fill-208" fill="#C34158" mask="url(#mask-10)"></path>
                    <path d="M244.0001,33.4999 C243.8001,34.6899 241.4901,37.8199 238.7701,41.1899 C233.3001,38.9099 226.8701,33.5599 229.5001,51.9999 C229.5001,51.9999 223.5001,48.4999 224.5001,36.4999 C225.5001,24.4999 244.0001,33.4999 244.0001,33.4999" id="Fill-209" fill="#C34158" mask="url(#mask-10)"></path>
                    <path d="M185.0001,90.9999 C185.0001,90.9999 161.6671,85.6669 158.3331,85.6669 C155.0001,85.6669 149.6671,74.9999 153.6671,76.9999 C157.6671,78.9999 171.6841,84.7139 181.3421,81.1899 L185.0001,90.9999 Z" id="Fill-210" fill="#FCC59C" mask="url(#mask-10)"></path>
                    <path d="M211.6998,95.7197 L211.6698,96.9997 C209.6698,112.9997 183.6698,105.6697 183.6698,105.6697 C187.6698,104.3297 196.3298,85.6697 181.6698,79.6697 C166.9998,73.6697 166.9998,72.9997 170.3298,60.3297 C170.3298,60.3297 177.6698,41.6697 190.3298,57.6697 C190.3298,57.6697 211.2298,83.0607 211.6998,95.7197" id="Fill-211" fill="#A9C3CF" mask="url(#mask-10)"></path>
                    <path d="M179.6666,62.3329 C179.6666,62.3329 185.2126,74.2169 181.3416,81.1899 C179.5106,84.4899 180.5496,88.6269 183.8796,90.4019 L184.9996,90.9999 C184.9996,90.9999 194.3336,85.6669 192.3336,71.6669 C192.3336,71.6669 190.9996,56.9999 179.6666,62.3329" id="Fill-212" fill="#C34158" mask="url(#mask-10)"></path>
                    <polygon id="Fill-213" fill="#FCC59C" mask="url(#mask-10)" points="123.6666 170.9999 118.9996 177.3329 114.6666 174.6669 118.3306 169.6699"></polygon>
                    <path d="M119.0001,177.3329 C119.0001,177.3329 117.6671,176.9999 114.6671,174.6669 C111.6671,172.3329 106.6671,167.6669 102.6671,171.6669 L117.3331,182.6669 C117.3331,182.6669 119.3331,180.3329 119.0001,177.3329" id="Fill-214" fill="#C34158" mask="url(#mask-10)"></path>
                    <path d="M169.0001,50.4999 C169.0001,50.4999 171.6601,51.6599 170.3301,60.3299 C169.0001,68.9999 182.0001,56.9999 178.0001,49.4999 C174.0001,41.9999 169.0001,50.4999 169.0001,50.4999" id="Fill-215" fill="#FCC59C" mask="url(#mask-10)"></path>
                    <path d="M154.0001,38.4999 C154.0001,38.4999 160.5001,44.9999 163.5001,39.9999 C166.5001,34.9999 169.6631,32.4009 173.0001,39.9999 C176.3371,47.5999 175.0001,49.9999 178.0001,40.4999 C181.0001,30.9999 164.5001,25.4999 158.5001,29.9999 C152.5001,34.4999 154.0001,38.4999 154.0001,38.4999" id="Fill-216" fill="#293E96" mask="url(#mask-10)"></path>
                    <polygon id="Fill-217" fill="#FDD4AB" mask="url(#mask-10)" points="101.1827 131.0517 74.4607 109.3057 76.8177 106.9477 103.5397 128.6947"></polygon>
                    <polygon id="Fill-218" fill="#FDD4AB" mask="url(#mask-10)" points="74.7262 150.6777 101.1842 126.4797 102.9582 129.3017 76.5002 153.4997"></polygon>
                    <polygon id="Fill-219" fill="#FDE3CA" mask="url(#mask-10)" points="44.334 109.25 117.748 109.25 117.748 106.852 44.334 106.852"></polygon>
                    <path d="M111.7501,156.4999 L67.2501,156.4999 C65.4621,156.4999 64.0001,155.0369 64.0001,153.2499 C64.0001,151.4629 65.4621,149.9999 67.2501,149.9999 L111.7501,149.9999 C113.5381,149.9999 115.0001,151.4629 115.0001,153.2499 C115.0001,155.0369 113.5381,156.4999 111.7501,156.4999" id="Fill-220" fill="#FDE3CA" mask="url(#mask-10)"></path>
                    <path d="M106.3336,128.9999 C106.3336,132.3129 103.6466,134.9999 100.3336,134.9999 C97.0196,134.9999 94.3336,132.3129 94.3336,128.9999 C94.3336,125.6869 97.0196,122.9999 100.3336,122.9999 C103.6466,122.9999 106.3336,125.6869 106.3336,128.9999" id="Fill-221" fill="#FDD4AB" mask="url(#mask-10)"></path>
                    <polygon id="Fill-222" fill="#FDD4AB" mask="url(#mask-10)" points="90.2501 106.7499 89.5001 96.2499 96.2501 96.2499 95.5001 106.7499"></polygon>
                    <polygon id="Fill-223" fill="#FDE3CA" mask="url(#mask-10)" points="88.3751 96.6249 89.5001 93.8749 96.6251 93.8749 97.5001 96.4999"></polygon>
                    <polygon id="Fill-224" fill="#FFFFFF" mask="url(#mask-10)" points="40 70 67 70 67 43 40 43"></polygon>
                    <polygon id="Fill-225" fill="#FFFFFF" mask="url(#mask-10)" points="74 70 89.246 70 89.246 54.754 74 54.754"></polygon>
                    <polygon id="Fill-226" fill="#FFFFFF" mask="url(#mask-10)" points="55 93 70.246 93 70.246 77.754 55 77.754"></polygon>
                    <polygon id="Fill-227" fill="#A9C3CF" mask="url(#mask-10)" points="100.334 76.167 125.667 76.167 125.667 75.167 100.334 75.167"></polygon>
                    <polygon id="Fill-228" fill="#A9C3CF" mask="url(#mask-10)" points="111.667 81.5 137 81.5 137 80.5 111.667 80.5"></polygon>
                    <polygon id="Fill-229" fill="#FDE3CA" mask="url(#mask-10)" points="328.181 63.245 329.181 63.245 329.181 31.216 328.181 31.216"></polygon>
                    <polygon id="Fill-230" fill="#FDE3CA" mask="url(#mask-10)" points="335.045 49.976 336.045 49.976 336.045 31.999 335.045 31.999"></polygon>
                    <polygon id="Fill-231" fill="#FDE3CA" mask="url(#mask-10)" points="350.144 54.552 351.144 54.552 351.144 31 350.144 31"></polygon>
                    <polygon id="Fill-232" fill="#FDE3CA" mask="url(#mask-10)" points="358.38 44.943 359.38 44.943 359.38 31 358.38 31"></polygon>
                    <path d="M332.3482,66.4482 C332.3482,68.4732 330.7062,70.1152 328.6812,70.1152 C326.6562,70.1152 325.0152,68.4732 325.0152,66.4482 C325.0152,64.4232 326.6562,62.7812 328.6812,62.7812 C330.7062,62.7812 332.3482,64.4232 332.3482,66.4482" id="Fill-233" fill="#FFFFFF" mask="url(#mask-10)"></path>
                    <path d="M339.2115,49.3329 C339.2115,51.3579 337.5695,52.9999 335.5445,52.9999 C333.5195,52.9999 331.8785,51.3579 331.8785,49.3329 C331.8785,47.3089 333.5195,45.6669 335.5445,45.6669 C337.5695,45.6669 339.2115,47.3089 339.2115,49.3329" id="Fill-234" fill="#FFFFFF" mask="url(#mask-10)"></path>
                    <path d="M354.3111,55.4667 C354.3111,57.4917 352.6691,59.1337 350.6441,59.1337 C348.6191,59.1337 346.9781,57.4917 346.9781,55.4667 C346.9781,53.4417 348.6191,51.7997 350.6441,51.7997 C352.6691,51.7997 354.3111,53.4417 354.3111,55.4667" id="Fill-235" fill="#FFFFFF" mask="url(#mask-10)"></path>
                    <path d="M362.5469,43.1122 C362.5469,45.1372 360.9049,46.7792 358.8799,46.7792 C356.8559,46.7792 355.2139,45.1372 355.2139,43.1122 C355.2139,41.0882 356.8559,39.4462 358.8799,39.4462 C360.9049,39.4462 362.5469,41.0882 362.5469,43.1122" id="Fill-236" fill="#FFFFFF" mask="url(#mask-10)"></path>
                    <path d="M290.9195,59.0624 C290.8105,59.1714 290.7255,59.3034 290.6685,59.4504 C290.6265,59.3414 290.5685,59.2404 290.4965,59.1514 L290.4965,52.8174 C290.5475,52.8434 290.6005,52.8694 290.6545,52.8924 C290.7445,52.9314 290.8325,52.9844 290.9195,53.0484 L290.9195,59.0624 Z M305.0035,50.9164 C304.4495,49.5834 303.5095,48.5144 302.6015,47.4804 L302.5365,47.4074 C301.6255,46.3714 300.8405,45.4244 300.4495,44.3484 C300.0505,43.2454 300.1895,42.0924 300.8035,41.4134 C301.1245,41.0604 301.6745,40.8404 302.2065,40.8504 C302.4445,40.8554 302.8845,40.9144 303.1625,41.2504 C303.4555,41.6044 303.9805,41.6534 304.3345,41.3604 C304.6895,41.0664 304.7385,40.5414 304.4455,40.1874 C303.9265,39.5614 303.1445,39.2054 302.2435,39.1854 C301.2165,39.1604 300.2185,39.5784 299.5685,40.2964 C298.5295,41.4444 298.2675,43.2144 298.8845,44.9164 C299.3735,46.2664 300.2615,47.3404 301.2855,48.5054 L301.3505,48.5814 C302.2075,49.5554 303.0175,50.4764 303.4655,51.5554 C304.1555,53.2144 303.8705,55.2024 302.7385,56.6194 C302.1905,57.3044 301.4945,57.8484 300.7505,58.1924 C301.6575,52.3004 298.8455,47.1204 294.1455,44.6954 C294.1085,44.6764 294.0715,44.6604 294.0345,44.6454 C294.2035,44.2934 294.3045,43.9194 294.3045,43.5324 C294.3045,42.9564 294.1675,42.4194 293.9235,41.9484 C293.9385,41.9054 293.9465,41.8584 293.9465,41.8084 L293.9475,39.6344 C293.9475,39.3154 293.6155,39.1044 293.3265,39.2394 L291.4935,40.0964 C291.1995,40.0274 290.8915,39.9914 290.5735,39.9914 C290.2545,39.9914 289.9445,40.0284 289.6485,40.0974 L287.8135,39.2394 C287.5235,39.1044 287.1915,39.3154 287.1915,39.6344 L287.1915,41.8084 C287.1915,41.8634 287.2025,41.9144 287.2195,41.9594 C286.9815,42.4294 286.8465,42.9604 286.8465,43.5324 C286.8465,44.7794 287.8775,45.8784 288.9095,46.5374 L288.9095,58.9914 C288.6605,59.1964 288.5025,59.5064 288.5025,59.8554 C288.5025,60.3994 290.2355,60.3694 290.6535,60.0174 C291.0145,60.4464 292.8335,60.3004 292.8335,59.8554 C292.8335,59.5454 292.7085,59.2654 292.5055,59.0634 L292.5055,55.6294 C292.8545,56.4644 293.1865,57.3944 293.5105,58.2874 C293.5535,58.4054 293.6065,58.5174 293.6695,58.6244 C293.3925,58.7684 293.2025,59.0574 293.2025,59.3914 L293.2025,59.4094 C293.2025,59.8854 293.5895,60.2724 294.0665,60.2724 L297.8925,60.2724 C297.9525,60.2724 298.0115,60.2664 298.0685,60.2544 C298.1395,60.2564 298.2095,60.2584 298.2765,60.2604 C298.4895,60.2664 298.6895,60.2724 298.8845,60.2724 C299.1035,60.2724 299.3155,60.2654 299.5345,60.2424 C301.2025,60.0674 302.8855,59.1014 304.0395,57.6584 C305.5445,55.7734 305.9225,53.1274 305.0035,50.9164 Z" id="Fill-237" fill="#FDE3CA" mask="url(#mask-10)"></path>
                </g>
                <g id="Group-266" transform="translate(21.000000, 31.000000)">
                    <g id="Group-241">
                        <mask id="mask-12" fill="white">
                            <use xlink:href="#path-11"></use>
                        </mask>
                        <g id="Clip-240"></g>
                        <path d="M3.5787,112.9814 L23.2647,112.9814 L19.7607,133.9984 C19.2767,133.9704 14.9177,133.8364 13.4547,133.7924 L13.4257,133.7924 C12.0037,133.8354 7.5687,133.9704 7.0827,134.0004 L3.5787,112.9814 Z" id="Fill-239" fill="#FDD4AB" mask="url(#mask-12)"></path>
                    </g>
                    <g id="Group-244">
                        <mask id="mask-14" fill="white">
                            <use xlink:href="#path-13"></use>
                        </mask>
                        <g id="Clip-243"></g>
                        <path d="M23.5758,110.4941 L3.2668,110.4941 C3.3888,108.5121 5.0388,106.8781 7.1238,106.8781 L19.7198,106.8781 C21.8038,106.8781 23.4538,108.5121 23.5758,110.4941" id="Fill-242" fill="#FDD4AB" mask="url(#mask-14)"></path>
                    </g>
                    <g id="Group-247">
                        <mask id="mask-16" fill="white">
                            <use xlink:href="#path-15"></use>
                        </mask>
                        <g id="Clip-246"></g>
                        <path d="M23.5308,111.3759 L23.2638,112.9809 L3.5788,112.9809 L3.3118,111.3759 C3.2618,111.0779 3.2488,110.7809 3.2668,110.4939 L23.5758,110.4939 C23.5938,110.7809 23.5808,111.0779 23.5308,111.3759" id="Fill-245" fill="#FDD4AB" mask="url(#mask-16)"></path>
                    </g>
                    <g id="Group-250">
                        <mask id="mask-18" fill="white">
                            <use xlink:href="#path-17"></use>
                        </mask>
                        <g id="Clip-249"></g>
                        <path d="M15.1759,108.7978 L16.8539,108.1888 C16.8299,108.1228 14.5399,101.6168 17.7069,96.7218 L16.2079,95.7528 C12.5519,101.4018 15.0669,108.4978 15.1759,108.7978" id="Fill-248" fill="#FDD4AB" mask="url(#mask-18)"></path>
                    </g>
                    <g id="Group-253">
                        <mask id="mask-20" fill="white">
                            <use xlink:href="#path-19"></use>
                        </mask>
                        <g id="Clip-252"></g>
                        <path d="M15.2764,98.8769 C15.2764,98.8769 17.8644,99.3089 19.8054,94.5639 C21.7464,89.8179 24.7654,89.6029 26.7064,88.9559 C28.6484,88.3089 27.3534,84.8579 24.3344,84.6429 C21.3154,84.4269 17.6484,85.2899 16.5704,90.0339 C15.4914,94.7789 13.7664,96.9359 15.2764,98.8769" id="Fill-251" fill="#FDD4AB" mask="url(#mask-20)"></path>
                    </g>
                    <g id="Group-256">
                        <mask id="mask-22" fill="white">
                            <use xlink:href="#path-21"></use>
                        </mask>
                        <g id="Clip-255"></g>
                        <path d="M11.8248,107.9765 L10.8298,107.8745 C10.8628,107.5535 14.0738,75.6595 9.5498,69.8025 L10.3408,69.1915 C15.1078,75.3615 11.9608,106.6485 11.8248,107.9765" id="Fill-254" fill="#FDD4AB" mask="url(#mask-22)"></path>
                    </g>
                    <g id="Group-259">
                        <mask id="mask-24" fill="white">
                            <use xlink:href="#path-23"></use>
                        </mask>
                        <g id="Clip-258"></g>
                        <path d="M12.7095,84.4267 C12.7095,84.4267 9.6685,84.1507 8.8385,79.1737 C8.0095,74.1977 6.3505,65.9037 2.7565,63.9687 C-0.8375,62.0327 -2.4965,56.5037 3.8625,54.8447 C10.2215,53.1867 9.3915,57.8857 11.3275,60.9267 C13.2625,63.9687 16.0265,70.6037 15.7505,75.3037 C15.4745,80.0027 14.3685,84.4267 12.7095,84.4267" id="Fill-257" fill="#FDE3CA" mask="url(#mask-24)"></path>
                    </g>
                    <g id="Group-262">
                        <mask id="mask-26" fill="white">
                            <use xlink:href="#path-25"></use>
                        </mask>
                        <g id="Clip-261"></g>
                        <path d="M9.3355,109.3652 L8.3425,109.2502 C8.3515,109.1752 9.1805,101.7312 6.6775,98.7832 C6.0635,98.0592 5.3155,97.6862 4.3915,97.6422 L4.4395,96.6442 C5.6385,96.7012 6.6485,97.2032 7.4405,98.1362 C10.2235,101.4162 9.3735,109.0422 9.3355,109.3652" id="Fill-260" fill="#FDD4AB" mask="url(#mask-26)"></path>
                    </g>
                    <g id="Group-265">
                        <mask id="mask-28" fill="white">
                            <use xlink:href="#path-27"></use>
                        </mask>
                        <g id="Clip-264"></g>
                        <path d="M6.9039,98.5263 C6.9039,98.5263 -1.9431,100.4613 -5.2611,96.8673 C-8.5781,93.2733 -9.9601,86.9153 -4.4311,88.5733 C1.0979,90.2323 1.9269,86.3613 4.6919,90.7853 C7.4569,95.2093 9.6689,96.8673 6.9039,98.5263" id="Fill-263" fill="#FDD4AB" mask="url(#mask-28)"></path>
                    </g>
                </g>
                <path d="M417.1451,156.2568 C417.1451,156.2568 438.4781,157.5898 438.4781,138.9228 C438.4781,124.5898 442.4781,162.5898 442.4781,162.5898 L423.1451,162.5898 L417.1451,156.2568 Z" id="Fill-267" fill="#FFFFFF"></path>
            </g>
        </g>
    </g>
</svg>